M48
METRIC,TZ
T1C0.200
T2C0.300
T3C0.600
T4C1.000
%
G90
G05
T1
X100Y-4370
X100Y-5770
X800Y-3670
X800Y-5070
X800Y-6470
X1500Y-4370
X1500Y-5770
X2200Y-3670
X2200Y-5070
X2200Y-6470
X2900Y-4370
X2900Y-5770
X4960Y-9900
X6060Y-9900
T2
X-13980Y8180
X-13980Y6630
X-13905Y-6970
X-12830Y-9620
X-9980Y4100
X-9760Y7230
X-7440Y290
X-7390Y-2250
X-7350Y8180
X-7310Y-12410
X-7110Y-6970
X-7100Y-8160
X-5680Y-3520
X-4640Y2276
X-4640Y-1164
X-1000Y-15150
X-610Y12660
X-570Y10750
X549Y1300
X550Y460
X560Y2110
X1000Y-15150
X1600Y0
X3940Y10750
X5715Y6710
X6370Y-2740
X7030Y14095
X7120Y-4790
X7120Y-6060
X8022Y12303
X9770Y12420
X10210Y-12410
X10610Y9510
X10830Y-5010
X11546Y8585
X11860Y-9590
X11860Y-11140
X12430Y960
X12440Y7630
X12440Y-3540
X12540Y3740
T3
X-3020Y-15680
X-3010Y-14627
X-2340Y15155
X-2340Y8930
X1760Y-8290
X2990Y-15660
X3000Y-14630
X3380Y-11830
X4560Y-230
X6225Y-13440
X6850Y7100
T4
X-6750Y13875
X-6750Y11335
T0
M30
