%TF.GenerationSoftware,KiCad,Pcbnew,7.0.6*%
%TF.CreationDate,2023-09-26T22:04:44+02:00*%
%TF.ProjectId,torque_controller,746f7271-7565-45f6-936f-6e74726f6c6c,rev?*%
%TF.SameCoordinates,Original*%
%TF.FileFunction,Copper,L1,Top*%
%TF.FilePolarity,Positive*%
%FSLAX46Y46*%
G04 Gerber Fmt 4.6, Leading zero omitted, Abs format (unit mm)*
G04 Created by KiCad (PCBNEW 7.0.6) date 2023-09-26 22:04:44*
%MOMM*%
%LPD*%
G01*
G04 APERTURE LIST*
G04 Aperture macros list*
%AMRoundRect*
0 Rectangle with rounded corners*
0 $1 Rounding radius*
0 $2 $3 $4 $5 $6 $7 $8 $9 X,Y pos of 4 corners*
0 Add a 4 corners polygon primitive as box body*
4,1,4,$2,$3,$4,$5,$6,$7,$8,$9,$2,$3,0*
0 Add four circle primitives for the rounded corners*
1,1,$1+$1,$2,$3*
1,1,$1+$1,$4,$5*
1,1,$1+$1,$6,$7*
1,1,$1+$1,$8,$9*
0 Add four rect primitives between the rounded corners*
20,1,$1+$1,$2,$3,$4,$5,0*
20,1,$1+$1,$4,$5,$6,$7,0*
20,1,$1+$1,$6,$7,$8,$9,0*
20,1,$1+$1,$8,$9,$2,$3,0*%
G04 Aperture macros list end*
%TA.AperFunction,SMDPad,CuDef*%
%ADD10RoundRect,0.200000X0.275000X-0.200000X0.275000X0.200000X-0.275000X0.200000X-0.275000X-0.200000X0*%
%TD*%
%TA.AperFunction,SMDPad,CuDef*%
%ADD11R,1.000000X1.250000*%
%TD*%
%TA.AperFunction,SMDPad,CuDef*%
%ADD12RoundRect,0.200000X-0.275000X0.200000X-0.275000X-0.200000X0.275000X-0.200000X0.275000X0.200000X0*%
%TD*%
%TA.AperFunction,SMDPad,CuDef*%
%ADD13RoundRect,0.225000X0.250000X-0.225000X0.250000X0.225000X-0.250000X0.225000X-0.250000X-0.225000X0*%
%TD*%
%TA.AperFunction,SMDPad,CuDef*%
%ADD14R,1.500000X0.900000*%
%TD*%
%TA.AperFunction,SMDPad,CuDef*%
%ADD15R,0.900000X1.500000*%
%TD*%
%TA.AperFunction,SMDPad,CuDef*%
%ADD16R,0.900000X0.900000*%
%TD*%
%TA.AperFunction,HeatsinkPad*%
%ADD17C,0.600000*%
%TD*%
%TA.AperFunction,SMDPad,CuDef*%
%ADD18R,3.800000X3.800000*%
%TD*%
%TA.AperFunction,SMDPad,CuDef*%
%ADD19R,0.890000X2.030000*%
%TD*%
%TA.AperFunction,SMDPad,CuDef*%
%ADD20RoundRect,0.225000X-0.250000X0.225000X-0.250000X-0.225000X0.250000X-0.225000X0.250000X0.225000X0*%
%TD*%
%TA.AperFunction,ComponentPad*%
%ADD21R,1.700000X1.700000*%
%TD*%
%TA.AperFunction,ComponentPad*%
%ADD22O,1.700000X1.700000*%
%TD*%
%TA.AperFunction,SMDPad,CuDef*%
%ADD23RoundRect,0.200000X-0.200000X-0.275000X0.200000X-0.275000X0.200000X0.275000X-0.200000X0.275000X0*%
%TD*%
%TA.AperFunction,SMDPad,CuDef*%
%ADD24RoundRect,0.218750X0.218750X0.256250X-0.218750X0.256250X-0.218750X-0.256250X0.218750X-0.256250X0*%
%TD*%
%TA.AperFunction,ComponentPad*%
%ADD25C,0.500000*%
%TD*%
%TA.AperFunction,SMDPad,CuDef*%
%ADD26R,1.600000X0.500000*%
%TD*%
%TA.AperFunction,ViaPad*%
%ADD27C,0.500000*%
%TD*%
%TA.AperFunction,ViaPad*%
%ADD28C,1.000000*%
%TD*%
%TA.AperFunction,Conductor*%
%ADD29C,1.000000*%
%TD*%
%TA.AperFunction,Conductor*%
%ADD30C,0.200000*%
%TD*%
%TA.AperFunction,Conductor*%
%ADD31C,0.300000*%
%TD*%
%TA.AperFunction,Conductor*%
%ADD32C,1.500000*%
%TD*%
%TA.AperFunction,Conductor*%
%ADD33C,0.450000*%
%TD*%
%TA.AperFunction,Conductor*%
%ADD34C,0.250000*%
%TD*%
%ADD35C,0.300000*%
%ADD36C,0.350000*%
%ADD37C,0.200000*%
G04 APERTURE END LIST*
D10*
%TO.P,R3,1*%
%TO.N,Net-(D1-K)*%
X3940500Y12475000D03*
%TO.P,R3,2*%
%TO.N,+3.3V*%
X3940500Y14125000D03*
%TD*%
%TO.P,R1,2*%
%TO.N,+3.3V*%
X1102500Y14095000D03*
%TO.P,R1,1*%
%TO.N,Net-(D1-A)*%
X1102500Y12445000D03*
%TD*%
D11*
%TO.P,SWRST1,1,1*%
%TO.N,/NRST*%
X12540000Y-5245000D03*
%TO.P,SWRST1,2,2*%
%TO.N,GND*%
X12540000Y2505000D03*
%TD*%
D12*
%TO.P,RRST1,1*%
%TO.N,+3.3V*%
X10830000Y-6045000D03*
%TO.P,RRST1,2*%
%TO.N,/NRST*%
X10830000Y-7695000D03*
%TD*%
D13*
%TO.P,C1,2*%
%TO.N,+3.3V*%
X5770000Y14065000D03*
%TO.P,C1,1*%
%TO.N,GND*%
X5770000Y12515000D03*
%TD*%
D14*
%TO.P,ESP32,1,GND*%
%TO.N,GND*%
X8750000Y-12410000D03*
%TO.P,ESP32,2,VDD*%
%TO.N,+3.3V*%
X8750000Y-11140000D03*
%TO.P,ESP32,3,EN*%
%TO.N,/NRST*%
X8750000Y-9870000D03*
%TO.P,ESP32,4,SENSOR_VP*%
%TO.N,unconnected-(ESP32-SENSOR_VP-Pad4)*%
X8750000Y-8600000D03*
%TO.P,ESP32,5,SENSOR_VN*%
%TO.N,unconnected-(ESP32-SENSOR_VN-Pad5)*%
X8750000Y-7330000D03*
%TO.P,ESP32,6,IO34*%
%TO.N,/CURR_SENS1*%
X8750000Y-6060000D03*
%TO.P,ESP32,7,IO35*%
%TO.N,/CURR_SENS2*%
X8750000Y-4790000D03*
%TO.P,ESP32,8,IO32*%
%TO.N,unconnected-(ESP32-IO32-Pad8)*%
X8750000Y-3520000D03*
%TO.P,ESP32,9,IO33*%
%TO.N,/EN_DRV*%
X8750000Y-2250000D03*
%TO.P,ESP32,10,IO25*%
%TO.N,/PWM_OUT3*%
X8750000Y-980000D03*
%TO.P,ESP32,11,IO26*%
%TO.N,/PWM_OUT2*%
X8750000Y290000D03*
%TO.P,ESP32,12,IO27*%
%TO.N,/PWM_OUT1*%
X8750000Y1560000D03*
%TO.P,ESP32,13,IO14*%
%TO.N,unconnected-(ESP32-IO14-Pad13)*%
X8750000Y2830000D03*
%TO.P,ESP32,14,IO12*%
%TO.N,unconnected-(ESP32-IO12-Pad14)*%
X8750000Y4100000D03*
D15*
%TO.P,ESP32,15,GND*%
%TO.N,GND*%
X5715000Y5350000D03*
%TO.P,ESP32,16,IO13*%
%TO.N,unconnected-(ESP32-IO13-Pad16)*%
X4445000Y5350000D03*
%TO.P,ESP32,17,SHD/SD2*%
%TO.N,unconnected-(ESP32-SHD{slash}SD2-Pad17)*%
X3175000Y5350000D03*
%TO.P,ESP32,18,SWP/SD3*%
%TO.N,unconnected-(ESP32-SWP{slash}SD3-Pad18)*%
X1905000Y5350000D03*
%TO.P,ESP32,19,SCS/CMD*%
%TO.N,unconnected-(ESP32-SCS{slash}CMD-Pad19)*%
X635000Y5350000D03*
%TO.P,ESP32,20,SCK/CLK*%
%TO.N,unconnected-(ESP32-SCK{slash}CLK-Pad20)*%
X-635000Y5350000D03*
%TO.P,ESP32,21,SDO/SD0*%
%TO.N,unconnected-(ESP32-SDO{slash}SD0-Pad21)*%
X-1905000Y5350000D03*
%TO.P,ESP32,22,SDI/SD1*%
%TO.N,unconnected-(ESP32-SDI{slash}SD1-Pad22)*%
X-3175000Y5350000D03*
%TO.P,ESP32,23,IO15*%
%TO.N,unconnected-(ESP32-IO15-Pad23)*%
X-4445000Y5350000D03*
%TO.P,ESP32,24,IO2*%
%TO.N,unconnected-(ESP32-IO2-Pad24)*%
X-5715000Y5350000D03*
D14*
%TO.P,ESP32,25,IO0*%
%TO.N,/BOOT*%
X-8750000Y4100000D03*
%TO.P,ESP32,26,IO4*%
%TO.N,unconnected-(ESP32-IO4-Pad26)*%
X-8750000Y2830000D03*
%TO.P,ESP32,27,IO16*%
%TO.N,unconnected-(ESP32-IO16-Pad27)*%
X-8750000Y1560000D03*
%TO.P,ESP32,28,IO17*%
%TO.N,/CS*%
X-8750000Y290000D03*
%TO.P,ESP32,29,IO5*%
%TO.N,unconnected-(ESP32-IO5-Pad29)*%
X-8750000Y-980000D03*
%TO.P,ESP32,30,IO18*%
%TO.N,/CLK*%
X-8750000Y-2250000D03*
%TO.P,ESP32,31,IO19*%
%TO.N,/MISO*%
X-8750000Y-3520000D03*
%TO.P,ESP32,32,NC*%
%TO.N,unconnected-(ESP32-NC-Pad32)*%
X-8750000Y-4790000D03*
%TO.P,ESP32,33,IO21*%
%TO.N,/SDA*%
X-8750000Y-6060000D03*
%TO.P,ESP32,34,RXD0/IO3*%
%TO.N,/RX*%
X-8750000Y-7330000D03*
%TO.P,ESP32,35,TXD0/IO1*%
%TO.N,/TX*%
X-8750000Y-8600000D03*
%TO.P,ESP32,36,IO22*%
%TO.N,/SCL*%
X-8750000Y-9870000D03*
%TO.P,ESP32,37,IO23*%
%TO.N,unconnected-(ESP32-IO23-Pad37)*%
X-8750000Y-11140000D03*
%TO.P,ESP32,38,GND*%
%TO.N,GND*%
X-8750000Y-12410000D03*
D16*
%TO.P,ESP32,39,GND*%
X2900000Y-6470000D03*
D17*
X2900000Y-5770000D03*
D16*
X2900000Y-5070000D03*
D17*
X2900000Y-4370000D03*
D16*
X2900000Y-3670000D03*
D17*
X2200000Y-6470000D03*
X2200000Y-5070000D03*
X2200000Y-3670000D03*
D16*
X1500000Y-6470000D03*
D17*
X1500000Y-5770000D03*
D16*
X1500000Y-5070000D03*
D18*
X1500000Y-5070000D03*
D17*
X1500000Y-4370000D03*
D16*
X1500000Y-3670000D03*
D17*
X800000Y-6470000D03*
X800000Y-5070000D03*
X800000Y-3670000D03*
D16*
X100000Y-6470000D03*
D17*
X100000Y-5770000D03*
D16*
X100000Y-5070000D03*
D17*
X100000Y-4370000D03*
D16*
X100000Y-3670000D03*
%TD*%
D19*
%TO.P,J1,1,Pin_1*%
%TO.N,VCC*%
X3000000Y-15150000D03*
%TO.P,J1,2,Pin_2*%
%TO.N,/SDA*%
X1000000Y-15150000D03*
%TO.P,J1,3,Pin_3*%
%TO.N,/SCL*%
X-1000000Y-15150000D03*
%TO.P,J1,4,Pin_4*%
%TO.N,GND*%
X-3000000Y-15150000D03*
%TD*%
D20*
%TO.P,CESP32,1*%
%TO.N,GND*%
X10830000Y-9590000D03*
%TO.P,CESP32,2*%
%TO.N,+3.3V*%
X10830000Y-11140000D03*
%TD*%
D21*
%TO.P,J3,1,Pin_1*%
%TO.N,/TX*%
X-6750000Y13875000D03*
D22*
%TO.P,J3,2,Pin_2*%
%TO.N,/RX*%
X-6750000Y11335000D03*
%TD*%
D23*
%TO.P,R2,1*%
%TO.N,Net-(D2-A)*%
X-3234997Y12660006D03*
%TO.P,R2,2*%
%TO.N,+3.3V*%
X-1584997Y12660006D03*
%TD*%
D24*
%TO.P,D2,1,K*%
%TO.N,GND*%
X-1662500Y10750000D03*
%TO.P,D2,2,A*%
%TO.N,Net-(D2-A)*%
X-3237500Y10750000D03*
%TD*%
%TO.P,D1,1,K*%
%TO.N,Net-(D1-K)*%
X2677500Y10750000D03*
%TO.P,D1,2,A*%
%TO.N,Net-(D1-A)*%
X1102500Y10750000D03*
%TD*%
D25*
%TO.P,U1,7,PAD*%
%TO.N,GND*%
X4960000Y-9900276D03*
D26*
X5510000Y-9900276D03*
D25*
X6060000Y-9900276D03*
%TD*%
D27*
%TO.N,+3.3V*%
X7030000Y14095000D03*
%TO.N,Net-(D1-K)*%
X3940500Y10750000D03*
%TO.N,/CURR_SENS1*%
X-7110000Y-6970000D03*
%TO.N,+3.3V*%
X-13905000Y-6970000D03*
X11860000Y-11140000D03*
X10830000Y-5010000D03*
%TO.N,GND*%
X11860000Y-9590000D03*
X10210000Y-12410000D03*
X-13980000Y6630000D03*
X-7100000Y-8160000D03*
%TO.N,+3.3V*%
X-609995Y12660008D03*
%TO.N,GND*%
X-570004Y10750002D03*
X5715000Y6710000D03*
D28*
X6850000Y7100000D03*
D27*
X12440000Y-3540000D03*
X12540000Y3740000D03*
X-9760000Y7230000D03*
X-12830000Y-9620000D03*
X-4640000Y2275500D03*
D28*
X3380000Y-11830000D03*
X-2340000Y15155000D03*
X-3020000Y-15680000D03*
D27*
X-7310000Y-12410000D03*
D28*
X-3010000Y-14627247D03*
D27*
%TO.N,+3.3V*%
X-4640000Y-1163650D03*
X-13980000Y8180000D03*
D28*
X6225000Y-13440000D03*
D27*
X12430000Y960000D03*
X1600000Y0D03*
D28*
%TO.N,VCC*%
X1760000Y-8290000D03*
X-2340000Y8930000D03*
X4560000Y-230000D03*
X2990000Y-15660000D03*
X3000000Y-14630000D03*
D27*
%TO.N,/EN_DRV*%
X9770000Y12420000D03*
%TO.N,/BOOT*%
X-9980000Y4100000D03*
X6370000Y-2740000D03*
%TO.N,/CURR_SENS1*%
X7120000Y-6060000D03*
%TO.N,/CURR_SENS2*%
X7120000Y-4790000D03*
X-7350000Y8180000D03*
%TO.N,/PWM_OUT1*%
X12440000Y7630000D03*
%TO.N,/PWM_OUT2*%
X11545603Y8585103D03*
%TO.N,/PWM_OUT3*%
X10610000Y9510000D03*
%TO.N,/CS*%
X560000Y2110000D03*
X-7440000Y290000D03*
%TO.N,/CLK*%
X548736Y1300000D03*
X-7390000Y-2250000D03*
%TO.N,/MISO*%
X550000Y460000D03*
X-5680000Y-3520000D03*
%TO.N,/SDA*%
X1000000Y-15150000D03*
%TO.N,Net-(D1-K)*%
X8021653Y12302508D03*
%TO.N,/SCL*%
X-1000000Y-15150000D03*
%TD*%
D29*
%TO.N,VCC*%
X-1210000Y-1690000D02*
X-3280000Y-3760000D01*
X2990000Y-230000D02*
X1530000Y-1690000D01*
X1530000Y-1690000D02*
X-1210000Y-1690000D01*
X4560000Y-230000D02*
X2990000Y-230000D01*
D30*
%TO.N,Net-(D1-K)*%
X3940500Y12475000D02*
X3940500Y10750000D01*
%TO.N,GND*%
X5770000Y8180000D02*
X6850000Y7100000D01*
X5770000Y12515000D02*
X5770000Y8180000D01*
D31*
%TO.N,+3.3V*%
X7030000Y14095000D02*
X1020000Y14095000D01*
%TO.N,Net-(D1-K)*%
X2677500Y10750000D02*
X3940500Y10750000D01*
%TO.N,Net-(D1-A)*%
X1102500Y12445000D02*
X1102500Y10750000D01*
D30*
%TO.N,/NRST*%
X9700000Y-9870000D02*
X8750000Y-9870000D01*
X9930000Y-9640000D02*
X9700000Y-9870000D01*
X10155000Y-7695000D02*
X9930000Y-7920000D01*
X10830000Y-7695000D02*
X10155000Y-7695000D01*
X9930000Y-7920000D02*
X9930000Y-9640000D01*
D32*
%TO.N,VCC*%
X-2190000Y-5310000D02*
X-2190000Y-8680000D01*
X-6060000Y-1440000D02*
X-2190000Y-5310000D01*
X-6060000Y2860000D02*
X-6060000Y-1440000D01*
X-6070000Y2870000D02*
X-6060000Y2860000D01*
D33*
%TO.N,+3.3V*%
X10830000Y-11140000D02*
X11860000Y-11140000D01*
D30*
%TO.N,/NRST*%
X12125000Y-7695000D02*
X10830000Y-7695000D01*
X12540000Y-7280000D02*
X12125000Y-7695000D01*
X12540000Y-5245000D02*
X12540000Y-7280000D01*
%TO.N,+3.3V*%
X10830000Y-6045000D02*
X10830000Y-5010000D01*
D33*
%TO.N,GND*%
X10830000Y-9590000D02*
X11860000Y-9590000D01*
X8750000Y-12410000D02*
X10210000Y-12410000D01*
%TO.N,+3.3V*%
X10830000Y-11140000D02*
X8750000Y-11140000D01*
D29*
%TO.N,VCC*%
X-6985186Y3785186D02*
X-6070000Y2870000D01*
X-4760000Y8930000D02*
X-6985186Y6704814D01*
X-6985186Y6704814D02*
X-6985186Y3785186D01*
X-2340000Y8930000D02*
X-4760000Y8930000D01*
D31*
%TO.N,+3.3V*%
X-1584997Y12659991D02*
X-609995Y12660008D01*
%TO.N,GND*%
X-1662495Y10749993D02*
X-570004Y10750002D01*
D30*
%TO.N,Net-(D2-A)*%
X-3234997Y10752497D02*
X-3237491Y10749998D01*
D31*
X-3234984Y12660006D02*
X-3234997Y10752497D01*
D30*
%TO.N,/EN_DRV*%
X6890000Y5054034D02*
X6890000Y-1170000D01*
X8995000Y7159036D02*
X6890000Y5054034D01*
X9770000Y12420000D02*
X8995000Y11645000D01*
X8995000Y11645000D02*
X8995000Y7159036D01*
X6890000Y-1170000D02*
X7970000Y-2250000D01*
X7970000Y-2250000D02*
X8750000Y-2250000D01*
%TO.N,GND*%
X12540000Y3740000D02*
X12540000Y2505000D01*
D31*
X-7310000Y-12410000D02*
X-8750000Y-12410000D01*
X5715000Y6710000D02*
X5715000Y5350000D01*
D32*
%TO.N,VCC*%
X2990000Y-13860000D02*
X2990000Y-15660000D01*
D29*
X1760000Y-8290000D02*
X-1800000Y-8290000D01*
D32*
X-2190000Y-8680000D02*
X2990000Y-13860000D01*
D29*
X-1800000Y-8290000D02*
X-2190000Y-8680000D01*
D30*
%TO.N,/TX*%
X-11480000Y-8000000D02*
X-10880000Y-8600000D01*
X-7171345Y13875000D02*
X-11480000Y9566345D01*
X-10880000Y-8600000D02*
X-8750000Y-8600000D01*
X-6750000Y13875000D02*
X-7171345Y13875000D01*
X-11480000Y9566345D02*
X-11480000Y-8000000D01*
%TO.N,/RX*%
X-11080000Y-7010000D02*
X-11080000Y9400659D01*
X-10760000Y-7330000D02*
X-11080000Y-7010000D01*
X-9145659Y11335000D02*
X-6750000Y11335000D01*
X-8750000Y-7330000D02*
X-10760000Y-7330000D01*
X-11080000Y9400659D02*
X-9145659Y11335000D01*
%TO.N,/BOOT*%
X-8750000Y4100000D02*
X-9980000Y4100000D01*
D34*
%TO.N,/CURR_SENS1*%
X7120000Y-6060000D02*
X8750000Y-6060000D01*
%TO.N,/CURR_SENS2*%
X7120000Y-4790000D02*
X8750000Y-4790000D01*
D30*
%TO.N,/PWM_OUT1*%
X10070000Y5260000D02*
X10070000Y2350000D01*
X10070000Y2350000D02*
X9280000Y1560000D01*
X9280000Y1560000D02*
X8750000Y1560000D01*
X12440000Y7630000D02*
X10070000Y5260000D01*
%TO.N,/PWM_OUT2*%
X11545603Y8585103D02*
X11545603Y8578267D01*
X7690000Y550000D02*
X7950000Y290000D01*
X7950000Y290000D02*
X8750000Y290000D01*
X11545603Y8578267D02*
X7690000Y4722664D01*
X7690000Y4722664D02*
X7690000Y550000D01*
%TO.N,/PWM_OUT3*%
X7960000Y-980000D02*
X8750000Y-980000D01*
X7290000Y-310000D02*
X7960000Y-980000D01*
X10610000Y9510000D02*
X10610000Y8208350D01*
X7290000Y4888349D02*
X7290000Y-310000D01*
X10610000Y8208350D02*
X7290000Y4888349D01*
%TO.N,/CS*%
X-7440000Y290000D02*
X-8750000Y290000D01*
%TO.N,/CLK*%
X-7390000Y-2250000D02*
X-8750000Y-2250000D01*
%TO.N,/MISO*%
X-5680000Y-3520000D02*
X-8750000Y-3520000D01*
%TO.N,/SDA*%
X1000000Y-13790000D02*
X-6730000Y-6060000D01*
X-6730000Y-6060000D02*
X-8750000Y-6060000D01*
X1000000Y-15150000D02*
X1000000Y-13790000D01*
%TO.N,/SCL*%
X-1000000Y-15150000D02*
X-1000000Y-13790000D01*
X-1000000Y-13790000D02*
X-4920000Y-9870000D01*
X-4920000Y-9870000D02*
X-8750000Y-9870000D01*
%TD*%
%TA.AperFunction,Conductor*%
%TO.N,Net-(D1-K)*%
G36*
X4037704Y11246573D02*
G01*
X4041113Y11238948D01*
X4046313Y11145196D01*
X4063179Y11072418D01*
X4090237Y11011608D01*
X4126548Y10942849D01*
X4126686Y10942571D01*
X4166379Y10856688D01*
X4166739Y10847740D01*
X4160667Y10841158D01*
X4160275Y10840986D01*
X3945017Y10750891D01*
X3936063Y10750858D01*
X3935983Y10750891D01*
X3720724Y10840986D01*
X3714415Y10847342D01*
X3714448Y10856296D01*
X3714620Y10856687D01*
X3754312Y10942571D01*
X3754450Y10942849D01*
X3790762Y11011608D01*
X3817819Y11072418D01*
X3834685Y11145196D01*
X3839887Y11238948D01*
X3843767Y11247019D01*
X3851569Y11250000D01*
X4029431Y11250000D01*
X4037704Y11246573D01*
G37*
%TD.AperFunction*%
%TD*%
%TA.AperFunction,Conductor*%
%TO.N,Net-(D1-K)*%
G36*
X3948247Y12469156D02*
G01*
X4330946Y12131048D01*
X4334877Y12123002D01*
X4331967Y12114533D01*
X4331271Y12113811D01*
X4280502Y12065420D01*
X4280495Y12065413D01*
X4220515Y11992081D01*
X4220497Y11992057D01*
X4160499Y11902539D01*
X4100499Y11796852D01*
X4043716Y11681532D01*
X4036986Y11675623D01*
X4033219Y11675000D01*
X3847781Y11675000D01*
X3839508Y11678427D01*
X3837284Y11681532D01*
X3780501Y11796852D01*
X3720501Y11902539D01*
X3660502Y11992057D01*
X3660484Y11992081D01*
X3600504Y12065413D01*
X3600497Y12065420D01*
X3549728Y12113811D01*
X3546103Y12121999D01*
X3549331Y12130352D01*
X3550053Y12131048D01*
X3932753Y12469156D01*
X3941222Y12472066D01*
X3948247Y12469156D01*
G37*
%TD.AperFunction*%
%TD*%
%TA.AperFunction,Conductor*%
%TO.N,GND*%
G36*
X6221800Y7871104D02*
G01*
X6380678Y7740962D01*
X6380681Y7740960D01*
X6522421Y7680134D01*
X6522420Y7680134D01*
X6663389Y7656151D01*
X6827303Y7629957D01*
X6829007Y7629552D01*
X7029232Y7565796D01*
X7036075Y7560021D01*
X7036830Y7551098D01*
X7036500Y7550191D01*
X6852563Y7103798D01*
X6846242Y7097454D01*
X6846202Y7097437D01*
X6399809Y6913500D01*
X6390855Y6913517D01*
X6384534Y6919861D01*
X6384204Y6920768D01*
X6320448Y7120993D01*
X6320043Y7122697D01*
X6293849Y7286611D01*
X6269866Y7427580D01*
X6209040Y7569319D01*
X6209038Y7569322D01*
X6078896Y7728200D01*
X6076304Y7736772D01*
X6079674Y7743887D01*
X6206113Y7870326D01*
X6214386Y7873753D01*
X6221800Y7871104D01*
G37*
%TD.AperFunction*%
%TD*%
%TA.AperFunction,Conductor*%
%TO.N,GND*%
G36*
X5776834Y12511081D02*
G01*
X6209208Y12199882D01*
X6213921Y12192268D01*
X6211869Y12183551D01*
X6210922Y12182399D01*
X6150005Y12117198D01*
X6149996Y12117187D01*
X6079993Y12022007D01*
X6009998Y11906589D01*
X5939998Y11770917D01*
X5939999Y11770918D01*
X5873101Y11621908D01*
X5866586Y11615764D01*
X5862427Y11615000D01*
X5677573Y11615000D01*
X5669300Y11618427D01*
X5666899Y11621908D01*
X5600000Y11770918D01*
X5600001Y11770917D01*
X5530001Y11906589D01*
X5460004Y12022007D01*
X5390001Y12117187D01*
X5389992Y12117198D01*
X5329076Y12182399D01*
X5325932Y12190783D01*
X5329638Y12198935D01*
X5330790Y12199882D01*
X5763164Y12511081D01*
X5771881Y12513133D01*
X5776834Y12511081D01*
G37*
%TD.AperFunction*%
%TD*%
%TA.AperFunction,Conductor*%
%TO.N,+3.3V*%
G36*
X6932559Y14321554D02*
G01*
X6938797Y14315294D01*
X7029109Y14099517D01*
X7029142Y14090563D01*
X7029109Y14090483D01*
X6938797Y13874707D01*
X6932441Y13868398D01*
X6923604Y13868383D01*
X6838927Y13902750D01*
X6769108Y13926615D01*
X6769099Y13926617D01*
X6706531Y13939223D01*
X6632934Y13944154D01*
X6541604Y13944905D01*
X6533359Y13948400D01*
X6530000Y13956605D01*
X6530000Y14233396D01*
X6533427Y14241669D01*
X6541604Y14245096D01*
X6632934Y14245847D01*
X6706533Y14250779D01*
X6706548Y14250781D01*
X6769084Y14263382D01*
X6769108Y14263388D01*
X6838921Y14287250D01*
X6838920Y14287250D01*
X6923604Y14321618D01*
X6932559Y14321554D01*
G37*
%TD.AperFunction*%
%TD*%
%TA.AperFunction,Conductor*%
%TO.N,+3.3V*%
G36*
X1462499Y14473556D02*
G01*
X1558726Y14402823D01*
X1663418Y14340869D01*
X1663427Y14340864D01*
X1768107Y14293914D01*
X1872803Y14261958D01*
X1872814Y14261955D01*
X1967671Y14246591D01*
X1975289Y14241886D01*
X1977500Y14235042D01*
X1977500Y13954958D01*
X1974073Y13946685D01*
X1967670Y13943408D01*
X1872803Y13928044D01*
X1768107Y13896088D01*
X1663427Y13849138D01*
X1663418Y13849133D01*
X1558726Y13787179D01*
X1462499Y13716445D01*
X1453803Y13714306D01*
X1446942Y13717968D01*
X1108741Y14087096D01*
X1105679Y14095511D01*
X1108741Y14102904D01*
X1446942Y14472033D01*
X1455058Y14475818D01*
X1462499Y14473556D01*
G37*
%TD.AperFunction*%
%TD*%
%TA.AperFunction,Conductor*%
%TO.N,Net-(D1-K)*%
G36*
X3843059Y10976554D02*
G01*
X3849297Y10970294D01*
X3939609Y10754517D01*
X3939642Y10745563D01*
X3939609Y10745483D01*
X3849297Y10529707D01*
X3842941Y10523398D01*
X3834104Y10523383D01*
X3749427Y10557750D01*
X3679608Y10581615D01*
X3679599Y10581617D01*
X3617031Y10594223D01*
X3543434Y10599154D01*
X3452104Y10599905D01*
X3443859Y10603400D01*
X3440500Y10611605D01*
X3440500Y10888396D01*
X3443927Y10896669D01*
X3452104Y10900096D01*
X3543434Y10900847D01*
X3617033Y10905779D01*
X3617048Y10905781D01*
X3679584Y10918382D01*
X3679608Y10918388D01*
X3749421Y10942250D01*
X3749420Y10942250D01*
X3834104Y10976618D01*
X3843059Y10976554D01*
G37*
%TD.AperFunction*%
%TD*%
%TA.AperFunction,Conductor*%
%TO.N,Net-(D1-K)*%
G36*
X3020083Y11179902D02*
G01*
X3020550Y11179525D01*
X3119437Y11095497D01*
X3227698Y11020751D01*
X3335963Y10963252D01*
X3444230Y10923002D01*
X3543231Y10901970D01*
X3550612Y10896898D01*
X3552500Y10890525D01*
X3552500Y10609476D01*
X3549073Y10601203D01*
X3543231Y10598031D01*
X3444230Y10577000D01*
X3335963Y10536750D01*
X3227698Y10479251D01*
X3119437Y10404505D01*
X3020550Y10320476D01*
X3012027Y10317730D01*
X3004058Y10321816D01*
X3003681Y10322283D01*
X2681938Y10742891D01*
X2679633Y10751545D01*
X2681938Y10757109D01*
X3003681Y11177718D01*
X3011429Y11182207D01*
X3020083Y11179902D01*
G37*
%TD.AperFunction*%
%TD*%
%TA.AperFunction,Conductor*%
%TO.N,Net-(D1-A)*%
G36*
X1110247Y12439156D02*
G01*
X1493947Y12100163D01*
X1497878Y12092117D01*
X1495159Y12083870D01*
X1452502Y12033089D01*
X1402503Y11958571D01*
X1352498Y11869041D01*
X1302504Y11764532D01*
X1255506Y11652185D01*
X1249151Y11645875D01*
X1244712Y11645000D01*
X960288Y11645000D01*
X952015Y11648427D01*
X949494Y11652185D01*
X902495Y11764532D01*
X852501Y11869041D01*
X802496Y11958571D01*
X752496Y12033089D01*
X709839Y12083870D01*
X707142Y12092408D01*
X711051Y12100163D01*
X1094753Y12439156D01*
X1103222Y12442066D01*
X1110247Y12439156D01*
G37*
%TD.AperFunction*%
%TD*%
%TA.AperFunction,Conductor*%
%TO.N,Net-(D1-A)*%
G36*
X1252577Y11659073D02*
G01*
X1255300Y11654797D01*
X1306669Y11513493D01*
X1360834Y11381745D01*
X1415012Y11267222D01*
X1415012Y11267223D01*
X1469179Y11169970D01*
X1469179Y11169969D01*
X1517328Y11098853D01*
X1519129Y11090082D01*
X1515005Y11083203D01*
X1109865Y10754967D01*
X1101280Y10752422D01*
X1095135Y10754967D01*
X689993Y11083203D01*
X685722Y11091074D01*
X687670Y11098854D01*
X735820Y11169969D01*
X735820Y11169970D01*
X789987Y11267223D01*
X789987Y11267222D01*
X844165Y11381745D01*
X898330Y11513493D01*
X949700Y11654797D01*
X955747Y11661402D01*
X960696Y11662500D01*
X1244304Y11662500D01*
X1252577Y11659073D01*
G37*
%TD.AperFunction*%
%TD*%
%TA.AperFunction,Conductor*%
%TO.N,/NRST*%
G36*
X9506462Y-9426600D02*
G01*
X9561207Y-9482517D01*
X9622427Y-9534035D01*
X9683637Y-9574536D01*
X9683646Y-9574540D01*
X9744839Y-9604024D01*
X9744855Y-9604030D01*
X9803253Y-9621663D01*
X9808144Y-9624591D01*
X9936641Y-9753088D01*
X9940068Y-9761361D01*
X9936641Y-9769634D01*
X9934161Y-9771526D01*
X9857988Y-9814932D01*
X9768500Y-9884839D01*
X9768486Y-9884851D01*
X9678999Y-9973670D01*
X9678980Y-9973690D01*
X9589493Y-10081422D01*
X9505560Y-10200204D01*
X9497987Y-10204983D01*
X9491209Y-10204124D01*
X8769715Y-9879884D01*
X8763574Y-9873367D01*
X8763839Y-9864416D01*
X8768489Y-9859181D01*
X9492080Y-9424754D01*
X9500937Y-9423434D01*
X9506462Y-9426600D01*
G37*
%TD.AperFunction*%
%TD*%
%TA.AperFunction,Conductor*%
%TO.N,/NRST*%
G36*
X10417227Y-7368986D02*
G01*
X10820807Y-7686504D01*
X10825191Y-7694312D01*
X10822768Y-7702933D01*
X10822210Y-7703591D01*
X10485696Y-8071859D01*
X10477586Y-8075655D01*
X10469947Y-8073257D01*
X10399624Y-8019425D01*
X10320790Y-7971987D01*
X10241968Y-7937463D01*
X10241950Y-7937457D01*
X10163125Y-7915841D01*
X10163115Y-7915839D01*
X10088373Y-7907583D01*
X10081385Y-7904227D01*
X9954530Y-7777372D01*
X9951103Y-7769099D01*
X9954530Y-7760826D01*
X9957729Y-7758557D01*
X10035905Y-7720929D01*
X10035913Y-7720925D01*
X10128951Y-7658146D01*
X10222006Y-7577353D01*
X10222010Y-7577350D01*
X10315043Y-7478580D01*
X10400842Y-7370890D01*
X10408678Y-7366555D01*
X10417227Y-7368986D01*
G37*
%TD.AperFunction*%
%TD*%
%TA.AperFunction,Conductor*%
%TO.N,+3.3V*%
G36*
X11174940Y-10712271D02*
G01*
X11283885Y-10775702D01*
X11283888Y-10775703D01*
X11401643Y-10830767D01*
X11401667Y-10830777D01*
X11519438Y-10872348D01*
X11519458Y-10872354D01*
X11637230Y-10900427D01*
X11637229Y-10900427D01*
X11744737Y-10913730D01*
X11752527Y-10918146D01*
X11755000Y-10925341D01*
X11755000Y-11354658D01*
X11751573Y-11362931D01*
X11744737Y-11366269D01*
X11637230Y-11379571D01*
X11519458Y-11407644D01*
X11519438Y-11407650D01*
X11401667Y-11449221D01*
X11401643Y-11449231D01*
X11283888Y-11504295D01*
X11283885Y-11504296D01*
X11174940Y-11567728D01*
X11166066Y-11568929D01*
X11159822Y-11564806D01*
X10834598Y-11147189D01*
X10832218Y-11138556D01*
X10834598Y-11132811D01*
X11159822Y-10715193D01*
X11167609Y-10710771D01*
X11174940Y-10712271D01*
G37*
%TD.AperFunction*%
%TD*%
%TA.AperFunction,Conductor*%
%TO.N,/NRST*%
G36*
X11190149Y-7317850D02*
G01*
X11286226Y-7402930D01*
X11286243Y-7402943D01*
X11390914Y-7477760D01*
X11390931Y-7477770D01*
X11495602Y-7534715D01*
X11495618Y-7534723D01*
X11600305Y-7573798D01*
X11600313Y-7573800D01*
X11695621Y-7593100D01*
X11703050Y-7598100D01*
X11704999Y-7604567D01*
X11704999Y-7785431D01*
X11701572Y-7793704D01*
X11695621Y-7796898D01*
X11600313Y-7816198D01*
X11600305Y-7816200D01*
X11495618Y-7855275D01*
X11495602Y-7855283D01*
X11390931Y-7912228D01*
X11390914Y-7912238D01*
X11286243Y-7987055D01*
X11286226Y-7987068D01*
X11190149Y-8072149D01*
X11181683Y-8075069D01*
X11173765Y-8071294D01*
X10836241Y-7702904D01*
X10833179Y-7694489D01*
X10836241Y-7687096D01*
X11173765Y-7318705D01*
X11181881Y-7314920D01*
X11190149Y-7317850D01*
G37*
%TD.AperFunction*%
%TD*%
%TA.AperFunction,Conductor*%
%TO.N,/NRST*%
G36*
X12547302Y-5253605D02*
G01*
X12549142Y-5255445D01*
X13032566Y-5860692D01*
X13035051Y-5869295D01*
X13030726Y-5877136D01*
X13030561Y-5877265D01*
X12960000Y-5931580D01*
X12879997Y-6012373D01*
X12799998Y-6112373D01*
X12799997Y-6112373D01*
X12719997Y-6231585D01*
X12643378Y-6364155D01*
X12636271Y-6369603D01*
X12633248Y-6370000D01*
X12446752Y-6370000D01*
X12438479Y-6366573D01*
X12436622Y-6364155D01*
X12360003Y-6231585D01*
X12360002Y-6231585D01*
X12280002Y-6112373D01*
X12280001Y-6112373D01*
X12200001Y-6012373D01*
X12119998Y-5931580D01*
X12049438Y-5877265D01*
X12044973Y-5869503D01*
X12047304Y-5860857D01*
X12047433Y-5860692D01*
X12530858Y-5255445D01*
X12538699Y-5251120D01*
X12547302Y-5253605D01*
G37*
%TD.AperFunction*%
%TD*%
%TA.AperFunction,Conductor*%
%TO.N,+3.3V*%
G36*
X10834517Y-5010890D02*
G01*
X11049774Y-5100985D01*
X11056083Y-5107341D01*
X11056050Y-5116295D01*
X11055878Y-5116687D01*
X11016182Y-5202575D01*
X11016044Y-5202853D01*
X10979737Y-5271607D01*
X10952679Y-5332416D01*
X10935813Y-5405194D01*
X10930613Y-5498948D01*
X10926733Y-5507019D01*
X10918931Y-5510000D01*
X10741069Y-5510000D01*
X10732796Y-5506573D01*
X10729387Y-5498948D01*
X10724185Y-5405194D01*
X10707319Y-5332416D01*
X10680262Y-5271607D01*
X10643950Y-5202846D01*
X10643812Y-5202568D01*
X10604120Y-5116687D01*
X10603760Y-5107739D01*
X10609832Y-5101157D01*
X10610224Y-5100985D01*
X10825483Y-5010890D01*
X10834437Y-5010857D01*
X10834517Y-5010890D01*
G37*
%TD.AperFunction*%
%TD*%
%TA.AperFunction,Conductor*%
%TO.N,+3.3V*%
G36*
X10930992Y-5248427D02*
G01*
X10933216Y-5251532D01*
X10989998Y-5366851D01*
X11049998Y-5472538D01*
X11109996Y-5562055D01*
X11110006Y-5562068D01*
X11169997Y-5635413D01*
X11220770Y-5683809D01*
X11224394Y-5691998D01*
X11221166Y-5700351D01*
X11220444Y-5701046D01*
X10837746Y-6039155D01*
X10829277Y-6042065D01*
X10822252Y-6039155D01*
X10439553Y-5701046D01*
X10435622Y-5693000D01*
X10438532Y-5684531D01*
X10439228Y-5683809D01*
X10489996Y-5635418D01*
X10549991Y-5562068D01*
X10550001Y-5562055D01*
X10610000Y-5472538D01*
X10669992Y-5366864D01*
X10726784Y-5251531D01*
X10733513Y-5245623D01*
X10737280Y-5245000D01*
X10922719Y-5245000D01*
X10930992Y-5248427D01*
G37*
%TD.AperFunction*%
%TD*%
%TA.AperFunction,Conductor*%
%TO.N,GND*%
G36*
X11174940Y-9162271D02*
G01*
X11283885Y-9225702D01*
X11283888Y-9225703D01*
X11401643Y-9280767D01*
X11401667Y-9280777D01*
X11519438Y-9322348D01*
X11519458Y-9322354D01*
X11637230Y-9350427D01*
X11637229Y-9350427D01*
X11744737Y-9363730D01*
X11752527Y-9368146D01*
X11755000Y-9375341D01*
X11755000Y-9804658D01*
X11751573Y-9812931D01*
X11744737Y-9816269D01*
X11637230Y-9829571D01*
X11519458Y-9857644D01*
X11519438Y-9857650D01*
X11401667Y-9899221D01*
X11401643Y-9899231D01*
X11283888Y-9954295D01*
X11283885Y-9954296D01*
X11174940Y-10017728D01*
X11166066Y-10018929D01*
X11159822Y-10014806D01*
X10834598Y-9597189D01*
X10832218Y-9588556D01*
X10834598Y-9582811D01*
X11159822Y-9165193D01*
X11167609Y-9160771D01*
X11174940Y-9162271D01*
G37*
%TD.AperFunction*%
%TD*%
%TA.AperFunction,Conductor*%
%TO.N,GND*%
G36*
X9506348Y-11965078D02*
G01*
X9589998Y-12031998D01*
X9590005Y-12032004D01*
X9679989Y-12090493D01*
X9679996Y-12090497D01*
X9769999Y-12135499D01*
X9859998Y-12166999D01*
X9940594Y-12183118D01*
X9948035Y-12188101D01*
X9950000Y-12194591D01*
X9950000Y-12625408D01*
X9946573Y-12633681D01*
X9940595Y-12636881D01*
X9859997Y-12653000D01*
X9769999Y-12684500D01*
X9679996Y-12729502D01*
X9679989Y-12729506D01*
X9590005Y-12787995D01*
X9589998Y-12788001D01*
X9506348Y-12854921D01*
X9497747Y-12857413D01*
X9493025Y-12855821D01*
X8765748Y-12420036D01*
X8760413Y-12412844D01*
X8761726Y-12403986D01*
X8765748Y-12399964D01*
X9493025Y-11964178D01*
X9501883Y-11962865D01*
X9506348Y-11965078D01*
G37*
%TD.AperFunction*%
%TD*%
%TA.AperFunction,Conductor*%
%TO.N,+3.3V*%
G36*
X9506348Y-10695078D02*
G01*
X9589998Y-10761998D01*
X9590005Y-10762004D01*
X9679989Y-10820493D01*
X9679996Y-10820497D01*
X9769999Y-10865499D01*
X9859998Y-10896999D01*
X9940594Y-10913118D01*
X9948035Y-10918101D01*
X9950000Y-10924591D01*
X9950000Y-11355408D01*
X9946573Y-11363681D01*
X9940595Y-11366881D01*
X9859997Y-11383000D01*
X9769999Y-11414500D01*
X9679996Y-11459502D01*
X9679989Y-11459506D01*
X9590005Y-11517995D01*
X9589998Y-11518001D01*
X9506348Y-11584921D01*
X9497747Y-11587413D01*
X9493025Y-11585821D01*
X8765748Y-11150036D01*
X8760413Y-11142844D01*
X8761726Y-11133986D01*
X8765748Y-11129964D01*
X9493025Y-10694178D01*
X9501883Y-10692865D01*
X9506348Y-10695078D01*
G37*
%TD.AperFunction*%
%TD*%
%TA.AperFunction,Conductor*%
%TO.N,+3.3V*%
G36*
X10500177Y-10715193D02*
G01*
X10825401Y-11132811D01*
X10827781Y-11141444D01*
X10825401Y-11147189D01*
X10500177Y-11564806D01*
X10492390Y-11569228D01*
X10485059Y-11567728D01*
X10376113Y-11504296D01*
X10376110Y-11504295D01*
X10258355Y-11449231D01*
X10258331Y-11449221D01*
X10140560Y-11407650D01*
X10140540Y-11407644D01*
X10022768Y-11379571D01*
X10022769Y-11379571D01*
X9915263Y-11366269D01*
X9907473Y-11361853D01*
X9905000Y-11354658D01*
X9905000Y-10925341D01*
X9908427Y-10917068D01*
X9915263Y-10913730D01*
X10022768Y-10900427D01*
X10140540Y-10872354D01*
X10140560Y-10872348D01*
X10258331Y-10830777D01*
X10258355Y-10830767D01*
X10376110Y-10775703D01*
X10376113Y-10775702D01*
X10485059Y-10712271D01*
X10493933Y-10711070D01*
X10500177Y-10715193D01*
G37*
%TD.AperFunction*%
%TD*%
%TA.AperFunction,Conductor*%
%TO.N,+3.3V*%
G36*
X-707436Y12886562D02*
G01*
X-701198Y12880302D01*
X-610887Y12664525D01*
X-610854Y12655570D01*
X-610887Y12655491D01*
X-701198Y12439715D01*
X-707553Y12433406D01*
X-716391Y12433391D01*
X-801068Y12467757D01*
X-870886Y12491621D01*
X-870895Y12491623D01*
X-933462Y12504227D01*
X-1007059Y12509156D01*
X-1098388Y12509905D01*
X-1106633Y12513400D01*
X-1109992Y12521605D01*
X-1109996Y12798395D01*
X-1106569Y12806668D01*
X-1098393Y12810095D01*
X-1007062Y12810848D01*
X-933456Y12815783D01*
X-870901Y12828390D01*
X-801069Y12852259D01*
X-716391Y12886626D01*
X-707436Y12886562D01*
G37*
%TD.AperFunction*%
%TD*%
%TA.AperFunction,Conductor*%
%TO.N,+3.3V*%
G36*
X-1223880Y13052210D02*
G01*
X-1223831Y13052166D01*
X-1143086Y12980008D01*
X-1053568Y12915010D01*
X-964044Y12865006D01*
X-874520Y12830004D01*
X-794149Y12812048D01*
X-786822Y12806900D01*
X-785000Y12800630D01*
X-784996Y12519381D01*
X-788423Y12511108D01*
X-794145Y12507963D01*
X-874516Y12490008D01*
X-964041Y12455006D01*
X-1053567Y12405003D01*
X-1143086Y12340005D01*
X-1223832Y12267847D01*
X-1232284Y12264889D01*
X-1240352Y12268775D01*
X-1240396Y12268824D01*
X-1579152Y12652259D01*
X-1582062Y12660728D01*
X-1579152Y12667753D01*
X-1240395Y13051189D01*
X-1232349Y13055120D01*
X-1223880Y13052210D01*
G37*
%TD.AperFunction*%
%TD*%
%TA.AperFunction,Conductor*%
%TO.N,GND*%
G36*
X-667445Y10976556D02*
G01*
X-661207Y10970296D01*
X-570896Y10754519D01*
X-570863Y10745564D01*
X-570896Y10745485D01*
X-661207Y10529709D01*
X-667562Y10523400D01*
X-676400Y10523385D01*
X-761077Y10557751D01*
X-830896Y10581615D01*
X-830905Y10581617D01*
X-893472Y10594223D01*
X-967069Y10599153D01*
X-1058399Y10599903D01*
X-1066644Y10603398D01*
X-1070003Y10611603D01*
X-1070005Y10888393D01*
X-1066578Y10896666D01*
X-1058401Y10900093D01*
X-967071Y10900845D01*
X-893465Y10905779D01*
X-830910Y10918385D01*
X-761078Y10942253D01*
X-676400Y10976620D01*
X-667445Y10976556D01*
G37*
%TD.AperFunction*%
%TD*%
%TA.AperFunction,Conductor*%
%TO.N,GND*%
G36*
X-1319917Y11179902D02*
G01*
X-1319450Y11179525D01*
X-1220564Y11095497D01*
X-1112303Y11020751D01*
X-1004039Y10963252D01*
X-895772Y10923002D01*
X-796771Y10901970D01*
X-789390Y10896898D01*
X-787502Y10890525D01*
X-787500Y10609477D01*
X-790927Y10601204D01*
X-796769Y10598032D01*
X-895770Y10577000D01*
X-1004037Y10536750D01*
X-1112302Y10479252D01*
X-1220563Y10404506D01*
X-1319450Y10320476D01*
X-1327973Y10317730D01*
X-1335942Y10321816D01*
X-1336319Y10322283D01*
X-1658061Y10742891D01*
X-1660366Y10751545D01*
X-1658061Y10757109D01*
X-1336319Y11177718D01*
X-1328571Y11182207D01*
X-1319917Y11179902D01*
G37*
%TD.AperFunction*%
%TD*%
%TA.AperFunction,Conductor*%
%TO.N,Net-(D2-A)*%
G36*
X-3227093Y12653764D02*
G01*
X-2857416Y12315061D01*
X-2853631Y12306945D01*
X-2855415Y12300207D01*
X-2897175Y12233776D01*
X-2897175Y12233777D01*
X-2944130Y12144082D01*
X-2991084Y12039390D01*
X-2991083Y12039391D01*
X-3038037Y11919697D01*
X-3082254Y11792855D01*
X-3088213Y11786171D01*
X-3093302Y11785006D01*
X-3376677Y11785008D01*
X-3384950Y11788435D01*
X-3387725Y11792856D01*
X-3431946Y11919701D01*
X-3478906Y12039400D01*
X-3525859Y12144083D01*
X-3572820Y12233782D01*
X-3614580Y12300208D01*
X-3616082Y12309036D01*
X-3612579Y12315062D01*
X-3242901Y12653764D01*
X-3234486Y12656826D01*
X-3227093Y12653764D01*
G37*
%TD.AperFunction*%
%TD*%
%TA.AperFunction,Conductor*%
%TO.N,Net-(D2-A)*%
G36*
X-3093214Y11662499D02*
G01*
X-3084941Y11659072D01*
X-3082206Y11654764D01*
X-3031323Y11513491D01*
X-2977657Y11381737D01*
X-2923986Y11267223D01*
X-2870318Y11169966D01*
X-2870318Y11169967D01*
X-2822607Y11098841D01*
X-2820844Y11090061D01*
X-2824958Y11083232D01*
X-3230136Y10754968D01*
X-3238721Y10752423D01*
X-3244866Y10754968D01*
X-3649971Y11083174D01*
X-3654242Y11091045D01*
X-3652266Y11098866D01*
X-3603676Y11169974D01*
X-3549009Y11267221D01*
X-3549010Y11267221D01*
X-3494334Y11381737D01*
X-3439662Y11513494D01*
X-3387805Y11654831D01*
X-3381738Y11661418D01*
X-3376821Y11662501D01*
X-3093214Y11662499D01*
G37*
%TD.AperFunction*%
%TD*%
%TA.AperFunction,Conductor*%
%TO.N,/EN_DRV*%
G36*
X9550258Y12511069D02*
G01*
X9766175Y12422565D01*
X9772531Y12416256D01*
X9772564Y12416176D01*
X9861068Y12200259D01*
X9861035Y12191305D01*
X9854679Y12184996D01*
X9854281Y12184841D01*
X9765477Y12152178D01*
X9765183Y12152079D01*
X9690899Y12129137D01*
X9690898Y12129137D01*
X9628766Y12105272D01*
X9628763Y12105270D01*
X9565377Y12065735D01*
X9495404Y12003118D01*
X9486954Y12000155D01*
X9479329Y12003564D01*
X9353562Y12129331D01*
X9350135Y12137604D01*
X9353116Y12145406D01*
X9415732Y12215379D01*
X9455265Y12278761D01*
X9479136Y12340900D01*
X9502076Y12415186D01*
X9502175Y12415480D01*
X9534840Y12504282D01*
X9540913Y12510864D01*
X9549860Y12511224D01*
X9550258Y12511069D01*
G37*
%TD.AperFunction*%
%TD*%
%TA.AperFunction,Conductor*%
%TO.N,/EN_DRV*%
G36*
X8006200Y-1803722D02*
G01*
X8729218Y-2237805D01*
X8734547Y-2245001D01*
X8733227Y-2253858D01*
X8727018Y-2258894D01*
X8009043Y-2507064D01*
X8000105Y-2506528D01*
X7995141Y-2501945D01*
X7920456Y-2375189D01*
X7920456Y-2375190D01*
X7840925Y-2259059D01*
X7761386Y-2161764D01*
X7681842Y-2083316D01*
X7613106Y-2031819D01*
X7608539Y-2024116D01*
X7610757Y-2015440D01*
X7611848Y-2014182D01*
X7740328Y-1885702D01*
X7748530Y-1882275D01*
X7794982Y-1881992D01*
X7846234Y-1873607D01*
X7897497Y-1857142D01*
X7948746Y-1832608D01*
X7993897Y-1803882D01*
X8002717Y-1802332D01*
X8006200Y-1803722D01*
G37*
%TD.AperFunction*%
%TD*%
%TA.AperFunction,Conductor*%
%TO.N,GND*%
G36*
X12544517Y3739110D02*
G01*
X12759774Y3649015D01*
X12766083Y3642659D01*
X12766050Y3633705D01*
X12765878Y3633313D01*
X12726182Y3547425D01*
X12726044Y3547147D01*
X12689737Y3478393D01*
X12662679Y3417584D01*
X12645813Y3344806D01*
X12640613Y3251052D01*
X12636733Y3242981D01*
X12628931Y3240000D01*
X12451069Y3240000D01*
X12442796Y3243427D01*
X12439387Y3251052D01*
X12434185Y3344806D01*
X12417319Y3417584D01*
X12390262Y3478393D01*
X12353950Y3547154D01*
X12353812Y3547432D01*
X12314120Y3633313D01*
X12313760Y3642261D01*
X12319832Y3648843D01*
X12320224Y3649015D01*
X12535483Y3739110D01*
X12544437Y3739143D01*
X12544517Y3739110D01*
G37*
%TD.AperFunction*%
%TD*%
%TA.AperFunction,Conductor*%
%TO.N,GND*%
G36*
X12641521Y3626573D02*
G01*
X12643378Y3624155D01*
X12719996Y3491586D01*
X12719997Y3491586D01*
X12799997Y3372374D01*
X12799998Y3372374D01*
X12879997Y3272375D01*
X12960000Y3191582D01*
X13030561Y3137266D01*
X13035026Y3129504D01*
X13032695Y3120858D01*
X13032566Y3120693D01*
X12549142Y2515446D01*
X12541301Y2511121D01*
X12532698Y2513606D01*
X12530858Y2515446D01*
X12047433Y3120693D01*
X12044948Y3129296D01*
X12049273Y3137137D01*
X12049438Y3137266D01*
X12119998Y3191582D01*
X12200001Y3272375D01*
X12280001Y3372374D01*
X12280002Y3372374D01*
X12360002Y3491586D01*
X12360003Y3491586D01*
X12436622Y3624155D01*
X12443729Y3629603D01*
X12446752Y3630000D01*
X12633248Y3630000D01*
X12641521Y3626573D01*
G37*
%TD.AperFunction*%
%TD*%
%TA.AperFunction,Conductor*%
%TO.N,GND*%
G36*
X-7407441Y-12183446D02*
G01*
X-7401203Y-12189706D01*
X-7310891Y-12405483D01*
X-7310858Y-12414437D01*
X-7310891Y-12414517D01*
X-7401203Y-12630293D01*
X-7407559Y-12636602D01*
X-7416396Y-12636617D01*
X-7501073Y-12602250D01*
X-7570892Y-12578385D01*
X-7570901Y-12578383D01*
X-7633469Y-12565777D01*
X-7707066Y-12560846D01*
X-7798396Y-12560095D01*
X-7806641Y-12556600D01*
X-7810000Y-12548395D01*
X-7810000Y-12271604D01*
X-7806573Y-12263331D01*
X-7798396Y-12259904D01*
X-7707066Y-12259153D01*
X-7633467Y-12254221D01*
X-7633452Y-12254219D01*
X-7570916Y-12241618D01*
X-7570892Y-12241612D01*
X-7501079Y-12217750D01*
X-7501080Y-12217750D01*
X-7416396Y-12183382D01*
X-7407441Y-12183446D01*
G37*
%TD.AperFunction*%
%TD*%
%TA.AperFunction,Conductor*%
%TO.N,GND*%
G36*
X-7993544Y-11966632D02*
G01*
X-7910011Y-12052438D01*
X-7910005Y-12052444D01*
X-7820006Y-12128669D01*
X-7819996Y-12128676D01*
X-7730010Y-12188668D01*
X-7729996Y-12188676D01*
X-7640008Y-12232445D01*
X-7558275Y-12257466D01*
X-7551368Y-12263165D01*
X-7550000Y-12268654D01*
X-7550000Y-12551345D01*
X-7553427Y-12559618D01*
X-7558275Y-12562533D01*
X-7640008Y-12587553D01*
X-7729996Y-12631322D01*
X-7730010Y-12631330D01*
X-7819996Y-12691322D01*
X-7820006Y-12691329D01*
X-7910005Y-12767554D01*
X-7910011Y-12767560D01*
X-7993544Y-12853367D01*
X-8001770Y-12856905D01*
X-8007941Y-12855242D01*
X-8734252Y-12420036D01*
X-8739587Y-12412844D01*
X-8738274Y-12403986D01*
X-8734252Y-12399964D01*
X-8007941Y-11964757D01*
X-7999083Y-11963444D01*
X-7993544Y-11966632D01*
G37*
%TD.AperFunction*%
%TD*%
%TA.AperFunction,Conductor*%
%TO.N,GND*%
G36*
X5719517Y6709110D02*
G01*
X5935293Y6618798D01*
X5941602Y6612442D01*
X5941617Y6603605D01*
X5907250Y6518928D01*
X5883385Y6449110D01*
X5883383Y6449101D01*
X5870777Y6386533D01*
X5865846Y6312935D01*
X5865095Y6221604D01*
X5861600Y6213359D01*
X5853395Y6210000D01*
X5576604Y6210000D01*
X5568331Y6213427D01*
X5564904Y6221604D01*
X5564153Y6312935D01*
X5559221Y6386535D01*
X5559219Y6386550D01*
X5546618Y6449086D01*
X5546612Y6449110D01*
X5522748Y6518928D01*
X5488382Y6603605D01*
X5488446Y6612560D01*
X5494706Y6618798D01*
X5710483Y6709110D01*
X5719437Y6709143D01*
X5719517Y6709110D01*
G37*
%TD.AperFunction*%
%TD*%
%TA.AperFunction,Conductor*%
%TO.N,GND*%
G36*
X5865977Y6546573D02*
G01*
X5868210Y6543448D01*
X5924998Y6427556D01*
X5985001Y6321324D01*
X5985001Y6321325D01*
X6045000Y6231326D01*
X6105000Y6157552D01*
X6105005Y6157546D01*
X6158268Y6106457D01*
X6161866Y6098257D01*
X6160205Y6091999D01*
X5725036Y5365749D01*
X5717844Y5360414D01*
X5708986Y5361727D01*
X5704964Y5365749D01*
X5269794Y6091999D01*
X5268481Y6100857D01*
X5271731Y6106457D01*
X5324994Y6157546D01*
X5324999Y6157552D01*
X5384999Y6231326D01*
X5444999Y6321325D01*
X5444999Y6321324D01*
X5505002Y6427556D01*
X5561790Y6543448D01*
X5568507Y6549370D01*
X5572296Y6550000D01*
X5857704Y6550000D01*
X5865977Y6546573D01*
G37*
%TD.AperFunction*%
%TD*%
%TA.AperFunction,Conductor*%
%TO.N,/TX*%
G36*
X-7588185Y14308153D02*
G01*
X-6753614Y13877935D01*
X-6747831Y13871098D01*
X-6747823Y13871074D01*
X-6484801Y13042338D01*
X-6485565Y13033416D01*
X-6492414Y13027647D01*
X-6497357Y13027184D01*
X-6809502Y13064919D01*
X-7139709Y13059839D01*
X-7469911Y13009759D01*
X-7469924Y13009756D01*
X-7800121Y12914677D01*
X-7800131Y12914674D01*
X-8123068Y12777676D01*
X-8132022Y12777600D01*
X-8135910Y12780174D01*
X-8264771Y12909035D01*
X-8268198Y12917308D01*
X-8266045Y12924071D01*
X-8137405Y13105657D01*
X-8137402Y13105661D01*
X-8003046Y13340317D01*
X-7868696Y13619965D01*
X-7734351Y13944599D01*
X-7604542Y14301750D01*
X-7598495Y14308355D01*
X-7589549Y14308749D01*
X-7588185Y14308153D01*
G37*
%TD.AperFunction*%
%TD*%
%TA.AperFunction,Conductor*%
%TO.N,/TX*%
G36*
X-9491561Y-8155056D02*
G01*
X-8765749Y-8589964D01*
X-8760414Y-8597156D01*
X-8761727Y-8606014D01*
X-8765749Y-8610036D01*
X-9491561Y-9044943D01*
X-9500419Y-9046256D01*
X-9506430Y-9042555D01*
X-9590005Y-8945789D01*
X-9679999Y-8858693D01*
X-9680004Y-8858689D01*
X-9770000Y-8788692D01*
X-9770005Y-8788688D01*
X-9859997Y-8735797D01*
X-9942624Y-8702933D01*
X-9949045Y-8696691D01*
X-9950000Y-8692061D01*
X-9950000Y-8507938D01*
X-9946573Y-8499665D01*
X-9942624Y-8497066D01*
X-9859999Y-8464202D01*
X-9770005Y-8411310D01*
X-9770000Y-8411306D01*
X-9680004Y-8341309D01*
X-9679999Y-8341305D01*
X-9590004Y-8254208D01*
X-9506430Y-8157444D01*
X-9498428Y-8153423D01*
X-9491561Y-8155056D01*
G37*
%TD.AperFunction*%
%TD*%
%TA.AperFunction,Conductor*%
%TO.N,/RX*%
G36*
X-7070822Y12109411D02*
G01*
X-7070317Y12108350D01*
X-6750866Y11339490D01*
X-6750857Y11330535D01*
X-6750866Y11330512D01*
X-7070317Y10561651D01*
X-7076656Y10555326D01*
X-7085611Y10555335D01*
X-7086672Y10555840D01*
X-7416036Y10733319D01*
X-7417845Y10734523D01*
X-7644524Y10917898D01*
X-7838669Y11078425D01*
X-7838671Y11078426D01*
X-8080228Y11191946D01*
X-8439653Y11233796D01*
X-8447474Y11238156D01*
X-8450000Y11245417D01*
X-8450000Y11424584D01*
X-8446573Y11432857D01*
X-8439653Y11436205D01*
X-8080228Y11478056D01*
X-7838671Y11591577D01*
X-7838669Y11591578D01*
X-7644524Y11752104D01*
X-7417845Y11935479D01*
X-7416036Y11936683D01*
X-7086672Y12114161D01*
X-7077763Y12115069D01*
X-7070822Y12109411D01*
G37*
%TD.AperFunction*%
%TD*%
%TA.AperFunction,Conductor*%
%TO.N,/RX*%
G36*
X-9491561Y-6885056D02*
G01*
X-8765749Y-7319964D01*
X-8760414Y-7327156D01*
X-8761727Y-7336014D01*
X-8765749Y-7340036D01*
X-9491561Y-7774943D01*
X-9500419Y-7776256D01*
X-9506430Y-7772555D01*
X-9590005Y-7675789D01*
X-9679999Y-7588693D01*
X-9680004Y-7588689D01*
X-9770000Y-7518692D01*
X-9770005Y-7518688D01*
X-9859997Y-7465797D01*
X-9942624Y-7432933D01*
X-9949045Y-7426691D01*
X-9950000Y-7422061D01*
X-9950000Y-7237938D01*
X-9946573Y-7229665D01*
X-9942624Y-7227066D01*
X-9859999Y-7194202D01*
X-9770005Y-7141310D01*
X-9770000Y-7141306D01*
X-9680004Y-7071309D01*
X-9679999Y-7071305D01*
X-9590004Y-6984208D01*
X-9506430Y-6887444D01*
X-9498428Y-6883423D01*
X-9491561Y-6885056D01*
G37*
%TD.AperFunction*%
%TD*%
%TA.AperFunction,Conductor*%
%TO.N,/BOOT*%
G36*
X-9873705Y4326052D02*
G01*
X-9873313Y4325880D01*
X-9787432Y4286188D01*
X-9787154Y4286050D01*
X-9718393Y4249738D01*
X-9657584Y4222681D01*
X-9584806Y4205815D01*
X-9491052Y4200614D01*
X-9482981Y4196734D01*
X-9480000Y4188932D01*
X-9480000Y4011069D01*
X-9483427Y4002796D01*
X-9491052Y3999387D01*
X-9584806Y3994187D01*
X-9657584Y3977321D01*
X-9718393Y3950263D01*
X-9787147Y3913956D01*
X-9787425Y3913818D01*
X-9873313Y3874122D01*
X-9882261Y3873762D01*
X-9888843Y3879834D01*
X-9889015Y3880226D01*
X-9979110Y4095483D01*
X-9979143Y4104437D01*
X-9979110Y4104517D01*
X-9889015Y4319776D01*
X-9882659Y4326085D01*
X-9873705Y4326052D01*
G37*
%TD.AperFunction*%
%TD*%
%TA.AperFunction,Conductor*%
%TO.N,/BOOT*%
G36*
X-9491561Y4544944D02*
G01*
X-8765749Y4110036D01*
X-8760414Y4102844D01*
X-8761727Y4093986D01*
X-8765749Y4089964D01*
X-9491561Y3655057D01*
X-9500419Y3653744D01*
X-9506430Y3657445D01*
X-9590005Y3754211D01*
X-9679999Y3841307D01*
X-9680004Y3841311D01*
X-9770000Y3911308D01*
X-9770005Y3911312D01*
X-9859997Y3964203D01*
X-9942624Y3997067D01*
X-9949045Y4003309D01*
X-9950000Y4007939D01*
X-9950000Y4192062D01*
X-9946573Y4200335D01*
X-9942624Y4202934D01*
X-9859999Y4235798D01*
X-9770005Y4288690D01*
X-9770000Y4288694D01*
X-9680004Y4358691D01*
X-9679999Y4358695D01*
X-9590004Y4445792D01*
X-9506430Y4542556D01*
X-9498428Y4546577D01*
X-9491561Y4544944D01*
G37*
%TD.AperFunction*%
%TD*%
%TA.AperFunction,Conductor*%
%TO.N,/CURR_SENS1*%
G36*
X7226403Y-5833690D02*
G01*
X7226545Y-5833751D01*
X7311801Y-5870762D01*
X7381204Y-5900876D01*
X7381221Y-5900882D01*
X7443000Y-5920732D01*
X7516223Y-5931655D01*
X7516238Y-5931657D01*
X7608677Y-5934635D01*
X7616835Y-5938327D01*
X7620000Y-5946329D01*
X7620000Y-6173670D01*
X7616573Y-6181943D01*
X7608677Y-6185364D01*
X7516238Y-6188341D01*
X7516223Y-6188343D01*
X7443004Y-6199265D01*
X7442995Y-6199268D01*
X7381221Y-6219115D01*
X7381204Y-6219121D01*
X7311801Y-6249237D01*
X7226545Y-6286248D01*
X7217592Y-6286399D01*
X7211154Y-6280175D01*
X7211093Y-6280033D01*
X7120890Y-6064517D01*
X7120857Y-6055563D01*
X7120890Y-6055483D01*
X7211093Y-5839966D01*
X7217449Y-5833657D01*
X7226403Y-5833690D01*
G37*
%TD.AperFunction*%
%TD*%
%TA.AperFunction,Conductor*%
%TO.N,/CURR_SENS1*%
G36*
X8008194Y-5614909D02*
G01*
X8734251Y-6049964D01*
X8739586Y-6057156D01*
X8738273Y-6066014D01*
X8734251Y-6070036D01*
X8008194Y-6505089D01*
X7999336Y-6506402D01*
X7993550Y-6502954D01*
X7910004Y-6411698D01*
X7819998Y-6330041D01*
X7730005Y-6265045D01*
X7640000Y-6216694D01*
X7557814Y-6187751D01*
X7551149Y-6181770D01*
X7550000Y-6176715D01*
X7550000Y-5943284D01*
X7553427Y-5935011D01*
X7557814Y-5932248D01*
X7640000Y-5903304D01*
X7730005Y-5854953D01*
X7819998Y-5789957D01*
X7910007Y-5708298D01*
X7993550Y-5617044D01*
X8001664Y-5613256D01*
X8008194Y-5614909D01*
G37*
%TD.AperFunction*%
%TD*%
%TA.AperFunction,Conductor*%
%TO.N,/CURR_SENS2*%
G36*
X7226403Y-4563690D02*
G01*
X7226545Y-4563751D01*
X7311801Y-4600762D01*
X7381204Y-4630876D01*
X7381221Y-4630882D01*
X7443000Y-4650732D01*
X7516223Y-4661655D01*
X7516238Y-4661657D01*
X7608677Y-4664635D01*
X7616835Y-4668327D01*
X7620000Y-4676329D01*
X7620000Y-4903670D01*
X7616573Y-4911943D01*
X7608677Y-4915364D01*
X7516238Y-4918341D01*
X7516223Y-4918343D01*
X7443004Y-4929265D01*
X7442995Y-4929268D01*
X7381221Y-4949115D01*
X7381204Y-4949121D01*
X7311801Y-4979237D01*
X7226545Y-5016248D01*
X7217592Y-5016399D01*
X7211154Y-5010175D01*
X7211093Y-5010033D01*
X7120890Y-4794516D01*
X7120857Y-4785562D01*
X7120890Y-4785482D01*
X7211093Y-4569966D01*
X7217449Y-4563657D01*
X7226403Y-4563690D01*
G37*
%TD.AperFunction*%
%TD*%
%TA.AperFunction,Conductor*%
%TO.N,/CURR_SENS2*%
G36*
X8008194Y-4344909D02*
G01*
X8734251Y-4779964D01*
X8739586Y-4787156D01*
X8738273Y-4796014D01*
X8734251Y-4800036D01*
X8008194Y-5235089D01*
X7999336Y-5236402D01*
X7993550Y-5232954D01*
X7910004Y-5141698D01*
X7819998Y-5060041D01*
X7730005Y-4995045D01*
X7640000Y-4946694D01*
X7557814Y-4917751D01*
X7551149Y-4911770D01*
X7550000Y-4906715D01*
X7550000Y-4673284D01*
X7553427Y-4665011D01*
X7557814Y-4662248D01*
X7640000Y-4633304D01*
X7730005Y-4584953D01*
X7819998Y-4519957D01*
X7910007Y-4438298D01*
X7993550Y-4347044D01*
X8001664Y-4343256D01*
X8008194Y-4344909D01*
G37*
%TD.AperFunction*%
%TD*%
%TA.AperFunction,Conductor*%
%TO.N,/PWM_OUT1*%
G36*
X12220258Y7721069D02*
G01*
X12436175Y7632565D01*
X12442531Y7626256D01*
X12442564Y7626176D01*
X12531068Y7410259D01*
X12531035Y7401305D01*
X12524679Y7394996D01*
X12524281Y7394841D01*
X12435477Y7362178D01*
X12435183Y7362079D01*
X12360899Y7339137D01*
X12360898Y7339137D01*
X12298766Y7315272D01*
X12298763Y7315270D01*
X12235377Y7275735D01*
X12165404Y7213118D01*
X12156954Y7210155D01*
X12149329Y7213564D01*
X12023562Y7339331D01*
X12020135Y7347604D01*
X12023116Y7355406D01*
X12085732Y7425379D01*
X12125265Y7488761D01*
X12149136Y7550900D01*
X12172076Y7625186D01*
X12172175Y7625480D01*
X12204840Y7714282D01*
X12210913Y7720864D01*
X12219860Y7721224D01*
X12220258Y7721069D01*
G37*
%TD.AperFunction*%
%TD*%
%TA.AperFunction,Conductor*%
%TO.N,/PWM_OUT2*%
G36*
X8007128Y735721D02*
G01*
X8729844Y301819D01*
X8735173Y294623D01*
X8733853Y285766D01*
X8727896Y280820D01*
X8009206Y13834D01*
X8000258Y14166D01*
X7995036Y18889D01*
X7923864Y140418D01*
X7923864Y140417D01*
X7847718Y252319D01*
X7771572Y346097D01*
X7695425Y421755D01*
X7630013Y471186D01*
X7625479Y478907D01*
X7627733Y487574D01*
X7628794Y488793D01*
X7758045Y618044D01*
X7764432Y621318D01*
X7808567Y628526D01*
X7856433Y644366D01*
X7904282Y668220D01*
X7904285Y668222D01*
X7952139Y700099D01*
X7952150Y700107D01*
X7993614Y734676D01*
X8002163Y737342D01*
X8007128Y735721D01*
G37*
%TD.AperFunction*%
%TD*%
%TA.AperFunction,Conductor*%
%TO.N,/PWM_OUT2*%
G36*
X11325914Y8676150D02*
G01*
X11541778Y8587668D01*
X11548134Y8581359D01*
X11548167Y8581279D01*
X11636690Y8365315D01*
X11636657Y8356361D01*
X11630301Y8350052D01*
X11629949Y8349914D01*
X11541710Y8317038D01*
X11468172Y8293230D01*
X11468171Y8293230D01*
X11406976Y8268367D01*
X11344432Y8228105D01*
X11344427Y8228101D01*
X11275109Y8165548D01*
X11266671Y8162549D01*
X11258998Y8165961D01*
X11133227Y8291732D01*
X11129800Y8300005D01*
X11132745Y8307766D01*
X11195073Y8378076D01*
X11195080Y8378087D01*
X11233580Y8442099D01*
X11233586Y8442112D01*
X11256194Y8504987D01*
X11278078Y8579897D01*
X11278193Y8580251D01*
X11310477Y8669311D01*
X11316519Y8675921D01*
X11325464Y8676324D01*
X11325914Y8676150D01*
G37*
%TD.AperFunction*%
%TD*%
%TA.AperFunction,Conductor*%
%TO.N,/PWM_OUT3*%
G36*
X8006327Y-533798D02*
G01*
X8729371Y-967897D01*
X8734700Y-975093D01*
X8733380Y-983950D01*
X8727232Y-988965D01*
X8009033Y-1241624D01*
X8000091Y-1241137D01*
X7995098Y-1236575D01*
X7919873Y-1110300D01*
X7839748Y-994650D01*
X7759628Y-897855D01*
X7759624Y-897851D01*
X7679498Y-819898D01*
X7679492Y-819893D01*
X7610320Y-768868D01*
X7605696Y-761200D01*
X7607850Y-752508D01*
X7608992Y-751180D01*
X7737502Y-622670D01*
X7745454Y-619247D01*
X7792641Y-617950D01*
X7844473Y-608302D01*
X7896314Y-590427D01*
X7948160Y-564323D01*
X7948170Y-564318D01*
X7993846Y-534074D01*
X8002635Y-532363D01*
X8006327Y-533798D01*
G37*
%TD.AperFunction*%
%TD*%
%TA.AperFunction,Conductor*%
%TO.N,/PWM_OUT3*%
G36*
X10614517Y9509110D02*
G01*
X10829774Y9419015D01*
X10836083Y9412659D01*
X10836050Y9403705D01*
X10835878Y9403313D01*
X10796182Y9317425D01*
X10796044Y9317147D01*
X10759737Y9248393D01*
X10732679Y9187584D01*
X10715813Y9114806D01*
X10710613Y9021052D01*
X10706733Y9012981D01*
X10698931Y9010000D01*
X10521069Y9010000D01*
X10512796Y9013427D01*
X10509387Y9021052D01*
X10504185Y9114806D01*
X10487319Y9187584D01*
X10460262Y9248393D01*
X10423950Y9317154D01*
X10423812Y9317432D01*
X10384120Y9403313D01*
X10383760Y9412261D01*
X10389832Y9418843D01*
X10390224Y9419015D01*
X10605483Y9509110D01*
X10614437Y9509143D01*
X10614517Y9509110D01*
G37*
%TD.AperFunction*%
%TD*%
%TA.AperFunction,Conductor*%
%TO.N,/CS*%
G36*
X-7531158Y510167D02*
G01*
X-7530986Y509776D01*
X-7440891Y294517D01*
X-7440858Y285563D01*
X-7440891Y285483D01*
X-7530986Y70225D01*
X-7537342Y63916D01*
X-7546296Y63949D01*
X-7546688Y64121D01*
X-7632571Y103814D01*
X-7632849Y103952D01*
X-7701608Y140263D01*
X-7762418Y167321D01*
X-7835196Y184187D01*
X-7928948Y189387D01*
X-7937019Y193267D01*
X-7940000Y201069D01*
X-7940000Y378932D01*
X-7936573Y387205D01*
X-7928948Y390614D01*
X-7835196Y395815D01*
X-7762418Y412681D01*
X-7701608Y439738D01*
X-7632849Y476050D01*
X-7632571Y476188D01*
X-7546687Y515880D01*
X-7537740Y516240D01*
X-7531158Y510167D01*
G37*
%TD.AperFunction*%
%TD*%
%TA.AperFunction,Conductor*%
%TO.N,/CS*%
G36*
X-7993571Y732556D02*
G01*
X-7909997Y635792D01*
X-7820002Y548695D01*
X-7819997Y548691D01*
X-7730001Y478694D01*
X-7729996Y478690D01*
X-7640002Y425798D01*
X-7557376Y392934D01*
X-7550955Y386692D01*
X-7550000Y382062D01*
X-7550000Y197939D01*
X-7553427Y189666D01*
X-7557376Y187067D01*
X-7640004Y154203D01*
X-7729996Y101312D01*
X-7730001Y101308D01*
X-7819997Y31311D01*
X-7820002Y31307D01*
X-7909995Y-55789D01*
X-7993571Y-152555D01*
X-8001573Y-156576D01*
X-8008440Y-154943D01*
X-8734252Y279964D01*
X-8739587Y287156D01*
X-8738274Y296014D01*
X-8734252Y300036D01*
X-8008440Y734944D01*
X-7999582Y736257D01*
X-7993571Y732556D01*
G37*
%TD.AperFunction*%
%TD*%
%TA.AperFunction,Conductor*%
%TO.N,/CLK*%
G36*
X-7481158Y-2029833D02*
G01*
X-7480986Y-2030224D01*
X-7390891Y-2245482D01*
X-7390858Y-2254436D01*
X-7390891Y-2254516D01*
X-7480986Y-2469775D01*
X-7487342Y-2476084D01*
X-7496296Y-2476051D01*
X-7496688Y-2475879D01*
X-7582571Y-2436186D01*
X-7582849Y-2436048D01*
X-7651608Y-2399737D01*
X-7712418Y-2372679D01*
X-7785196Y-2355813D01*
X-7878948Y-2350613D01*
X-7887019Y-2346733D01*
X-7890000Y-2338931D01*
X-7890000Y-2161068D01*
X-7886573Y-2152795D01*
X-7878948Y-2149386D01*
X-7785196Y-2144185D01*
X-7712418Y-2127319D01*
X-7651608Y-2100262D01*
X-7582849Y-2063950D01*
X-7582571Y-2063812D01*
X-7496687Y-2024120D01*
X-7487740Y-2023760D01*
X-7481158Y-2029833D01*
G37*
%TD.AperFunction*%
%TD*%
%TA.AperFunction,Conductor*%
%TO.N,/CLK*%
G36*
X-7993571Y-1807444D02*
G01*
X-7909997Y-1904208D01*
X-7820002Y-1991305D01*
X-7819997Y-1991309D01*
X-7730001Y-2061306D01*
X-7729996Y-2061310D01*
X-7640002Y-2114202D01*
X-7557376Y-2147066D01*
X-7550955Y-2153308D01*
X-7550000Y-2157938D01*
X-7550000Y-2342061D01*
X-7553427Y-2350334D01*
X-7557376Y-2352933D01*
X-7640004Y-2385797D01*
X-7729996Y-2438688D01*
X-7730001Y-2438692D01*
X-7819997Y-2508689D01*
X-7820002Y-2508693D01*
X-7909995Y-2595789D01*
X-7993571Y-2692555D01*
X-8001573Y-2696576D01*
X-8008440Y-2694943D01*
X-8734252Y-2260036D01*
X-8739587Y-2252844D01*
X-8738274Y-2243986D01*
X-8734252Y-2239964D01*
X-8008440Y-1805056D01*
X-7999582Y-1803743D01*
X-7993571Y-1807444D01*
G37*
%TD.AperFunction*%
%TD*%
%TA.AperFunction,Conductor*%
%TO.N,/MISO*%
G36*
X-5771158Y-3299833D02*
G01*
X-5770986Y-3300224D01*
X-5680891Y-3515483D01*
X-5680858Y-3524437D01*
X-5680891Y-3524517D01*
X-5770986Y-3739775D01*
X-5777342Y-3746084D01*
X-5786296Y-3746051D01*
X-5786688Y-3745879D01*
X-5872571Y-3706186D01*
X-5872849Y-3706048D01*
X-5941608Y-3669737D01*
X-6002418Y-3642679D01*
X-6075196Y-3625813D01*
X-6168948Y-3620613D01*
X-6177019Y-3616733D01*
X-6180000Y-3608931D01*
X-6180000Y-3431068D01*
X-6176573Y-3422795D01*
X-6168948Y-3419386D01*
X-6075196Y-3414185D01*
X-6002418Y-3397319D01*
X-5941608Y-3370262D01*
X-5872849Y-3333950D01*
X-5872571Y-3333812D01*
X-5786687Y-3294120D01*
X-5777740Y-3293760D01*
X-5771158Y-3299833D01*
G37*
%TD.AperFunction*%
%TD*%
%TA.AperFunction,Conductor*%
%TO.N,/MISO*%
G36*
X-7993571Y-3077444D02*
G01*
X-7909997Y-3174208D01*
X-7820002Y-3261305D01*
X-7819997Y-3261309D01*
X-7730001Y-3331306D01*
X-7729996Y-3331310D01*
X-7640002Y-3384202D01*
X-7557376Y-3417066D01*
X-7550955Y-3423308D01*
X-7550000Y-3427938D01*
X-7550000Y-3612061D01*
X-7553427Y-3620334D01*
X-7557376Y-3622933D01*
X-7640004Y-3655797D01*
X-7729996Y-3708688D01*
X-7730001Y-3708692D01*
X-7819997Y-3778689D01*
X-7820002Y-3778693D01*
X-7909995Y-3865789D01*
X-7993571Y-3962555D01*
X-8001573Y-3966576D01*
X-8008440Y-3964943D01*
X-8734252Y-3530036D01*
X-8739587Y-3522844D01*
X-8738274Y-3513986D01*
X-8734252Y-3509964D01*
X-8008440Y-3075056D01*
X-7999582Y-3073743D01*
X-7993571Y-3077444D01*
G37*
%TD.AperFunction*%
%TD*%
%TA.AperFunction,Conductor*%
%TO.N,/SDA*%
G36*
X-7993571Y-5617444D02*
G01*
X-7909997Y-5714208D01*
X-7820002Y-5801305D01*
X-7819997Y-5801309D01*
X-7730001Y-5871306D01*
X-7729996Y-5871310D01*
X-7640002Y-5924202D01*
X-7557376Y-5957066D01*
X-7550955Y-5963308D01*
X-7550000Y-5967938D01*
X-7550000Y-6152061D01*
X-7553427Y-6160334D01*
X-7557376Y-6162933D01*
X-7640004Y-6195797D01*
X-7729996Y-6248688D01*
X-7730001Y-6248692D01*
X-7819997Y-6318689D01*
X-7820002Y-6318693D01*
X-7909995Y-6405789D01*
X-7993571Y-6502555D01*
X-8001573Y-6506576D01*
X-8008440Y-6504943D01*
X-8734252Y-6070036D01*
X-8739587Y-6062844D01*
X-8738274Y-6053986D01*
X-8734252Y-6049964D01*
X-8008440Y-5615056D01*
X-7999582Y-5613743D01*
X-7993571Y-5617444D01*
G37*
%TD.AperFunction*%
%TD*%
%TA.AperFunction,Conductor*%
%TO.N,/SDA*%
G36*
X1097204Y-14653427D02*
G01*
X1100613Y-14661052D01*
X1105813Y-14754804D01*
X1122679Y-14827582D01*
X1149737Y-14888392D01*
X1186048Y-14957151D01*
X1186186Y-14957429D01*
X1225879Y-15043312D01*
X1226239Y-15052260D01*
X1220167Y-15058842D01*
X1219775Y-15059014D01*
X1004517Y-15149109D01*
X995563Y-15149142D01*
X995483Y-15149109D01*
X780224Y-15059014D01*
X773915Y-15052658D01*
X773948Y-15043704D01*
X774120Y-15043313D01*
X813812Y-14957429D01*
X813950Y-14957151D01*
X850262Y-14888392D01*
X877319Y-14827582D01*
X894185Y-14754804D01*
X899387Y-14661052D01*
X903267Y-14652981D01*
X911069Y-14650000D01*
X1088931Y-14650000D01*
X1097204Y-14653427D01*
G37*
%TD.AperFunction*%
%TD*%
%TA.AperFunction,Conductor*%
%TO.N,/SDA*%
G36*
X1005840Y-13659284D02*
G01*
X1007659Y-13661638D01*
X1079116Y-13783482D01*
X1079116Y-13783481D01*
X1158232Y-13899573D01*
X1158233Y-13899573D01*
X1237348Y-13996855D01*
X1237355Y-13996864D01*
X1316464Y-14075331D01*
X1316469Y-14075335D01*
X1388516Y-14129669D01*
X1393058Y-14137386D01*
X1392376Y-14143250D01*
X1010957Y-15124339D01*
X1004765Y-15130808D01*
X995812Y-15131004D01*
X989343Y-15124812D01*
X989338Y-15124800D01*
X558902Y-14143892D01*
X558716Y-14134940D01*
X563022Y-14129526D01*
X615712Y-14093573D01*
X676432Y-14038355D01*
X737145Y-13969359D01*
X797868Y-13886565D01*
X857877Y-13791115D01*
X859509Y-13789069D01*
X989294Y-13659284D01*
X997567Y-13655857D01*
X1005840Y-13659284D01*
G37*
%TD.AperFunction*%
%TD*%
%TA.AperFunction,Conductor*%
%TO.N,/SCL*%
G36*
X-902796Y-14653427D02*
G01*
X-899387Y-14661052D01*
X-894187Y-14754804D01*
X-877321Y-14827582D01*
X-850263Y-14888392D01*
X-813952Y-14957151D01*
X-813814Y-14957429D01*
X-774121Y-15043312D01*
X-773761Y-15052260D01*
X-779833Y-15058842D01*
X-780225Y-15059014D01*
X-995484Y-15149109D01*
X-1004438Y-15149142D01*
X-1004518Y-15149109D01*
X-1219776Y-15059014D01*
X-1226085Y-15052658D01*
X-1226052Y-15043704D01*
X-1225880Y-15043313D01*
X-1186188Y-14957429D01*
X-1186050Y-14957151D01*
X-1149738Y-14888392D01*
X-1122681Y-14827582D01*
X-1105815Y-14754804D01*
X-1100613Y-14661052D01*
X-1096733Y-14652981D01*
X-1088931Y-14650000D01*
X-911069Y-14650000D01*
X-902796Y-14653427D01*
G37*
%TD.AperFunction*%
%TD*%
%TA.AperFunction,Conductor*%
%TO.N,/SCL*%
G36*
X-994160Y-13659284D02*
G01*
X-992341Y-13661638D01*
X-920884Y-13783482D01*
X-920884Y-13783481D01*
X-841768Y-13899573D01*
X-841767Y-13899573D01*
X-762652Y-13996855D01*
X-762645Y-13996864D01*
X-683536Y-14075331D01*
X-683531Y-14075335D01*
X-611484Y-14129669D01*
X-606942Y-14137386D01*
X-607624Y-14143250D01*
X-989043Y-15124339D01*
X-995235Y-15130808D01*
X-1004188Y-15131004D01*
X-1010657Y-15124812D01*
X-1010662Y-15124800D01*
X-1441098Y-14143892D01*
X-1441284Y-14134940D01*
X-1436978Y-14129526D01*
X-1384288Y-14093573D01*
X-1323568Y-14038355D01*
X-1262855Y-13969359D01*
X-1202132Y-13886565D01*
X-1142123Y-13791115D01*
X-1140491Y-13789069D01*
X-1010706Y-13659284D01*
X-1002433Y-13655857D01*
X-994160Y-13659284D01*
G37*
%TD.AperFunction*%
%TD*%
%TA.AperFunction,Conductor*%
%TO.N,/SCL*%
G36*
X-7993571Y-9427444D02*
G01*
X-7909997Y-9524208D01*
X-7820002Y-9611305D01*
X-7819997Y-9611309D01*
X-7730001Y-9681306D01*
X-7729996Y-9681310D01*
X-7640002Y-9734202D01*
X-7557376Y-9767066D01*
X-7550955Y-9773308D01*
X-7550000Y-9777938D01*
X-7550000Y-9962061D01*
X-7553427Y-9970334D01*
X-7557376Y-9972933D01*
X-7640004Y-10005797D01*
X-7729996Y-10058688D01*
X-7730001Y-10058692D01*
X-7819997Y-10128689D01*
X-7820002Y-10128693D01*
X-7909995Y-10215789D01*
X-7993571Y-10312555D01*
X-8001573Y-10316576D01*
X-8008440Y-10314943D01*
X-8734252Y-9880036D01*
X-8739587Y-9872844D01*
X-8738274Y-9863986D01*
X-8734252Y-9859964D01*
X-8008440Y-9425056D01*
X-7999582Y-9423743D01*
X-7993571Y-9427444D01*
G37*
%TD.AperFunction*%
%TD*%
%TA.AperFunction,Conductor*%
%TO.N,VCC*%
G36*
X-6623634Y4133329D02*
G01*
X-5551398Y3408261D01*
X-5546464Y3400788D01*
X-5548260Y3392015D01*
X-5549668Y3390307D01*
X-6069293Y2869293D01*
X-6590307Y2349668D01*
X-6598585Y2346252D01*
X-6606853Y2349690D01*
X-6608261Y2351398D01*
X-7333329Y3423634D01*
X-7335125Y3432407D01*
X-7331910Y3438461D01*
X-6638461Y4131910D01*
X-6630188Y4135337D01*
X-6623634Y4133329D01*
G37*
%TD.AperFunction*%
%TD*%
D35*
X7030000Y14095000D03*
X3940500Y10750000D03*
X-7110000Y-6970000D03*
X-13905000Y-6970000D03*
X11860000Y-11140000D03*
X10830000Y-5010000D03*
X11860000Y-9590000D03*
X10210000Y-12410000D03*
X-13980000Y6630000D03*
X-7100000Y-8160000D03*
X-609995Y12660008D03*
X-570004Y10750002D03*
X5715000Y6710000D03*
D36*
X6850000Y7100000D03*
D35*
X12440000Y-3540000D03*
X12540000Y3740000D03*
X-9760000Y7230000D03*
X-12830000Y-9620000D03*
X-4640000Y2275500D03*
D36*
X3380000Y-11830000D03*
X-2340000Y15155000D03*
X-3020000Y-15680000D03*
D35*
X-7310000Y-12410000D03*
D36*
X-3010000Y-14627247D03*
D35*
X-4640000Y-1163650D03*
X-13980000Y8180000D03*
D36*
X6225000Y-13440000D03*
D35*
X12430000Y960000D03*
X1600000Y0D03*
D36*
X1760000Y-8290000D03*
X-2340000Y8930000D03*
X4560000Y-230000D03*
X2990000Y-15660000D03*
X3000000Y-14630000D03*
D35*
X9770000Y12420000D03*
X-9980000Y4100000D03*
X6370000Y-2740000D03*
X7120000Y-6060000D03*
X7120000Y-4790000D03*
X-7350000Y8180000D03*
X12440000Y7630000D03*
X11545603Y8585103D03*
X10610000Y9510000D03*
X560000Y2110000D03*
X-7440000Y290000D03*
X548736Y1300000D03*
X-7390000Y-2250000D03*
X550000Y460000D03*
X-5680000Y-3520000D03*
X1000000Y-15150000D03*
X8021653Y12302508D03*
X-1000000Y-15150000D03*
D37*
X2900000Y-5770000D03*
X2900000Y-4370000D03*
X2200000Y-6470000D03*
X2200000Y-5070000D03*
X2200000Y-3670000D03*
X1500000Y-5770000D03*
X1500000Y-4370000D03*
X800000Y-6470000D03*
X800000Y-5070000D03*
X800000Y-3670000D03*
X100000Y-5770000D03*
X100000Y-4370000D03*
D36*
X-6750000Y13875000D03*
X-6750000Y11335000D03*
X13145000Y-2790000D03*
X13145000Y210000D03*
D37*
X4960000Y-9900276D03*
X6060000Y-9900276D03*
M02*
