%TF.GenerationSoftware,KiCad,Pcbnew,7.0.6*%
%TF.CreationDate,2023-09-26T22:04:44+02:00*%
%TF.ProjectId,torque_controller,746f7271-7565-45f6-936f-6e74726f6c6c,rev?*%
%TF.SameCoordinates,Original*%
%TF.FileFunction,Legend,Bot*%
%TF.FilePolarity,Positive*%
%FSLAX46Y46*%
G04 Gerber Fmt 4.6, Leading zero omitted, Abs format (unit mm)*
G04 Created by KiCad (PCBNEW 7.0.6) date 2023-09-26 22:04:44*
%MOMM*%
%LPD*%
G01*
G04 APERTURE LIST*
%ADD10C,0.160000*%
%ADD11C,0.120000*%
%ADD12C,0.200000*%
%ADD13C,0.300000*%
%ADD14C,0.350000*%
%ADD15C,0.200000*%
G04 APERTURE END LIST*
D10*
X15584510Y1076692D02*
X15536891Y1219549D01*
X15536891Y1219549D02*
X15489272Y1267168D01*
X15489272Y1267168D02*
X15394034Y1314787D01*
X15394034Y1314787D02*
X15251177Y1314787D01*
X15251177Y1314787D02*
X15155939Y1267168D01*
X15155939Y1267168D02*
X15108320Y1219549D01*
X15108320Y1219549D02*
X15060700Y1124311D01*
X15060700Y1124311D02*
X15060700Y743359D01*
X15060700Y743359D02*
X16060700Y743359D01*
X16060700Y743359D02*
X16060700Y1076692D01*
X16060700Y1076692D02*
X16013081Y1171930D01*
X16013081Y1171930D02*
X15965462Y1219549D01*
X15965462Y1219549D02*
X15870224Y1267168D01*
X15870224Y1267168D02*
X15774986Y1267168D01*
X15774986Y1267168D02*
X15679748Y1219549D01*
X15679748Y1219549D02*
X15632129Y1171930D01*
X15632129Y1171930D02*
X15584510Y1076692D01*
X15584510Y1076692D02*
X15584510Y743359D01*
X16060700Y1933835D02*
X16060700Y2124311D01*
X16060700Y2124311D02*
X16013081Y2219549D01*
X16013081Y2219549D02*
X15917843Y2314787D01*
X15917843Y2314787D02*
X15727367Y2362406D01*
X15727367Y2362406D02*
X15394034Y2362406D01*
X15394034Y2362406D02*
X15203558Y2314787D01*
X15203558Y2314787D02*
X15108320Y2219549D01*
X15108320Y2219549D02*
X15060700Y2124311D01*
X15060700Y2124311D02*
X15060700Y1933835D01*
X15060700Y1933835D02*
X15108320Y1838597D01*
X15108320Y1838597D02*
X15203558Y1743359D01*
X15203558Y1743359D02*
X15394034Y1695740D01*
X15394034Y1695740D02*
X15727367Y1695740D01*
X15727367Y1695740D02*
X15917843Y1743359D01*
X15917843Y1743359D02*
X16013081Y1838597D01*
X16013081Y1838597D02*
X16060700Y1933835D01*
X16060700Y2981454D02*
X16060700Y3171930D01*
X16060700Y3171930D02*
X16013081Y3267168D01*
X16013081Y3267168D02*
X15917843Y3362406D01*
X15917843Y3362406D02*
X15727367Y3410025D01*
X15727367Y3410025D02*
X15394034Y3410025D01*
X15394034Y3410025D02*
X15203558Y3362406D01*
X15203558Y3362406D02*
X15108320Y3267168D01*
X15108320Y3267168D02*
X15060700Y3171930D01*
X15060700Y3171930D02*
X15060700Y2981454D01*
X15060700Y2981454D02*
X15108320Y2886216D01*
X15108320Y2886216D02*
X15203558Y2790978D01*
X15203558Y2790978D02*
X15394034Y2743359D01*
X15394034Y2743359D02*
X15727367Y2743359D01*
X15727367Y2743359D02*
X15917843Y2790978D01*
X15917843Y2790978D02*
X16013081Y2886216D01*
X16013081Y2886216D02*
X16060700Y2981454D01*
X16060700Y3695740D02*
X16060700Y4267168D01*
X15060700Y3981454D02*
X16060700Y3981454D01*
X628320Y-13464260D02*
X580700Y-13321403D01*
X580700Y-13321403D02*
X580700Y-13083308D01*
X580700Y-13083308D02*
X628320Y-12988070D01*
X628320Y-12988070D02*
X675939Y-12940451D01*
X675939Y-12940451D02*
X771177Y-12892832D01*
X771177Y-12892832D02*
X866415Y-12892832D01*
X866415Y-12892832D02*
X961653Y-12940451D01*
X961653Y-12940451D02*
X1009272Y-12988070D01*
X1009272Y-12988070D02*
X1056891Y-13083308D01*
X1056891Y-13083308D02*
X1104510Y-13273784D01*
X1104510Y-13273784D02*
X1152129Y-13369022D01*
X1152129Y-13369022D02*
X1199748Y-13416641D01*
X1199748Y-13416641D02*
X1294986Y-13464260D01*
X1294986Y-13464260D02*
X1390224Y-13464260D01*
X1390224Y-13464260D02*
X1485462Y-13416641D01*
X1485462Y-13416641D02*
X1533081Y-13369022D01*
X1533081Y-13369022D02*
X1580700Y-13273784D01*
X1580700Y-13273784D02*
X1580700Y-13035689D01*
X1580700Y-13035689D02*
X1533081Y-12892832D01*
X580700Y-12464260D02*
X1580700Y-12464260D01*
X1580700Y-12464260D02*
X1580700Y-12226165D01*
X1580700Y-12226165D02*
X1533081Y-12083308D01*
X1533081Y-12083308D02*
X1437843Y-11988070D01*
X1437843Y-11988070D02*
X1342605Y-11940451D01*
X1342605Y-11940451D02*
X1152129Y-11892832D01*
X1152129Y-11892832D02*
X1009272Y-11892832D01*
X1009272Y-11892832D02*
X818796Y-11940451D01*
X818796Y-11940451D02*
X723558Y-11988070D01*
X723558Y-11988070D02*
X628320Y-12083308D01*
X628320Y-12083308D02*
X580700Y-12226165D01*
X580700Y-12226165D02*
X580700Y-12464260D01*
X866415Y-11511879D02*
X866415Y-11035689D01*
X580700Y-11607117D02*
X1580700Y-11273784D01*
X1580700Y-11273784D02*
X580700Y-10940451D01*
X-1411680Y-13444260D02*
X-1459300Y-13301403D01*
X-1459300Y-13301403D02*
X-1459300Y-13063308D01*
X-1459300Y-13063308D02*
X-1411680Y-12968070D01*
X-1411680Y-12968070D02*
X-1364061Y-12920451D01*
X-1364061Y-12920451D02*
X-1268823Y-12872832D01*
X-1268823Y-12872832D02*
X-1173585Y-12872832D01*
X-1173585Y-12872832D02*
X-1078347Y-12920451D01*
X-1078347Y-12920451D02*
X-1030728Y-12968070D01*
X-1030728Y-12968070D02*
X-983109Y-13063308D01*
X-983109Y-13063308D02*
X-935490Y-13253784D01*
X-935490Y-13253784D02*
X-887871Y-13349022D01*
X-887871Y-13349022D02*
X-840252Y-13396641D01*
X-840252Y-13396641D02*
X-745014Y-13444260D01*
X-745014Y-13444260D02*
X-649776Y-13444260D01*
X-649776Y-13444260D02*
X-554538Y-13396641D01*
X-554538Y-13396641D02*
X-506919Y-13349022D01*
X-506919Y-13349022D02*
X-459300Y-13253784D01*
X-459300Y-13253784D02*
X-459300Y-13015689D01*
X-459300Y-13015689D02*
X-506919Y-12872832D01*
X-1364061Y-11872832D02*
X-1411680Y-11920451D01*
X-1411680Y-11920451D02*
X-1459300Y-12063308D01*
X-1459300Y-12063308D02*
X-1459300Y-12158546D01*
X-1459300Y-12158546D02*
X-1411680Y-12301403D01*
X-1411680Y-12301403D02*
X-1316442Y-12396641D01*
X-1316442Y-12396641D02*
X-1221204Y-12444260D01*
X-1221204Y-12444260D02*
X-1030728Y-12491879D01*
X-1030728Y-12491879D02*
X-887871Y-12491879D01*
X-887871Y-12491879D02*
X-697395Y-12444260D01*
X-697395Y-12444260D02*
X-602157Y-12396641D01*
X-602157Y-12396641D02*
X-506919Y-12301403D01*
X-506919Y-12301403D02*
X-459300Y-12158546D01*
X-459300Y-12158546D02*
X-459300Y-12063308D01*
X-459300Y-12063308D02*
X-506919Y-11920451D01*
X-506919Y-11920451D02*
X-554538Y-11872832D01*
X-1459300Y-10968070D02*
X-1459300Y-11444260D01*
X-1459300Y-11444260D02*
X-459300Y-11444260D01*
X-4336919Y-14805608D02*
X-4289300Y-14900846D01*
X-4289300Y-14900846D02*
X-4289300Y-15043703D01*
X-4289300Y-15043703D02*
X-4336919Y-15186560D01*
X-4336919Y-15186560D02*
X-4432157Y-15281798D01*
X-4432157Y-15281798D02*
X-4527395Y-15329417D01*
X-4527395Y-15329417D02*
X-4717871Y-15377036D01*
X-4717871Y-15377036D02*
X-4860728Y-15377036D01*
X-4860728Y-15377036D02*
X-5051204Y-15329417D01*
X-5051204Y-15329417D02*
X-5146442Y-15281798D01*
X-5146442Y-15281798D02*
X-5241680Y-15186560D01*
X-5241680Y-15186560D02*
X-5289300Y-15043703D01*
X-5289300Y-15043703D02*
X-5289300Y-14948465D01*
X-5289300Y-14948465D02*
X-5241680Y-14805608D01*
X-5241680Y-14805608D02*
X-5194061Y-14757989D01*
X-5194061Y-14757989D02*
X-4860728Y-14757989D01*
X-4860728Y-14757989D02*
X-4860728Y-14948465D01*
X-4622633Y-14329417D02*
X-5289300Y-14329417D01*
X-4717871Y-14329417D02*
X-4670252Y-14281798D01*
X-4670252Y-14281798D02*
X-4622633Y-14186560D01*
X-4622633Y-14186560D02*
X-4622633Y-14043703D01*
X-4622633Y-14043703D02*
X-4670252Y-13948465D01*
X-4670252Y-13948465D02*
X-4765490Y-13900846D01*
X-4765490Y-13900846D02*
X-5289300Y-13900846D01*
X-5289300Y-12996084D02*
X-4289300Y-12996084D01*
X-5241680Y-12996084D02*
X-5289300Y-13091322D01*
X-5289300Y-13091322D02*
X-5289300Y-13281798D01*
X-5289300Y-13281798D02*
X-5241680Y-13377036D01*
X-5241680Y-13377036D02*
X-5194061Y-13424655D01*
X-5194061Y-13424655D02*
X-5098823Y-13472274D01*
X-5098823Y-13472274D02*
X-4813109Y-13472274D01*
X-4813109Y-13472274D02*
X-4717871Y-13424655D01*
X-4717871Y-13424655D02*
X-4670252Y-13377036D01*
X-4670252Y-13377036D02*
X-4622633Y-13281798D01*
X-4622633Y-13281798D02*
X-4622633Y-13091322D01*
X-4622633Y-13091322D02*
X-4670252Y-12996084D01*
X5410700Y-15532274D02*
X4410700Y-15198941D01*
X4410700Y-15198941D02*
X5410700Y-14865608D01*
X4458320Y-14103703D02*
X4410700Y-14198941D01*
X4410700Y-14198941D02*
X4410700Y-14389417D01*
X4410700Y-14389417D02*
X4458320Y-14484655D01*
X4458320Y-14484655D02*
X4505939Y-14532274D01*
X4505939Y-14532274D02*
X4601177Y-14579893D01*
X4601177Y-14579893D02*
X4886891Y-14579893D01*
X4886891Y-14579893D02*
X4982129Y-14532274D01*
X4982129Y-14532274D02*
X5029748Y-14484655D01*
X5029748Y-14484655D02*
X5077367Y-14389417D01*
X5077367Y-14389417D02*
X5077367Y-14198941D01*
X5077367Y-14198941D02*
X5029748Y-14103703D01*
X4458320Y-13246560D02*
X4410700Y-13341798D01*
X4410700Y-13341798D02*
X4410700Y-13532274D01*
X4410700Y-13532274D02*
X4458320Y-13627512D01*
X4458320Y-13627512D02*
X4505939Y-13675131D01*
X4505939Y-13675131D02*
X4601177Y-13722750D01*
X4601177Y-13722750D02*
X4886891Y-13722750D01*
X4886891Y-13722750D02*
X4982129Y-13675131D01*
X4982129Y-13675131D02*
X5029748Y-13627512D01*
X5029748Y-13627512D02*
X5077367Y-13532274D01*
X5077367Y-13532274D02*
X5077367Y-13341798D01*
X5077367Y-13341798D02*
X5029748Y-13246560D01*
D11*
%TO.C,RS1*%
X-9002936Y-4910000D02*
X-10457064Y-4910000D01*
X-9002936Y-3090000D02*
X-10457064Y-3090000D01*
%TO.C,CMAG1*%
X-5150000Y399420D02*
X-5150000Y680580D01*
X-4130000Y399420D02*
X-4130000Y680580D01*
%TO.C,CINA1*%
X-13340000Y7264420D02*
X-13340000Y7545580D01*
X-12320000Y7264420D02*
X-12320000Y7545580D01*
%TO.C,RS2*%
X-9002936Y3090000D02*
X-10457064Y3090000D01*
X-9002936Y4910000D02*
X-10457064Y4910000D01*
%TO.C,C2*%
X3700000Y-8924420D02*
X3700000Y-9205580D01*
X2680000Y-8924420D02*
X2680000Y-9205580D01*
%TO.C,C3*%
X5590580Y-12632776D02*
X5309420Y-12632776D01*
X5590580Y-11612776D02*
X5309420Y-11612776D01*
%TO.C,M2*%
X-15200000Y1200000D02*
X-15200000Y-1200000D01*
X-15200000Y-1200000D02*
X-12800000Y-1200000D01*
X-12800000Y1200000D02*
X-15200000Y1200000D01*
X-12800000Y-1200000D02*
X-12800000Y1200000D01*
%TO.C,M1*%
X-15200000Y-5200000D02*
X-12800000Y-5200000D01*
X-12800000Y-5200000D02*
X-12800000Y-2800000D01*
X-15200000Y-2800000D02*
X-15200000Y-5200000D01*
X-12800000Y-2800000D02*
X-15200000Y-2800000D01*
%TO.C,RBOOT1*%
X8302742Y-3262500D02*
X8777258Y-3262500D01*
X8302742Y-2217500D02*
X8777258Y-2217500D01*
%TO.C,CVCP1*%
X5228781Y555970D02*
X5029970Y754781D01*
X5950030Y1277219D02*
X5751219Y1476030D01*
%TO.C,U3*%
X-9730000Y5670000D02*
X-8930000Y5670000D01*
X-9730000Y5670000D02*
X-10530000Y5670000D01*
X-9730000Y8790000D02*
X-7930000Y8790000D01*
X-9730000Y8790000D02*
X-10530000Y8790000D01*
%TO.C,AS5048A1*%
X0Y-2610000D02*
X2200000Y-2610000D01*
X0Y-2610000D02*
X-2200000Y-2610000D01*
X0Y2610000D02*
X3600000Y2610000D01*
X0Y2610000D02*
X-2200000Y2610000D01*
%TO.C,REN1*%
X9841697Y11677230D02*
X10177230Y11341697D01*
X9102770Y10938303D02*
X9438303Y10602770D01*
%TO.C,CDRV1*%
X-4600000Y7632500D02*
X-4600000Y15692500D01*
X-80000Y7632500D02*
X-4600000Y7632500D01*
X-80000Y15692500D02*
X-80000Y7632500D01*
%TO.C,CINA2*%
X-13340000Y-7885580D02*
X-13340000Y-7604420D01*
X-12320000Y-7885580D02*
X-12320000Y-7604420D01*
%TO.C,U2*%
X-9500000Y-6360000D02*
X-10300000Y-6360000D01*
X-9500000Y-6360000D02*
X-7700000Y-6360000D01*
X-9500000Y-9480000D02*
X-10300000Y-9480000D01*
X-9500000Y-9480000D02*
X-8700000Y-9480000D01*
%TO.C,CCP1*%
X8129970Y321219D02*
X8328781Y520030D01*
X8851219Y-400030D02*
X9050030Y-201219D01*
%TO.C,SW1*%
X13535000Y-4740000D02*
X12745000Y-4740000D01*
X11695000Y-2690000D02*
X11695000Y-2890000D01*
X15835000Y-1190000D02*
X14545000Y-1190000D01*
X15835000Y-1190000D02*
X16045000Y-990000D01*
X16045000Y-90000D02*
X16045000Y-990000D01*
X14545000Y110000D02*
X15835000Y110000D01*
X15835000Y110000D02*
X16045000Y-90000D01*
X11695000Y310000D02*
X11695000Y-1390000D01*
X14545000Y1560000D02*
X14545000Y-4140000D01*
X12745000Y2160000D02*
X13535000Y2160000D01*
D12*
%TO.C,IC1*%
X7645495Y1107270D02*
X8688478Y2150253D01*
D11*
%TO.C,M3*%
X-15200000Y2800000D02*
X-12800000Y2800000D01*
X-12800000Y2800000D02*
X-12800000Y5200000D01*
X-15200000Y5200000D02*
X-15200000Y2800000D01*
X-12800000Y5200000D02*
X-15200000Y5200000D01*
%TO.C,U1*%
X4400000Y-10900276D02*
X4400000Y-8900276D01*
X6620000Y-9900276D02*
X6620000Y-8900276D01*
%TD*%
D13*
X7030000Y14095000D03*
X3940500Y10750000D03*
X-7110000Y-6970000D03*
X-13905000Y-6970000D03*
X11860000Y-11140000D03*
X10830000Y-5010000D03*
X11860000Y-9590000D03*
X10210000Y-12410000D03*
X-13980000Y6630000D03*
X-7100000Y-8160000D03*
X-609995Y12660008D03*
X-570004Y10750002D03*
X5715000Y6710000D03*
D14*
X6850000Y7100000D03*
D13*
X12440000Y-3540000D03*
X12540000Y3740000D03*
X-9760000Y7230000D03*
X-12830000Y-9620000D03*
X-4640000Y2275500D03*
D14*
X3380000Y-11830000D03*
X-2340000Y15155000D03*
X-3020000Y-15680000D03*
D13*
X-7310000Y-12410000D03*
D14*
X-3010000Y-14627247D03*
D13*
X-4640000Y-1163650D03*
X-13980000Y8180000D03*
D14*
X6225000Y-13440000D03*
D13*
X12430000Y960000D03*
X1600000Y0D03*
D14*
X1760000Y-8290000D03*
X-2340000Y8930000D03*
X4560000Y-230000D03*
X2990000Y-15660000D03*
X3000000Y-14630000D03*
D13*
X9770000Y12420000D03*
X-9980000Y4100000D03*
X6370000Y-2740000D03*
X7120000Y-6060000D03*
X7120000Y-4790000D03*
X-7350000Y8180000D03*
X12440000Y7630000D03*
X11545603Y8585103D03*
X10610000Y9510000D03*
X560000Y2110000D03*
X-7440000Y290000D03*
X548736Y1300000D03*
X-7390000Y-2250000D03*
X550000Y460000D03*
X-5680000Y-3520000D03*
X1000000Y-15150000D03*
X8021653Y12302508D03*
X-1000000Y-15150000D03*
D15*
X2900000Y-5770000D03*
X2900000Y-4370000D03*
X2200000Y-6470000D03*
X2200000Y-5070000D03*
X2200000Y-3670000D03*
X1500000Y-5770000D03*
X1500000Y-4370000D03*
X800000Y-6470000D03*
X800000Y-5070000D03*
X800000Y-3670000D03*
X100000Y-5770000D03*
X100000Y-4370000D03*
D14*
X-6750000Y13875000D03*
X-6750000Y11335000D03*
X13145000Y-2790000D03*
X13145000Y210000D03*
D15*
X4960000Y-9900276D03*
X6060000Y-9900276D03*
M02*
