%TF.GenerationSoftware,KiCad,Pcbnew,7.0.6*%
%TF.CreationDate,2023-09-26T22:04:44+02:00*%
%TF.ProjectId,torque_controller,746f7271-7565-45f6-936f-6e74726f6c6c,rev?*%
%TF.SameCoordinates,Original*%
%TF.FileFunction,Copper,L2,Inr*%
%TF.FilePolarity,Positive*%
%FSLAX46Y46*%
G04 Gerber Fmt 4.6, Leading zero omitted, Abs format (unit mm)*
G04 Created by KiCad (PCBNEW 7.0.6) date 2023-09-26 22:04:44*
%MOMM*%
%LPD*%
G01*
G04 APERTURE LIST*
%TA.AperFunction,HeatsinkPad*%
%ADD10C,0.600000*%
%TD*%
%TA.AperFunction,ComponentPad*%
%ADD11R,1.700000X1.700000*%
%TD*%
%TA.AperFunction,ComponentPad*%
%ADD12O,1.700000X1.700000*%
%TD*%
%TA.AperFunction,ComponentPad*%
%ADD13C,0.500000*%
%TD*%
%TA.AperFunction,ViaPad*%
%ADD14C,0.500000*%
%TD*%
%TA.AperFunction,ViaPad*%
%ADD15C,1.000000*%
%TD*%
%TA.AperFunction,Conductor*%
%ADD16C,0.300000*%
%TD*%
%TA.AperFunction,Conductor*%
%ADD17C,0.200000*%
%TD*%
%ADD18C,0.300000*%
%ADD19C,0.350000*%
%ADD20C,0.200000*%
G04 APERTURE END LIST*
D10*
%TO.N,GND*%
%TO.C,ESP32*%
X2900000Y-5770000D03*
X2900000Y-4370000D03*
X2200000Y-6470000D03*
X2200000Y-5070000D03*
X2200000Y-3670000D03*
X1500000Y-5770000D03*
X1500000Y-4370000D03*
X800000Y-6470000D03*
X800000Y-5070000D03*
X800000Y-3670000D03*
X100000Y-5770000D03*
X100000Y-4370000D03*
%TD*%
D11*
%TO.N,/TX*%
%TO.C,J3*%
X-6750000Y13875000D03*
D12*
%TO.N,/RX*%
X-6750000Y11335000D03*
%TD*%
D13*
%TO.N,GND*%
%TO.C,U1*%
X4960000Y-9900276D03*
X6060000Y-9900276D03*
%TD*%
D14*
%TO.N,+3.3V*%
X7030000Y14095000D03*
%TO.N,Net-(D1-K)*%
X3940500Y10750000D03*
%TO.N,/CURR_SENS1*%
X-7110000Y-6970000D03*
%TO.N,+3.3V*%
X-13905000Y-6970000D03*
X11860000Y-11140000D03*
X10830000Y-5010000D03*
%TO.N,GND*%
X11860000Y-9590000D03*
X10210000Y-12410000D03*
X-13980000Y6630000D03*
X-7100000Y-8160000D03*
%TO.N,+3.3V*%
X-609995Y12660008D03*
%TO.N,GND*%
X-570004Y10750002D03*
X5715000Y6710000D03*
D15*
X6850000Y7100000D03*
D14*
X12440000Y-3540000D03*
X12540000Y3740000D03*
X-9760000Y7230000D03*
X-12830000Y-9620000D03*
X-4640000Y2275500D03*
D15*
X3380000Y-11830000D03*
X-2340000Y15155000D03*
X-3020000Y-15680000D03*
D14*
X-7310000Y-12410000D03*
D15*
X-3010000Y-14627247D03*
D14*
%TO.N,+3.3V*%
X-4640000Y-1163650D03*
X-13980000Y8180000D03*
D15*
X6225000Y-13440000D03*
D14*
X12430000Y960000D03*
X1600000Y0D03*
D15*
%TO.N,VCC*%
X1760000Y-8290000D03*
X-2340000Y8930000D03*
X4560000Y-230000D03*
X2990000Y-15660000D03*
X3000000Y-14630000D03*
D14*
%TO.N,/EN_DRV*%
X9770000Y12420000D03*
%TO.N,/BOOT*%
X-9980000Y4100000D03*
X6370000Y-2740000D03*
%TO.N,/CURR_SENS1*%
X7120000Y-6060000D03*
%TO.N,/CURR_SENS2*%
X7120000Y-4790000D03*
X-7350000Y8180000D03*
%TO.N,/PWM_OUT1*%
X12440000Y7630000D03*
%TO.N,/PWM_OUT2*%
X11545603Y8585103D03*
%TO.N,/PWM_OUT3*%
X10610000Y9510000D03*
%TO.N,/CS*%
X560000Y2110000D03*
X-7440000Y290000D03*
%TO.N,/CLK*%
X548736Y1300000D03*
X-7390000Y-2250000D03*
%TO.N,/MISO*%
X550000Y460000D03*
X-5680000Y-3520000D03*
%TO.N,/SDA*%
X1000000Y-15150000D03*
%TO.N,Net-(D1-K)*%
X8021653Y12302508D03*
%TO.N,/SCL*%
X-1000000Y-15150000D03*
%TD*%
D16*
%TO.N,Net-(D1-K)*%
X6469145Y10750000D02*
X8021653Y12302508D01*
X3940500Y10750000D02*
X6469145Y10750000D01*
D17*
%TO.N,/CS*%
X-2110000Y290000D02*
X-290000Y2110000D01*
X-290000Y2110000D02*
X560000Y2110000D01*
X-7440000Y290000D02*
X-2110000Y290000D01*
%TO.N,/CLK*%
X-3835000Y-2250000D02*
X-285000Y1300000D01*
X-7390000Y-2250000D02*
X-3835000Y-2250000D01*
X-285000Y1300000D02*
X548736Y1300000D01*
%TO.N,/CURR_SENS1*%
X5790000Y-7400000D02*
X7120000Y-6070000D01*
X-6680000Y-7400000D02*
X5790000Y-7400000D01*
X-7110000Y-6970000D02*
X-6680000Y-7400000D01*
%TO.N,/BOOT*%
X6370000Y-2740000D02*
X6370000Y1544314D01*
X6370000Y1544314D02*
X3814314Y4100000D01*
X3814314Y4100000D02*
X-9980000Y4100000D01*
%TO.N,/CURR_SENS2*%
X7120000Y1360000D02*
X7120000Y-4790000D01*
X3740000Y4740000D02*
X7120000Y1360000D01*
X-7350000Y8180000D02*
X-3910000Y4740000D01*
X-3910000Y4740000D02*
X3740000Y4740000D01*
%TO.N,/MISO*%
X-5680000Y-3520000D02*
X-4270000Y-3520000D01*
X-290000Y460000D02*
X550000Y460000D01*
X-4270000Y-3520000D02*
X-290000Y460000D01*
%TD*%
%TA.AperFunction,Conductor*%
%TO.N,+3.3V*%
G36*
X598351Y17235655D02*
G01*
X1026876Y17215759D01*
X1409748Y17188178D01*
X1837075Y17148412D01*
X2217909Y17102547D01*
X2643297Y17042953D01*
X3020995Y16978975D01*
X3443618Y16899631D01*
X3817283Y16817742D01*
X4236399Y16718734D01*
X4604822Y16619271D01*
X5019801Y16500672D01*
X5381797Y16384068D01*
X5792111Y16245919D01*
X6019766Y16160341D01*
X6146571Y16112674D01*
X6551558Y15955052D01*
X6897147Y15805872D01*
X7296486Y15628705D01*
X7631733Y15464503D01*
X8025230Y15267603D01*
X8204649Y15168794D01*
X8348209Y15089733D01*
X8736171Y14872544D01*
X9044032Y14683227D01*
X9183432Y14596461D01*
X9427715Y14444413D01*
X9714994Y14248180D01*
X10098361Y13984132D01*
X10350444Y13793601D01*
X10745496Y13493568D01*
X10747617Y13491880D01*
X10866636Y13392612D01*
X11266038Y13058968D01*
X11304867Y13000883D01*
X11306129Y12931025D01*
X11288604Y12894786D01*
X11289035Y12894519D01*
X11286499Y12890434D01*
X11286493Y12890419D01*
X11286482Y12890404D01*
X11220317Y12783770D01*
X11220315Y12783766D01*
X11163337Y12691938D01*
X11110536Y12567055D01*
X11110354Y12566834D01*
X11109800Y12565316D01*
X11072381Y12476811D01*
X11037780Y12338229D01*
X11037295Y12337403D01*
X11036345Y12332481D01*
X11030344Y12308444D01*
X11029407Y12305095D01*
X11014610Y12257392D01*
X11015290Y12244492D01*
X11002420Y12100820D01*
X11001789Y12099220D01*
X11001805Y12098663D01*
X11001581Y12091448D01*
X10998089Y12052465D01*
X10997757Y12049540D01*
X10993248Y12016789D01*
X10995808Y12004786D01*
X11005323Y11860826D01*
X11004742Y11858226D01*
X11005147Y11856136D01*
X11006141Y11848442D01*
X11010321Y11785194D01*
X11010573Y11775906D01*
X11014733Y11765105D01*
X11046405Y11624346D01*
X11046177Y11620808D01*
X11047338Y11617677D01*
X11049696Y11609724D01*
X11061637Y11556650D01*
X11063057Y11552045D01*
X11062653Y11551921D01*
X11065577Y11541893D01*
X11071557Y11531571D01*
X11124619Y11397422D01*
X11125019Y11393034D01*
X11132584Y11377286D01*
X11147545Y11339462D01*
X11147546Y11339459D01*
X11149959Y11335360D01*
X11157922Y11318599D01*
X11164814Y11310122D01*
X11237992Y11185797D01*
X11239251Y11180791D01*
X11239432Y11180569D01*
X11250106Y11165216D01*
X11250113Y11165205D01*
X11266026Y11138170D01*
X11274543Y11127794D01*
X11284728Y11113010D01*
X11292112Y11106392D01*
X11383639Y10994890D01*
X11385943Y10989466D01*
X11386339Y10989116D01*
X11400056Y10974889D01*
X11414212Y10957644D01*
X11430857Y10942804D01*
X11442724Y10930389D01*
X11450181Y10925575D01*
X11557861Y10829570D01*
X11561337Y10823989D01*
X11561847Y10823669D01*
X11578513Y10811156D01*
X11588534Y10802222D01*
X11588543Y10802215D01*
X11588547Y10802212D01*
X11614905Y10785213D01*
X11627822Y10775428D01*
X11634973Y10772271D01*
X11756210Y10694081D01*
X11760927Y10688619D01*
X11761439Y10688405D01*
X11780827Y10678204D01*
X11784831Y10675622D01*
X11784833Y10675621D01*
X11784835Y10675620D01*
X11822008Y10659132D01*
X11835276Y10652079D01*
X11841793Y10650357D01*
X11973674Y10591863D01*
X11979636Y10586809D01*
X11980024Y10586717D01*
X11993654Y10582129D01*
X11993796Y10582528D01*
X11998331Y10580925D01*
X12050877Y10566826D01*
X12058729Y10564145D01*
X12060420Y10563439D01*
X12065366Y10562939D01*
X12204692Y10525557D01*
X12211841Y10521196D01*
X12224543Y10520332D01*
X12287648Y10513566D01*
X12295294Y10512258D01*
X12296250Y10512033D01*
X12299970Y10512244D01*
X12423582Y10498992D01*
X12443403Y10496867D01*
X12451620Y10493467D01*
X12488161Y10496985D01*
X12491062Y10497196D01*
X12530249Y10499099D01*
X12537237Y10499032D01*
X12539643Y10499556D01*
X12683717Y10506553D01*
X12692827Y10504352D01*
X12744817Y10518180D01*
X12748176Y10518974D01*
X12772499Y10524002D01*
X12776936Y10524673D01*
X12778282Y10525197D01*
X12845769Y10539150D01*
X12918169Y10554117D01*
X13008153Y10587906D01*
X13009510Y10588340D01*
X13009869Y10588549D01*
X13136820Y10636217D01*
X13136823Y10636220D01*
X13136826Y10636220D01*
X13340149Y10751163D01*
X13340151Y10751165D01*
X13344367Y10753548D01*
X13344871Y10752656D01*
X13406728Y10772280D01*
X13474177Y10754049D01*
X13507738Y10723855D01*
X13904097Y10207945D01*
X13918443Y10189247D01*
X13920111Y10186966D01*
X14050450Y9999937D01*
X14227852Y9745374D01*
X14228309Y9744719D01*
X14383287Y9521413D01*
X14403998Y9488538D01*
X14645123Y9105790D01*
X14815364Y8833617D01*
X15047247Y8424575D01*
X15214575Y8126275D01*
X15421994Y7717195D01*
X15428647Y7703882D01*
X15580039Y7400949D01*
X15765241Y6989337D01*
X15802969Y6903871D01*
X15910957Y6659239D01*
X16075000Y6244132D01*
X16206593Y5902790D01*
X16350014Y5483923D01*
X16466288Y5133301D01*
X16589353Y4710792D01*
X16689474Y4352462D01*
X16792294Y3926731D01*
X16875660Y3562010D01*
X16885783Y3509519D01*
X16958294Y3133530D01*
X17024433Y2763698D01*
X17086896Y2333107D01*
X17135469Y1959306D01*
X17177772Y1527254D01*
X17208524Y1150611D01*
X17230677Y717843D01*
X17243443Y339414D01*
X17245470Y-93352D01*
X17240153Y-472461D01*
X17222097Y-904456D01*
X17198666Y-1283270D01*
X17160594Y-1713656D01*
X17119082Y-2091168D01*
X17061090Y-2519128D01*
X17001578Y-2894412D01*
X16923792Y-3319116D01*
X16846436Y-3691127D01*
X16748992Y-4111839D01*
X16654000Y-4479607D01*
X16537074Y-4895514D01*
X16424720Y-5258063D01*
X16288511Y-5668376D01*
X16159097Y-6024827D01*
X16003840Y-6428735D01*
X15857790Y-6778054D01*
X15683668Y-7174941D01*
X15625314Y-7297694D01*
X15521444Y-7516190D01*
X15328751Y-7905224D01*
X15150871Y-8237506D01*
X14939825Y-8618061D01*
X14746926Y-8940409D01*
X14517791Y-9311794D01*
X14310578Y-9623289D01*
X14063526Y-9984973D01*
X13842950Y-10284499D01*
X13578084Y-10636025D01*
X13345142Y-10922616D01*
X13062528Y-11263522D01*
X12818529Y-11536035D01*
X12518001Y-11866072D01*
X12264744Y-12123106D01*
X11945682Y-12442362D01*
X11685863Y-12682018D01*
X11346864Y-12991085D01*
X11084781Y-13210629D01*
X10722875Y-13511023D01*
X10467382Y-13705070D01*
X10075069Y-14001042D01*
X9851328Y-14154706D01*
X9406093Y-14459224D01*
X9403711Y-14460774D01*
X9383683Y-14473165D01*
X8822394Y-14819935D01*
X8755015Y-14838424D01*
X8688336Y-14817551D01*
X8659612Y-14789604D01*
X8659205Y-14789944D01*
X8656111Y-14786230D01*
X8656109Y-14786226D01*
X8656105Y-14786222D01*
X8656101Y-14786217D01*
X8568140Y-14695972D01*
X8568137Y-14695969D01*
X8493090Y-14618973D01*
X8493089Y-14618972D01*
X8493088Y-14618971D01*
X8493081Y-14618965D01*
X8384826Y-14537879D01*
X8384498Y-14537441D01*
X8381963Y-14535734D01*
X8306164Y-14478958D01*
X8306161Y-14478956D01*
X8306157Y-14478953D01*
X8306151Y-14478949D01*
X8306145Y-14478946D01*
X8179546Y-14411816D01*
X8178679Y-14410970D01*
X8173011Y-14408352D01*
X8149387Y-14395825D01*
X8146429Y-14394151D01*
X8105826Y-14369681D01*
X8093175Y-14367248D01*
X7956989Y-14320261D01*
X7955253Y-14319027D01*
X7953909Y-14318736D01*
X7946815Y-14316751D01*
X7905763Y-14302587D01*
X7903108Y-14301603D01*
X7876904Y-14291200D01*
X7864713Y-14290805D01*
X7749667Y-14270239D01*
X7722766Y-14265430D01*
X7720013Y-14264057D01*
X7717200Y-14263920D01*
X7709318Y-14263026D01*
X7649101Y-14252261D01*
X7649097Y-14252261D01*
X7642119Y-14251160D01*
X7638421Y-14250358D01*
X7627061Y-14251788D01*
X7482827Y-14248676D01*
X7479038Y-14247474D01*
X7475124Y-14247928D01*
X7466638Y-14248327D01*
X7415613Y-14247226D01*
X7410800Y-14247497D01*
X7410791Y-14247351D01*
X7397507Y-14247914D01*
X7386306Y-14251169D01*
X7243274Y-14270416D01*
X7238510Y-14269687D01*
X7238274Y-14269755D01*
X7220555Y-14273473D01*
X7184143Y-14278373D01*
X7176246Y-14280722D01*
X7158183Y-14284425D01*
X7148591Y-14288947D01*
X7105973Y-14301623D01*
X7010240Y-14330096D01*
X7004629Y-14330115D01*
X7004116Y-14330360D01*
X6986159Y-14337258D01*
X6960277Y-14344956D01*
X6944458Y-14352489D01*
X6927869Y-14358773D01*
X6920004Y-14364133D01*
X6789681Y-14426192D01*
X6783408Y-14427196D01*
X6782824Y-14427604D01*
X6765221Y-14437839D01*
X6749409Y-14445369D01*
X6749405Y-14445371D01*
X6749401Y-14445373D01*
X6729710Y-14458837D01*
X6727695Y-14460216D01*
X6727114Y-14460613D01*
X6712503Y-14469018D01*
X6706370Y-14474797D01*
X6587224Y-14556264D01*
X6580530Y-14558438D01*
X6580032Y-14558925D01*
X6563410Y-14572548D01*
X6556613Y-14577195D01*
X6556602Y-14577204D01*
X6529846Y-14602385D01*
X6517614Y-14612316D01*
X6513150Y-14618099D01*
X6408065Y-14716997D01*
X6401214Y-14720472D01*
X6400890Y-14720915D01*
X6389662Y-14733604D01*
X6389770Y-14733702D01*
X6386529Y-14737264D01*
X6386528Y-14737266D01*
X6373248Y-14754362D01*
X6355219Y-14777574D01*
X6349560Y-14783911D01*
X6347948Y-14785483D01*
X6345284Y-14790364D01*
X6256787Y-14904299D01*
X6250073Y-14909140D01*
X6246809Y-14915590D01*
X6243279Y-14921680D01*
X6213671Y-14975232D01*
X6209397Y-14981914D01*
X6208500Y-14983135D01*
X6207051Y-14987204D01*
X6137286Y-15113387D01*
X6131005Y-15119601D01*
X6121459Y-15150025D01*
X6120550Y-15152707D01*
X6105676Y-15193490D01*
X6102746Y-15200248D01*
X6102535Y-15200663D01*
X6101987Y-15203603D01*
X6052629Y-15338935D01*
X6047078Y-15346462D01*
X6039942Y-15397260D01*
X6039377Y-15400611D01*
X6034217Y-15426818D01*
X6032834Y-15432249D01*
X6032785Y-15434092D01*
X6005102Y-15574690D01*
X6001403Y-15669335D01*
X6001154Y-15672113D01*
X6001262Y-15672933D01*
X5995979Y-15808060D01*
X5995980Y-15808076D01*
X6008413Y-15914541D01*
X6023071Y-16040059D01*
X6024007Y-16044811D01*
X6023000Y-16045009D01*
X6022144Y-16109900D01*
X5983597Y-16168174D01*
X5944551Y-16190454D01*
X5738656Y-16262417D01*
X5310343Y-16411398D01*
X4938280Y-16522996D01*
X4544345Y-16639232D01*
X4159436Y-16736113D01*
X3768599Y-16831385D01*
X3376309Y-16911618D01*
X2984816Y-16987431D01*
X2587459Y-17050297D01*
X2194607Y-17107046D01*
X1793825Y-17152154D01*
X1399682Y-17189966D01*
X996670Y-17217108D01*
X601714Y-17236009D01*
X197636Y-17245069D01*
X-197638Y-17245069D01*
X-601717Y-17236009D01*
X-996673Y-17217108D01*
X-1399685Y-17189966D01*
X-1793828Y-17152154D01*
X-2194610Y-17107046D01*
X-2587462Y-17050297D01*
X-2984819Y-16987431D01*
X-3376312Y-16911618D01*
X-3768602Y-16831385D01*
X-4159439Y-16736113D01*
X-4544348Y-16639232D01*
X-4938283Y-16522996D01*
X-5310346Y-16411398D01*
X-5738777Y-16262376D01*
X-5944552Y-16190455D01*
X-6001343Y-16149754D01*
X-6027114Y-16084811D01*
X-6023506Y-16044902D01*
X-6024007Y-16044804D01*
X-6023072Y-16040054D01*
X-6023072Y-16040053D01*
X-5995981Y-15808073D01*
X-5995982Y-15808060D01*
X-6000541Y-15691426D01*
X-6000988Y-15680000D01*
X-4025341Y-15680000D01*
X-4006025Y-15876129D01*
X-4006024Y-15876132D01*
X-3954858Y-16044804D01*
X-3948812Y-16064733D01*
X-3855914Y-16238532D01*
X-3855910Y-16238539D01*
X-3730884Y-16390883D01*
X-3578540Y-16515909D01*
X-3578533Y-16515913D01*
X-3404734Y-16608811D01*
X-3404731Y-16608811D01*
X-3404727Y-16608814D01*
X-3216132Y-16666024D01*
X-3020000Y-16685341D01*
X-2823868Y-16666024D01*
X-2635273Y-16608814D01*
X-2597855Y-16588814D01*
X-2461468Y-16515913D01*
X-2461462Y-16515910D01*
X-2309117Y-16390883D01*
X-2184090Y-16238538D01*
X-2091186Y-16064727D01*
X-2033976Y-15876132D01*
X-2014659Y-15680000D01*
X-2033976Y-15483868D01*
X-2091186Y-15295273D01*
X-2130657Y-15221429D01*
X-2144898Y-15153028D01*
X-2144009Y-15150002D01*
X-1755249Y-15150002D01*
X-1736315Y-15318056D01*
X-1680455Y-15477694D01*
X-1680453Y-15477697D01*
X-1590482Y-15620884D01*
X-1590477Y-15620890D01*
X-1470891Y-15740476D01*
X-1470885Y-15740481D01*
X-1327698Y-15830452D01*
X-1327695Y-15830454D01*
X-1327691Y-15830455D01*
X-1327690Y-15830456D01*
X-1255087Y-15855860D01*
X-1168057Y-15886314D01*
X-1000003Y-15905249D01*
X-1000000Y-15905249D01*
X-999997Y-15905249D01*
X-831944Y-15886314D01*
X-831941Y-15886313D01*
X-672310Y-15830456D01*
X-672308Y-15830454D01*
X-672306Y-15830454D01*
X-672303Y-15830452D01*
X-529116Y-15740481D01*
X-529115Y-15740480D01*
X-529110Y-15740477D01*
X-409523Y-15620890D01*
X-380495Y-15574693D01*
X-319548Y-15477697D01*
X-319546Y-15477694D01*
X-319546Y-15477692D01*
X-319544Y-15477690D01*
X-263687Y-15318059D01*
X-263687Y-15318058D01*
X-263686Y-15318056D01*
X-244751Y-15150002D01*
X244751Y-15150002D01*
X263685Y-15318056D01*
X319545Y-15477694D01*
X319547Y-15477697D01*
X409518Y-15620884D01*
X409523Y-15620890D01*
X529109Y-15740476D01*
X529115Y-15740481D01*
X672302Y-15830452D01*
X672305Y-15830454D01*
X672309Y-15830455D01*
X672310Y-15830456D01*
X744913Y-15855860D01*
X831943Y-15886314D01*
X999997Y-15905249D01*
X1000000Y-15905249D01*
X1000003Y-15905249D01*
X1168056Y-15886314D01*
X1168059Y-15886313D01*
X1327690Y-15830456D01*
X1327692Y-15830454D01*
X1327694Y-15830454D01*
X1327697Y-15830452D01*
X1470884Y-15740481D01*
X1470885Y-15740480D01*
X1470890Y-15740477D01*
X1551367Y-15660000D01*
X1984659Y-15660000D01*
X2003975Y-15856129D01*
X2003976Y-15856132D01*
X2059768Y-16040054D01*
X2061188Y-16044733D01*
X2154086Y-16218532D01*
X2154090Y-16218539D01*
X2279116Y-16370883D01*
X2431460Y-16495909D01*
X2431467Y-16495913D01*
X2605266Y-16588811D01*
X2605269Y-16588811D01*
X2605273Y-16588814D01*
X2793868Y-16646024D01*
X2990000Y-16665341D01*
X3186132Y-16646024D01*
X3374727Y-16588814D01*
X3548538Y-16495910D01*
X3700883Y-16370883D01*
X3825910Y-16218538D01*
X3918663Y-16045009D01*
X3918811Y-16044733D01*
X3918811Y-16044732D01*
X3918814Y-16044727D01*
X3976024Y-15856132D01*
X3995341Y-15660000D01*
X3976024Y-15463868D01*
X3918814Y-15275273D01*
X3885424Y-15212806D01*
X3871183Y-15144406D01*
X3885424Y-15095902D01*
X3928814Y-15014727D01*
X3986024Y-14826132D01*
X4005341Y-14630000D01*
X3986024Y-14433868D01*
X3928814Y-14245273D01*
X3928811Y-14245269D01*
X3928811Y-14245266D01*
X3835913Y-14071467D01*
X3835909Y-14071460D01*
X3710883Y-13919116D01*
X3558539Y-13794090D01*
X3558532Y-13794086D01*
X3384733Y-13701188D01*
X3384727Y-13701186D01*
X3196132Y-13643976D01*
X3196129Y-13643975D01*
X3000000Y-13624659D01*
X2803870Y-13643975D01*
X2615266Y-13701188D01*
X2441467Y-13794086D01*
X2441460Y-13794090D01*
X2289116Y-13919116D01*
X2164090Y-14071460D01*
X2164086Y-14071467D01*
X2071188Y-14245266D01*
X2013975Y-14433870D01*
X1994659Y-14630000D01*
X2013975Y-14826129D01*
X2071187Y-15014730D01*
X2104574Y-15077191D01*
X2118816Y-15145594D01*
X2104574Y-15194097D01*
X2061186Y-15275273D01*
X2055119Y-15295273D01*
X2003975Y-15463870D01*
X1984659Y-15660000D01*
X1551367Y-15660000D01*
X1590477Y-15620890D01*
X1619505Y-15574693D01*
X1680452Y-15477697D01*
X1680454Y-15477694D01*
X1680454Y-15477692D01*
X1680456Y-15477690D01*
X1736313Y-15318059D01*
X1736313Y-15318058D01*
X1736314Y-15318056D01*
X1755249Y-15150002D01*
X1755249Y-15149997D01*
X1736314Y-14981943D01*
X1701038Y-14881130D01*
X1680456Y-14822310D01*
X1680455Y-14822309D01*
X1680454Y-14822305D01*
X1680452Y-14822302D01*
X1590481Y-14679115D01*
X1590476Y-14679109D01*
X1470890Y-14559523D01*
X1470884Y-14559518D01*
X1327697Y-14469547D01*
X1327694Y-14469545D01*
X1168056Y-14413685D01*
X1000003Y-14394751D01*
X999997Y-14394751D01*
X831943Y-14413685D01*
X672305Y-14469545D01*
X672302Y-14469547D01*
X529115Y-14559518D01*
X529109Y-14559523D01*
X409523Y-14679109D01*
X409518Y-14679115D01*
X319547Y-14822302D01*
X319545Y-14822305D01*
X263685Y-14981943D01*
X244751Y-15149997D01*
X244751Y-15150002D01*
X-244751Y-15150002D01*
X-244751Y-15149997D01*
X-263686Y-14981943D01*
X-298962Y-14881130D01*
X-319544Y-14822310D01*
X-319545Y-14822309D01*
X-319546Y-14822305D01*
X-319548Y-14822302D01*
X-409519Y-14679115D01*
X-409524Y-14679109D01*
X-529110Y-14559523D01*
X-529116Y-14559518D01*
X-672303Y-14469547D01*
X-672306Y-14469545D01*
X-831944Y-14413685D01*
X-999997Y-14394751D01*
X-1000003Y-14394751D01*
X-1168057Y-14413685D01*
X-1327695Y-14469545D01*
X-1327698Y-14469547D01*
X-1470885Y-14559518D01*
X-1470891Y-14559523D01*
X-1590477Y-14679109D01*
X-1590482Y-14679115D01*
X-1680453Y-14822302D01*
X-1680455Y-14822305D01*
X-1736315Y-14981943D01*
X-1755249Y-15149997D01*
X-1755249Y-15150002D01*
X-2144009Y-15150002D01*
X-2130655Y-15104522D01*
X-2087856Y-15024452D01*
X-2081186Y-15011974D01*
X-2023976Y-14823379D01*
X-2004659Y-14627247D01*
X-2023976Y-14431115D01*
X-2081186Y-14242520D01*
X-2081189Y-14242516D01*
X-2081189Y-14242513D01*
X-2174087Y-14068714D01*
X-2174091Y-14068707D01*
X-2299117Y-13916363D01*
X-2451461Y-13791337D01*
X-2451468Y-13791333D01*
X-2625267Y-13698435D01*
X-2625273Y-13698433D01*
X-2751004Y-13660293D01*
X-2813871Y-13641222D01*
X-3010000Y-13621906D01*
X-3206130Y-13641222D01*
X-3394734Y-13698435D01*
X-3568533Y-13791333D01*
X-3568540Y-13791337D01*
X-3720884Y-13916363D01*
X-3845910Y-14068707D01*
X-3845914Y-14068714D01*
X-3938812Y-14242513D01*
X-3996025Y-14431117D01*
X-4015341Y-14627246D01*
X-3996025Y-14823376D01*
X-3996024Y-14823379D01*
X-3946329Y-14987201D01*
X-3938812Y-15011979D01*
X-3899345Y-15085816D01*
X-3885103Y-15154218D01*
X-3899345Y-15202722D01*
X-3948812Y-15295267D01*
X-4006025Y-15483870D01*
X-4025341Y-15680000D01*
X-6000988Y-15680000D01*
X-6001265Y-15672909D01*
X-6001132Y-15672380D01*
X-6001405Y-15669334D01*
X-6005104Y-15574694D01*
X-6032786Y-15434093D01*
X-6032676Y-15432883D01*
X-6034216Y-15426832D01*
X-6039379Y-15400611D01*
X-6039391Y-15400548D01*
X-6039951Y-15397225D01*
X-6046545Y-15350290D01*
X-6052630Y-15338935D01*
X-6101986Y-15203613D01*
X-6102122Y-15201486D01*
X-6102743Y-15200259D01*
X-6105674Y-15193500D01*
X-6120588Y-15152608D01*
X-6121478Y-15149983D01*
X-6129915Y-15123095D01*
X-6137290Y-15113384D01*
X-6186460Y-15024452D01*
X-6207057Y-14987198D01*
X-6207727Y-14984194D01*
X-6209394Y-14981922D01*
X-6213669Y-14975239D01*
X-6243281Y-14921680D01*
X-6246805Y-14915605D01*
X-6248520Y-14912216D01*
X-6256793Y-14904295D01*
X-6291846Y-14859167D01*
X-6345295Y-14790353D01*
X-6346750Y-14786656D01*
X-6349564Y-14783909D01*
X-6355225Y-14777569D01*
X-6386528Y-14737268D01*
X-6389771Y-14733703D01*
X-6389664Y-14733604D01*
X-6398476Y-14723645D01*
X-6408064Y-14717000D01*
X-6422548Y-14703369D01*
X-6430689Y-14695707D01*
X-6513158Y-14618092D01*
X-6515595Y-14613935D01*
X-6515791Y-14613798D01*
X-6529851Y-14602382D01*
X-6556605Y-14577203D01*
X-6556613Y-14577197D01*
X-6563409Y-14572550D01*
X-6577670Y-14560863D01*
X-6587222Y-14556267D01*
X-6706367Y-14474800D01*
X-6709918Y-14470458D01*
X-6710428Y-14470215D01*
X-6727105Y-14460621D01*
X-6749406Y-14445372D01*
X-6749408Y-14445371D01*
X-6749411Y-14445369D01*
X-6765230Y-14437836D01*
X-6780562Y-14428921D01*
X-6789684Y-14426191D01*
X-6920007Y-14364133D01*
X-6924739Y-14359898D01*
X-6925418Y-14359703D01*
X-6944464Y-14352487D01*
X-6960276Y-14344958D01*
X-6971732Y-14341550D01*
X-6986167Y-14337257D01*
X-7001902Y-14331212D01*
X-7010248Y-14330094D01*
X-7148593Y-14288947D01*
X-7154502Y-14285120D01*
X-7155190Y-14285041D01*
X-7176246Y-14280723D01*
X-7184144Y-14278374D01*
X-7220565Y-14273473D01*
X-7235975Y-14270239D01*
X-7243274Y-14270417D01*
X-7386308Y-14251170D01*
X-7393325Y-14248041D01*
X-7393877Y-14248069D01*
X-7410793Y-14247352D01*
X-7410801Y-14247498D01*
X-7415615Y-14247227D01*
X-7466634Y-14248328D01*
X-7475122Y-14247929D01*
X-7477358Y-14247669D01*
X-7482830Y-14248677D01*
X-7627065Y-14251789D01*
X-7635057Y-14249628D01*
X-7642132Y-14251162D01*
X-7649089Y-14252259D01*
X-7709318Y-14263027D01*
X-7717201Y-14263921D01*
X-7718701Y-14263994D01*
X-7722767Y-14265431D01*
X-7864714Y-14290807D01*
X-7873502Y-14289848D01*
X-7903163Y-14301623D01*
X-7905817Y-14302607D01*
X-7946816Y-14316753D01*
X-7953908Y-14318738D01*
X-7954365Y-14318836D01*
X-7956995Y-14320265D01*
X-8093184Y-14367252D01*
X-8102521Y-14367687D01*
X-8146458Y-14394167D01*
X-8149416Y-14395841D01*
X-8173007Y-14408350D01*
X-8178088Y-14410697D01*
X-8179548Y-14411819D01*
X-8306603Y-14479190D01*
X-8316228Y-14481160D01*
X-8365523Y-14523261D01*
X-8368617Y-14525738D01*
X-8381953Y-14535727D01*
X-8384254Y-14537276D01*
X-8384819Y-14537874D01*
X-8493087Y-14618971D01*
X-8493090Y-14618973D01*
X-8567883Y-14695707D01*
X-8567883Y-14695708D01*
X-8656102Y-14786218D01*
X-8659205Y-14789945D01*
X-8660012Y-14789273D01*
X-8710875Y-14829460D01*
X-8780413Y-14836259D01*
X-8822396Y-14819938D01*
X-9381848Y-14474302D01*
X-9396270Y-14465380D01*
X-9403751Y-14460751D01*
X-9406122Y-14459208D01*
X-9850587Y-14155217D01*
X-10075108Y-14001017D01*
X-10467066Y-13705312D01*
X-10722893Y-13511011D01*
X-11084529Y-13210842D01*
X-11228243Y-13090454D01*
X-11346898Y-12991058D01*
X-11601637Y-12758811D01*
X-11685597Y-12682264D01*
X-11798573Y-12578056D01*
X-11945722Y-12442326D01*
X-11978026Y-12410002D01*
X-8065249Y-12410002D01*
X-8046315Y-12578056D01*
X-7990455Y-12737694D01*
X-7990453Y-12737697D01*
X-7900482Y-12880884D01*
X-7900477Y-12880890D01*
X-7780891Y-13000476D01*
X-7780885Y-13000481D01*
X-7637698Y-13090452D01*
X-7637695Y-13090454D01*
X-7637691Y-13090455D01*
X-7637690Y-13090456D01*
X-7565087Y-13115860D01*
X-7478057Y-13146314D01*
X-7310003Y-13165249D01*
X-7310000Y-13165249D01*
X-7309997Y-13165249D01*
X-7141944Y-13146314D01*
X-7141941Y-13146313D01*
X-6982310Y-13090456D01*
X-6982308Y-13090454D01*
X-6982306Y-13090454D01*
X-6982303Y-13090452D01*
X-6839116Y-13000481D01*
X-6839115Y-13000480D01*
X-6839110Y-13000477D01*
X-6719523Y-12880890D01*
X-6719519Y-12880884D01*
X-6629548Y-12737697D01*
X-6629546Y-12737694D01*
X-6629546Y-12737692D01*
X-6629544Y-12737690D01*
X-6573687Y-12578059D01*
X-6573687Y-12578058D01*
X-6573686Y-12578056D01*
X-6554751Y-12410002D01*
X-6554751Y-12409997D01*
X-6573686Y-12241943D01*
X-6629546Y-12082305D01*
X-6629548Y-12082302D01*
X-6719519Y-11939115D01*
X-6719524Y-11939109D01*
X-6828633Y-11830000D01*
X2374659Y-11830000D01*
X2393975Y-12026129D01*
X2451188Y-12214733D01*
X2544086Y-12388532D01*
X2544090Y-12388539D01*
X2669116Y-12540883D01*
X2821460Y-12665909D01*
X2821467Y-12665913D01*
X2995266Y-12758811D01*
X2995269Y-12758811D01*
X2995273Y-12758814D01*
X3183868Y-12816024D01*
X3380000Y-12835341D01*
X3576132Y-12816024D01*
X3764727Y-12758814D01*
X3938538Y-12665910D01*
X4090883Y-12540883D01*
X4198295Y-12410002D01*
X9454751Y-12410002D01*
X9473685Y-12578056D01*
X9529545Y-12737694D01*
X9529547Y-12737697D01*
X9619518Y-12880884D01*
X9619523Y-12880890D01*
X9739109Y-13000476D01*
X9739115Y-13000481D01*
X9882302Y-13090452D01*
X9882305Y-13090454D01*
X9882309Y-13090455D01*
X9882310Y-13090456D01*
X9954913Y-13115860D01*
X10041943Y-13146314D01*
X10209997Y-13165249D01*
X10210000Y-13165249D01*
X10210003Y-13165249D01*
X10378056Y-13146314D01*
X10378059Y-13146313D01*
X10537690Y-13090456D01*
X10537692Y-13090454D01*
X10537694Y-13090454D01*
X10537697Y-13090452D01*
X10680884Y-13000481D01*
X10680885Y-13000480D01*
X10680890Y-13000477D01*
X10800477Y-12880890D01*
X10800481Y-12880884D01*
X10890452Y-12737697D01*
X10890454Y-12737694D01*
X10890454Y-12737692D01*
X10890456Y-12737690D01*
X10946313Y-12578059D01*
X10946313Y-12578058D01*
X10946314Y-12578056D01*
X10965249Y-12410002D01*
X10965249Y-12409997D01*
X10946314Y-12241943D01*
X10890454Y-12082305D01*
X10890452Y-12082302D01*
X10800481Y-11939115D01*
X10800476Y-11939109D01*
X10680890Y-11819523D01*
X10680884Y-11819518D01*
X10537697Y-11729547D01*
X10537694Y-11729545D01*
X10378056Y-11673685D01*
X10210003Y-11654751D01*
X10209997Y-11654751D01*
X10041943Y-11673685D01*
X9882305Y-11729545D01*
X9882302Y-11729547D01*
X9739115Y-11819518D01*
X9739109Y-11819523D01*
X9619523Y-11939109D01*
X9619518Y-11939115D01*
X9529547Y-12082302D01*
X9529545Y-12082305D01*
X9473685Y-12241943D01*
X9454751Y-12409997D01*
X9454751Y-12410002D01*
X4198295Y-12410002D01*
X4215910Y-12388538D01*
X4308814Y-12214727D01*
X4366024Y-12026132D01*
X4385341Y-11830000D01*
X4366024Y-11633868D01*
X4308814Y-11445273D01*
X4308811Y-11445269D01*
X4308811Y-11445266D01*
X4215913Y-11271467D01*
X4215909Y-11271460D01*
X4090883Y-11119116D01*
X3938539Y-10994090D01*
X3938532Y-10994086D01*
X3764733Y-10901188D01*
X3764727Y-10901186D01*
X3576132Y-10843976D01*
X3576129Y-10843975D01*
X3380000Y-10824659D01*
X3183870Y-10843975D01*
X2995266Y-10901188D01*
X2821467Y-10994086D01*
X2821460Y-10994090D01*
X2669116Y-11119116D01*
X2544090Y-11271460D01*
X2544086Y-11271467D01*
X2451188Y-11445266D01*
X2393975Y-11633870D01*
X2374659Y-11830000D01*
X-6828633Y-11830000D01*
X-6839110Y-11819523D01*
X-6839116Y-11819518D01*
X-6982303Y-11729547D01*
X-6982306Y-11729545D01*
X-7141944Y-11673685D01*
X-7309997Y-11654751D01*
X-7310003Y-11654751D01*
X-7478057Y-11673685D01*
X-7637695Y-11729545D01*
X-7637698Y-11729547D01*
X-7780885Y-11819518D01*
X-7780891Y-11819523D01*
X-7900477Y-11939109D01*
X-7900482Y-11939115D01*
X-7990453Y-12082302D01*
X-7990455Y-12082305D01*
X-8046315Y-12241943D01*
X-8065249Y-12409997D01*
X-8065249Y-12410002D01*
X-11978026Y-12410002D01*
X-12190361Y-12197538D01*
X-12264612Y-12123241D01*
X-12518018Y-11866057D01*
X-12693189Y-11673687D01*
X-12818415Y-11536165D01*
X-13062567Y-11263480D01*
X-13345007Y-10922783D01*
X-13362560Y-10901188D01*
X-13578124Y-10635977D01*
X-13619753Y-10580728D01*
X-13842826Y-10284670D01*
X-14063562Y-9984927D01*
X-14310531Y-9623362D01*
X-14310580Y-9623289D01*
X-14312767Y-9620002D01*
X-13585249Y-9620002D01*
X-13566315Y-9788056D01*
X-13510455Y-9947694D01*
X-13510453Y-9947697D01*
X-13420482Y-10090884D01*
X-13420477Y-10090890D01*
X-13300891Y-10210476D01*
X-13300885Y-10210481D01*
X-13157698Y-10300452D01*
X-13157695Y-10300454D01*
X-13157691Y-10300455D01*
X-13157690Y-10300456D01*
X-13085087Y-10325860D01*
X-12998057Y-10356314D01*
X-12830003Y-10375249D01*
X-12830000Y-10375249D01*
X-12829997Y-10375249D01*
X-12661944Y-10356314D01*
X-12630322Y-10345249D01*
X-12502310Y-10300456D01*
X-12502308Y-10300454D01*
X-12502306Y-10300454D01*
X-12502303Y-10300452D01*
X-12359116Y-10210481D01*
X-12359115Y-10210480D01*
X-12359110Y-10210477D01*
X-12239523Y-10090890D01*
X-12239519Y-10090884D01*
X-12149548Y-9947697D01*
X-12149546Y-9947694D01*
X-12149546Y-9947692D01*
X-12149544Y-9947690D01*
X-12132954Y-9900278D01*
X4204751Y-9900278D01*
X4223685Y-10068332D01*
X4279545Y-10227970D01*
X4279547Y-10227973D01*
X4369518Y-10371160D01*
X4369523Y-10371166D01*
X4489109Y-10490752D01*
X4489115Y-10490757D01*
X4632302Y-10580728D01*
X4632305Y-10580730D01*
X4632309Y-10580731D01*
X4632310Y-10580732D01*
X4704913Y-10606136D01*
X4791943Y-10636590D01*
X4959997Y-10655525D01*
X4960000Y-10655525D01*
X4960003Y-10655525D01*
X5128056Y-10636590D01*
X5129808Y-10635977D01*
X5287690Y-10580732D01*
X5287692Y-10580730D01*
X5287694Y-10580730D01*
X5287697Y-10580728D01*
X5430881Y-10490759D01*
X5430883Y-10490757D01*
X5430890Y-10490753D01*
X5430895Y-10490747D01*
X5432682Y-10489323D01*
X5434066Y-10488757D01*
X5436786Y-10487049D01*
X5437085Y-10487525D01*
X5497367Y-10462911D01*
X5566063Y-10475663D01*
X5587318Y-10489323D01*
X5589118Y-10490759D01*
X5732302Y-10580728D01*
X5732305Y-10580730D01*
X5732309Y-10580731D01*
X5732310Y-10580732D01*
X5804913Y-10606136D01*
X5891943Y-10636590D01*
X6059997Y-10655525D01*
X6060000Y-10655525D01*
X6060003Y-10655525D01*
X6228056Y-10636590D01*
X6229808Y-10635977D01*
X6387690Y-10580732D01*
X6387692Y-10580730D01*
X6387694Y-10580730D01*
X6387697Y-10580728D01*
X6530884Y-10490757D01*
X6530885Y-10490756D01*
X6530890Y-10490753D01*
X6650477Y-10371166D01*
X6678660Y-10326313D01*
X6740452Y-10227973D01*
X6740454Y-10227970D01*
X6740454Y-10227968D01*
X6740456Y-10227966D01*
X6796313Y-10068335D01*
X6796313Y-10068334D01*
X6796314Y-10068332D01*
X6815249Y-9900278D01*
X6815249Y-9900273D01*
X6796314Y-9732219D01*
X6746550Y-9590002D01*
X11104751Y-9590002D01*
X11123685Y-9758056D01*
X11179545Y-9917694D01*
X11179547Y-9917697D01*
X11269518Y-10060884D01*
X11269523Y-10060890D01*
X11389109Y-10180476D01*
X11389115Y-10180481D01*
X11532302Y-10270452D01*
X11532305Y-10270454D01*
X11532309Y-10270455D01*
X11532310Y-10270456D01*
X11572443Y-10284499D01*
X11691943Y-10326314D01*
X11859997Y-10345249D01*
X11860000Y-10345249D01*
X11860003Y-10345249D01*
X12028056Y-10326314D01*
X12101954Y-10300456D01*
X12187690Y-10270456D01*
X12187692Y-10270454D01*
X12187694Y-10270454D01*
X12187697Y-10270452D01*
X12330884Y-10180481D01*
X12330885Y-10180480D01*
X12330890Y-10180477D01*
X12450477Y-10060890D01*
X12452591Y-10057526D01*
X12540452Y-9917697D01*
X12540454Y-9917694D01*
X12540454Y-9917692D01*
X12540456Y-9917690D01*
X12596313Y-9758059D01*
X12596313Y-9758058D01*
X12596314Y-9758056D01*
X12615249Y-9590002D01*
X12615249Y-9589997D01*
X12596314Y-9421943D01*
X12558369Y-9313503D01*
X12540456Y-9262310D01*
X12540455Y-9262309D01*
X12540454Y-9262305D01*
X12540452Y-9262302D01*
X12450481Y-9119115D01*
X12450476Y-9119109D01*
X12330890Y-8999523D01*
X12330884Y-8999518D01*
X12187697Y-8909547D01*
X12187694Y-8909545D01*
X12028056Y-8853685D01*
X11860003Y-8834751D01*
X11859997Y-8834751D01*
X11691943Y-8853685D01*
X11532305Y-8909545D01*
X11532302Y-8909547D01*
X11389115Y-8999518D01*
X11389109Y-8999523D01*
X11269523Y-9119109D01*
X11269518Y-9119115D01*
X11179547Y-9262302D01*
X11179545Y-9262305D01*
X11123685Y-9421943D01*
X11104751Y-9589997D01*
X11104751Y-9590002D01*
X6746550Y-9590002D01*
X6740454Y-9572581D01*
X6740452Y-9572578D01*
X6650481Y-9429391D01*
X6650476Y-9429385D01*
X6530890Y-9309799D01*
X6530884Y-9309794D01*
X6387697Y-9219823D01*
X6387694Y-9219821D01*
X6228056Y-9163961D01*
X6060003Y-9145027D01*
X6059997Y-9145027D01*
X5891943Y-9163961D01*
X5732305Y-9219821D01*
X5732302Y-9219823D01*
X5589112Y-9309796D01*
X5587310Y-9311234D01*
X5585925Y-9311799D01*
X5583214Y-9313503D01*
X5582915Y-9313027D01*
X5522623Y-9337641D01*
X5453928Y-9324883D01*
X5432690Y-9311234D01*
X5430887Y-9309796D01*
X5287697Y-9219823D01*
X5287694Y-9219821D01*
X5128056Y-9163961D01*
X4960003Y-9145027D01*
X4959997Y-9145027D01*
X4791943Y-9163961D01*
X4632305Y-9219821D01*
X4632302Y-9219823D01*
X4489115Y-9309794D01*
X4489109Y-9309799D01*
X4369523Y-9429385D01*
X4369518Y-9429391D01*
X4279547Y-9572578D01*
X4279545Y-9572581D01*
X4223685Y-9732219D01*
X4204751Y-9900273D01*
X4204751Y-9900278D01*
X-12132954Y-9900278D01*
X-12093687Y-9788059D01*
X-12093687Y-9788058D01*
X-12093686Y-9788056D01*
X-12074751Y-9620002D01*
X-12074751Y-9619997D01*
X-12093686Y-9451943D01*
X-12142922Y-9311234D01*
X-12149544Y-9292310D01*
X-12149545Y-9292309D01*
X-12149546Y-9292305D01*
X-12149548Y-9292302D01*
X-12239519Y-9149115D01*
X-12239524Y-9149109D01*
X-12359110Y-9029523D01*
X-12359116Y-9029518D01*
X-12502303Y-8939547D01*
X-12502306Y-8939545D01*
X-12661944Y-8883685D01*
X-12829997Y-8864751D01*
X-12830003Y-8864751D01*
X-12998057Y-8883685D01*
X-13157695Y-8939545D01*
X-13157698Y-8939547D01*
X-13300885Y-9029518D01*
X-13300891Y-9029523D01*
X-13420477Y-9149109D01*
X-13420482Y-9149115D01*
X-13510453Y-9292302D01*
X-13510455Y-9292305D01*
X-13566315Y-9451943D01*
X-13585249Y-9619997D01*
X-13585249Y-9620002D01*
X-14312767Y-9620002D01*
X-14509086Y-9324883D01*
X-14517808Y-9311772D01*
X-14746855Y-8940529D01*
X-14939853Y-8618016D01*
X-15150831Y-8237585D01*
X-15192366Y-8159997D01*
X-15328769Y-7905193D01*
X-15451365Y-7657680D01*
X-15521430Y-7516223D01*
X-15683698Y-7174879D01*
X-15833808Y-6832725D01*
X-15857752Y-6778150D01*
X-15857791Y-6778054D01*
X-16003852Y-6428712D01*
X-16159081Y-6024877D01*
X-16159099Y-6024827D01*
X-16288526Y-5668342D01*
X-16421512Y-5267737D01*
X-16424701Y-5258129D01*
X-16537090Y-4895469D01*
X-16543614Y-4872262D01*
X-16653987Y-4479666D01*
X-16749011Y-4111770D01*
X-16846429Y-3691169D01*
X-16923797Y-3319101D01*
X-17001573Y-2894450D01*
X-17005529Y-2869506D01*
X-17061103Y-2519054D01*
X-17109538Y-2161616D01*
X-17119075Y-2091243D01*
X-17137652Y-1922302D01*
X-17160603Y-1713592D01*
X-17198663Y-1283341D01*
X-17212111Y-1065909D01*
X-17222104Y-904368D01*
X-17240154Y-472508D01*
X-17240154Y-472461D01*
X-17245473Y-93288D01*
X-17243677Y289998D01*
X-8195249Y289998D01*
X-8176315Y121944D01*
X-8120455Y-37694D01*
X-8120453Y-37697D01*
X-8030482Y-180884D01*
X-8030477Y-180890D01*
X-7910891Y-300476D01*
X-7910885Y-300481D01*
X-7767698Y-390452D01*
X-7767695Y-390454D01*
X-7767691Y-390455D01*
X-7767690Y-390456D01*
X-7733330Y-402479D01*
X-7608057Y-446314D01*
X-7440003Y-465249D01*
X-7440000Y-465249D01*
X-7439997Y-465249D01*
X-7271944Y-446314D01*
X-7271941Y-446313D01*
X-7112310Y-390456D01*
X-7015309Y-329505D01*
X-6949337Y-310500D01*
X-3044097Y-310500D01*
X-2977058Y-330185D01*
X-2931303Y-382989D01*
X-2921359Y-452147D01*
X-2950384Y-515703D01*
X-2956416Y-522181D01*
X-4047416Y-1613181D01*
X-4108739Y-1646666D01*
X-4135097Y-1649500D01*
X-6899337Y-1649500D01*
X-6965309Y-1630494D01*
X-7062308Y-1569545D01*
X-7062309Y-1569544D01*
X-7062310Y-1569544D01*
X-7100630Y-1556135D01*
X-7221944Y-1513685D01*
X-7389997Y-1494751D01*
X-7390003Y-1494751D01*
X-7558057Y-1513685D01*
X-7717695Y-1569545D01*
X-7717698Y-1569547D01*
X-7860885Y-1659518D01*
X-7860891Y-1659523D01*
X-7980477Y-1779109D01*
X-7980482Y-1779115D01*
X-8070453Y-1922302D01*
X-8070455Y-1922305D01*
X-8126315Y-2081943D01*
X-8145249Y-2249997D01*
X-8145249Y-2250002D01*
X-8126315Y-2418056D01*
X-8070455Y-2577694D01*
X-8070453Y-2577697D01*
X-7980482Y-2720884D01*
X-7980477Y-2720890D01*
X-7860891Y-2840476D01*
X-7860885Y-2840481D01*
X-7717698Y-2930452D01*
X-7717695Y-2930454D01*
X-7717691Y-2930455D01*
X-7717690Y-2930456D01*
X-7663199Y-2949523D01*
X-7558057Y-2986314D01*
X-7390003Y-3005249D01*
X-7390000Y-3005249D01*
X-7389997Y-3005249D01*
X-7221944Y-2986314D01*
X-7221941Y-2986313D01*
X-7062310Y-2930456D01*
X-6965309Y-2869505D01*
X-6899337Y-2850500D01*
X-6369579Y-2850500D01*
X-6302540Y-2870185D01*
X-6256785Y-2922989D01*
X-6246841Y-2992147D01*
X-6268460Y-3042154D01*
X-6266773Y-3043214D01*
X-6360453Y-3192302D01*
X-6360455Y-3192305D01*
X-6416315Y-3351943D01*
X-6435249Y-3519997D01*
X-6435249Y-3520002D01*
X-6416315Y-3688056D01*
X-6360455Y-3847694D01*
X-6360453Y-3847697D01*
X-6270482Y-3990884D01*
X-6270477Y-3990890D01*
X-6150891Y-4110476D01*
X-6150885Y-4110481D01*
X-6007698Y-4200452D01*
X-6007695Y-4200454D01*
X-6007691Y-4200455D01*
X-6007690Y-4200456D01*
X-5950544Y-4220452D01*
X-5848057Y-4256314D01*
X-5680003Y-4275249D01*
X-5680000Y-4275249D01*
X-5679997Y-4275249D01*
X-5511944Y-4256314D01*
X-5511941Y-4256313D01*
X-5352310Y-4200456D01*
X-5255309Y-4139505D01*
X-5189337Y-4120500D01*
X-4313428Y-4120500D01*
X-4305330Y-4121030D01*
X-4270000Y-4125682D01*
X-4269999Y-4125682D01*
X-4217746Y-4118802D01*
X-4113238Y-4105044D01*
X-3967159Y-4044536D01*
X-3897246Y-3990890D01*
X-3841718Y-3948282D01*
X-3820016Y-3919998D01*
X-3814690Y-3913923D01*
X-77585Y-176819D01*
X-16261Y-143334D01*
X10097Y-140500D01*
X59337Y-140500D01*
X125308Y-159505D01*
X222310Y-220456D01*
X343621Y-262904D01*
X381943Y-276314D01*
X549997Y-295249D01*
X550000Y-295249D01*
X550003Y-295249D01*
X718056Y-276314D01*
X718059Y-276313D01*
X877690Y-220456D01*
X877692Y-220454D01*
X877694Y-220454D01*
X877697Y-220452D01*
X1020884Y-130481D01*
X1020885Y-130480D01*
X1020890Y-130477D01*
X1140477Y-10890D01*
X1146272Y-1668D01*
X1230452Y132303D01*
X1230454Y132306D01*
X1230454Y132308D01*
X1230456Y132310D01*
X1286313Y291941D01*
X1286313Y291942D01*
X1286314Y291944D01*
X1305249Y459998D01*
X1305249Y460003D01*
X1286313Y628058D01*
X1261555Y698812D01*
X1230456Y787690D01*
X1230455Y787692D01*
X1213275Y815034D01*
X1194274Y882271D01*
X1213273Y946977D01*
X1229192Y972310D01*
X1285049Y1131941D01*
X1300670Y1270575D01*
X1303985Y1299998D01*
X1303985Y1300003D01*
X1285049Y1468058D01*
X1268007Y1516761D01*
X1229192Y1627690D01*
X1227698Y1630067D01*
X1227203Y1631819D01*
X1226174Y1633956D01*
X1226548Y1634137D01*
X1208699Y1697302D01*
X1227700Y1762010D01*
X1240456Y1782310D01*
X1296313Y1941941D01*
X1305781Y2025971D01*
X1315249Y2109998D01*
X1315249Y2110003D01*
X1296314Y2278057D01*
X1240454Y2437695D01*
X1240452Y2437698D01*
X1150481Y2580885D01*
X1150476Y2580891D01*
X1030890Y2700477D01*
X1030884Y2700482D01*
X887697Y2790453D01*
X887694Y2790455D01*
X728056Y2846315D01*
X560003Y2865249D01*
X559997Y2865249D01*
X391943Y2846315D01*
X232307Y2790455D01*
X135309Y2729506D01*
X69337Y2710500D01*
X-246572Y2710500D01*
X-254671Y2711031D01*
X-290000Y2715682D01*
X-329361Y2710500D01*
X-446761Y2695045D01*
X-446763Y2695044D01*
X-592843Y2634536D01*
X-718281Y2538284D01*
X-739981Y2510006D01*
X-745332Y2503904D01*
X-2322416Y926819D01*
X-2383739Y893334D01*
X-2410097Y890500D01*
X-6949337Y890500D01*
X-7015309Y909506D01*
X-7112308Y970455D01*
X-7112309Y970456D01*
X-7112310Y970456D01*
X-7150630Y983865D01*
X-7271944Y1026315D01*
X-7439997Y1045249D01*
X-7440003Y1045249D01*
X-7608057Y1026315D01*
X-7767695Y970455D01*
X-7767698Y970453D01*
X-7910885Y880482D01*
X-7910891Y880477D01*
X-8030477Y760891D01*
X-8030482Y760885D01*
X-8120453Y617698D01*
X-8120455Y617695D01*
X-8176315Y458057D01*
X-8195249Y290003D01*
X-8195249Y289998D01*
X-17243677Y289998D01*
X-17243445Y339414D01*
X-17230679Y717865D01*
X-17208529Y1150585D01*
X-17177771Y1527294D01*
X-17135471Y1959306D01*
X-17094384Y2275498D01*
X-5395249Y2275498D01*
X-5376315Y2107444D01*
X-5320455Y1947806D01*
X-5320453Y1947803D01*
X-5230482Y1804616D01*
X-5230477Y1804610D01*
X-5110891Y1685024D01*
X-5110885Y1685019D01*
X-4967698Y1595048D01*
X-4967695Y1595046D01*
X-4967691Y1595045D01*
X-4967690Y1595044D01*
X-4895087Y1569640D01*
X-4808057Y1539186D01*
X-4640003Y1520251D01*
X-4640000Y1520251D01*
X-4639997Y1520251D01*
X-4471944Y1539186D01*
X-4471941Y1539187D01*
X-4312310Y1595044D01*
X-4312308Y1595046D01*
X-4312306Y1595046D01*
X-4312303Y1595048D01*
X-4169116Y1685019D01*
X-4169115Y1685020D01*
X-4169110Y1685023D01*
X-4049523Y1804610D01*
X-4046150Y1809978D01*
X-3959548Y1947803D01*
X-3959546Y1947806D01*
X-3959546Y1947808D01*
X-3959544Y1947810D01*
X-3903687Y2107441D01*
X-3903687Y2107442D01*
X-3903686Y2107444D01*
X-3884751Y2275498D01*
X-3884751Y2275503D01*
X-3903686Y2443557D01*
X-3959546Y2603195D01*
X-3959548Y2603198D01*
X-4049519Y2746385D01*
X-4049524Y2746391D01*
X-4169110Y2865977D01*
X-4169116Y2865982D01*
X-4312303Y2955953D01*
X-4312306Y2955955D01*
X-4471944Y3011815D01*
X-4639997Y3030749D01*
X-4640003Y3030749D01*
X-4808057Y3011815D01*
X-4967695Y2955955D01*
X-4967698Y2955953D01*
X-5110885Y2865982D01*
X-5110891Y2865977D01*
X-5230477Y2746391D01*
X-5230482Y2746385D01*
X-5320453Y2603198D01*
X-5320455Y2603195D01*
X-5376315Y2443557D01*
X-5395249Y2275503D01*
X-5395249Y2275498D01*
X-17094384Y2275498D01*
X-17086891Y2333165D01*
X-17024440Y2763674D01*
X-16958292Y3133555D01*
X-16875668Y3561982D01*
X-16792293Y3926744D01*
X-16750450Y4099998D01*
X-10735249Y4099998D01*
X-10716315Y3931944D01*
X-10660455Y3772306D01*
X-10660453Y3772303D01*
X-10570482Y3629116D01*
X-10570477Y3629110D01*
X-10450891Y3509524D01*
X-10450885Y3509519D01*
X-10307698Y3419548D01*
X-10307695Y3419546D01*
X-10307691Y3419545D01*
X-10307690Y3419544D01*
X-10286996Y3412303D01*
X-10148057Y3363686D01*
X-9980003Y3344751D01*
X-9980000Y3344751D01*
X-9979997Y3344751D01*
X-9811944Y3363686D01*
X-9811941Y3363687D01*
X-9652310Y3419544D01*
X-9555309Y3480495D01*
X-9489337Y3499500D01*
X3514217Y3499500D01*
X3581256Y3479815D01*
X3601898Y3463181D01*
X5733181Y1331898D01*
X5766666Y1270575D01*
X5769500Y1244217D01*
X5769500Y65371D01*
X5749815Y-1668D01*
X5697011Y-47423D01*
X5627853Y-57367D01*
X5564297Y-28342D01*
X5526840Y29375D01*
X5502935Y108175D01*
X5488814Y154727D01*
X5416509Y290000D01*
X5395913Y328533D01*
X5395909Y328540D01*
X5270883Y480884D01*
X5118539Y605910D01*
X5118532Y605914D01*
X4944733Y698812D01*
X4944727Y698814D01*
X4756132Y756024D01*
X4756129Y756025D01*
X4560000Y775341D01*
X4363870Y756025D01*
X4175266Y698812D01*
X4001467Y605914D01*
X4001460Y605910D01*
X3849116Y480884D01*
X3724090Y328540D01*
X3724086Y328533D01*
X3631188Y154734D01*
X3573975Y-33870D01*
X3554659Y-230000D01*
X3573975Y-426129D01*
X3631188Y-614733D01*
X3724086Y-788532D01*
X3724090Y-788539D01*
X3849116Y-940883D01*
X4001460Y-1065909D01*
X4001467Y-1065913D01*
X4175266Y-1158811D01*
X4175269Y-1158811D01*
X4175273Y-1158814D01*
X4363868Y-1216024D01*
X4560000Y-1235341D01*
X4756132Y-1216024D01*
X4944727Y-1158814D01*
X5118538Y-1065910D01*
X5270883Y-940883D01*
X5395910Y-788538D01*
X5488814Y-614727D01*
X5526840Y-489372D01*
X5565137Y-430936D01*
X5628949Y-402479D01*
X5698016Y-413040D01*
X5750410Y-459264D01*
X5769500Y-525370D01*
X5769500Y-2249336D01*
X5750494Y-2315308D01*
X5689545Y-2412307D01*
X5633685Y-2571943D01*
X5614751Y-2739997D01*
X5614751Y-2740002D01*
X5633685Y-2908056D01*
X5689545Y-3067694D01*
X5689547Y-3067697D01*
X5779518Y-3210884D01*
X5779523Y-3210890D01*
X5899109Y-3330476D01*
X5899115Y-3330481D01*
X6042302Y-3420452D01*
X6042305Y-3420454D01*
X6042309Y-3420455D01*
X6042310Y-3420456D01*
X6114913Y-3445860D01*
X6201943Y-3476314D01*
X6369997Y-3495249D01*
X6369998Y-3495249D01*
X6369998Y-3495248D01*
X6370000Y-3495249D01*
X6381614Y-3493940D01*
X6450435Y-3505993D01*
X6501816Y-3553341D01*
X6519500Y-3617160D01*
X6519500Y-4299336D01*
X6500494Y-4365308D01*
X6439545Y-4462307D01*
X6383685Y-4621943D01*
X6364751Y-4789997D01*
X6364751Y-4790002D01*
X6383685Y-4958056D01*
X6439545Y-5117694D01*
X6439547Y-5117697D01*
X6529518Y-5260884D01*
X6529523Y-5260890D01*
X6605952Y-5337319D01*
X6639437Y-5398642D01*
X6634453Y-5468334D01*
X6605952Y-5512681D01*
X6529523Y-5589109D01*
X6529518Y-5589115D01*
X6439547Y-5732302D01*
X6439544Y-5732307D01*
X6383687Y-5891940D01*
X6383687Y-5891942D01*
X6380273Y-5922236D01*
X6353204Y-5986649D01*
X6344734Y-5996029D01*
X5577584Y-6763181D01*
X5516261Y-6796666D01*
X5489903Y-6799500D01*
X3110175Y-6799500D01*
X3043136Y-6779815D01*
X2997381Y-6727011D01*
X2987437Y-6657853D01*
X3016462Y-6594297D01*
X3072824Y-6558075D01*
X3072682Y-6557668D01*
X3074386Y-6557071D01*
X3075240Y-6556523D01*
X3078038Y-6555793D01*
X3079251Y-6555368D01*
X3079255Y-6555368D01*
X3249522Y-6495789D01*
X3402262Y-6399816D01*
X3529816Y-6272262D01*
X3625789Y-6119522D01*
X3685368Y-5949255D01*
X3685369Y-5949249D01*
X3705565Y-5770003D01*
X3705565Y-5769996D01*
X3685369Y-5590750D01*
X3685368Y-5590745D01*
X3658052Y-5512681D01*
X3625789Y-5420478D01*
X3529816Y-5267738D01*
X3419759Y-5157681D01*
X3386274Y-5096358D01*
X3391258Y-5026666D01*
X3419759Y-4982319D01*
X3444022Y-4958056D01*
X3529816Y-4872262D01*
X3625789Y-4719522D01*
X3685368Y-4549255D01*
X3693205Y-4479699D01*
X3705565Y-4370003D01*
X3705565Y-4369996D01*
X3685369Y-4190750D01*
X3685368Y-4190745D01*
X3660788Y-4120500D01*
X3625789Y-4020478D01*
X3619764Y-4010890D01*
X3580425Y-3948282D01*
X3529816Y-3867738D01*
X3402262Y-3740184D01*
X3402261Y-3740184D01*
X3249521Y-3644210D01*
X3170437Y-3616538D01*
X3079255Y-3584632D01*
X3079251Y-3584631D01*
X3079250Y-3584631D01*
X3078777Y-3584523D01*
X3078501Y-3584369D01*
X3072683Y-3582333D01*
X3073039Y-3581313D01*
X3017798Y-3550416D01*
X2988626Y-3496982D01*
X2987668Y-3497318D01*
X2985630Y-3491496D01*
X2985473Y-3491207D01*
X2985369Y-3490754D01*
X2985368Y-3490745D01*
X2925789Y-3320478D01*
X2924890Y-3319048D01*
X2845777Y-3193140D01*
X2829816Y-3167738D01*
X2702262Y-3040184D01*
X2702262Y-3040183D01*
X2549523Y-2944211D01*
X2379254Y-2884631D01*
X2379249Y-2884630D01*
X2200004Y-2864435D01*
X2199996Y-2864435D01*
X2020750Y-2884630D01*
X2020745Y-2884631D01*
X1850476Y-2944211D01*
X1697737Y-3040184D01*
X1587681Y-3150241D01*
X1526358Y-3183726D01*
X1456666Y-3178742D01*
X1412319Y-3150241D01*
X1302262Y-3040184D01*
X1149523Y-2944211D01*
X979254Y-2884631D01*
X979249Y-2884630D01*
X800004Y-2864435D01*
X799996Y-2864435D01*
X620750Y-2884630D01*
X620745Y-2884631D01*
X450476Y-2944211D01*
X297737Y-3040184D01*
X170184Y-3167737D01*
X74210Y-3320478D01*
X14628Y-3490755D01*
X14518Y-3491241D01*
X14360Y-3491522D01*
X12333Y-3497317D01*
X11317Y-3496961D01*
X-19600Y-3552215D01*
X-73016Y-3581381D01*
X-72683Y-3582333D01*
X-78459Y-3584353D01*
X-78759Y-3584518D01*
X-79245Y-3584628D01*
X-249522Y-3644210D01*
X-402263Y-3740184D01*
X-529816Y-3867737D01*
X-625789Y-4020476D01*
X-685369Y-4190745D01*
X-685370Y-4190750D01*
X-705565Y-4369996D01*
X-705565Y-4370003D01*
X-685370Y-4549249D01*
X-685369Y-4549254D01*
X-625789Y-4719523D01*
X-529816Y-4872262D01*
X-419759Y-4982319D01*
X-386274Y-5043642D01*
X-391258Y-5113334D01*
X-419759Y-5157681D01*
X-529816Y-5267737D01*
X-625789Y-5420476D01*
X-685369Y-5590745D01*
X-685370Y-5590750D01*
X-705565Y-5769996D01*
X-705565Y-5770003D01*
X-685370Y-5949249D01*
X-685369Y-5949254D01*
X-625789Y-6119523D01*
X-557591Y-6228059D01*
X-529816Y-6272262D01*
X-402262Y-6399816D01*
X-249522Y-6495789D01*
X-149226Y-6530884D01*
X-72682Y-6557668D01*
X-73408Y-6559742D01*
X-21608Y-6588713D01*
X11253Y-6650373D01*
X5561Y-6720011D01*
X-36876Y-6775516D01*
X-102585Y-6799267D01*
X-110175Y-6799500D01*
X-6286558Y-6799500D01*
X-6353597Y-6779815D01*
X-6399352Y-6727011D01*
X-6403600Y-6716454D01*
X-6429545Y-6642306D01*
X-6519519Y-6499115D01*
X-6519524Y-6499109D01*
X-6639110Y-6379523D01*
X-6639116Y-6379518D01*
X-6782303Y-6289547D01*
X-6782306Y-6289545D01*
X-6941944Y-6233685D01*
X-7109997Y-6214751D01*
X-7110003Y-6214751D01*
X-7278057Y-6233685D01*
X-7437695Y-6289545D01*
X-7437698Y-6289547D01*
X-7580885Y-6379518D01*
X-7580891Y-6379523D01*
X-7700477Y-6499109D01*
X-7700482Y-6499115D01*
X-7790453Y-6642302D01*
X-7790455Y-6642305D01*
X-7846315Y-6801943D01*
X-7865249Y-6969997D01*
X-7865249Y-6970002D01*
X-7846315Y-7138056D01*
X-7790455Y-7297694D01*
X-7790453Y-7297697D01*
X-7700482Y-7440884D01*
X-7700476Y-7440891D01*
X-7659048Y-7482320D01*
X-7625564Y-7543643D01*
X-7630549Y-7613335D01*
X-7659048Y-7657680D01*
X-7690476Y-7689108D01*
X-7690482Y-7689115D01*
X-7780453Y-7832302D01*
X-7780455Y-7832305D01*
X-7836315Y-7991943D01*
X-7855249Y-8159997D01*
X-7855249Y-8160002D01*
X-7836315Y-8328056D01*
X-7780455Y-8487694D01*
X-7780453Y-8487697D01*
X-7690482Y-8630884D01*
X-7690477Y-8630890D01*
X-7570891Y-8750476D01*
X-7570885Y-8750481D01*
X-7427698Y-8840452D01*
X-7427695Y-8840454D01*
X-7427691Y-8840455D01*
X-7427690Y-8840456D01*
X-7355087Y-8865860D01*
X-7268057Y-8896314D01*
X-7100003Y-8915249D01*
X-7100000Y-8915249D01*
X-7099997Y-8915249D01*
X-6931944Y-8896314D01*
X-6895858Y-8883687D01*
X-6772310Y-8840456D01*
X-6772308Y-8840454D01*
X-6772306Y-8840454D01*
X-6772303Y-8840452D01*
X-6629116Y-8750481D01*
X-6629115Y-8750480D01*
X-6629110Y-8750477D01*
X-6509523Y-8630890D01*
X-6501462Y-8618061D01*
X-6419548Y-8487697D01*
X-6419546Y-8487694D01*
X-6419546Y-8487692D01*
X-6419544Y-8487690D01*
X-6363687Y-8328059D01*
X-6363687Y-8328058D01*
X-6363686Y-8328056D01*
X-6344751Y-8160002D01*
X-6344751Y-8159995D01*
X-6347186Y-8138383D01*
X-6335131Y-8069561D01*
X-6287782Y-8018182D01*
X-6223966Y-8000500D01*
X646359Y-8000500D01*
X713398Y-8020185D01*
X759153Y-8072989D01*
X769762Y-8136654D01*
X754659Y-8290000D01*
X773975Y-8486129D01*
X773976Y-8486132D01*
X813996Y-8618061D01*
X831188Y-8674733D01*
X924086Y-8848532D01*
X924090Y-8848539D01*
X1049116Y-9000883D01*
X1201460Y-9125909D01*
X1201467Y-9125913D01*
X1375266Y-9218811D01*
X1375269Y-9218811D01*
X1375273Y-9218814D01*
X1563868Y-9276024D01*
X1760000Y-9295341D01*
X1956132Y-9276024D01*
X2144727Y-9218814D01*
X2318538Y-9125910D01*
X2470883Y-9000883D01*
X2595910Y-8848538D01*
X2648325Y-8750476D01*
X2688811Y-8674733D01*
X2688811Y-8674732D01*
X2688814Y-8674727D01*
X2746024Y-8486132D01*
X2765341Y-8290000D01*
X2750237Y-8136654D01*
X2763257Y-8068008D01*
X2811322Y-8017298D01*
X2873641Y-8000500D01*
X5746572Y-8000500D01*
X5754670Y-8001030D01*
X5790000Y-8005682D01*
X5790001Y-8005682D01*
X5842253Y-7998802D01*
X5946762Y-7985044D01*
X6092841Y-7924536D01*
X6117945Y-7905273D01*
X6218282Y-7828282D01*
X6239983Y-7799999D01*
X6245311Y-7793922D01*
X7206510Y-6832723D01*
X7267831Y-6799240D01*
X7280306Y-6797186D01*
X7288059Y-6796313D01*
X7447690Y-6740456D01*
X7447693Y-6740453D01*
X7447697Y-6740452D01*
X7590884Y-6650481D01*
X7590885Y-6650480D01*
X7590890Y-6650477D01*
X7710477Y-6530890D01*
X7730446Y-6499110D01*
X7800452Y-6387697D01*
X7800454Y-6387694D01*
X7800454Y-6387692D01*
X7800456Y-6387690D01*
X7856313Y-6228059D01*
X7856313Y-6228058D01*
X7856314Y-6228056D01*
X7875249Y-6060002D01*
X7875249Y-6059997D01*
X7856314Y-5891943D01*
X7800454Y-5732305D01*
X7800452Y-5732302D01*
X7710481Y-5589115D01*
X7710476Y-5589109D01*
X7634048Y-5512681D01*
X7600563Y-5451358D01*
X7605547Y-5381666D01*
X7634048Y-5337319D01*
X7634047Y-5337319D01*
X7710477Y-5260890D01*
X7712212Y-5258129D01*
X7800452Y-5117697D01*
X7800454Y-5117694D01*
X7800454Y-5117692D01*
X7800456Y-5117690D01*
X7856313Y-4958059D01*
X7856313Y-4958058D01*
X7856314Y-4958056D01*
X7875249Y-4790002D01*
X7875249Y-4789997D01*
X7856314Y-4621943D01*
X7830877Y-4549249D01*
X7800456Y-4462310D01*
X7742454Y-4370000D01*
X7739506Y-4365308D01*
X7720500Y-4299336D01*
X7720500Y-3540002D01*
X11684751Y-3540002D01*
X11703685Y-3708056D01*
X11759545Y-3867694D01*
X11759547Y-3867697D01*
X11849518Y-4010884D01*
X11849523Y-4010890D01*
X11969109Y-4130476D01*
X11969115Y-4130481D01*
X12112302Y-4220452D01*
X12112305Y-4220454D01*
X12112309Y-4220455D01*
X12112310Y-4220456D01*
X12184913Y-4245860D01*
X12271943Y-4276314D01*
X12439997Y-4295249D01*
X12440000Y-4295249D01*
X12440003Y-4295249D01*
X12608056Y-4276314D01*
X12611100Y-4275249D01*
X12767690Y-4220456D01*
X12767692Y-4220454D01*
X12767694Y-4220454D01*
X12767697Y-4220452D01*
X12910884Y-4130481D01*
X12910885Y-4130480D01*
X12910890Y-4130477D01*
X13030477Y-4010890D01*
X13069816Y-3948283D01*
X13120452Y-3867697D01*
X13120454Y-3867694D01*
X13120454Y-3867692D01*
X13120456Y-3867690D01*
X13176313Y-3708059D01*
X13176313Y-3708057D01*
X13176314Y-3708055D01*
X13189578Y-3590327D01*
X13216644Y-3525913D01*
X13274238Y-3486358D01*
X13297852Y-3481114D01*
X13314836Y-3479052D01*
X13474802Y-3418385D01*
X13615601Y-3321199D01*
X13729050Y-3193141D01*
X13808557Y-3041654D01*
X13849500Y-2875542D01*
X13849500Y-2704458D01*
X13849500Y-2704457D01*
X13808558Y-2538349D01*
X13808557Y-2538348D01*
X13808557Y-2538346D01*
X13729050Y-2386859D01*
X13615601Y-2258801D01*
X13602853Y-2250002D01*
X13474803Y-2161616D01*
X13474802Y-2161615D01*
X13314839Y-2100948D01*
X13314834Y-2100947D01*
X13187613Y-2085500D01*
X13187611Y-2085500D01*
X13102389Y-2085500D01*
X13102387Y-2085500D01*
X12975165Y-2100947D01*
X12975160Y-2100948D01*
X12815197Y-2161615D01*
X12815196Y-2161616D01*
X12674399Y-2258800D01*
X12560950Y-2386859D01*
X12481441Y-2538349D01*
X12440831Y-2703113D01*
X12405674Y-2763494D01*
X12343455Y-2795282D01*
X12334318Y-2796658D01*
X12271943Y-2803685D01*
X12112305Y-2859545D01*
X12112302Y-2859547D01*
X11969115Y-2949518D01*
X11969109Y-2949523D01*
X11849523Y-3069109D01*
X11849518Y-3069115D01*
X11759547Y-3212302D01*
X11759545Y-3212305D01*
X11703685Y-3371943D01*
X11684751Y-3539997D01*
X11684751Y-3540002D01*
X7720500Y-3540002D01*
X7720500Y124458D01*
X12440500Y124458D01*
X12481441Y-41650D01*
X12481442Y-41653D01*
X12481443Y-41654D01*
X12560950Y-193141D01*
X12674399Y-321199D01*
X12815198Y-418385D01*
X12888838Y-446313D01*
X12975160Y-479051D01*
X12975162Y-479051D01*
X12975164Y-479052D01*
X13017572Y-484201D01*
X13102387Y-494500D01*
X13102389Y-494500D01*
X13187613Y-494500D01*
X13251223Y-486776D01*
X13314836Y-479052D01*
X13474802Y-418385D01*
X13615601Y-321199D01*
X13729050Y-193141D01*
X13808557Y-41654D01*
X13849500Y124458D01*
X13849500Y295542D01*
X13849500Y295543D01*
X13808558Y461651D01*
X13808557Y461652D01*
X13808557Y461654D01*
X13729050Y613141D01*
X13615601Y741199D01*
X13474802Y838385D01*
X13314839Y899052D01*
X13314834Y899053D01*
X13187613Y914500D01*
X13187611Y914500D01*
X13102389Y914500D01*
X13102387Y914500D01*
X12975165Y899053D01*
X12975160Y899052D01*
X12815197Y838385D01*
X12815196Y838384D01*
X12674399Y741200D01*
X12560950Y613141D01*
X12481441Y461651D01*
X12440500Y295543D01*
X12440500Y124458D01*
X7720500Y124458D01*
X7720500Y1316572D01*
X7721031Y1324674D01*
X7725682Y1360001D01*
X7725682Y1360002D01*
X7705044Y1516761D01*
X7705042Y1516766D01*
X7703598Y1520251D01*
X7674789Y1589802D01*
X7644538Y1662837D01*
X7644537Y1662838D01*
X7644536Y1662841D01*
X7589527Y1734530D01*
X7548282Y1788282D01*
X7520005Y1809980D01*
X7513904Y1815331D01*
X5589237Y3739998D01*
X11784751Y3739998D01*
X11803685Y3571944D01*
X11859545Y3412306D01*
X11859547Y3412303D01*
X11949518Y3269116D01*
X11949523Y3269110D01*
X12069109Y3149524D01*
X12069115Y3149519D01*
X12212302Y3059548D01*
X12212305Y3059546D01*
X12212309Y3059545D01*
X12212310Y3059544D01*
X12284913Y3034140D01*
X12371943Y3003686D01*
X12539997Y2984751D01*
X12540000Y2984751D01*
X12540003Y2984751D01*
X12708056Y3003686D01*
X12731282Y3011813D01*
X12867690Y3059544D01*
X12867692Y3059546D01*
X12867694Y3059546D01*
X12867697Y3059548D01*
X13010884Y3149519D01*
X13010885Y3149520D01*
X13010890Y3149523D01*
X13130477Y3269110D01*
X13178006Y3344751D01*
X13220452Y3412303D01*
X13220454Y3412306D01*
X13220454Y3412308D01*
X13220456Y3412310D01*
X13276313Y3571941D01*
X13276313Y3571942D01*
X13276314Y3571944D01*
X13295249Y3739998D01*
X13295249Y3740003D01*
X13276314Y3908057D01*
X13220454Y4067695D01*
X13220452Y4067698D01*
X13130481Y4210885D01*
X13130476Y4210891D01*
X13010890Y4330477D01*
X13010884Y4330482D01*
X12867697Y4420453D01*
X12867694Y4420455D01*
X12708056Y4476315D01*
X12540003Y4495249D01*
X12539997Y4495249D01*
X12371943Y4476315D01*
X12212305Y4420455D01*
X12212302Y4420453D01*
X12069115Y4330482D01*
X12069109Y4330477D01*
X11949523Y4210891D01*
X11949518Y4210885D01*
X11859547Y4067698D01*
X11859545Y4067695D01*
X11803685Y3908057D01*
X11784751Y3740003D01*
X11784751Y3739998D01*
X5589237Y3739998D01*
X4195328Y5133907D01*
X4189974Y5140012D01*
X4168286Y5168278D01*
X4168283Y5168280D01*
X4168282Y5168282D01*
X4042841Y5264536D01*
X3896762Y5325044D01*
X3896760Y5325045D01*
X3779361Y5340500D01*
X3740000Y5345682D01*
X3704670Y5341031D01*
X3696572Y5340500D01*
X-3609903Y5340500D01*
X-3676942Y5360185D01*
X-3697584Y5376819D01*
X-5030763Y6709998D01*
X4959751Y6709998D01*
X4978685Y6541944D01*
X5034545Y6382306D01*
X5034547Y6382303D01*
X5124518Y6239116D01*
X5124523Y6239110D01*
X5244109Y6119524D01*
X5244115Y6119519D01*
X5387302Y6029548D01*
X5387305Y6029546D01*
X5387309Y6029545D01*
X5387310Y6029544D01*
X5459913Y6004140D01*
X5546943Y5973686D01*
X5714997Y5954751D01*
X5715000Y5954751D01*
X5715003Y5954751D01*
X5883056Y5973686D01*
X5883059Y5973687D01*
X6042690Y6029544D01*
X6042692Y6029546D01*
X6042694Y6029546D01*
X6042697Y6029548D01*
X6185884Y6119519D01*
X6185885Y6119520D01*
X6185890Y6119523D01*
X6251844Y6185479D01*
X6313168Y6218963D01*
X6382860Y6213979D01*
X6397979Y6207155D01*
X6465267Y6171189D01*
X6465273Y6171186D01*
X6653868Y6113976D01*
X6850000Y6094659D01*
X7046132Y6113976D01*
X7234727Y6171186D01*
X7261466Y6185478D01*
X7408532Y6264087D01*
X7408538Y6264090D01*
X7560883Y6389117D01*
X7685910Y6541462D01*
X7748863Y6659239D01*
X7778811Y6715267D01*
X7778811Y6715268D01*
X7778814Y6715273D01*
X7836024Y6903868D01*
X7855341Y7100000D01*
X7836024Y7296132D01*
X7778814Y7484727D01*
X7778811Y7484731D01*
X7778811Y7484734D01*
X7685913Y7658533D01*
X7685909Y7658540D01*
X7560883Y7810884D01*
X7408539Y7935910D01*
X7408532Y7935914D01*
X7234733Y8028812D01*
X7234727Y8028814D01*
X7046132Y8086024D01*
X7046129Y8086025D01*
X6850000Y8105341D01*
X6653870Y8086025D01*
X6465266Y8028812D01*
X6291467Y7935914D01*
X6291460Y7935910D01*
X6139116Y7810884D01*
X6014090Y7658540D01*
X6014088Y7658537D01*
X5939306Y7518629D01*
X5890343Y7468785D01*
X5822206Y7453325D01*
X5816065Y7453863D01*
X5715004Y7465249D01*
X5714997Y7465249D01*
X5546943Y7446315D01*
X5387305Y7390455D01*
X5387302Y7390453D01*
X5244115Y7300482D01*
X5244109Y7300477D01*
X5124523Y7180891D01*
X5124518Y7180885D01*
X5034547Y7037698D01*
X5034545Y7037695D01*
X4978685Y6878057D01*
X4959751Y6710003D01*
X4959751Y6709998D01*
X-5030763Y6709998D01*
X-6576005Y8255240D01*
X-6609490Y8316563D01*
X-6611543Y8329027D01*
X-6613687Y8348059D01*
X-6669544Y8507690D01*
X-6669547Y8507695D01*
X-6669548Y8507698D01*
X-6759519Y8650885D01*
X-6759524Y8650891D01*
X-6879110Y8770477D01*
X-6879116Y8770482D01*
X-7022303Y8860453D01*
X-7022306Y8860455D01*
X-7181944Y8916315D01*
X-7303408Y8930000D01*
X-3345341Y8930000D01*
X-3326025Y8733871D01*
X-3268812Y8545267D01*
X-3175914Y8371468D01*
X-3175910Y8371461D01*
X-3050884Y8219117D01*
X-2898540Y8094091D01*
X-2898533Y8094087D01*
X-2724734Y8001189D01*
X-2724731Y8001189D01*
X-2724727Y8001186D01*
X-2536132Y7943976D01*
X-2340000Y7924659D01*
X-2143868Y7943976D01*
X-1955273Y8001186D01*
X-1781462Y8094090D01*
X-1629117Y8219117D01*
X-1504090Y8371462D01*
X-1457638Y8458368D01*
X-1411189Y8545267D01*
X-1411189Y8545268D01*
X-1411186Y8545273D01*
X-1353976Y8733868D01*
X-1334659Y8930000D01*
X-1353976Y9126132D01*
X-1411186Y9314727D01*
X-1411189Y9314731D01*
X-1411189Y9314734D01*
X-1504087Y9488533D01*
X-1504091Y9488540D01*
X-1521701Y9509998D01*
X9854751Y9509998D01*
X9873685Y9341944D01*
X9929545Y9182306D01*
X9929547Y9182303D01*
X10019518Y9039116D01*
X10019523Y9039110D01*
X10139109Y8919524D01*
X10139115Y8919519D01*
X10282302Y8829548D01*
X10282305Y8829546D01*
X10282309Y8829545D01*
X10282310Y8829544D01*
X10354913Y8804140D01*
X10441943Y8773686D01*
X10609997Y8754751D01*
X10610000Y8754751D01*
X10610002Y8754751D01*
X10657519Y8760105D01*
X10726341Y8748051D01*
X10777720Y8700702D01*
X10795345Y8633092D01*
X10794624Y8623004D01*
X10790355Y8585106D01*
X10790354Y8585101D01*
X10809288Y8417047D01*
X10865148Y8257409D01*
X10865150Y8257406D01*
X10955121Y8114219D01*
X10955126Y8114213D01*
X11074712Y7994627D01*
X11074718Y7994622D01*
X11217905Y7904651D01*
X11217908Y7904649D01*
X11217912Y7904648D01*
X11217913Y7904647D01*
X11290516Y7879243D01*
X11377546Y7848789D01*
X11545600Y7829854D01*
X11545603Y7829854D01*
X11545604Y7829854D01*
X11554833Y7830894D01*
X11623655Y7818840D01*
X11675035Y7771492D01*
X11692660Y7703882D01*
X11691938Y7693791D01*
X11684751Y7630004D01*
X11684751Y7629998D01*
X11703685Y7461944D01*
X11759545Y7302306D01*
X11759547Y7302303D01*
X11849518Y7159116D01*
X11849523Y7159110D01*
X11969109Y7039524D01*
X11969115Y7039519D01*
X12112302Y6949548D01*
X12112305Y6949546D01*
X12112309Y6949545D01*
X12112310Y6949544D01*
X12184913Y6924140D01*
X12271943Y6893686D01*
X12439997Y6874751D01*
X12440000Y6874751D01*
X12440003Y6874751D01*
X12608056Y6893686D01*
X12632682Y6902303D01*
X12767690Y6949544D01*
X12767692Y6949546D01*
X12767694Y6949546D01*
X12767697Y6949548D01*
X12910884Y7039519D01*
X12910885Y7039520D01*
X12910890Y7039523D01*
X13030477Y7159110D01*
X13044159Y7180885D01*
X13120452Y7302303D01*
X13120454Y7302306D01*
X13120454Y7302308D01*
X13120456Y7302310D01*
X13176313Y7461941D01*
X13176313Y7461942D01*
X13176314Y7461944D01*
X13195249Y7629998D01*
X13195249Y7630003D01*
X13176314Y7798057D01*
X13132014Y7924659D01*
X13120456Y7957690D01*
X13120455Y7957691D01*
X13120454Y7957695D01*
X13120452Y7957698D01*
X13030481Y8100885D01*
X13030476Y8100891D01*
X12910890Y8220477D01*
X12910884Y8220482D01*
X12767697Y8310453D01*
X12767694Y8310455D01*
X12608056Y8366315D01*
X12440003Y8385249D01*
X12439996Y8385249D01*
X12430761Y8384209D01*
X12361940Y8396267D01*
X12310563Y8443619D01*
X12292942Y8511231D01*
X12293662Y8521298D01*
X12300852Y8585103D01*
X12295445Y8633092D01*
X12281917Y8753160D01*
X12226057Y8912798D01*
X12226055Y8912801D01*
X12136084Y9055988D01*
X12136079Y9055994D01*
X12016493Y9175580D01*
X12016487Y9175585D01*
X11873300Y9265556D01*
X11873297Y9265558D01*
X11713659Y9321418D01*
X11545606Y9340352D01*
X11545604Y9340352D01*
X11545603Y9340352D01*
X11527052Y9338262D01*
X11498081Y9334998D01*
X11429259Y9347054D01*
X11377880Y9394404D01*
X11360257Y9462015D01*
X11360979Y9472104D01*
X11365249Y9509999D01*
X11365249Y9510003D01*
X11346314Y9678057D01*
X11290454Y9837695D01*
X11290452Y9837698D01*
X11200481Y9980885D01*
X11200476Y9980891D01*
X11080890Y10100477D01*
X11080884Y10100482D01*
X10937697Y10190453D01*
X10937694Y10190455D01*
X10778056Y10246315D01*
X10610003Y10265249D01*
X10609997Y10265249D01*
X10441943Y10246315D01*
X10282305Y10190455D01*
X10282302Y10190453D01*
X10139115Y10100482D01*
X10139109Y10100477D01*
X10019523Y9980891D01*
X10019518Y9980885D01*
X9929547Y9837698D01*
X9929545Y9837695D01*
X9873685Y9678057D01*
X9854751Y9510003D01*
X9854751Y9509998D01*
X-1521701Y9509998D01*
X-1629117Y9640884D01*
X-1781461Y9765910D01*
X-1781468Y9765914D01*
X-1955267Y9858812D01*
X-1955273Y9858814D01*
X-2143868Y9916024D01*
X-2143871Y9916025D01*
X-2340000Y9935341D01*
X-2536130Y9916025D01*
X-2724734Y9858812D01*
X-2898533Y9765914D01*
X-2898540Y9765910D01*
X-3050884Y9640884D01*
X-3175910Y9488540D01*
X-3175914Y9488533D01*
X-3268812Y9314734D01*
X-3326025Y9126130D01*
X-3345341Y8930000D01*
X-7303408Y8930000D01*
X-7349997Y8935249D01*
X-7350003Y8935249D01*
X-7518057Y8916315D01*
X-7677695Y8860455D01*
X-7677698Y8860453D01*
X-7820885Y8770482D01*
X-7820891Y8770477D01*
X-7940477Y8650891D01*
X-7940482Y8650885D01*
X-8030453Y8507698D01*
X-8030455Y8507695D01*
X-8086315Y8348057D01*
X-8105249Y8180003D01*
X-8105249Y8179998D01*
X-8086315Y8011944D01*
X-8030455Y7852306D01*
X-8030453Y7852303D01*
X-7940482Y7709116D01*
X-7940477Y7709110D01*
X-7820891Y7589524D01*
X-7820885Y7589519D01*
X-7677698Y7499548D01*
X-7677692Y7499545D01*
X-7677690Y7499544D01*
X-7518059Y7443687D01*
X-7499039Y7441545D01*
X-7434627Y7414480D01*
X-7425240Y7406005D01*
X-4931416Y4912181D01*
X-4897931Y4850858D01*
X-4902915Y4781166D01*
X-4944787Y4725233D01*
X-5010251Y4700816D01*
X-5019097Y4700500D01*
X-9489337Y4700500D01*
X-9555309Y4719506D01*
X-9652308Y4780455D01*
X-9652309Y4780456D01*
X-9652310Y4780456D01*
X-9690630Y4793865D01*
X-9811944Y4836315D01*
X-9979997Y4855249D01*
X-9980003Y4855249D01*
X-10148057Y4836315D01*
X-10307695Y4780455D01*
X-10307698Y4780453D01*
X-10450885Y4690482D01*
X-10450891Y4690477D01*
X-10570477Y4570891D01*
X-10570482Y4570885D01*
X-10660453Y4427698D01*
X-10660455Y4427695D01*
X-10716315Y4268057D01*
X-10735249Y4100003D01*
X-10735249Y4099998D01*
X-16750450Y4099998D01*
X-16689476Y4352462D01*
X-16589352Y4710805D01*
X-16466297Y5133280D01*
X-16454690Y5168278D01*
X-16350006Y5483954D01*
X-16206603Y5902772D01*
X-16074962Y6244238D01*
X-15922516Y6629998D01*
X-14735249Y6629998D01*
X-14716315Y6461944D01*
X-14660455Y6302306D01*
X-14660453Y6302303D01*
X-14570482Y6159116D01*
X-14570477Y6159110D01*
X-14450891Y6039524D01*
X-14450885Y6039519D01*
X-14307698Y5949548D01*
X-14307695Y5949546D01*
X-14307691Y5949545D01*
X-14307690Y5949544D01*
X-14235087Y5924140D01*
X-14148057Y5893686D01*
X-13980003Y5874751D01*
X-13980000Y5874751D01*
X-13979997Y5874751D01*
X-13811944Y5893686D01*
X-13785926Y5902790D01*
X-13652310Y5949544D01*
X-13652308Y5949546D01*
X-13652306Y5949546D01*
X-13652303Y5949548D01*
X-13509116Y6039519D01*
X-13509115Y6039520D01*
X-13509110Y6039523D01*
X-13389523Y6159110D01*
X-13355046Y6213979D01*
X-13299548Y6302303D01*
X-13299546Y6302306D01*
X-13299546Y6302308D01*
X-13299544Y6302310D01*
X-13243687Y6461941D01*
X-13243687Y6461942D01*
X-13243686Y6461944D01*
X-13224751Y6629998D01*
X-13224751Y6630003D01*
X-13243686Y6798057D01*
X-13296694Y6949544D01*
X-13299544Y6957690D01*
X-13299545Y6957691D01*
X-13299546Y6957695D01*
X-13299548Y6957698D01*
X-13389519Y7100885D01*
X-13389524Y7100891D01*
X-13509110Y7220477D01*
X-13509116Y7220482D01*
X-13524261Y7229998D01*
X-10515249Y7229998D01*
X-10496315Y7061944D01*
X-10440455Y6902306D01*
X-10440453Y6902303D01*
X-10350482Y6759116D01*
X-10350477Y6759110D01*
X-10230891Y6639524D01*
X-10230885Y6639519D01*
X-10087698Y6549548D01*
X-10087695Y6549546D01*
X-10087691Y6549545D01*
X-10087690Y6549544D01*
X-10015087Y6524140D01*
X-9928057Y6493686D01*
X-9760003Y6474751D01*
X-9760000Y6474751D01*
X-9759997Y6474751D01*
X-9591944Y6493686D01*
X-9591941Y6493687D01*
X-9432310Y6549544D01*
X-9432308Y6549546D01*
X-9432306Y6549546D01*
X-9432303Y6549548D01*
X-9289116Y6639519D01*
X-9289115Y6639520D01*
X-9289110Y6639523D01*
X-9169523Y6759110D01*
X-9145051Y6798057D01*
X-9079548Y6902303D01*
X-9079546Y6902306D01*
X-9079546Y6902308D01*
X-9079544Y6902310D01*
X-9023687Y7061941D01*
X-9023687Y7061942D01*
X-9023686Y7061944D01*
X-9004751Y7229998D01*
X-9004751Y7230003D01*
X-9023686Y7398057D01*
X-9079546Y7557695D01*
X-9079548Y7557698D01*
X-9169519Y7700885D01*
X-9169524Y7700891D01*
X-9289110Y7820477D01*
X-9289116Y7820482D01*
X-9432303Y7910453D01*
X-9432306Y7910455D01*
X-9591944Y7966315D01*
X-9759997Y7985249D01*
X-9760003Y7985249D01*
X-9928057Y7966315D01*
X-10087695Y7910455D01*
X-10087698Y7910453D01*
X-10230885Y7820482D01*
X-10230891Y7820477D01*
X-10350477Y7700891D01*
X-10350482Y7700885D01*
X-10440453Y7557698D01*
X-10440455Y7557695D01*
X-10496315Y7398057D01*
X-10515249Y7230003D01*
X-10515249Y7229998D01*
X-13524261Y7229998D01*
X-13652303Y7310453D01*
X-13652306Y7310455D01*
X-13811944Y7366315D01*
X-13979997Y7385249D01*
X-13980003Y7385249D01*
X-14148057Y7366315D01*
X-14307695Y7310455D01*
X-14307698Y7310453D01*
X-14450885Y7220482D01*
X-14450891Y7220477D01*
X-14570477Y7100891D01*
X-14570482Y7100885D01*
X-14660453Y6957698D01*
X-14660455Y6957695D01*
X-14716315Y6798057D01*
X-14735249Y6630003D01*
X-14735249Y6629998D01*
X-15922516Y6629998D01*
X-15910973Y6659207D01*
X-15765214Y6989406D01*
X-15580053Y7400928D01*
X-15421996Y7717195D01*
X-15214577Y8126275D01*
X-15047249Y8424575D01*
X-14815377Y8833601D01*
X-14645007Y9105980D01*
X-14383294Y9521404D01*
X-14228083Y9745047D01*
X-13920074Y10187024D01*
X-13918510Y10189161D01*
X-13903970Y10208114D01*
X-13507740Y10723857D01*
X-13451290Y10765024D01*
X-13381541Y10769137D01*
X-13344619Y10753106D01*
X-13344368Y10753549D01*
X-13340153Y10751166D01*
X-13340150Y10751164D01*
X-13173877Y10657166D01*
X-13136826Y10636220D01*
X-13136827Y10636220D01*
X-13009914Y10588566D01*
X-13009687Y10588395D01*
X-13008155Y10587905D01*
X-12918174Y10554118D01*
X-12918172Y10554118D01*
X-12918170Y10554117D01*
X-12778304Y10525202D01*
X-12777459Y10524752D01*
X-12772513Y10524005D01*
X-12748200Y10518979D01*
X-12744826Y10518181D01*
X-12696576Y10505347D01*
X-12683714Y10506553D01*
X-12539649Y10499556D01*
X-12538024Y10498992D01*
X-12537474Y10499029D01*
X-12530251Y10499099D01*
X-12491064Y10497196D01*
X-12488162Y10496985D01*
X-12455293Y10493820D01*
X-12443407Y10496867D01*
X-12299973Y10512244D01*
X-12297356Y10511771D01*
X-12295294Y10512258D01*
X-12287661Y10513564D01*
X-12224508Y10520335D01*
X-12215318Y10520960D01*
X-12204702Y10525554D01*
X-12065367Y10562939D01*
X-12061822Y10562856D01*
X-12058742Y10564143D01*
X-12050906Y10566819D01*
X-11998336Y10580924D01*
X-11998334Y10580925D01*
X-11998330Y10580926D01*
X-11993786Y10582532D01*
X-11993643Y10582127D01*
X-11983755Y10585462D01*
X-11973682Y10591860D01*
X-11841812Y10650349D01*
X-11837440Y10650929D01*
X-11822015Y10659130D01*
X-11784831Y10675622D01*
X-11780839Y10678197D01*
X-11764406Y10686845D01*
X-11756213Y10694080D01*
X-11669499Y10750003D01*
X-11634992Y10772257D01*
X-11630045Y10773719D01*
X-11629838Y10773901D01*
X-11614922Y10785202D01*
X-11603176Y10792777D01*
X-11588554Y10802206D01*
X-11588552Y10802208D01*
X-11588547Y10802211D01*
X-11578503Y10811167D01*
X-11564155Y10821940D01*
X-11557848Y10829582D01*
X-11450188Y10925570D01*
X-11444863Y10928093D01*
X-11444533Y10928498D01*
X-11430874Y10942789D01*
X-11414212Y10957644D01*
X-11400058Y10974888D01*
X-11388139Y10987251D01*
X-11383636Y10994894D01*
X-11292120Y11106383D01*
X-11286682Y11110086D01*
X-11286379Y11110616D01*
X-11274554Y11127782D01*
X-11266027Y11138170D01*
X-11266022Y11138176D01*
X-11250107Y11165217D01*
X-11240855Y11178523D01*
X-11237989Y11185805D01*
X-11164824Y11310108D01*
X-11159559Y11315044D01*
X-11159365Y11315566D01*
X-11149960Y11335360D01*
X-11147546Y11339461D01*
X-11132583Y11377292D01*
X-11126074Y11390840D01*
X-11124616Y11397433D01*
X-11071565Y11531555D01*
X-11066760Y11537718D01*
X-11066683Y11538112D01*
X-11062650Y11551931D01*
X-11063055Y11552056D01*
X-11061644Y11556637D01*
X-11061638Y11556651D01*
X-11049688Y11609760D01*
X-11047332Y11617705D01*
X-11046697Y11619419D01*
X-11046398Y11624380D01*
X-11014735Y11765096D01*
X-11010671Y11772416D01*
X-11010326Y11785116D01*
X-11006138Y11848484D01*
X-11005145Y11856168D01*
X-11004958Y11857136D01*
X-11005321Y11860854D01*
X-10995810Y12004776D01*
X-10992748Y12013125D01*
X-10997753Y12049485D01*
X-10998083Y12052388D01*
X-11001585Y12091480D01*
X-11001801Y12098456D01*
X-11002424Y12100848D01*
X-11015291Y12244491D01*
X-11013464Y12253686D01*
X-11029400Y12305065D01*
X-11030337Y12308415D01*
X-11036350Y12332501D01*
X-11037204Y12336920D01*
X-11037786Y12338251D01*
X-11050619Y12389649D01*
X-11072382Y12476813D01*
X-11109812Y12565339D01*
X-11110316Y12566718D01*
X-11110547Y12567079D01*
X-11152987Y12667454D01*
X-11163339Y12691939D01*
X-11286482Y12890403D01*
X-11286484Y12890406D01*
X-11289037Y12894520D01*
X-11288171Y12895058D01*
X-11310302Y12956088D01*
X-11294828Y13024223D01*
X-11266042Y13058968D01*
X-10866032Y13393120D01*
X-10747583Y13491910D01*
X-10745543Y13493535D01*
X-10350241Y13793758D01*
X-10098375Y13984124D01*
X-9714781Y14248329D01*
X-9427736Y14444402D01*
X-9043948Y14683282D01*
X-8736181Y14872540D01*
X-8348161Y15089762D01*
X-8178030Y15183455D01*
X-8109813Y15198551D01*
X-8044261Y15174370D01*
X-8002189Y15118587D01*
X-7996954Y15048914D01*
X-8018947Y15000525D01*
X-8043796Y14967332D01*
X-8043798Y14967329D01*
X-8094092Y14832483D01*
X-8100499Y14772884D01*
X-8100499Y14772877D01*
X-8100500Y14772865D01*
X-8100500Y12977130D01*
X-8100499Y12977124D01*
X-8094092Y12917517D01*
X-8043798Y12782672D01*
X-8043794Y12782665D01*
X-7957548Y12667456D01*
X-7957545Y12667453D01*
X-7842336Y12581207D01*
X-7842329Y12581203D01*
X-7710919Y12532190D01*
X-7654985Y12490319D01*
X-7630568Y12424855D01*
X-7645420Y12356582D01*
X-7666570Y12328327D01*
X-7788497Y12206400D01*
X-7924035Y12012831D01*
X-7924036Y12012829D01*
X-8023902Y11798665D01*
X-8023906Y11798656D01*
X-8085062Y11570414D01*
X-8085064Y11570404D01*
X-8105659Y11335001D01*
X-8105659Y11335000D01*
X-8085064Y11099597D01*
X-8085062Y11099587D01*
X-8023906Y10871345D01*
X-8023904Y10871341D01*
X-8023903Y10871337D01*
X-7962586Y10739843D01*
X-7924035Y10657170D01*
X-7924033Y10657166D01*
X-7822566Y10512258D01*
X-7788495Y10463599D01*
X-7621401Y10296505D01*
X-7549722Y10246315D01*
X-7427835Y10160968D01*
X-7427833Y10160967D01*
X-7427830Y10160965D01*
X-7213663Y10061097D01*
X-6985408Y9999937D01*
X-6797082Y9983461D01*
X-6750001Y9979341D01*
X-6750000Y9979341D01*
X-6749999Y9979341D01*
X-6710766Y9982774D01*
X-6514592Y9999937D01*
X-6286337Y10061097D01*
X-6072170Y10160965D01*
X-5878599Y10296505D01*
X-5711505Y10463599D01*
X-5575965Y10657170D01*
X-5532678Y10750000D01*
X-1325253Y10750000D01*
X-1306319Y10581946D01*
X-1250459Y10422308D01*
X-1250457Y10422305D01*
X-1160486Y10279118D01*
X-1160481Y10279112D01*
X-1040895Y10159526D01*
X-1040889Y10159521D01*
X-897702Y10069550D01*
X-897699Y10069548D01*
X-897695Y10069547D01*
X-897694Y10069546D01*
X-873548Y10061097D01*
X-738061Y10013688D01*
X-570007Y9994753D01*
X-570004Y9994753D01*
X-570001Y9994753D01*
X-401948Y10013688D01*
X-401945Y10013689D01*
X-242314Y10069546D01*
X-242312Y10069548D01*
X-242310Y10069548D01*
X-242307Y10069550D01*
X-99120Y10159521D01*
X-99119Y10159522D01*
X-99114Y10159525D01*
X20473Y10279112D01*
X31403Y10296507D01*
X110448Y10422305D01*
X110450Y10422308D01*
X110450Y10422310D01*
X110452Y10422312D01*
X166309Y10581943D01*
X166309Y10581944D01*
X166310Y10581946D01*
X185245Y10749998D01*
X3185251Y10749998D01*
X3204185Y10581944D01*
X3260045Y10422306D01*
X3260047Y10422303D01*
X3350018Y10279116D01*
X3350023Y10279110D01*
X3469609Y10159524D01*
X3469615Y10159519D01*
X3612802Y10069548D01*
X3612805Y10069546D01*
X3612809Y10069545D01*
X3612810Y10069544D01*
X3636956Y10061095D01*
X3772443Y10013686D01*
X3940497Y9994751D01*
X3940500Y9994751D01*
X3940503Y9994751D01*
X4041335Y10006113D01*
X4108559Y10013687D01*
X4268190Y10069544D01*
X4285616Y10080494D01*
X4351588Y10099500D01*
X6383640Y10099500D01*
X6399650Y10097733D01*
X6399673Y10097974D01*
X6407434Y10097242D01*
X6407441Y10097240D01*
X6479348Y10099500D01*
X6510070Y10099500D01*
X6517335Y10100419D01*
X6523161Y10100878D01*
X6571714Y10102403D01*
X6592101Y10108327D01*
X6611141Y10112269D01*
X6632203Y10114929D01*
X6677380Y10132817D01*
X6682880Y10134700D01*
X6729543Y10148256D01*
X6747810Y10159061D01*
X6765281Y10167620D01*
X6785016Y10175432D01*
X6824322Y10203990D01*
X6829188Y10207187D01*
X6871010Y10231919D01*
X6886015Y10246925D01*
X6900813Y10259564D01*
X6917982Y10272037D01*
X6948954Y10309478D01*
X6952868Y10313779D01*
X8193656Y11554567D01*
X8240380Y11583925D01*
X8349343Y11622052D01*
X8349346Y11622055D01*
X8349350Y11622056D01*
X8492537Y11712027D01*
X8492538Y11712028D01*
X8492543Y11712031D01*
X8612130Y11831618D01*
X8612134Y11831624D01*
X8702105Y11974811D01*
X8702107Y11974814D01*
X8702107Y11974816D01*
X8702109Y11974818D01*
X8757966Y12134449D01*
X8757966Y12134450D01*
X8757967Y12134452D01*
X8776902Y12302506D01*
X8776902Y12302511D01*
X8763664Y12419998D01*
X9014751Y12419998D01*
X9033685Y12251944D01*
X9089545Y12092306D01*
X9089547Y12092303D01*
X9179518Y11949116D01*
X9179523Y11949110D01*
X9299109Y11829524D01*
X9299115Y11829519D01*
X9442302Y11739548D01*
X9442305Y11739546D01*
X9442309Y11739545D01*
X9442310Y11739544D01*
X9514913Y11714140D01*
X9601943Y11683686D01*
X9769997Y11664751D01*
X9770000Y11664751D01*
X9770003Y11664751D01*
X9938056Y11683686D01*
X9938059Y11683687D01*
X10097690Y11739544D01*
X10097692Y11739546D01*
X10097694Y11739546D01*
X10097697Y11739548D01*
X10240884Y11829519D01*
X10240885Y11829520D01*
X10240890Y11829523D01*
X10360477Y11949110D01*
X10376628Y11974814D01*
X10450452Y12092303D01*
X10450454Y12092306D01*
X10450454Y12092308D01*
X10450456Y12092310D01*
X10506313Y12251941D01*
X10506313Y12251942D01*
X10506314Y12251944D01*
X10525249Y12419998D01*
X10525249Y12420003D01*
X10506314Y12588057D01*
X10450454Y12747695D01*
X10450452Y12747698D01*
X10360481Y12890885D01*
X10360476Y12890891D01*
X10240890Y13010477D01*
X10240884Y13010482D01*
X10097697Y13100453D01*
X10097694Y13100455D01*
X9938056Y13156315D01*
X9770003Y13175249D01*
X9769997Y13175249D01*
X9601943Y13156315D01*
X9442305Y13100455D01*
X9442302Y13100453D01*
X9299115Y13010482D01*
X9299109Y13010477D01*
X9179523Y12890891D01*
X9179518Y12890885D01*
X9089547Y12747698D01*
X9089545Y12747695D01*
X9033685Y12588057D01*
X9014751Y12420003D01*
X9014751Y12419998D01*
X8763664Y12419998D01*
X8757967Y12470565D01*
X8702107Y12630203D01*
X8702105Y12630206D01*
X8612134Y12773393D01*
X8612129Y12773399D01*
X8492543Y12892985D01*
X8492537Y12892990D01*
X8349350Y12982961D01*
X8349347Y12982963D01*
X8189709Y13038823D01*
X8021656Y13057757D01*
X8021650Y13057757D01*
X7853596Y13038823D01*
X7693958Y12982963D01*
X7693955Y12982961D01*
X7550768Y12892990D01*
X7550762Y12892985D01*
X7431176Y12773399D01*
X7431171Y12773393D01*
X7341201Y12630208D01*
X7341197Y12630200D01*
X7303069Y12521237D01*
X7273709Y12474512D01*
X6236018Y11436819D01*
X6174695Y11403334D01*
X6148337Y11400500D01*
X4351588Y11400500D01*
X4285617Y11419506D01*
X4276668Y11425129D01*
X4268190Y11430456D01*
X4268189Y11430457D01*
X4268188Y11430457D01*
X4108557Y11486314D01*
X3940503Y11505249D01*
X3940497Y11505249D01*
X3772443Y11486315D01*
X3612805Y11430455D01*
X3612802Y11430453D01*
X3469615Y11340482D01*
X3469609Y11340477D01*
X3350023Y11220891D01*
X3350018Y11220885D01*
X3260047Y11077698D01*
X3260045Y11077695D01*
X3204185Y10918057D01*
X3185251Y10750003D01*
X3185251Y10749998D01*
X185245Y10749998D01*
X185245Y10750000D01*
X185245Y10750005D01*
X166310Y10918059D01*
X135856Y11005089D01*
X110452Y11077692D01*
X110451Y11077693D01*
X110450Y11077697D01*
X110448Y11077700D01*
X20477Y11220887D01*
X20472Y11220893D01*
X-99114Y11340479D01*
X-99120Y11340484D01*
X-242307Y11430455D01*
X-242310Y11430457D01*
X-401948Y11486317D01*
X-570001Y11505251D01*
X-570007Y11505251D01*
X-738061Y11486317D01*
X-897699Y11430457D01*
X-897702Y11430455D01*
X-1040889Y11340484D01*
X-1040895Y11340479D01*
X-1160481Y11220893D01*
X-1160486Y11220887D01*
X-1250457Y11077700D01*
X-1250459Y11077697D01*
X-1306319Y10918059D01*
X-1325253Y10750005D01*
X-1325253Y10750000D01*
X-5532678Y10750000D01*
X-5476097Y10871337D01*
X-5414937Y11099592D01*
X-5394341Y11335000D01*
X-5414937Y11570408D01*
X-5472472Y11785135D01*
X-5476095Y11798656D01*
X-5476096Y11798657D01*
X-5476097Y11798663D01*
X-5575965Y12012829D01*
X-5578738Y12016789D01*
X-5711504Y12206400D01*
X-5762496Y12257392D01*
X-5833433Y12328329D01*
X-5866916Y12389649D01*
X-5861932Y12459341D01*
X-5820061Y12515275D01*
X-5789085Y12532190D01*
X-5657669Y12581204D01*
X-5542454Y12667454D01*
X-5456204Y12782669D01*
X-5405909Y12917517D01*
X-5399500Y12977127D01*
X-5399501Y14772872D01*
X-5405909Y14832483D01*
X-5420851Y14872544D01*
X-5456203Y14967329D01*
X-5456207Y14967336D01*
X-5542453Y15082545D01*
X-5542456Y15082548D01*
X-5639239Y15155000D01*
X-3345341Y15155000D01*
X-3326025Y14958871D01*
X-3268812Y14770267D01*
X-3175914Y14596468D01*
X-3175910Y14596461D01*
X-3050884Y14444117D01*
X-2898540Y14319091D01*
X-2898533Y14319087D01*
X-2724734Y14226189D01*
X-2724731Y14226189D01*
X-2724727Y14226186D01*
X-2536132Y14168976D01*
X-2340000Y14149659D01*
X-2143868Y14168976D01*
X-1955273Y14226186D01*
X-1914233Y14248122D01*
X-1781468Y14319087D01*
X-1781462Y14319090D01*
X-1629117Y14444117D01*
X-1504090Y14596462D01*
X-1411186Y14770273D01*
X-1353976Y14958868D01*
X-1334659Y15155000D01*
X-1353976Y15351132D01*
X-1411186Y15539727D01*
X-1411189Y15539731D01*
X-1411189Y15539734D01*
X-1504087Y15713533D01*
X-1504091Y15713540D01*
X-1629117Y15865884D01*
X-1781461Y15990910D01*
X-1781468Y15990914D01*
X-1955267Y16083812D01*
X-1955273Y16083814D01*
X-2143868Y16141024D01*
X-2143871Y16141025D01*
X-2340000Y16160341D01*
X-2536130Y16141025D01*
X-2724734Y16083812D01*
X-2898533Y15990914D01*
X-2898540Y15990910D01*
X-3050884Y15865884D01*
X-3175910Y15713540D01*
X-3175914Y15713533D01*
X-3268812Y15539734D01*
X-3326025Y15351130D01*
X-3345341Y15155000D01*
X-5639239Y15155000D01*
X-5657665Y15168794D01*
X-5657672Y15168798D01*
X-5792518Y15219092D01*
X-5792517Y15219092D01*
X-5852117Y15225499D01*
X-5852119Y15225500D01*
X-5852127Y15225500D01*
X-5852135Y15225500D01*
X-7584465Y15225500D01*
X-7651504Y15245185D01*
X-7697259Y15297989D01*
X-7707203Y15367147D01*
X-7678178Y15430703D01*
X-7639945Y15460395D01*
X-7631707Y15464518D01*
X-7296516Y15628693D01*
X-6897116Y15805887D01*
X-6551574Y15955047D01*
X-6146533Y16112690D01*
X-5792114Y16245919D01*
X-5381819Y16384061D01*
X-5019833Y16500664D01*
X-4604754Y16619292D01*
X-4236414Y16718731D01*
X-3817243Y16817752D01*
X-3443650Y16899625D01*
X-3021006Y16978973D01*
X-2643311Y17042952D01*
X-2217863Y17102554D01*
X-1837106Y17148409D01*
X-1409778Y17188176D01*
X-1026876Y17215760D01*
X-598351Y17235656D01*
X-214430Y17244859D01*
X214428Y17244859D01*
X598351Y17235655D01*
G37*
%TD.AperFunction*%
%TD*%
%TA.AperFunction,Conductor*%
%TO.N,Net-(D1-K)*%
G36*
X7801391Y12393790D02*
G01*
X8017828Y12305073D01*
X8024184Y12298764D01*
X8024217Y12298684D01*
X8112934Y12082247D01*
X8112901Y12073293D01*
X8106663Y12067033D01*
X8022479Y12031454D01*
X8022480Y12031455D01*
X7956231Y11998957D01*
X7956224Y11998953D01*
X7903082Y11963635D01*
X7903075Y11963630D01*
X7847552Y11915080D01*
X7782438Y11851027D01*
X7774137Y11847668D01*
X7765960Y11851095D01*
X7570239Y12046816D01*
X7566812Y12055089D01*
X7570171Y12063294D01*
X7634231Y12128418D01*
X7682780Y12183942D01*
X7718096Y12237082D01*
X7718100Y12237089D01*
X7750598Y12303336D01*
X7750598Y12303335D01*
X7786177Y12387519D01*
X7792554Y12393805D01*
X7801391Y12393790D01*
G37*
%TD.AperFunction*%
%TD*%
%TA.AperFunction,Conductor*%
%TO.N,Net-(D1-K)*%
G36*
X4131572Y10942252D02*
G01*
X4201390Y10918388D01*
X4201414Y10918382D01*
X4263950Y10905781D01*
X4263965Y10905779D01*
X4337565Y10900847D01*
X4428896Y10900096D01*
X4437141Y10896601D01*
X4440500Y10888396D01*
X4440500Y10611605D01*
X4437073Y10603332D01*
X4428896Y10599905D01*
X4337565Y10599154D01*
X4263967Y10594223D01*
X4201399Y10581617D01*
X4201390Y10581615D01*
X4131572Y10557750D01*
X4046895Y10523383D01*
X4037940Y10523447D01*
X4031702Y10529707D01*
X3941390Y10745483D01*
X3941357Y10754437D01*
X3941390Y10754517D01*
X4031702Y10970294D01*
X4038058Y10976603D01*
X4046895Y10976618D01*
X4131572Y10942252D01*
G37*
%TD.AperFunction*%
%TD*%
%TA.AperFunction,Conductor*%
%TO.N,/CS*%
G36*
X468842Y2330167D02*
G01*
X469014Y2329776D01*
X559109Y2114517D01*
X559142Y2105563D01*
X559109Y2105483D01*
X469014Y1890225D01*
X462658Y1883916D01*
X453704Y1883949D01*
X453312Y1884121D01*
X367429Y1923814D01*
X367151Y1923952D01*
X298392Y1960263D01*
X237582Y1987321D01*
X164804Y2004187D01*
X71052Y2009387D01*
X62981Y2013267D01*
X60000Y2021069D01*
X60000Y2198932D01*
X63427Y2207205D01*
X71052Y2210614D01*
X164804Y2215815D01*
X237582Y2232681D01*
X298392Y2259738D01*
X367151Y2296050D01*
X367429Y2296188D01*
X453313Y2335880D01*
X462260Y2336240D01*
X468842Y2330167D01*
G37*
%TD.AperFunction*%
%TD*%
%TA.AperFunction,Conductor*%
%TO.N,/CS*%
G36*
X-7333705Y516052D02*
G01*
X-7333313Y515880D01*
X-7247432Y476188D01*
X-7247154Y476050D01*
X-7178393Y439738D01*
X-7117584Y412681D01*
X-7044806Y395815D01*
X-6951052Y390614D01*
X-6942981Y386734D01*
X-6940000Y378932D01*
X-6940000Y201069D01*
X-6943427Y192796D01*
X-6951052Y189387D01*
X-7044806Y184187D01*
X-7117584Y167321D01*
X-7178393Y140263D01*
X-7247147Y103956D01*
X-7247425Y103818D01*
X-7333313Y64122D01*
X-7342261Y63762D01*
X-7348843Y69834D01*
X-7349015Y70226D01*
X-7439110Y285483D01*
X-7439143Y294437D01*
X-7439110Y294517D01*
X-7349015Y509776D01*
X-7342659Y516085D01*
X-7333705Y516052D01*
G37*
%TD.AperFunction*%
%TD*%
%TA.AperFunction,Conductor*%
%TO.N,/CLK*%
G36*
X-7283705Y-2023948D02*
G01*
X-7283313Y-2024120D01*
X-7197432Y-2063812D01*
X-7197154Y-2063950D01*
X-7128393Y-2100262D01*
X-7067584Y-2127319D01*
X-6994806Y-2144185D01*
X-6901052Y-2149386D01*
X-6892981Y-2153266D01*
X-6890000Y-2161068D01*
X-6890000Y-2338931D01*
X-6893427Y-2347204D01*
X-6901052Y-2350613D01*
X-6994806Y-2355813D01*
X-7067584Y-2372679D01*
X-7128393Y-2399737D01*
X-7197147Y-2436044D01*
X-7197425Y-2436182D01*
X-7283313Y-2475878D01*
X-7292261Y-2476238D01*
X-7298843Y-2470166D01*
X-7299015Y-2469774D01*
X-7389110Y-2254516D01*
X-7389143Y-2245562D01*
X-7389110Y-2245482D01*
X-7299015Y-2030224D01*
X-7292659Y-2023915D01*
X-7283705Y-2023948D01*
G37*
%TD.AperFunction*%
%TD*%
%TA.AperFunction,Conductor*%
%TO.N,/CLK*%
G36*
X457578Y1520167D02*
G01*
X457750Y1519776D01*
X547845Y1304517D01*
X547878Y1295563D01*
X547845Y1295483D01*
X457750Y1080225D01*
X451394Y1073916D01*
X442440Y1073949D01*
X442048Y1074121D01*
X356165Y1113814D01*
X355887Y1113952D01*
X287128Y1150263D01*
X226318Y1177321D01*
X153540Y1194187D01*
X59788Y1199387D01*
X51717Y1203267D01*
X48736Y1211069D01*
X48736Y1388932D01*
X52163Y1397205D01*
X59788Y1400614D01*
X153540Y1405815D01*
X226318Y1422681D01*
X287128Y1449738D01*
X355887Y1486050D01*
X356165Y1486188D01*
X442049Y1525880D01*
X450996Y1526240D01*
X457578Y1520167D01*
G37*
%TD.AperFunction*%
%TD*%
%TA.AperFunction,Conductor*%
%TO.N,/CURR_SENS1*%
G36*
X6900335Y-5968963D02*
G01*
X7116175Y-6057435D01*
X7122531Y-6063744D01*
X7122564Y-6063824D01*
X7211096Y-6279810D01*
X7211063Y-6288764D01*
X7204707Y-6295073D01*
X7204376Y-6295203D01*
X7116461Y-6328154D01*
X7043354Y-6352336D01*
X6982578Y-6377665D01*
X6920429Y-6418263D01*
X6920426Y-6418265D01*
X6851405Y-6480792D01*
X6842973Y-6483807D01*
X6835277Y-6480394D01*
X6709504Y-6354621D01*
X6706077Y-6346348D01*
X6709005Y-6338606D01*
X6771209Y-6268129D01*
X6771211Y-6268126D01*
X6809240Y-6203812D01*
X6831260Y-6140608D01*
X6852656Y-6065396D01*
X6852779Y-6065015D01*
X6884890Y-5975826D01*
X6890916Y-5969202D01*
X6899861Y-5968781D01*
X6900335Y-5968963D01*
G37*
%TD.AperFunction*%
%TD*%
%TA.AperFunction,Conductor*%
%TO.N,/CURR_SENS1*%
G36*
X-6881305Y-6878964D02*
G01*
X-6874996Y-6885320D01*
X-6874841Y-6885718D01*
X-6842178Y-6974520D01*
X-6842079Y-6974814D01*
X-6819137Y-7049100D01*
X-6819137Y-7049101D01*
X-6795272Y-7111231D01*
X-6795270Y-7111234D01*
X-6755735Y-7174621D01*
X-6693117Y-7244594D01*
X-6690154Y-7253044D01*
X-6693563Y-7260669D01*
X-6819331Y-7386437D01*
X-6827604Y-7389864D01*
X-6835406Y-7386883D01*
X-6905379Y-7324265D01*
X-6968766Y-7284730D01*
X-6968769Y-7284728D01*
X-7030899Y-7260863D01*
X-7030900Y-7260863D01*
X-7105186Y-7237921D01*
X-7105480Y-7237822D01*
X-7194282Y-7205159D01*
X-7200864Y-7199087D01*
X-7201224Y-7190139D01*
X-7201069Y-7189741D01*
X-7112565Y-6973824D01*
X-7106256Y-6967468D01*
X-7106176Y-6967435D01*
X-6890259Y-6878931D01*
X-6881305Y-6878964D01*
G37*
%TD.AperFunction*%
%TD*%
%TA.AperFunction,Conductor*%
%TO.N,/BOOT*%
G36*
X6467204Y-2243427D02*
G01*
X6470613Y-2251052D01*
X6475813Y-2344804D01*
X6492679Y-2417582D01*
X6519737Y-2478392D01*
X6556048Y-2547151D01*
X6556186Y-2547429D01*
X6595879Y-2633312D01*
X6596239Y-2642260D01*
X6590167Y-2648842D01*
X6589775Y-2649014D01*
X6374517Y-2739109D01*
X6365563Y-2739142D01*
X6365483Y-2739109D01*
X6150224Y-2649014D01*
X6143915Y-2642658D01*
X6143948Y-2633704D01*
X6144120Y-2633313D01*
X6183812Y-2547429D01*
X6183950Y-2547151D01*
X6220262Y-2478392D01*
X6247319Y-2417582D01*
X6264185Y-2344804D01*
X6269387Y-2251052D01*
X6273267Y-2242981D01*
X6281069Y-2240000D01*
X6458931Y-2240000D01*
X6467204Y-2243427D01*
G37*
%TD.AperFunction*%
%TD*%
%TA.AperFunction,Conductor*%
%TO.N,/BOOT*%
G36*
X-9873705Y4326052D02*
G01*
X-9873313Y4325880D01*
X-9787432Y4286188D01*
X-9787154Y4286050D01*
X-9718393Y4249738D01*
X-9657584Y4222681D01*
X-9584806Y4205815D01*
X-9491052Y4200614D01*
X-9482981Y4196734D01*
X-9480000Y4188932D01*
X-9480000Y4011069D01*
X-9483427Y4002796D01*
X-9491052Y3999387D01*
X-9584806Y3994187D01*
X-9657584Y3977321D01*
X-9718393Y3950263D01*
X-9787147Y3913956D01*
X-9787425Y3913818D01*
X-9873313Y3874122D01*
X-9882261Y3873762D01*
X-9888843Y3879834D01*
X-9889015Y3880226D01*
X-9979110Y4095483D01*
X-9979143Y4104437D01*
X-9979110Y4104517D01*
X-9889015Y4319776D01*
X-9882659Y4326085D01*
X-9873705Y4326052D01*
G37*
%TD.AperFunction*%
%TD*%
%TA.AperFunction,Conductor*%
%TO.N,/CURR_SENS2*%
G36*
X7217204Y-4293427D02*
G01*
X7220613Y-4301052D01*
X7225813Y-4394804D01*
X7242679Y-4467582D01*
X7269737Y-4528392D01*
X7306048Y-4597151D01*
X7306186Y-4597429D01*
X7345879Y-4683312D01*
X7346239Y-4692260D01*
X7340167Y-4698842D01*
X7339775Y-4699014D01*
X7124516Y-4789109D01*
X7115562Y-4789142D01*
X7115482Y-4789109D01*
X6900224Y-4699014D01*
X6893915Y-4692658D01*
X6893948Y-4683704D01*
X6894120Y-4683313D01*
X6933812Y-4597429D01*
X6933950Y-4597151D01*
X6970262Y-4528392D01*
X6997319Y-4467582D01*
X7014185Y-4394804D01*
X7019387Y-4301052D01*
X7023267Y-4292981D01*
X7031069Y-4290000D01*
X7208931Y-4290000D01*
X7217204Y-4293427D01*
G37*
%TD.AperFunction*%
%TD*%
%TA.AperFunction,Conductor*%
%TO.N,/CURR_SENS2*%
G36*
X-7121305Y8271036D02*
G01*
X-7114996Y8264680D01*
X-7114841Y8264282D01*
X-7082178Y8175480D01*
X-7082079Y8175186D01*
X-7059137Y8100900D01*
X-7059137Y8100899D01*
X-7035272Y8038769D01*
X-7035270Y8038766D01*
X-6995735Y7975379D01*
X-6933117Y7905406D01*
X-6930154Y7896956D01*
X-6933563Y7889331D01*
X-7059331Y7763563D01*
X-7067604Y7760136D01*
X-7075406Y7763117D01*
X-7145379Y7825735D01*
X-7208766Y7865270D01*
X-7208769Y7865272D01*
X-7270899Y7889137D01*
X-7270900Y7889137D01*
X-7345186Y7912079D01*
X-7345480Y7912178D01*
X-7434282Y7944841D01*
X-7440864Y7950913D01*
X-7441224Y7959861D01*
X-7441069Y7960259D01*
X-7352565Y8176176D01*
X-7346256Y8182532D01*
X-7346176Y8182565D01*
X-7130259Y8271069D01*
X-7121305Y8271036D01*
G37*
%TD.AperFunction*%
%TD*%
%TA.AperFunction,Conductor*%
%TO.N,/MISO*%
G36*
X-5573705Y-3293948D02*
G01*
X-5573313Y-3294120D01*
X-5487432Y-3333812D01*
X-5487154Y-3333950D01*
X-5418393Y-3370262D01*
X-5357584Y-3397319D01*
X-5284806Y-3414185D01*
X-5191052Y-3419386D01*
X-5182981Y-3423266D01*
X-5180000Y-3431068D01*
X-5180000Y-3608931D01*
X-5183427Y-3617204D01*
X-5191052Y-3620613D01*
X-5284806Y-3625813D01*
X-5357584Y-3642679D01*
X-5418393Y-3669737D01*
X-5487147Y-3706044D01*
X-5487425Y-3706182D01*
X-5573313Y-3745878D01*
X-5582261Y-3746238D01*
X-5588843Y-3740166D01*
X-5589015Y-3739774D01*
X-5679110Y-3524517D01*
X-5679143Y-3515563D01*
X-5679110Y-3515483D01*
X-5589015Y-3300224D01*
X-5582659Y-3293915D01*
X-5573705Y-3293948D01*
G37*
%TD.AperFunction*%
%TD*%
%TA.AperFunction,Conductor*%
%TO.N,/MISO*%
G36*
X458842Y680167D02*
G01*
X459014Y679776D01*
X549109Y464517D01*
X549142Y455563D01*
X549109Y455483D01*
X459014Y240225D01*
X452658Y233916D01*
X443704Y233949D01*
X443312Y234121D01*
X357429Y273814D01*
X357151Y273952D01*
X288392Y310263D01*
X227582Y337321D01*
X154804Y354187D01*
X61052Y359387D01*
X52981Y363267D01*
X50000Y371069D01*
X50000Y548932D01*
X53427Y557205D01*
X61052Y560614D01*
X154804Y565815D01*
X227582Y582681D01*
X288392Y609738D01*
X357151Y646050D01*
X357429Y646188D01*
X443313Y685880D01*
X452260Y686240D01*
X458842Y680167D01*
G37*
%TD.AperFunction*%
%TD*%
D18*
X7030000Y14095000D03*
X3940500Y10750000D03*
X-7110000Y-6970000D03*
X-13905000Y-6970000D03*
X11860000Y-11140000D03*
X10830000Y-5010000D03*
X11860000Y-9590000D03*
X10210000Y-12410000D03*
X-13980000Y6630000D03*
X-7100000Y-8160000D03*
X-609995Y12660008D03*
X-570004Y10750002D03*
X5715000Y6710000D03*
D19*
X6850000Y7100000D03*
D18*
X12440000Y-3540000D03*
X12540000Y3740000D03*
X-9760000Y7230000D03*
X-12830000Y-9620000D03*
X-4640000Y2275500D03*
D19*
X3380000Y-11830000D03*
X-2340000Y15155000D03*
X-3020000Y-15680000D03*
D18*
X-7310000Y-12410000D03*
D19*
X-3010000Y-14627247D03*
D18*
X-4640000Y-1163650D03*
X-13980000Y8180000D03*
D19*
X6225000Y-13440000D03*
D18*
X12430000Y960000D03*
X1600000Y0D03*
D19*
X1760000Y-8290000D03*
X-2340000Y8930000D03*
X4560000Y-230000D03*
X2990000Y-15660000D03*
X3000000Y-14630000D03*
D18*
X9770000Y12420000D03*
X-9980000Y4100000D03*
X6370000Y-2740000D03*
X7120000Y-6060000D03*
X7120000Y-4790000D03*
X-7350000Y8180000D03*
X12440000Y7630000D03*
X11545603Y8585103D03*
X10610000Y9510000D03*
X560000Y2110000D03*
X-7440000Y290000D03*
X548736Y1300000D03*
X-7390000Y-2250000D03*
X550000Y460000D03*
X-5680000Y-3520000D03*
X1000000Y-15150000D03*
X8021653Y12302508D03*
X-1000000Y-15150000D03*
D20*
X2900000Y-5770000D03*
X2900000Y-4370000D03*
X2200000Y-6470000D03*
X2200000Y-5070000D03*
X2200000Y-3670000D03*
X1500000Y-5770000D03*
X1500000Y-4370000D03*
X800000Y-6470000D03*
X800000Y-5070000D03*
X800000Y-3670000D03*
X100000Y-5770000D03*
X100000Y-4370000D03*
D19*
X-6750000Y13875000D03*
X-6750000Y11335000D03*
X13145000Y-2790000D03*
X13145000Y210000D03*
D20*
X4960000Y-9900276D03*
X6060000Y-9900276D03*
M02*
