%TF.GenerationSoftware,KiCad,Pcbnew,7.0.6*%
%TF.CreationDate,2023-09-26T22:04:44+02:00*%
%TF.ProjectId,torque_controller,746f7271-7565-45f6-936f-6e74726f6c6c,rev?*%
%TF.SameCoordinates,Original*%
%TF.FileFunction,Legend,Top*%
%TF.FilePolarity,Positive*%
%FSLAX46Y46*%
G04 Gerber Fmt 4.6, Leading zero omitted, Abs format (unit mm)*
G04 Created by KiCad (PCBNEW 7.0.6) date 2023-09-26 22:04:44*
%MOMM*%
%LPD*%
G01*
G04 APERTURE LIST*
%ADD10C,0.160000*%
%ADD11C,0.120000*%
%ADD12C,0.300000*%
%ADD13C,0.350000*%
%ADD14C,0.200000*%
G04 APERTURE END LIST*
D10*
X15080700Y-164786D02*
X15556891Y168547D01*
X15080700Y406642D02*
X16080700Y406642D01*
X16080700Y406642D02*
X16080700Y25690D01*
X16080700Y25690D02*
X16033081Y-69548D01*
X16033081Y-69548D02*
X15985462Y-117167D01*
X15985462Y-117167D02*
X15890224Y-164786D01*
X15890224Y-164786D02*
X15747367Y-164786D01*
X15747367Y-164786D02*
X15652129Y-117167D01*
X15652129Y-117167D02*
X15604510Y-69548D01*
X15604510Y-69548D02*
X15556891Y25690D01*
X15556891Y25690D02*
X15556891Y406642D01*
X15128320Y-545739D02*
X15080700Y-688596D01*
X15080700Y-688596D02*
X15080700Y-926691D01*
X15080700Y-926691D02*
X15128320Y-1021929D01*
X15128320Y-1021929D02*
X15175939Y-1069548D01*
X15175939Y-1069548D02*
X15271177Y-1117167D01*
X15271177Y-1117167D02*
X15366415Y-1117167D01*
X15366415Y-1117167D02*
X15461653Y-1069548D01*
X15461653Y-1069548D02*
X15509272Y-1021929D01*
X15509272Y-1021929D02*
X15556891Y-926691D01*
X15556891Y-926691D02*
X15604510Y-736215D01*
X15604510Y-736215D02*
X15652129Y-640977D01*
X15652129Y-640977D02*
X15699748Y-593358D01*
X15699748Y-593358D02*
X15794986Y-545739D01*
X15794986Y-545739D02*
X15890224Y-545739D01*
X15890224Y-545739D02*
X15985462Y-593358D01*
X15985462Y-593358D02*
X16033081Y-640977D01*
X16033081Y-640977D02*
X16080700Y-736215D01*
X16080700Y-736215D02*
X16080700Y-974310D01*
X16080700Y-974310D02*
X16033081Y-1117167D01*
X16080700Y-1402882D02*
X16080700Y-1974310D01*
X15080700Y-1688596D02*
X16080700Y-1688596D01*
X-9205214Y10790701D02*
X-9538547Y11266892D01*
X-9776642Y10790701D02*
X-9776642Y11790701D01*
X-9776642Y11790701D02*
X-9395690Y11790701D01*
X-9395690Y11790701D02*
X-9300452Y11743082D01*
X-9300452Y11743082D02*
X-9252833Y11695463D01*
X-9252833Y11695463D02*
X-9205214Y11600225D01*
X-9205214Y11600225D02*
X-9205214Y11457368D01*
X-9205214Y11457368D02*
X-9252833Y11362130D01*
X-9252833Y11362130D02*
X-9300452Y11314511D01*
X-9300452Y11314511D02*
X-9395690Y11266892D01*
X-9395690Y11266892D02*
X-9776642Y11266892D01*
X-8871880Y11790701D02*
X-8205214Y10790701D01*
X-8205214Y11790701D02*
X-8871880Y10790701D01*
X-9639499Y14030701D02*
X-9068071Y14030701D01*
X-9353785Y13030701D02*
X-9353785Y14030701D01*
X-8829975Y14030701D02*
X-8163309Y13030701D01*
X-8163309Y14030701D02*
X-8829975Y13030701D01*
D11*
%TO.C,R3*%
X4463000Y13062742D02*
X4463000Y13537258D01*
X3418000Y13062742D02*
X3418000Y13537258D01*
%TO.C,R1*%
X1625000Y13032742D02*
X1625000Y13507258D01*
X580000Y13032742D02*
X580000Y13507258D01*
%TO.C,SWRST1*%
X10540000Y-4570000D02*
X11740000Y-4570000D01*
X13340000Y-4570000D02*
X14540000Y-4570000D01*
X14540000Y-4570000D02*
X14540000Y1830000D01*
X10540000Y1830000D02*
X10540000Y-4570000D01*
X11740000Y1830000D02*
X10540000Y1830000D01*
X14540000Y1830000D02*
X13340000Y1830000D01*
%TO.C,RRST1*%
X11352500Y-6632742D02*
X11352500Y-7107258D01*
X10307500Y-6632742D02*
X10307500Y-7107258D01*
%TO.C,C1*%
X6280000Y13149420D02*
X6280000Y13430580D01*
X5260000Y13149420D02*
X5260000Y13430580D01*
%TO.C,ESP32*%
X9440000Y-13300000D02*
X9110000Y-13300000D01*
X9110000Y-13710000D02*
X9110000Y-13300000D01*
X9110000Y-13710000D02*
X-9110000Y-13710000D01*
X9110000Y4810000D02*
X9110000Y5710000D01*
X9110000Y5710000D02*
X6425000Y5710000D01*
X-6425000Y5710000D02*
X-9110000Y5710000D01*
X-9110000Y-13710000D02*
X-9110000Y-13120000D01*
X-9110000Y4810000D02*
X-9110000Y5710000D01*
%TO.C,CESP32*%
X11340000Y-10224420D02*
X11340000Y-10505580D01*
X10320000Y-10224420D02*
X10320000Y-10505580D01*
%TO.C,R2*%
X-2647255Y13182506D02*
X-2172739Y13182506D01*
X-2647255Y12137506D02*
X-2172739Y12137506D01*
%TO.C,D2*%
X-965000Y10015000D02*
X-965000Y11485000D01*
X-965000Y11485000D02*
X-3250000Y11485000D01*
X-3250000Y10015000D02*
X-965000Y10015000D01*
%TO.C,D1*%
X3375000Y10015000D02*
X3375000Y11485000D01*
X3375000Y11485000D02*
X1090000Y11485000D01*
X1090000Y10015000D02*
X3375000Y10015000D01*
%TD*%
D12*
X7030000Y14095000D03*
X3940500Y10750000D03*
X-7110000Y-6970000D03*
X-13905000Y-6970000D03*
X11860000Y-11140000D03*
X10830000Y-5010000D03*
X11860000Y-9590000D03*
X10210000Y-12410000D03*
X-13980000Y6630000D03*
X-7100000Y-8160000D03*
X-609995Y12660008D03*
X-570004Y10750002D03*
X5715000Y6710000D03*
D13*
X6850000Y7100000D03*
D12*
X12440000Y-3540000D03*
X12540000Y3740000D03*
X-9760000Y7230000D03*
X-12830000Y-9620000D03*
X-4640000Y2275500D03*
D13*
X3380000Y-11830000D03*
X-2340000Y15155000D03*
X-3020000Y-15680000D03*
D12*
X-7310000Y-12410000D03*
D13*
X-3010000Y-14627247D03*
D12*
X-4640000Y-1163650D03*
X-13980000Y8180000D03*
D13*
X6225000Y-13440000D03*
D12*
X12430000Y960000D03*
X1600000Y0D03*
D13*
X1760000Y-8290000D03*
X-2340000Y8930000D03*
X4560000Y-230000D03*
X2990000Y-15660000D03*
X3000000Y-14630000D03*
D12*
X9770000Y12420000D03*
X-9980000Y4100000D03*
X6370000Y-2740000D03*
X7120000Y-6060000D03*
X7120000Y-4790000D03*
X-7350000Y8180000D03*
X12440000Y7630000D03*
X11545603Y8585103D03*
X10610000Y9510000D03*
X560000Y2110000D03*
X-7440000Y290000D03*
X548736Y1300000D03*
X-7390000Y-2250000D03*
X550000Y460000D03*
X-5680000Y-3520000D03*
X1000000Y-15150000D03*
X8021653Y12302508D03*
X-1000000Y-15150000D03*
D14*
X2900000Y-5770000D03*
X2900000Y-4370000D03*
X2200000Y-6470000D03*
X2200000Y-5070000D03*
X2200000Y-3670000D03*
X1500000Y-5770000D03*
X1500000Y-4370000D03*
X800000Y-6470000D03*
X800000Y-5070000D03*
X800000Y-3670000D03*
X100000Y-5770000D03*
X100000Y-4370000D03*
D13*
X-6750000Y13875000D03*
X-6750000Y11335000D03*
X13145000Y-2790000D03*
X13145000Y210000D03*
D14*
X4960000Y-9900276D03*
X6060000Y-9900276D03*
M02*
