%TF.GenerationSoftware,KiCad,Pcbnew,7.0.6*%
%TF.CreationDate,2023-09-26T22:04:44+02:00*%
%TF.ProjectId,torque_controller,746f7271-7565-45f6-936f-6e74726f6c6c,rev?*%
%TF.SameCoordinates,Original*%
%TF.FileFunction,Copper,L3,Inr*%
%TF.FilePolarity,Positive*%
%FSLAX46Y46*%
G04 Gerber Fmt 4.6, Leading zero omitted, Abs format (unit mm)*
G04 Created by KiCad (PCBNEW 7.0.6) date 2023-09-26 22:04:44*
%MOMM*%
%LPD*%
G01*
G04 APERTURE LIST*
%TA.AperFunction,HeatsinkPad*%
%ADD10C,0.600000*%
%TD*%
%TA.AperFunction,ComponentPad*%
%ADD11R,1.700000X1.700000*%
%TD*%
%TA.AperFunction,ComponentPad*%
%ADD12O,1.700000X1.700000*%
%TD*%
%TA.AperFunction,ComponentPad*%
%ADD13C,0.500000*%
%TD*%
%TA.AperFunction,ViaPad*%
%ADD14C,0.500000*%
%TD*%
%TA.AperFunction,ViaPad*%
%ADD15C,1.000000*%
%TD*%
%ADD16C,0.300000*%
%ADD17C,0.350000*%
%ADD18C,0.200000*%
G04 APERTURE END LIST*
D10*
%TO.N,GND*%
%TO.C,ESP32*%
X2900000Y-5770000D03*
X2900000Y-4370000D03*
X2200000Y-6470000D03*
X2200000Y-5070000D03*
X2200000Y-3670000D03*
X1500000Y-5770000D03*
X1500000Y-4370000D03*
X800000Y-6470000D03*
X800000Y-5070000D03*
X800000Y-3670000D03*
X100000Y-5770000D03*
X100000Y-4370000D03*
%TD*%
D11*
%TO.N,/TX*%
%TO.C,J3*%
X-6750000Y13875000D03*
D12*
%TO.N,/RX*%
X-6750000Y11335000D03*
%TD*%
D13*
%TO.N,GND*%
%TO.C,U1*%
X4960000Y-9900276D03*
X6060000Y-9900276D03*
%TD*%
D14*
%TO.N,+3.3V*%
X7030000Y14095000D03*
%TO.N,Net-(D1-K)*%
X3940500Y10750000D03*
%TO.N,/CURR_SENS1*%
X-7110000Y-6970000D03*
%TO.N,+3.3V*%
X-13905000Y-6970000D03*
X11860000Y-11140000D03*
X10830000Y-5010000D03*
%TO.N,GND*%
X11860000Y-9590000D03*
X10210000Y-12410000D03*
X-13980000Y6630000D03*
X-7100000Y-8160000D03*
%TO.N,+3.3V*%
X-609995Y12660008D03*
%TO.N,GND*%
X-570004Y10750002D03*
X5715000Y6710000D03*
D15*
X6850000Y7100000D03*
D14*
X12440000Y-3540000D03*
X12540000Y3740000D03*
X-9760000Y7230000D03*
X-12830000Y-9620000D03*
X-4640000Y2275500D03*
D15*
X3380000Y-11830000D03*
X-2340000Y15155000D03*
X-3020000Y-15680000D03*
D14*
X-7310000Y-12410000D03*
D15*
X-3010000Y-14627247D03*
D14*
%TO.N,+3.3V*%
X-4640000Y-1163650D03*
X-13980000Y8180000D03*
D15*
X6225000Y-13440000D03*
D14*
X12430000Y960000D03*
X1600000Y0D03*
D15*
%TO.N,VCC*%
X1760000Y-8290000D03*
X-2340000Y8930000D03*
X4560000Y-230000D03*
X2990000Y-15660000D03*
X3000000Y-14630000D03*
D14*
%TO.N,/EN_DRV*%
X9770000Y12420000D03*
%TO.N,/BOOT*%
X-9980000Y4100000D03*
X6370000Y-2740000D03*
%TO.N,/CURR_SENS1*%
X7120000Y-6060000D03*
%TO.N,/CURR_SENS2*%
X7120000Y-4790000D03*
X-7350000Y8180000D03*
%TO.N,/PWM_OUT1*%
X12440000Y7630000D03*
%TO.N,/PWM_OUT2*%
X11545603Y8585103D03*
%TO.N,/PWM_OUT3*%
X10610000Y9510000D03*
%TO.N,/CS*%
X560000Y2110000D03*
X-7440000Y290000D03*
%TO.N,/CLK*%
X548736Y1300000D03*
X-7390000Y-2250000D03*
%TO.N,/MISO*%
X550000Y460000D03*
X-5680000Y-3520000D03*
%TO.N,/SDA*%
X1000000Y-15150000D03*
%TO.N,Net-(D1-K)*%
X8021653Y12302508D03*
%TO.N,/SCL*%
X-1000000Y-15150000D03*
%TD*%
%TA.AperFunction,Conductor*%
%TO.N,GND*%
G36*
X598351Y17235655D02*
G01*
X1026876Y17215759D01*
X1409748Y17188178D01*
X1837075Y17148412D01*
X2217909Y17102547D01*
X2643297Y17042953D01*
X3020995Y16978975D01*
X3443618Y16899631D01*
X3817283Y16817742D01*
X4236399Y16718734D01*
X4604822Y16619271D01*
X5019801Y16500672D01*
X5381797Y16384068D01*
X5792111Y16245919D01*
X6062159Y16144405D01*
X6146571Y16112674D01*
X6551558Y15955052D01*
X6897147Y15805872D01*
X7296486Y15628705D01*
X7631733Y15464503D01*
X8025230Y15267603D01*
X8204649Y15168794D01*
X8348209Y15089733D01*
X8736171Y14872544D01*
X9044032Y14683227D01*
X9232548Y14565890D01*
X9427715Y14444413D01*
X9714994Y14248180D01*
X10098361Y13984132D01*
X10350444Y13793601D01*
X10745496Y13493568D01*
X10747617Y13491880D01*
X10840338Y13414546D01*
X10866637Y13392612D01*
X11266038Y13058968D01*
X11304867Y13000883D01*
X11306129Y12931025D01*
X11288604Y12894786D01*
X11289035Y12894519D01*
X11286499Y12890434D01*
X11286493Y12890419D01*
X11286482Y12890404D01*
X11220317Y12783770D01*
X11220315Y12783766D01*
X11163337Y12691938D01*
X11110536Y12567055D01*
X11110354Y12566834D01*
X11109800Y12565316D01*
X11072381Y12476811D01*
X11037780Y12338229D01*
X11037295Y12337403D01*
X11036345Y12332481D01*
X11030344Y12308444D01*
X11029407Y12305095D01*
X11014610Y12257392D01*
X11015290Y12244492D01*
X11002420Y12100820D01*
X11001789Y12099220D01*
X11001805Y12098663D01*
X11001581Y12091448D01*
X10998089Y12052465D01*
X10997757Y12049540D01*
X10993248Y12016789D01*
X10995808Y12004786D01*
X11005323Y11860826D01*
X11004742Y11858226D01*
X11005147Y11856136D01*
X11006141Y11848442D01*
X11010321Y11785194D01*
X11010573Y11775906D01*
X11014733Y11765105D01*
X11046405Y11624346D01*
X11046177Y11620808D01*
X11047338Y11617677D01*
X11049696Y11609724D01*
X11061637Y11556650D01*
X11063057Y11552045D01*
X11062653Y11551921D01*
X11065577Y11541893D01*
X11071557Y11531571D01*
X11124619Y11397422D01*
X11125019Y11393034D01*
X11132584Y11377286D01*
X11147545Y11339462D01*
X11147546Y11339459D01*
X11149959Y11335360D01*
X11157922Y11318599D01*
X11164814Y11310122D01*
X11237992Y11185797D01*
X11239251Y11180791D01*
X11239432Y11180569D01*
X11250106Y11165216D01*
X11250113Y11165205D01*
X11266026Y11138170D01*
X11274543Y11127794D01*
X11284728Y11113010D01*
X11292112Y11106392D01*
X11383639Y10994890D01*
X11385943Y10989466D01*
X11386339Y10989116D01*
X11400056Y10974889D01*
X11414212Y10957644D01*
X11430857Y10942804D01*
X11442724Y10930389D01*
X11450181Y10925575D01*
X11557861Y10829570D01*
X11561337Y10823989D01*
X11561847Y10823669D01*
X11578513Y10811156D01*
X11588534Y10802222D01*
X11588543Y10802215D01*
X11588547Y10802212D01*
X11614905Y10785213D01*
X11627822Y10775428D01*
X11634973Y10772271D01*
X11756210Y10694081D01*
X11760927Y10688619D01*
X11761439Y10688405D01*
X11780827Y10678204D01*
X11784831Y10675622D01*
X11784833Y10675621D01*
X11784835Y10675620D01*
X11822008Y10659132D01*
X11835276Y10652079D01*
X11841793Y10650357D01*
X11973674Y10591863D01*
X11979636Y10586809D01*
X11980024Y10586717D01*
X11993654Y10582129D01*
X11993796Y10582528D01*
X11998331Y10580925D01*
X12050877Y10566826D01*
X12058729Y10564145D01*
X12060420Y10563439D01*
X12065366Y10562939D01*
X12204692Y10525557D01*
X12211841Y10521196D01*
X12224543Y10520332D01*
X12287648Y10513566D01*
X12295294Y10512258D01*
X12296250Y10512033D01*
X12299970Y10512244D01*
X12423582Y10498992D01*
X12443403Y10496867D01*
X12451620Y10493467D01*
X12488161Y10496985D01*
X12491062Y10497196D01*
X12530249Y10499099D01*
X12537237Y10499032D01*
X12539643Y10499556D01*
X12683717Y10506553D01*
X12692827Y10504352D01*
X12744817Y10518180D01*
X12748176Y10518974D01*
X12772499Y10524002D01*
X12776936Y10524673D01*
X12778282Y10525197D01*
X12845769Y10539150D01*
X12918169Y10554117D01*
X13008153Y10587906D01*
X13009510Y10588340D01*
X13009869Y10588549D01*
X13136820Y10636217D01*
X13136823Y10636220D01*
X13136826Y10636220D01*
X13340149Y10751163D01*
X13340151Y10751165D01*
X13344367Y10753548D01*
X13344871Y10752656D01*
X13406728Y10772280D01*
X13474177Y10754049D01*
X13507738Y10723855D01*
X13904097Y10207945D01*
X13918443Y10189247D01*
X13920111Y10186966D01*
X14050450Y9999937D01*
X14227852Y9745374D01*
X14228309Y9744719D01*
X14383287Y9521413D01*
X14403998Y9488538D01*
X14645123Y9105790D01*
X14815364Y8833617D01*
X15047247Y8424575D01*
X15214575Y8126275D01*
X15421994Y7717195D01*
X15428647Y7703882D01*
X15580039Y7400949D01*
X15765241Y6989337D01*
X15807465Y6893686D01*
X15910957Y6659239D01*
X16075000Y6244132D01*
X16206593Y5902790D01*
X16350014Y5483923D01*
X16466288Y5133301D01*
X16589353Y4710792D01*
X16689474Y4352462D01*
X16792294Y3926731D01*
X16875660Y3562010D01*
X16885783Y3509519D01*
X16958294Y3133530D01*
X17024433Y2763698D01*
X17086896Y2333107D01*
X17135469Y1959306D01*
X17177772Y1527254D01*
X17208524Y1150611D01*
X17230677Y717843D01*
X17243443Y339414D01*
X17245470Y-93352D01*
X17240153Y-472461D01*
X17222097Y-904456D01*
X17198666Y-1283270D01*
X17160594Y-1713656D01*
X17119082Y-2091168D01*
X17061090Y-2519128D01*
X17001578Y-2894412D01*
X16923792Y-3319116D01*
X16846436Y-3691127D01*
X16748992Y-4111839D01*
X16654000Y-4479607D01*
X16537074Y-4895514D01*
X16424720Y-5258063D01*
X16288511Y-5668376D01*
X16159097Y-6024827D01*
X16003840Y-6428735D01*
X15857790Y-6778054D01*
X15683668Y-7174941D01*
X15645668Y-7254878D01*
X15521444Y-7516190D01*
X15328751Y-7905224D01*
X15150871Y-8237506D01*
X14939825Y-8618061D01*
X14746926Y-8940409D01*
X14517791Y-9311794D01*
X14310578Y-9623289D01*
X14063526Y-9984973D01*
X13842950Y-10284499D01*
X13578084Y-10636025D01*
X13345142Y-10922616D01*
X13062528Y-11263522D01*
X12818529Y-11536036D01*
X12720360Y-11643841D01*
X12660669Y-11680156D01*
X12590821Y-11678434D01*
X12532992Y-11639223D01*
X12505542Y-11574971D01*
X12517186Y-11506079D01*
X12523680Y-11494388D01*
X12540456Y-11467690D01*
X12596313Y-11308059D01*
X12596313Y-11308058D01*
X12596314Y-11308056D01*
X12615249Y-11140002D01*
X12615249Y-11139997D01*
X12596314Y-10971943D01*
X12540454Y-10812305D01*
X12540452Y-10812302D01*
X12450481Y-10669115D01*
X12450476Y-10669109D01*
X12330890Y-10549523D01*
X12330884Y-10549518D01*
X12187697Y-10459547D01*
X12187694Y-10459545D01*
X12028056Y-10403685D01*
X11860003Y-10384751D01*
X11859997Y-10384751D01*
X11691943Y-10403685D01*
X11532305Y-10459545D01*
X11532302Y-10459547D01*
X11389115Y-10549518D01*
X11389109Y-10549523D01*
X11269523Y-10669109D01*
X11269518Y-10669115D01*
X11179547Y-10812302D01*
X11179545Y-10812305D01*
X11123685Y-10971943D01*
X11104751Y-11139997D01*
X11104751Y-11140002D01*
X11123685Y-11308056D01*
X11179545Y-11467694D01*
X11179547Y-11467697D01*
X11269518Y-11610884D01*
X11269523Y-11610890D01*
X11389109Y-11730476D01*
X11389115Y-11730481D01*
X11532302Y-11820452D01*
X11532305Y-11820454D01*
X11532309Y-11820455D01*
X11532310Y-11820456D01*
X11604913Y-11845860D01*
X11691943Y-11876314D01*
X11859997Y-11895249D01*
X11860000Y-11895249D01*
X11860003Y-11895249D01*
X12028056Y-11876314D01*
X12028059Y-11876313D01*
X12187690Y-11820456D01*
X12271060Y-11768070D01*
X12338295Y-11749070D01*
X12405131Y-11769437D01*
X12450345Y-11822704D01*
X12459584Y-11891961D01*
X12429913Y-11955217D01*
X12425360Y-11960094D01*
X12264744Y-12123106D01*
X11945682Y-12442362D01*
X11685863Y-12682018D01*
X11346864Y-12991085D01*
X11084781Y-13210629D01*
X10722875Y-13511023D01*
X10467382Y-13705070D01*
X10075069Y-14001042D01*
X9851328Y-14154706D01*
X9406093Y-14459224D01*
X9403711Y-14460774D01*
X9383683Y-14473165D01*
X8822394Y-14819935D01*
X8755015Y-14838424D01*
X8688336Y-14817551D01*
X8659612Y-14789604D01*
X8659205Y-14789944D01*
X8656111Y-14786230D01*
X8656109Y-14786226D01*
X8656105Y-14786222D01*
X8656101Y-14786217D01*
X8568140Y-14695972D01*
X8568137Y-14695969D01*
X8493090Y-14618973D01*
X8493089Y-14618972D01*
X8493088Y-14618971D01*
X8493081Y-14618965D01*
X8384826Y-14537879D01*
X8384498Y-14537441D01*
X8381963Y-14535734D01*
X8306164Y-14478958D01*
X8306161Y-14478956D01*
X8306157Y-14478953D01*
X8306151Y-14478949D01*
X8306145Y-14478946D01*
X8179546Y-14411816D01*
X8178679Y-14410970D01*
X8173011Y-14408352D01*
X8149387Y-14395825D01*
X8146429Y-14394151D01*
X8105826Y-14369681D01*
X8093175Y-14367248D01*
X7956989Y-14320261D01*
X7955253Y-14319027D01*
X7953909Y-14318736D01*
X7946815Y-14316751D01*
X7905763Y-14302587D01*
X7903108Y-14301603D01*
X7876904Y-14291200D01*
X7864713Y-14290805D01*
X7749667Y-14270239D01*
X7722766Y-14265430D01*
X7720013Y-14264057D01*
X7717200Y-14263920D01*
X7709318Y-14263026D01*
X7649101Y-14252261D01*
X7649097Y-14252261D01*
X7642119Y-14251160D01*
X7638421Y-14250358D01*
X7627061Y-14251788D01*
X7482827Y-14248676D01*
X7479038Y-14247474D01*
X7475124Y-14247928D01*
X7466638Y-14248327D01*
X7415613Y-14247226D01*
X7410800Y-14247497D01*
X7410791Y-14247351D01*
X7397507Y-14247914D01*
X7386306Y-14251169D01*
X7243274Y-14270416D01*
X7238510Y-14269687D01*
X7238274Y-14269755D01*
X7220555Y-14273473D01*
X7184143Y-14278373D01*
X7176246Y-14280722D01*
X7158182Y-14284426D01*
X7148589Y-14288948D01*
X7105316Y-14301818D01*
X7035447Y-14302061D01*
X6976537Y-14264492D01*
X6947291Y-14201037D01*
X6956994Y-14131845D01*
X6974109Y-14104303D01*
X7060910Y-13998538D01*
X7153814Y-13824727D01*
X7211024Y-13636132D01*
X7230341Y-13440000D01*
X7211024Y-13243868D01*
X7153814Y-13055273D01*
X7153811Y-13055269D01*
X7153811Y-13055266D01*
X7060913Y-12881467D01*
X7060909Y-12881460D01*
X6935883Y-12729116D01*
X6783539Y-12604090D01*
X6783532Y-12604086D01*
X6609733Y-12511188D01*
X6609727Y-12511186D01*
X6421132Y-12453976D01*
X6421129Y-12453975D01*
X6225000Y-12434659D01*
X6028870Y-12453975D01*
X5840266Y-12511188D01*
X5666467Y-12604086D01*
X5666460Y-12604090D01*
X5514116Y-12729116D01*
X5389090Y-12881460D01*
X5389086Y-12881467D01*
X5296188Y-13055266D01*
X5238975Y-13243870D01*
X5219659Y-13440000D01*
X5238975Y-13636129D01*
X5296188Y-13824733D01*
X5389086Y-13998532D01*
X5389090Y-13998539D01*
X5514116Y-14150883D01*
X5666460Y-14275909D01*
X5666467Y-14275913D01*
X5840266Y-14368811D01*
X5840269Y-14368811D01*
X5840273Y-14368814D01*
X6028868Y-14426024D01*
X6225000Y-14445341D01*
X6389751Y-14429114D01*
X6458395Y-14442133D01*
X6509105Y-14490197D01*
X6525780Y-14558048D01*
X6503124Y-14624143D01*
X6486886Y-14642816D01*
X6408065Y-14716997D01*
X6401214Y-14720472D01*
X6400890Y-14720915D01*
X6389662Y-14733604D01*
X6389770Y-14733702D01*
X6386529Y-14737264D01*
X6386528Y-14737266D01*
X6373248Y-14754362D01*
X6355219Y-14777574D01*
X6349560Y-14783911D01*
X6347948Y-14785483D01*
X6345284Y-14790364D01*
X6256787Y-14904299D01*
X6250073Y-14909140D01*
X6246809Y-14915590D01*
X6243279Y-14921680D01*
X6213671Y-14975232D01*
X6209397Y-14981914D01*
X6208500Y-14983135D01*
X6207051Y-14987204D01*
X6137286Y-15113387D01*
X6131005Y-15119601D01*
X6121459Y-15150025D01*
X6120550Y-15152707D01*
X6105676Y-15193490D01*
X6102746Y-15200248D01*
X6102535Y-15200663D01*
X6101987Y-15203603D01*
X6052629Y-15338935D01*
X6047078Y-15346462D01*
X6039942Y-15397260D01*
X6039377Y-15400611D01*
X6034217Y-15426818D01*
X6032834Y-15432249D01*
X6032785Y-15434092D01*
X6005102Y-15574690D01*
X6001403Y-15669335D01*
X6001154Y-15672113D01*
X6001262Y-15672933D01*
X5995979Y-15808060D01*
X5995980Y-15808076D01*
X6008413Y-15914541D01*
X6023071Y-16040059D01*
X6024007Y-16044811D01*
X6023000Y-16045009D01*
X6022144Y-16109900D01*
X5983597Y-16168174D01*
X5944551Y-16190454D01*
X5738656Y-16262417D01*
X5310343Y-16411398D01*
X4938280Y-16522996D01*
X4544345Y-16639232D01*
X4159436Y-16736113D01*
X3768599Y-16831385D01*
X3376309Y-16911618D01*
X2984816Y-16987431D01*
X2587459Y-17050297D01*
X2194607Y-17107046D01*
X1793825Y-17152154D01*
X1399682Y-17189966D01*
X996670Y-17217108D01*
X601714Y-17236009D01*
X197636Y-17245069D01*
X-197638Y-17245069D01*
X-601717Y-17236009D01*
X-996673Y-17217108D01*
X-1399685Y-17189966D01*
X-1793828Y-17152154D01*
X-2194610Y-17107046D01*
X-2587462Y-17050297D01*
X-2984819Y-16987431D01*
X-3376312Y-16911618D01*
X-3768602Y-16831385D01*
X-4159439Y-16736113D01*
X-4544348Y-16639232D01*
X-4938283Y-16522996D01*
X-5310346Y-16411398D01*
X-5738777Y-16262376D01*
X-5944552Y-16190455D01*
X-6001343Y-16149754D01*
X-6027114Y-16084811D01*
X-6023506Y-16044902D01*
X-6024007Y-16044804D01*
X-6023072Y-16040054D01*
X-6023072Y-16040053D01*
X-5995981Y-15808073D01*
X-5995982Y-15808060D01*
X-6001265Y-15672911D01*
X-6001132Y-15672380D01*
X-6001405Y-15669334D01*
X-6005104Y-15574694D01*
X-6032786Y-15434093D01*
X-6032676Y-15432883D01*
X-6034216Y-15426832D01*
X-6039379Y-15400611D01*
X-6039391Y-15400548D01*
X-6039951Y-15397225D01*
X-6046545Y-15350290D01*
X-6052630Y-15338935D01*
X-6101986Y-15203613D01*
X-6102122Y-15201486D01*
X-6102743Y-15200259D01*
X-6105674Y-15193500D01*
X-6120588Y-15152608D01*
X-6121472Y-15150002D01*
X-1755249Y-15150002D01*
X-1736315Y-15318056D01*
X-1680455Y-15477694D01*
X-1680453Y-15477697D01*
X-1590482Y-15620884D01*
X-1590477Y-15620890D01*
X-1470891Y-15740476D01*
X-1470885Y-15740481D01*
X-1327698Y-15830452D01*
X-1327695Y-15830454D01*
X-1327691Y-15830455D01*
X-1327690Y-15830456D01*
X-1255087Y-15855860D01*
X-1168057Y-15886314D01*
X-1000003Y-15905249D01*
X-1000000Y-15905249D01*
X-999997Y-15905249D01*
X-831944Y-15886314D01*
X-831941Y-15886313D01*
X-672310Y-15830456D01*
X-672308Y-15830454D01*
X-672306Y-15830454D01*
X-672303Y-15830452D01*
X-529116Y-15740481D01*
X-529115Y-15740480D01*
X-529110Y-15740477D01*
X-409523Y-15620890D01*
X-380495Y-15574693D01*
X-319548Y-15477697D01*
X-319546Y-15477694D01*
X-319546Y-15477692D01*
X-319544Y-15477690D01*
X-263687Y-15318059D01*
X-263687Y-15318058D01*
X-263686Y-15318056D01*
X-244751Y-15150002D01*
X244751Y-15150002D01*
X263685Y-15318056D01*
X319545Y-15477694D01*
X319547Y-15477697D01*
X409518Y-15620884D01*
X409523Y-15620890D01*
X529109Y-15740476D01*
X529115Y-15740481D01*
X672302Y-15830452D01*
X672305Y-15830454D01*
X672309Y-15830455D01*
X672310Y-15830456D01*
X744913Y-15855860D01*
X831943Y-15886314D01*
X999997Y-15905249D01*
X1000000Y-15905249D01*
X1000003Y-15905249D01*
X1168056Y-15886314D01*
X1168059Y-15886313D01*
X1327690Y-15830456D01*
X1327692Y-15830454D01*
X1327694Y-15830454D01*
X1327697Y-15830452D01*
X1470884Y-15740481D01*
X1470885Y-15740480D01*
X1470890Y-15740477D01*
X1551367Y-15660000D01*
X1984659Y-15660000D01*
X2003975Y-15856129D01*
X2003976Y-15856132D01*
X2059768Y-16040054D01*
X2061188Y-16044733D01*
X2154086Y-16218532D01*
X2154090Y-16218539D01*
X2279116Y-16370883D01*
X2431460Y-16495909D01*
X2431467Y-16495913D01*
X2605266Y-16588811D01*
X2605269Y-16588811D01*
X2605273Y-16588814D01*
X2793868Y-16646024D01*
X2990000Y-16665341D01*
X3186132Y-16646024D01*
X3374727Y-16588814D01*
X3548538Y-16495910D01*
X3700883Y-16370883D01*
X3825910Y-16218538D01*
X3918663Y-16045009D01*
X3918811Y-16044733D01*
X3918811Y-16044732D01*
X3918814Y-16044727D01*
X3976024Y-15856132D01*
X3995341Y-15660000D01*
X3976024Y-15463868D01*
X3918814Y-15275273D01*
X3885424Y-15212806D01*
X3871183Y-15144406D01*
X3885424Y-15095902D01*
X3928814Y-15014727D01*
X3986024Y-14826132D01*
X4005341Y-14630000D01*
X3986024Y-14433868D01*
X3928814Y-14245273D01*
X3928811Y-14245269D01*
X3928811Y-14245266D01*
X3835913Y-14071467D01*
X3835909Y-14071460D01*
X3710883Y-13919116D01*
X3558539Y-13794090D01*
X3558532Y-13794086D01*
X3384733Y-13701188D01*
X3384727Y-13701186D01*
X3196132Y-13643976D01*
X3196129Y-13643975D01*
X3000000Y-13624659D01*
X2803870Y-13643975D01*
X2615266Y-13701188D01*
X2441467Y-13794086D01*
X2441460Y-13794090D01*
X2289116Y-13919116D01*
X2164090Y-14071460D01*
X2164086Y-14071467D01*
X2071188Y-14245266D01*
X2013975Y-14433870D01*
X1994659Y-14630000D01*
X2013975Y-14826129D01*
X2071187Y-15014730D01*
X2104574Y-15077191D01*
X2118816Y-15145594D01*
X2104575Y-15194097D01*
X2061187Y-15275271D01*
X2003975Y-15463870D01*
X1984659Y-15660000D01*
X1551367Y-15660000D01*
X1590477Y-15620890D01*
X1619505Y-15574693D01*
X1680452Y-15477697D01*
X1680454Y-15477694D01*
X1680454Y-15477692D01*
X1680456Y-15477690D01*
X1736313Y-15318059D01*
X1736313Y-15318058D01*
X1736314Y-15318056D01*
X1755249Y-15150002D01*
X1755249Y-15149997D01*
X1736314Y-14981943D01*
X1701038Y-14881130D01*
X1680456Y-14822310D01*
X1680455Y-14822309D01*
X1680454Y-14822305D01*
X1680452Y-14822302D01*
X1590481Y-14679115D01*
X1590476Y-14679109D01*
X1470890Y-14559523D01*
X1470884Y-14559518D01*
X1327697Y-14469547D01*
X1327694Y-14469545D01*
X1168056Y-14413685D01*
X1000003Y-14394751D01*
X999997Y-14394751D01*
X831943Y-14413685D01*
X672305Y-14469545D01*
X672302Y-14469547D01*
X529115Y-14559518D01*
X529109Y-14559523D01*
X409523Y-14679109D01*
X409518Y-14679115D01*
X319547Y-14822302D01*
X319545Y-14822305D01*
X263685Y-14981943D01*
X244751Y-15149997D01*
X244751Y-15150002D01*
X-244751Y-15150002D01*
X-244751Y-15149997D01*
X-263686Y-14981943D01*
X-298962Y-14881130D01*
X-319544Y-14822310D01*
X-319545Y-14822309D01*
X-319546Y-14822305D01*
X-319548Y-14822302D01*
X-409519Y-14679115D01*
X-409524Y-14679109D01*
X-529110Y-14559523D01*
X-529116Y-14559518D01*
X-672303Y-14469547D01*
X-672306Y-14469545D01*
X-831944Y-14413685D01*
X-999997Y-14394751D01*
X-1000003Y-14394751D01*
X-1168057Y-14413685D01*
X-1327695Y-14469545D01*
X-1327698Y-14469547D01*
X-1470885Y-14559518D01*
X-1470891Y-14559523D01*
X-1590477Y-14679109D01*
X-1590482Y-14679115D01*
X-1680453Y-14822302D01*
X-1680455Y-14822305D01*
X-1736315Y-14981943D01*
X-1755249Y-15149997D01*
X-1755249Y-15150002D01*
X-6121472Y-15150002D01*
X-6121478Y-15149983D01*
X-6129915Y-15123095D01*
X-6137290Y-15113384D01*
X-6186460Y-15024452D01*
X-6207057Y-14987198D01*
X-6207727Y-14984194D01*
X-6209394Y-14981922D01*
X-6213669Y-14975239D01*
X-6243281Y-14921680D01*
X-6246805Y-14915605D01*
X-6248520Y-14912216D01*
X-6256793Y-14904295D01*
X-6291846Y-14859167D01*
X-6345295Y-14790353D01*
X-6346750Y-14786656D01*
X-6349564Y-14783909D01*
X-6355225Y-14777569D01*
X-6386528Y-14737268D01*
X-6389771Y-14733703D01*
X-6389664Y-14733604D01*
X-6398476Y-14723645D01*
X-6408064Y-14717000D01*
X-6422548Y-14703369D01*
X-6430689Y-14695707D01*
X-6513158Y-14618092D01*
X-6515595Y-14613935D01*
X-6515791Y-14613798D01*
X-6529851Y-14602382D01*
X-6556605Y-14577203D01*
X-6556613Y-14577197D01*
X-6563409Y-14572550D01*
X-6577670Y-14560863D01*
X-6587222Y-14556267D01*
X-6706367Y-14474800D01*
X-6709918Y-14470458D01*
X-6710428Y-14470215D01*
X-6727105Y-14460621D01*
X-6749406Y-14445372D01*
X-6749408Y-14445371D01*
X-6749411Y-14445369D01*
X-6765230Y-14437836D01*
X-6780562Y-14428921D01*
X-6789684Y-14426191D01*
X-6920007Y-14364133D01*
X-6924739Y-14359898D01*
X-6925418Y-14359703D01*
X-6944464Y-14352487D01*
X-6960276Y-14344958D01*
X-6971732Y-14341550D01*
X-6986167Y-14337257D01*
X-7001902Y-14331212D01*
X-7010248Y-14330094D01*
X-7148593Y-14288947D01*
X-7154502Y-14285120D01*
X-7155190Y-14285041D01*
X-7176246Y-14280723D01*
X-7184144Y-14278374D01*
X-7220565Y-14273473D01*
X-7235975Y-14270239D01*
X-7243274Y-14270417D01*
X-7386308Y-14251170D01*
X-7393325Y-14248041D01*
X-7393877Y-14248069D01*
X-7410793Y-14247352D01*
X-7410801Y-14247498D01*
X-7415615Y-14247227D01*
X-7466634Y-14248328D01*
X-7475122Y-14247929D01*
X-7477358Y-14247669D01*
X-7482830Y-14248677D01*
X-7627065Y-14251789D01*
X-7635057Y-14249628D01*
X-7642132Y-14251162D01*
X-7649089Y-14252259D01*
X-7709318Y-14263027D01*
X-7717201Y-14263921D01*
X-7718701Y-14263994D01*
X-7722767Y-14265431D01*
X-7864714Y-14290807D01*
X-7873502Y-14289848D01*
X-7903163Y-14301623D01*
X-7905817Y-14302607D01*
X-7946816Y-14316753D01*
X-7953908Y-14318738D01*
X-7954365Y-14318836D01*
X-7956995Y-14320265D01*
X-8093184Y-14367252D01*
X-8102521Y-14367687D01*
X-8146458Y-14394167D01*
X-8149416Y-14395841D01*
X-8173007Y-14408350D01*
X-8178088Y-14410697D01*
X-8179548Y-14411819D01*
X-8306603Y-14479190D01*
X-8316228Y-14481160D01*
X-8365523Y-14523261D01*
X-8368617Y-14525738D01*
X-8381953Y-14535727D01*
X-8384254Y-14537276D01*
X-8384819Y-14537874D01*
X-8493087Y-14618971D01*
X-8493090Y-14618973D01*
X-8567883Y-14695707D01*
X-8567883Y-14695708D01*
X-8656102Y-14786218D01*
X-8659205Y-14789945D01*
X-8660012Y-14789273D01*
X-8710875Y-14829460D01*
X-8780413Y-14836259D01*
X-8822396Y-14819938D01*
X-9381848Y-14474302D01*
X-9396270Y-14465380D01*
X-9403751Y-14460751D01*
X-9406122Y-14459208D01*
X-9850587Y-14155217D01*
X-9884618Y-14131845D01*
X-10075108Y-14001017D01*
X-10467066Y-13705312D01*
X-10722893Y-13511011D01*
X-11084529Y-13210842D01*
X-11270249Y-13055266D01*
X-11346898Y-12991058D01*
X-11585064Y-12773921D01*
X-11685597Y-12682264D01*
X-11770353Y-12604086D01*
X-11945722Y-12442326D01*
X-12190361Y-12197538D01*
X-12264612Y-12123241D01*
X-12489255Y-11895249D01*
X-12518014Y-11866061D01*
X-12818415Y-11536165D01*
X-13062567Y-11263480D01*
X-13345007Y-10922783D01*
X-13434807Y-10812302D01*
X-13578124Y-10635977D01*
X-13619893Y-10580542D01*
X4633285Y-10580542D01*
X4792056Y-10636100D01*
X4959996Y-10655022D01*
X4960004Y-10655022D01*
X5127943Y-10636100D01*
X5286713Y-10580543D01*
X5286714Y-10580542D01*
X5733285Y-10580542D01*
X5892056Y-10636100D01*
X6059996Y-10655022D01*
X6060004Y-10655022D01*
X6227943Y-10636100D01*
X6386713Y-10580543D01*
X6386714Y-10580541D01*
X6060001Y-10253829D01*
X6060000Y-10253829D01*
X5733285Y-10580542D01*
X5286714Y-10580542D01*
X4960001Y-10253829D01*
X4960000Y-10253829D01*
X4633285Y-10580542D01*
X-13619893Y-10580542D01*
X-13711060Y-10459547D01*
X-13842826Y-10284670D01*
X-14063562Y-9984927D01*
X-14121381Y-9900279D01*
X4205254Y-9900279D01*
X4224175Y-10068214D01*
X4224176Y-10068219D01*
X4279732Y-10226990D01*
X4573955Y-9932768D01*
X4860000Y-9932768D01*
X4898197Y-9985341D01*
X4944162Y-10000276D01*
X4975838Y-10000276D01*
X5021803Y-9985341D01*
X5060000Y-9932768D01*
X5060000Y-9900276D01*
X5313553Y-9900276D01*
X5509999Y-10096723D01*
X5673955Y-9932768D01*
X5960000Y-9932768D01*
X5998197Y-9985341D01*
X6044162Y-10000276D01*
X6075838Y-10000276D01*
X6121803Y-9985341D01*
X6160000Y-9932768D01*
X6160000Y-9900277D01*
X6413553Y-9900277D01*
X6740266Y-10226990D01*
X6740267Y-10226989D01*
X6795824Y-10068219D01*
X6814746Y-9900279D01*
X6814746Y-9900272D01*
X6795824Y-9732332D01*
X6740266Y-9573561D01*
X6413553Y-9900275D01*
X6413553Y-9900277D01*
X6160000Y-9900277D01*
X6160000Y-9867784D01*
X6121803Y-9815211D01*
X6075838Y-9800276D01*
X6044162Y-9800276D01*
X5998197Y-9815211D01*
X5960000Y-9867784D01*
X5960000Y-9932768D01*
X5673955Y-9932768D01*
X5706447Y-9900276D01*
X5510000Y-9703828D01*
X5313553Y-9900276D01*
X5060000Y-9900276D01*
X5060000Y-9867784D01*
X5021803Y-9815211D01*
X4975838Y-9800276D01*
X4944162Y-9800276D01*
X4898197Y-9815211D01*
X4860000Y-9867784D01*
X4860000Y-9932768D01*
X4573955Y-9932768D01*
X4606447Y-9900276D01*
X4279732Y-9573561D01*
X4224176Y-9732329D01*
X4224175Y-9732334D01*
X4205254Y-9900272D01*
X4205254Y-9900279D01*
X-14121381Y-9900279D01*
X-14310531Y-9623362D01*
X-14310580Y-9623289D01*
X-14517808Y-9311772D01*
X-14746855Y-8940529D01*
X-14939853Y-8618016D01*
X-15121763Y-8290000D01*
X754659Y-8290000D01*
X773975Y-8486129D01*
X773976Y-8486132D01*
X813996Y-8618061D01*
X831188Y-8674733D01*
X924086Y-8848532D01*
X924090Y-8848539D01*
X1049116Y-9000883D01*
X1201460Y-9125909D01*
X1201467Y-9125913D01*
X1375266Y-9218811D01*
X1375269Y-9218811D01*
X1375273Y-9218814D01*
X1563868Y-9276024D01*
X1760000Y-9295341D01*
X1956132Y-9276024D01*
X2140791Y-9220008D01*
X4633285Y-9220008D01*
X4960000Y-9546723D01*
X4960001Y-9546723D01*
X5286714Y-9220008D01*
X5733285Y-9220008D01*
X6060000Y-9546723D01*
X6060001Y-9546723D01*
X6386714Y-9220008D01*
X6227943Y-9164452D01*
X6227938Y-9164451D01*
X6060004Y-9145530D01*
X6059996Y-9145530D01*
X5892058Y-9164451D01*
X5892053Y-9164452D01*
X5733285Y-9220008D01*
X5286714Y-9220008D01*
X5127943Y-9164452D01*
X5127938Y-9164451D01*
X4960004Y-9145530D01*
X4959996Y-9145530D01*
X4792058Y-9164451D01*
X4792053Y-9164452D01*
X4633285Y-9220008D01*
X2140791Y-9220008D01*
X2144727Y-9218814D01*
X2318538Y-9125910D01*
X2470883Y-9000883D01*
X2595910Y-8848538D01*
X2642361Y-8761632D01*
X2688811Y-8674733D01*
X2688811Y-8674732D01*
X2688814Y-8674727D01*
X2746024Y-8486132D01*
X2765341Y-8290000D01*
X2746024Y-8093868D01*
X2688814Y-7905273D01*
X2688811Y-7905269D01*
X2688811Y-7905266D01*
X2595913Y-7731467D01*
X2595909Y-7731460D01*
X2470883Y-7579116D01*
X2337069Y-7469298D01*
X2297735Y-7411552D01*
X2295864Y-7341708D01*
X2332052Y-7281940D01*
X2374780Y-7256403D01*
X2549305Y-7195334D01*
X2549307Y-7195333D01*
X2563107Y-7186661D01*
X2563107Y-7186660D01*
X2200001Y-6823553D01*
X2200000Y-6823553D01*
X1824492Y-7199059D01*
X1820831Y-7219958D01*
X1773480Y-7271336D01*
X1721821Y-7288419D01*
X1563870Y-7303975D01*
X1375266Y-7361188D01*
X1201467Y-7454086D01*
X1201460Y-7454090D01*
X1049116Y-7579116D01*
X924090Y-7731460D01*
X924086Y-7731467D01*
X831188Y-7905266D01*
X773975Y-8093870D01*
X754659Y-8290000D01*
X-15121763Y-8290000D01*
X-15150831Y-8237585D01*
X-15328753Y-7905224D01*
X-15328769Y-7905193D01*
X-15521430Y-7516223D01*
X-15571189Y-7411552D01*
X-15683698Y-7174879D01*
X-15773582Y-6970002D01*
X-14660249Y-6970002D01*
X-14641315Y-7138056D01*
X-14585455Y-7297694D01*
X-14585453Y-7297697D01*
X-14495482Y-7440884D01*
X-14495477Y-7440890D01*
X-14375891Y-7560476D01*
X-14375885Y-7560481D01*
X-14232698Y-7650452D01*
X-14232695Y-7650454D01*
X-14232691Y-7650455D01*
X-14232690Y-7650456D01*
X-14160087Y-7675860D01*
X-14073057Y-7706314D01*
X-13905003Y-7725249D01*
X-13905000Y-7725249D01*
X-13904997Y-7725249D01*
X-13736944Y-7706314D01*
X-13736941Y-7706313D01*
X-13577310Y-7650456D01*
X-13577308Y-7650454D01*
X-13577306Y-7650454D01*
X-13577303Y-7650452D01*
X-13434116Y-7560481D01*
X-13434115Y-7560480D01*
X-13434110Y-7560477D01*
X-13314523Y-7440890D01*
X-13314519Y-7440884D01*
X-13224548Y-7297697D01*
X-13224546Y-7297694D01*
X-13224546Y-7297692D01*
X-13224544Y-7297690D01*
X-13168687Y-7138059D01*
X-13168687Y-7138058D01*
X-13168686Y-7138056D01*
X-13149751Y-6970002D01*
X-7865249Y-6970002D01*
X-7846315Y-7138056D01*
X-7790455Y-7297694D01*
X-7790453Y-7297697D01*
X-7700482Y-7440884D01*
X-7700477Y-7440890D01*
X-7580891Y-7560476D01*
X-7580885Y-7560481D01*
X-7437698Y-7650452D01*
X-7437695Y-7650454D01*
X-7437691Y-7650455D01*
X-7437690Y-7650456D01*
X-7365087Y-7675860D01*
X-7278057Y-7706314D01*
X-7110003Y-7725249D01*
X-7110000Y-7725249D01*
X-7109997Y-7725249D01*
X-6941944Y-7706314D01*
X-6941941Y-7706313D01*
X-6782310Y-7650456D01*
X-6782308Y-7650454D01*
X-6782306Y-7650454D01*
X-6782303Y-7650452D01*
X-6639116Y-7560481D01*
X-6639115Y-7560480D01*
X-6639110Y-7560477D01*
X-6519523Y-7440890D01*
X-6519519Y-7440884D01*
X-6429548Y-7297697D01*
X-6429546Y-7297694D01*
X-6429546Y-7297692D01*
X-6429544Y-7297690D01*
X-6390693Y-7186660D01*
X436891Y-7186660D01*
X450697Y-7195335D01*
X450701Y-7195337D01*
X620858Y-7254877D01*
X620861Y-7254878D01*
X799997Y-7275062D01*
X800003Y-7275062D01*
X979138Y-7254878D01*
X1149307Y-7195333D01*
X1163107Y-7186661D01*
X1163107Y-7186660D01*
X800001Y-6823553D01*
X800000Y-6823553D01*
X436891Y-7186660D01*
X-6390693Y-7186660D01*
X-6373687Y-7138059D01*
X-6373687Y-7138058D01*
X-6373686Y-7138056D01*
X-6354751Y-6970002D01*
X-6354751Y-6969997D01*
X-6373686Y-6801943D01*
X-6427432Y-6648346D01*
X-6429544Y-6642310D01*
X-6429545Y-6642309D01*
X-6429546Y-6642305D01*
X-6429548Y-6642302D01*
X-6519519Y-6499115D01*
X-6519524Y-6499109D01*
X-6531973Y-6486660D01*
X-263109Y-6486660D01*
X-249303Y-6495335D01*
X-249299Y-6495337D01*
X-79141Y-6554878D01*
X-78356Y-6555057D01*
X-77901Y-6555311D01*
X-72570Y-6557177D01*
X-72897Y-6558110D01*
X-17377Y-6589166D01*
X11952Y-6642875D01*
X12823Y-6642571D01*
X14672Y-6647855D01*
X14940Y-6648346D01*
X15120Y-6649137D01*
X74662Y-6819298D01*
X74667Y-6819308D01*
X83338Y-6833108D01*
X413954Y-6502492D01*
X700000Y-6502492D01*
X738197Y-6555065D01*
X784162Y-6570000D01*
X815838Y-6570000D01*
X861803Y-6555065D01*
X900000Y-6502492D01*
X900000Y-6470000D01*
X1153553Y-6470000D01*
X1499998Y-6816447D01*
X1499999Y-6816447D01*
X1813955Y-6502492D01*
X2100000Y-6502492D01*
X2138197Y-6555065D01*
X2184162Y-6570000D01*
X2215838Y-6570000D01*
X2261803Y-6555065D01*
X2300000Y-6502492D01*
X2300000Y-6470000D01*
X2553553Y-6470000D01*
X2916660Y-6833107D01*
X2916661Y-6833107D01*
X2925333Y-6819307D01*
X2984877Y-6649141D01*
X2985056Y-6648358D01*
X2985310Y-6647902D01*
X2987177Y-6642569D01*
X2988111Y-6642895D01*
X3019164Y-6587379D01*
X3072874Y-6558050D01*
X3072569Y-6557177D01*
X3077871Y-6555321D01*
X3078358Y-6555056D01*
X3079141Y-6554877D01*
X3249307Y-6495333D01*
X3263107Y-6486661D01*
X3263107Y-6486660D01*
X2900000Y-6123553D01*
X2553553Y-6470000D01*
X2300000Y-6470000D01*
X2300000Y-6437508D01*
X2261803Y-6384935D01*
X2215838Y-6370000D01*
X2184162Y-6370000D01*
X2138197Y-6384935D01*
X2100000Y-6437508D01*
X2100000Y-6502492D01*
X1813955Y-6502492D01*
X1846447Y-6470000D01*
X1500000Y-6123553D01*
X1153553Y-6470000D01*
X900000Y-6470000D01*
X900000Y-6437508D01*
X861803Y-6384935D01*
X815838Y-6370000D01*
X784162Y-6370000D01*
X738197Y-6384935D01*
X700000Y-6437508D01*
X700000Y-6502492D01*
X413954Y-6502492D01*
X446447Y-6469999D01*
X100001Y-6123553D01*
X100000Y-6123553D01*
X-263109Y-6486660D01*
X-6531973Y-6486660D01*
X-6639110Y-6379523D01*
X-6639116Y-6379518D01*
X-6782303Y-6289547D01*
X-6782306Y-6289545D01*
X-6941944Y-6233685D01*
X-7109997Y-6214751D01*
X-7110003Y-6214751D01*
X-7278057Y-6233685D01*
X-7437695Y-6289545D01*
X-7437698Y-6289547D01*
X-7580885Y-6379518D01*
X-7580891Y-6379523D01*
X-7700477Y-6499109D01*
X-7700482Y-6499115D01*
X-7790453Y-6642302D01*
X-7790455Y-6642305D01*
X-7846315Y-6801943D01*
X-7865249Y-6969997D01*
X-7865249Y-6970002D01*
X-13149751Y-6970002D01*
X-13149751Y-6969997D01*
X-13168686Y-6801943D01*
X-13222432Y-6648346D01*
X-13224544Y-6642310D01*
X-13224545Y-6642309D01*
X-13224546Y-6642305D01*
X-13224548Y-6642302D01*
X-13314519Y-6499115D01*
X-13314524Y-6499109D01*
X-13434110Y-6379523D01*
X-13434116Y-6379518D01*
X-13577303Y-6289547D01*
X-13577306Y-6289545D01*
X-13736944Y-6233685D01*
X-13904997Y-6214751D01*
X-13905003Y-6214751D01*
X-14073057Y-6233685D01*
X-14232695Y-6289545D01*
X-14232698Y-6289547D01*
X-14375885Y-6379518D01*
X-14375891Y-6379523D01*
X-14495477Y-6499109D01*
X-14495482Y-6499115D01*
X-14585453Y-6642302D01*
X-14585455Y-6642305D01*
X-14641315Y-6801943D01*
X-14660249Y-6969997D01*
X-14660249Y-6970002D01*
X-15773582Y-6970002D01*
X-15833640Y-6833108D01*
X-15857753Y-6778147D01*
X-15873512Y-6740454D01*
X-16003852Y-6428712D01*
X-16159081Y-6024877D01*
X-16251616Y-5770002D01*
X-705062Y-5770002D01*
X-684879Y-5949138D01*
X-684878Y-5949141D01*
X-625338Y-6119298D01*
X-625333Y-6119308D01*
X-616662Y-6133108D01*
X-286045Y-5802492D01*
X0Y-5802492D01*
X38197Y-5855065D01*
X84162Y-5870000D01*
X115838Y-5870000D01*
X161803Y-5855065D01*
X200000Y-5802492D01*
X200000Y-5770000D01*
X453553Y-5770000D01*
X800000Y-6116447D01*
X1113955Y-5802492D01*
X1400000Y-5802492D01*
X1438197Y-5855065D01*
X1484162Y-5870000D01*
X1515838Y-5870000D01*
X1561803Y-5855065D01*
X1600000Y-5802492D01*
X1600000Y-5770000D01*
X1853553Y-5770000D01*
X2200000Y-6116446D01*
X2513955Y-5802492D01*
X2800000Y-5802492D01*
X2838197Y-5855065D01*
X2884162Y-5870000D01*
X2915838Y-5870000D01*
X2961803Y-5855065D01*
X3000000Y-5802492D01*
X3000000Y-5770000D01*
X3253553Y-5770000D01*
X3616660Y-6133107D01*
X3616661Y-6133107D01*
X3625333Y-6119307D01*
X3646085Y-6060002D01*
X6364751Y-6060002D01*
X6383685Y-6228056D01*
X6439545Y-6387694D01*
X6439547Y-6387697D01*
X6529518Y-6530884D01*
X6529523Y-6530890D01*
X6649109Y-6650476D01*
X6649115Y-6650481D01*
X6792302Y-6740452D01*
X6792305Y-6740454D01*
X6792309Y-6740455D01*
X6792310Y-6740456D01*
X6864913Y-6765860D01*
X6951943Y-6796314D01*
X7119997Y-6815249D01*
X7120000Y-6815249D01*
X7120003Y-6815249D01*
X7288056Y-6796314D01*
X7339923Y-6778165D01*
X7447690Y-6740456D01*
X7447692Y-6740454D01*
X7447694Y-6740454D01*
X7447697Y-6740452D01*
X7590884Y-6650481D01*
X7590885Y-6650480D01*
X7590890Y-6650477D01*
X7710477Y-6530890D01*
X7730446Y-6499110D01*
X7800452Y-6387697D01*
X7800454Y-6387694D01*
X7800454Y-6387692D01*
X7800456Y-6387690D01*
X7856313Y-6228059D01*
X7856313Y-6228058D01*
X7856314Y-6228056D01*
X7875249Y-6060002D01*
X7875249Y-6059997D01*
X7856314Y-5891943D01*
X7800454Y-5732305D01*
X7800452Y-5732302D01*
X7710481Y-5589115D01*
X7710476Y-5589109D01*
X7634048Y-5512681D01*
X7600563Y-5451358D01*
X7605547Y-5381666D01*
X7634048Y-5337319D01*
X7634047Y-5337319D01*
X7710477Y-5260890D01*
X7712212Y-5258129D01*
X7800452Y-5117697D01*
X7800454Y-5117694D01*
X7800454Y-5117692D01*
X7800456Y-5117690D01*
X7838137Y-5010002D01*
X10074751Y-5010002D01*
X10093685Y-5178056D01*
X10149545Y-5337694D01*
X10149547Y-5337697D01*
X10239518Y-5480884D01*
X10239523Y-5480890D01*
X10359109Y-5600476D01*
X10359115Y-5600481D01*
X10502302Y-5690452D01*
X10502305Y-5690454D01*
X10502309Y-5690455D01*
X10502310Y-5690456D01*
X10574913Y-5715860D01*
X10661943Y-5746314D01*
X10829997Y-5765249D01*
X10830000Y-5765249D01*
X10830003Y-5765249D01*
X10998056Y-5746314D01*
X11038077Y-5732310D01*
X11157690Y-5690456D01*
X11157692Y-5690454D01*
X11157694Y-5690454D01*
X11157697Y-5690452D01*
X11300884Y-5600481D01*
X11300885Y-5600480D01*
X11300890Y-5600477D01*
X11420477Y-5480890D01*
X11420481Y-5480884D01*
X11510452Y-5337697D01*
X11510454Y-5337694D01*
X11510454Y-5337692D01*
X11510456Y-5337690D01*
X11566313Y-5178059D01*
X11566313Y-5178058D01*
X11566314Y-5178056D01*
X11585249Y-5010002D01*
X11585249Y-5009997D01*
X11566314Y-4841943D01*
X11528231Y-4733108D01*
X11510456Y-4682310D01*
X11510455Y-4682309D01*
X11510454Y-4682305D01*
X11510452Y-4682302D01*
X11420481Y-4539115D01*
X11420476Y-4539109D01*
X11300890Y-4419523D01*
X11300884Y-4419518D01*
X11157697Y-4329547D01*
X11157694Y-4329545D01*
X10998056Y-4273685D01*
X10830003Y-4254751D01*
X10829997Y-4254751D01*
X10661943Y-4273685D01*
X10502305Y-4329545D01*
X10502302Y-4329547D01*
X10359115Y-4419518D01*
X10359109Y-4419523D01*
X10239523Y-4539109D01*
X10239518Y-4539115D01*
X10149547Y-4682302D01*
X10149545Y-4682305D01*
X10093685Y-4841943D01*
X10074751Y-5009997D01*
X10074751Y-5010002D01*
X7838137Y-5010002D01*
X7856313Y-4958059D01*
X7856313Y-4958058D01*
X7856314Y-4958056D01*
X7875249Y-4790002D01*
X7875249Y-4789997D01*
X7856314Y-4621943D01*
X7825860Y-4534913D01*
X7800456Y-4462310D01*
X7800455Y-4462309D01*
X7800454Y-4462305D01*
X7800452Y-4462302D01*
X7710481Y-4319115D01*
X7710476Y-4319109D01*
X7590890Y-4199523D01*
X7590884Y-4199518D01*
X7447697Y-4109547D01*
X7447694Y-4109545D01*
X7288056Y-4053685D01*
X7120003Y-4034751D01*
X7119997Y-4034751D01*
X6951943Y-4053685D01*
X6792305Y-4109545D01*
X6792302Y-4109547D01*
X6649115Y-4199518D01*
X6649109Y-4199523D01*
X6529523Y-4319109D01*
X6529518Y-4319115D01*
X6439547Y-4462302D01*
X6439545Y-4462305D01*
X6383685Y-4621943D01*
X6364751Y-4789997D01*
X6364751Y-4790002D01*
X6383685Y-4958056D01*
X6439545Y-5117694D01*
X6439547Y-5117697D01*
X6529518Y-5260884D01*
X6529523Y-5260890D01*
X6605952Y-5337319D01*
X6639437Y-5398642D01*
X6634453Y-5468334D01*
X6605952Y-5512681D01*
X6529523Y-5589109D01*
X6529518Y-5589115D01*
X6439547Y-5732302D01*
X6439545Y-5732305D01*
X6383685Y-5891943D01*
X6364751Y-6059997D01*
X6364751Y-6060002D01*
X3646085Y-6060002D01*
X3684878Y-5949138D01*
X3705062Y-5770002D01*
X3705062Y-5769997D01*
X3684878Y-5590861D01*
X3684877Y-5590858D01*
X3625337Y-5420701D01*
X3625335Y-5420697D01*
X3616660Y-5406891D01*
X3253553Y-5769999D01*
X3253553Y-5770000D01*
X3000000Y-5770000D01*
X3000000Y-5737508D01*
X2961803Y-5684935D01*
X2915838Y-5670000D01*
X2884162Y-5670000D01*
X2838197Y-5684935D01*
X2800000Y-5737508D01*
X2800000Y-5802492D01*
X2513955Y-5802492D01*
X2546447Y-5770000D01*
X2200000Y-5423553D01*
X1853553Y-5769999D01*
X1853553Y-5770000D01*
X1600000Y-5770000D01*
X1600000Y-5737508D01*
X1561803Y-5684935D01*
X1515838Y-5670000D01*
X1484162Y-5670000D01*
X1438197Y-5684935D01*
X1400000Y-5737508D01*
X1400000Y-5802492D01*
X1113955Y-5802492D01*
X1146447Y-5770000D01*
X800000Y-5423553D01*
X453553Y-5770000D01*
X200000Y-5770000D01*
X200000Y-5737508D01*
X161803Y-5684935D01*
X115838Y-5670000D01*
X84162Y-5670000D01*
X38197Y-5684935D01*
X0Y-5737508D01*
X0Y-5802492D01*
X-286045Y-5802492D01*
X-253553Y-5770000D01*
X-253553Y-5769999D01*
X-616662Y-5406890D01*
X-616662Y-5406891D01*
X-625336Y-5420696D01*
X-684878Y-5590858D01*
X-684879Y-5590861D01*
X-705062Y-5769997D01*
X-705062Y-5770002D01*
X-16251616Y-5770002D01*
X-16251617Y-5770000D01*
X-16288526Y-5668342D01*
X-16402884Y-5323851D01*
X-16424701Y-5258129D01*
X-16483003Y-5070000D01*
X-246448Y-5070000D01*
X100000Y-5416447D01*
X100001Y-5416447D01*
X413955Y-5102492D01*
X700000Y-5102492D01*
X738197Y-5155065D01*
X784162Y-5170000D01*
X815838Y-5170000D01*
X861803Y-5155065D01*
X900000Y-5102492D01*
X900000Y-5070000D01*
X1153553Y-5070000D01*
X1500000Y-5416447D01*
X1813955Y-5102492D01*
X2100000Y-5102492D01*
X2138197Y-5155065D01*
X2184162Y-5170000D01*
X2215838Y-5170000D01*
X2261803Y-5155065D01*
X2300000Y-5102492D01*
X2300000Y-5070000D01*
X2553553Y-5070000D01*
X2900000Y-5416447D01*
X3246447Y-5070000D01*
X2900000Y-4723553D01*
X2553553Y-5070000D01*
X2300000Y-5070000D01*
X2300000Y-5037508D01*
X2261803Y-4984935D01*
X2215838Y-4970000D01*
X2184162Y-4970000D01*
X2138197Y-4984935D01*
X2100000Y-5037508D01*
X2100000Y-5102492D01*
X1813955Y-5102492D01*
X1846447Y-5070000D01*
X1500000Y-4723553D01*
X1153553Y-5070000D01*
X900000Y-5070000D01*
X900000Y-5037508D01*
X861803Y-4984935D01*
X815838Y-4970000D01*
X784162Y-4970000D01*
X738197Y-4984935D01*
X700000Y-5037508D01*
X700000Y-5102492D01*
X413955Y-5102492D01*
X446447Y-5070000D01*
X446447Y-5069999D01*
X100001Y-4723553D01*
X100000Y-4723553D01*
X-246448Y-5069999D01*
X-246448Y-5070000D01*
X-16483003Y-5070000D01*
X-16537090Y-4895469D01*
X-16552138Y-4841943D01*
X-16653987Y-4479666D01*
X-16682312Y-4370002D01*
X-705062Y-4370002D01*
X-684879Y-4549138D01*
X-684878Y-4549141D01*
X-625338Y-4719298D01*
X-625333Y-4719308D01*
X-616662Y-4733108D01*
X-286045Y-4402492D01*
X0Y-4402492D01*
X38197Y-4455065D01*
X84162Y-4470000D01*
X115838Y-4470000D01*
X161803Y-4455065D01*
X200000Y-4402492D01*
X200000Y-4369999D01*
X453553Y-4369999D01*
X799999Y-4716447D01*
X800000Y-4716447D01*
X1113955Y-4402492D01*
X1400000Y-4402492D01*
X1438197Y-4455065D01*
X1484162Y-4470000D01*
X1515838Y-4470000D01*
X1561803Y-4455065D01*
X1600000Y-4402492D01*
X1600000Y-4370000D01*
X1853553Y-4370000D01*
X2200000Y-4716447D01*
X2513955Y-4402492D01*
X2800000Y-4402492D01*
X2838197Y-4455065D01*
X2884162Y-4470000D01*
X2915838Y-4470000D01*
X2961803Y-4455065D01*
X3000000Y-4402492D01*
X3000000Y-4370000D01*
X3253553Y-4370000D01*
X3616660Y-4733107D01*
X3616661Y-4733107D01*
X3625333Y-4719307D01*
X3684878Y-4549138D01*
X3705062Y-4370002D01*
X3705062Y-4369997D01*
X3684878Y-4190861D01*
X3684877Y-4190858D01*
X3625337Y-4020701D01*
X3625335Y-4020697D01*
X3616660Y-4006891D01*
X3253553Y-4369999D01*
X3253553Y-4370000D01*
X3000000Y-4370000D01*
X3000000Y-4337508D01*
X2961803Y-4284935D01*
X2915838Y-4270000D01*
X2884162Y-4270000D01*
X2838197Y-4284935D01*
X2800000Y-4337508D01*
X2800000Y-4402492D01*
X2513955Y-4402492D01*
X2546447Y-4370000D01*
X2200000Y-4023553D01*
X1853553Y-4370000D01*
X1600000Y-4370000D01*
X1600000Y-4337508D01*
X1561803Y-4284935D01*
X1515838Y-4270000D01*
X1484162Y-4270000D01*
X1438197Y-4284935D01*
X1400000Y-4337508D01*
X1400000Y-4402492D01*
X1113955Y-4402492D01*
X1146447Y-4370000D01*
X1146447Y-4369999D01*
X800001Y-4023553D01*
X800000Y-4023553D01*
X453553Y-4369998D01*
X453553Y-4369999D01*
X200000Y-4369999D01*
X200000Y-4337508D01*
X161803Y-4284935D01*
X115838Y-4270000D01*
X84162Y-4270000D01*
X38197Y-4284935D01*
X0Y-4337508D01*
X0Y-4402492D01*
X-286045Y-4402492D01*
X-253553Y-4370000D01*
X-253553Y-4369999D01*
X-616662Y-4006890D01*
X-616662Y-4006891D01*
X-625336Y-4020696D01*
X-684878Y-4190858D01*
X-684879Y-4190861D01*
X-705062Y-4369997D01*
X-705062Y-4370002D01*
X-16682312Y-4370002D01*
X-16749011Y-4111770D01*
X-16846429Y-3691169D01*
X-16882022Y-3520002D01*
X-6435249Y-3520002D01*
X-6416315Y-3688056D01*
X-6360455Y-3847694D01*
X-6360453Y-3847697D01*
X-6270482Y-3990884D01*
X-6270477Y-3990890D01*
X-6150891Y-4110476D01*
X-6150885Y-4110481D01*
X-6007698Y-4200452D01*
X-6007695Y-4200454D01*
X-6007691Y-4200455D01*
X-6007690Y-4200456D01*
X-5935087Y-4225860D01*
X-5848057Y-4256314D01*
X-5680003Y-4275249D01*
X-5680000Y-4275249D01*
X-5679997Y-4275249D01*
X-5511944Y-4256314D01*
X-5507477Y-4254751D01*
X-5352310Y-4200456D01*
X-5352308Y-4200454D01*
X-5352306Y-4200454D01*
X-5352303Y-4200452D01*
X-5209116Y-4110481D01*
X-5209115Y-4110480D01*
X-5209110Y-4110477D01*
X-5089523Y-3990890D01*
X-5028330Y-3893503D01*
X-4999548Y-3847697D01*
X-4999546Y-3847694D01*
X-4999546Y-3847692D01*
X-4999544Y-3847690D01*
X-4943687Y-3688059D01*
X-4943687Y-3688058D01*
X-4943686Y-3688056D01*
X-4939774Y-3653338D01*
X-263110Y-3653338D01*
X99999Y-4016447D01*
X413955Y-3702492D01*
X700000Y-3702492D01*
X738197Y-3755065D01*
X784162Y-3770000D01*
X815838Y-3770000D01*
X861803Y-3755065D01*
X900000Y-3702492D01*
X900000Y-3669999D01*
X1153553Y-3669999D01*
X1499999Y-4016447D01*
X1500000Y-4016447D01*
X1813955Y-3702492D01*
X2100000Y-3702492D01*
X2138197Y-3755065D01*
X2184162Y-3770000D01*
X2215838Y-3770000D01*
X2261803Y-3755065D01*
X2300000Y-3702492D01*
X2300000Y-3670000D01*
X2553553Y-3670000D01*
X2900000Y-4016447D01*
X2900001Y-4016447D01*
X3263108Y-3653338D01*
X3263108Y-3653337D01*
X3249308Y-3644667D01*
X3249298Y-3644662D01*
X3079137Y-3585120D01*
X3078346Y-3584940D01*
X3077886Y-3584683D01*
X3072571Y-3582823D01*
X3072896Y-3581891D01*
X3017370Y-3550827D01*
X2988049Y-3497124D01*
X2987177Y-3497430D01*
X2985322Y-3492130D01*
X2985057Y-3491644D01*
X2984878Y-3490859D01*
X2925337Y-3320701D01*
X2925335Y-3320697D01*
X2916660Y-3306891D01*
X2553553Y-3669999D01*
X2553553Y-3670000D01*
X2300000Y-3670000D01*
X2300000Y-3637508D01*
X2261803Y-3584935D01*
X2215838Y-3570000D01*
X2184162Y-3570000D01*
X2138197Y-3584935D01*
X2100000Y-3637508D01*
X2100000Y-3702492D01*
X1813955Y-3702492D01*
X1846447Y-3670000D01*
X1846447Y-3669999D01*
X1499999Y-3323553D01*
X1499998Y-3323553D01*
X1153553Y-3669998D01*
X1153553Y-3669999D01*
X900000Y-3669999D01*
X900000Y-3637508D01*
X861803Y-3584935D01*
X815838Y-3570000D01*
X784162Y-3570000D01*
X738197Y-3584935D01*
X700000Y-3637508D01*
X700000Y-3702492D01*
X413955Y-3702492D01*
X446447Y-3670000D01*
X446447Y-3669999D01*
X83338Y-3306890D01*
X83338Y-3306891D01*
X74665Y-3320695D01*
X15118Y-3490869D01*
X14939Y-3491656D01*
X14683Y-3492112D01*
X12823Y-3497430D01*
X11890Y-3497103D01*
X-19176Y-3552631D01*
X-72875Y-3581952D01*
X-72570Y-3582823D01*
X-77857Y-3584672D01*
X-78344Y-3584939D01*
X-79131Y-3585118D01*
X-249305Y-3644665D01*
X-263109Y-3653338D01*
X-263110Y-3653338D01*
X-4939774Y-3653338D01*
X-4924751Y-3520002D01*
X-4924751Y-3519997D01*
X-4943686Y-3351943D01*
X-4999546Y-3192305D01*
X-4999548Y-3192302D01*
X-5089519Y-3049115D01*
X-5089524Y-3049109D01*
X-5185295Y-2953338D01*
X436890Y-2953338D01*
X800000Y-3316447D01*
X800001Y-3316447D01*
X1163108Y-2953338D01*
X1836890Y-2953338D01*
X2200000Y-3316447D01*
X2200001Y-3316447D01*
X2563108Y-2953338D01*
X2563108Y-2953337D01*
X2549308Y-2944667D01*
X2549298Y-2944662D01*
X2379141Y-2885122D01*
X2379138Y-2885121D01*
X2200003Y-2864938D01*
X2199997Y-2864938D01*
X2020861Y-2885121D01*
X2020858Y-2885122D01*
X1850696Y-2944664D01*
X1836891Y-2953338D01*
X1836890Y-2953338D01*
X1163108Y-2953338D01*
X1163108Y-2953337D01*
X1149308Y-2944667D01*
X1149298Y-2944662D01*
X979141Y-2885122D01*
X979138Y-2885121D01*
X800003Y-2864938D01*
X799997Y-2864938D01*
X620861Y-2885121D01*
X620858Y-2885122D01*
X450696Y-2944664D01*
X436891Y-2953338D01*
X436890Y-2953338D01*
X-5185295Y-2953338D01*
X-5209110Y-2929523D01*
X-5209116Y-2929518D01*
X-5352303Y-2839547D01*
X-5352306Y-2839545D01*
X-5511944Y-2783685D01*
X-5679997Y-2764751D01*
X-5680003Y-2764751D01*
X-5848057Y-2783685D01*
X-6007695Y-2839545D01*
X-6007698Y-2839547D01*
X-6150885Y-2929518D01*
X-6150891Y-2929523D01*
X-6270477Y-3049109D01*
X-6270482Y-3049115D01*
X-6360453Y-3192302D01*
X-6360455Y-3192305D01*
X-6416315Y-3351943D01*
X-6435249Y-3519997D01*
X-6435249Y-3520002D01*
X-16882022Y-3520002D01*
X-16923797Y-3319101D01*
X-17001573Y-2894450D01*
X-17010280Y-2839547D01*
X-17061103Y-2519054D01*
X-17097561Y-2250002D01*
X-8145249Y-2250002D01*
X-8126315Y-2418056D01*
X-8070455Y-2577694D01*
X-8070453Y-2577697D01*
X-7980482Y-2720884D01*
X-7980477Y-2720890D01*
X-7860891Y-2840476D01*
X-7860885Y-2840481D01*
X-7717698Y-2930452D01*
X-7717695Y-2930454D01*
X-7717691Y-2930455D01*
X-7717690Y-2930456D01*
X-7652297Y-2953338D01*
X-7558057Y-2986314D01*
X-7390003Y-3005249D01*
X-7390000Y-3005249D01*
X-7389997Y-3005249D01*
X-7221944Y-2986314D01*
X-7221941Y-2986313D01*
X-7062310Y-2930456D01*
X-7062308Y-2930454D01*
X-7062306Y-2930454D01*
X-7062303Y-2930452D01*
X-6919116Y-2840481D01*
X-6919115Y-2840480D01*
X-6919110Y-2840477D01*
X-6818635Y-2740002D01*
X5614751Y-2740002D01*
X5633685Y-2908056D01*
X5689545Y-3067694D01*
X5689547Y-3067697D01*
X5779518Y-3210884D01*
X5779523Y-3210890D01*
X5899109Y-3330476D01*
X5899115Y-3330481D01*
X6042302Y-3420452D01*
X6042305Y-3420454D01*
X6042309Y-3420455D01*
X6042310Y-3420456D01*
X6114913Y-3445860D01*
X6201943Y-3476314D01*
X6369997Y-3495249D01*
X6370000Y-3495249D01*
X6370003Y-3495249D01*
X6538056Y-3476314D01*
X6538059Y-3476313D01*
X6697690Y-3420456D01*
X6697692Y-3420454D01*
X6697694Y-3420454D01*
X6697697Y-3420452D01*
X6840884Y-3330481D01*
X6840885Y-3330480D01*
X6840890Y-3330477D01*
X6960477Y-3210890D01*
X6960481Y-3210884D01*
X7050452Y-3067697D01*
X7050454Y-3067694D01*
X7050454Y-3067692D01*
X7050456Y-3067690D01*
X7106313Y-2908059D01*
X7106313Y-2908058D01*
X7106314Y-2908056D01*
X7109977Y-2875542D01*
X12440500Y-2875542D01*
X12481441Y-3041650D01*
X12481442Y-3041653D01*
X12481443Y-3041654D01*
X12560950Y-3193141D01*
X12674399Y-3321199D01*
X12815198Y-3418385D01*
X12902472Y-3451483D01*
X12975160Y-3479051D01*
X12975162Y-3479051D01*
X12975164Y-3479052D01*
X13017572Y-3484201D01*
X13102387Y-3494500D01*
X13102389Y-3494500D01*
X13187613Y-3494500D01*
X13251223Y-3486776D01*
X13314836Y-3479052D01*
X13474802Y-3418385D01*
X13615601Y-3321199D01*
X13729050Y-3193141D01*
X13808557Y-3041654D01*
X13849500Y-2875542D01*
X13849500Y-2704458D01*
X13818256Y-2577697D01*
X13808558Y-2538349D01*
X13808557Y-2538348D01*
X13808557Y-2538346D01*
X13729050Y-2386859D01*
X13615601Y-2258801D01*
X13602853Y-2250002D01*
X13474803Y-2161616D01*
X13474802Y-2161615D01*
X13314839Y-2100948D01*
X13314834Y-2100947D01*
X13187613Y-2085500D01*
X13187611Y-2085500D01*
X13102389Y-2085500D01*
X13102387Y-2085500D01*
X12975165Y-2100947D01*
X12975160Y-2100948D01*
X12815197Y-2161615D01*
X12815196Y-2161616D01*
X12674399Y-2258800D01*
X12560950Y-2386859D01*
X12481441Y-2538349D01*
X12440500Y-2704457D01*
X12440500Y-2875542D01*
X7109977Y-2875542D01*
X7125249Y-2740002D01*
X7125249Y-2739997D01*
X7106314Y-2571943D01*
X7075860Y-2484913D01*
X7050456Y-2412310D01*
X7050455Y-2412309D01*
X7050454Y-2412305D01*
X7050452Y-2412302D01*
X6960481Y-2269115D01*
X6960476Y-2269109D01*
X6840890Y-2149523D01*
X6840884Y-2149518D01*
X6697697Y-2059547D01*
X6697694Y-2059545D01*
X6538056Y-2003685D01*
X6370003Y-1984751D01*
X6369997Y-1984751D01*
X6201943Y-2003685D01*
X6042305Y-2059545D01*
X6042302Y-2059547D01*
X5899115Y-2149518D01*
X5899109Y-2149523D01*
X5779523Y-2269109D01*
X5779518Y-2269115D01*
X5689547Y-2412302D01*
X5689545Y-2412305D01*
X5633685Y-2571943D01*
X5614751Y-2739997D01*
X5614751Y-2740002D01*
X-6818635Y-2740002D01*
X-6799523Y-2720890D01*
X-6709548Y-2577697D01*
X-6709546Y-2577694D01*
X-6709546Y-2577692D01*
X-6709544Y-2577690D01*
X-6653687Y-2418059D01*
X-6653687Y-2418058D01*
X-6653686Y-2418056D01*
X-6634751Y-2250002D01*
X-6634751Y-2249997D01*
X-6653686Y-2081943D01*
X-6709546Y-1922305D01*
X-6709548Y-1922302D01*
X-6799519Y-1779115D01*
X-6799524Y-1779109D01*
X-6919110Y-1659523D01*
X-6919116Y-1659518D01*
X-7062303Y-1569547D01*
X-7062306Y-1569545D01*
X-7221944Y-1513685D01*
X-7389997Y-1494751D01*
X-7390003Y-1494751D01*
X-7558057Y-1513685D01*
X-7717695Y-1569545D01*
X-7717698Y-1569547D01*
X-7860885Y-1659518D01*
X-7860891Y-1659523D01*
X-7980477Y-1779109D01*
X-7980482Y-1779115D01*
X-8070453Y-1922302D01*
X-8070455Y-1922305D01*
X-8126315Y-2081943D01*
X-8145249Y-2249997D01*
X-8145249Y-2250002D01*
X-17097561Y-2250002D01*
X-17109538Y-2161616D01*
X-17119075Y-2091243D01*
X-17137652Y-1922302D01*
X-17160603Y-1713592D01*
X-17198663Y-1283341D01*
X-17202826Y-1216024D01*
X-17206066Y-1163652D01*
X-5395249Y-1163652D01*
X-5376315Y-1331706D01*
X-5320455Y-1491344D01*
X-5320453Y-1491347D01*
X-5230482Y-1634534D01*
X-5230477Y-1634540D01*
X-5110891Y-1754126D01*
X-5110885Y-1754131D01*
X-4967698Y-1844102D01*
X-4967695Y-1844104D01*
X-4967691Y-1844105D01*
X-4967690Y-1844106D01*
X-4895087Y-1869510D01*
X-4808057Y-1899964D01*
X-4640003Y-1918899D01*
X-4640000Y-1918899D01*
X-4639997Y-1918899D01*
X-4471944Y-1899964D01*
X-4471941Y-1899963D01*
X-4312310Y-1844106D01*
X-4312308Y-1844104D01*
X-4312306Y-1844104D01*
X-4312303Y-1844102D01*
X-4169116Y-1754131D01*
X-4169115Y-1754130D01*
X-4169110Y-1754127D01*
X-4049523Y-1634540D01*
X-4008685Y-1569547D01*
X-3959548Y-1491347D01*
X-3959546Y-1491344D01*
X-3959546Y-1491342D01*
X-3959544Y-1491340D01*
X-3903687Y-1331709D01*
X-3903687Y-1331708D01*
X-3903686Y-1331706D01*
X-3884751Y-1163652D01*
X-3884751Y-1163647D01*
X-3903686Y-995593D01*
X-3959546Y-835955D01*
X-3959548Y-835952D01*
X-4049519Y-692765D01*
X-4049524Y-692759D01*
X-4169110Y-573173D01*
X-4169116Y-573168D01*
X-4312303Y-483197D01*
X-4312306Y-483195D01*
X-4471944Y-427335D01*
X-4639997Y-408401D01*
X-4640003Y-408401D01*
X-4808057Y-427335D01*
X-4967695Y-483195D01*
X-4967698Y-483197D01*
X-5110885Y-573168D01*
X-5110891Y-573173D01*
X-5230477Y-692759D01*
X-5230482Y-692765D01*
X-5320453Y-835952D01*
X-5320455Y-835955D01*
X-5376315Y-995593D01*
X-5395249Y-1163647D01*
X-5395249Y-1163652D01*
X-17206066Y-1163652D01*
X-17222104Y-904368D01*
X-17240154Y-472508D01*
X-17240154Y-472461D01*
X-17245473Y-93288D01*
X-17243677Y289998D01*
X-8195249Y289998D01*
X-8176315Y121944D01*
X-8120455Y-37694D01*
X-8120453Y-37697D01*
X-8030482Y-180884D01*
X-8030477Y-180890D01*
X-7910891Y-300476D01*
X-7910885Y-300481D01*
X-7767698Y-390452D01*
X-7767695Y-390454D01*
X-7767691Y-390455D01*
X-7767690Y-390456D01*
X-7716406Y-408401D01*
X-7608057Y-446314D01*
X-7440003Y-465249D01*
X-7440000Y-465249D01*
X-7439997Y-465249D01*
X-7271944Y-446314D01*
X-7271941Y-446313D01*
X-7112310Y-390456D01*
X-7112308Y-390454D01*
X-7112306Y-390454D01*
X-7112303Y-390452D01*
X-6969116Y-300481D01*
X-6969115Y-300480D01*
X-6969110Y-300477D01*
X-6849523Y-180890D01*
X-6849519Y-180884D01*
X-6759548Y-37697D01*
X-6759546Y-37694D01*
X-6759546Y-37692D01*
X-6759544Y-37690D01*
X-6703687Y121941D01*
X-6703687Y121942D01*
X-6703686Y121944D01*
X-6684751Y289998D01*
X-6684751Y290003D01*
X-6703686Y458057D01*
X-6755422Y605910D01*
X-6759544Y617690D01*
X-6759545Y617691D01*
X-6759546Y617695D01*
X-6759548Y617698D01*
X-6849519Y760885D01*
X-6849524Y760891D01*
X-6969110Y880477D01*
X-6969116Y880482D01*
X-7112303Y970453D01*
X-7112306Y970455D01*
X-7271944Y1026315D01*
X-7439997Y1045249D01*
X-7440003Y1045249D01*
X-7608057Y1026315D01*
X-7767695Y970455D01*
X-7767698Y970453D01*
X-7910885Y880482D01*
X-7910891Y880477D01*
X-8030477Y760891D01*
X-8030482Y760885D01*
X-8120453Y617698D01*
X-8120455Y617695D01*
X-8176315Y458057D01*
X-8195249Y290003D01*
X-8195249Y289998D01*
X-17243677Y289998D01*
X-17243445Y339414D01*
X-17230679Y717865D01*
X-17208529Y1150585D01*
X-17196330Y1299998D01*
X-206513Y1299998D01*
X-187579Y1131944D01*
X-150617Y1026315D01*
X-137177Y987904D01*
X-131719Y972308D01*
X-114539Y944966D01*
X-95539Y877729D01*
X-114538Y813023D01*
X-130456Y787690D01*
X-186315Y628057D01*
X-205249Y460003D01*
X-205249Y459998D01*
X-186315Y291944D01*
X-130455Y132306D01*
X-130453Y132303D01*
X-40482Y-10884D01*
X-40477Y-10890D01*
X79109Y-130476D01*
X79115Y-130481D01*
X222302Y-220452D01*
X222305Y-220454D01*
X222309Y-220455D01*
X222310Y-220456D01*
X294913Y-245860D01*
X381943Y-276314D01*
X549997Y-295249D01*
X550000Y-295249D01*
X550003Y-295249D01*
X676044Y-281047D01*
X718059Y-276313D01*
X764719Y-259985D01*
X834496Y-256423D01*
X895124Y-291151D01*
X917397Y-323231D01*
X919548Y-327699D01*
X1009518Y-470884D01*
X1009523Y-470890D01*
X1129109Y-590476D01*
X1129115Y-590481D01*
X1272302Y-680452D01*
X1272305Y-680454D01*
X1272309Y-680455D01*
X1272310Y-680456D01*
X1344913Y-705860D01*
X1431943Y-736314D01*
X1599997Y-755249D01*
X1600000Y-755249D01*
X1600003Y-755249D01*
X1768056Y-736314D01*
X1768059Y-736313D01*
X1927690Y-680456D01*
X1927692Y-680454D01*
X1927694Y-680454D01*
X1927697Y-680452D01*
X2070884Y-590481D01*
X2070885Y-590480D01*
X2070890Y-590477D01*
X2190477Y-470890D01*
X2190481Y-470884D01*
X2280452Y-327697D01*
X2280454Y-327694D01*
X2280454Y-327692D01*
X2280456Y-327690D01*
X2314639Y-230000D01*
X3554659Y-230000D01*
X3573975Y-426129D01*
X3580098Y-446313D01*
X3623829Y-590476D01*
X3631188Y-614733D01*
X3724086Y-788532D01*
X3724090Y-788539D01*
X3849116Y-940883D01*
X4001460Y-1065909D01*
X4001467Y-1065913D01*
X4175266Y-1158811D01*
X4175269Y-1158811D01*
X4175273Y-1158814D01*
X4363868Y-1216024D01*
X4560000Y-1235341D01*
X4756132Y-1216024D01*
X4944727Y-1158814D01*
X5118538Y-1065910D01*
X5270883Y-940883D01*
X5395910Y-788538D01*
X5488814Y-614727D01*
X5546024Y-426132D01*
X5565341Y-230000D01*
X5546024Y-33868D01*
X5488814Y154727D01*
X5488811Y154731D01*
X5488811Y154734D01*
X5395913Y328533D01*
X5395909Y328540D01*
X5270883Y480884D01*
X5118539Y605910D01*
X5118532Y605914D01*
X4944733Y698812D01*
X4944727Y698814D01*
X4756132Y756024D01*
X4756129Y756025D01*
X4560000Y775341D01*
X4363870Y756025D01*
X4175266Y698812D01*
X4001467Y605914D01*
X4001460Y605910D01*
X3849116Y480884D01*
X3724090Y328540D01*
X3724086Y328533D01*
X3631188Y154734D01*
X3573975Y-33870D01*
X3554659Y-230000D01*
X2314639Y-230000D01*
X2336313Y-168059D01*
X2336313Y-168058D01*
X2336314Y-168056D01*
X2355249Y-2D01*
X2355249Y3D01*
X2336314Y168057D01*
X2297302Y279546D01*
X2280456Y327690D01*
X2280455Y327691D01*
X2280454Y327695D01*
X2280452Y327698D01*
X2190481Y470885D01*
X2190476Y470891D01*
X2070890Y590477D01*
X2070884Y590482D01*
X1927697Y680453D01*
X1927694Y680455D01*
X1768056Y736315D01*
X1600003Y755249D01*
X1599997Y755249D01*
X1431942Y736314D01*
X1385279Y719986D01*
X1315500Y716425D01*
X1254873Y751154D01*
X1232600Y783236D01*
X1230452Y787698D01*
X1213275Y815034D01*
X1194274Y882271D01*
X1213273Y946977D01*
X1221455Y959998D01*
X11674751Y959998D01*
X11693685Y791944D01*
X11749545Y632306D01*
X11749547Y632303D01*
X11839518Y489116D01*
X11839523Y489110D01*
X11959109Y369524D01*
X11959115Y369519D01*
X12102302Y279548D01*
X12102305Y279546D01*
X12102309Y279545D01*
X12102310Y279544D01*
X12261941Y223687D01*
X12261944Y223686D01*
X12334601Y215500D01*
X12399016Y188434D01*
X12438571Y130840D01*
X12441116Y121956D01*
X12471175Y3D01*
X12481443Y-41654D01*
X12560950Y-193141D01*
X12674399Y-321199D01*
X12815198Y-418385D01*
X12888838Y-446313D01*
X12975160Y-479051D01*
X12975162Y-479051D01*
X12975164Y-479052D01*
X13009301Y-483197D01*
X13102387Y-494500D01*
X13102389Y-494500D01*
X13187613Y-494500D01*
X13251223Y-486776D01*
X13314836Y-479052D01*
X13474802Y-418385D01*
X13615601Y-321199D01*
X13729050Y-193141D01*
X13808557Y-41654D01*
X13849500Y124458D01*
X13849500Y295542D01*
X13841574Y327698D01*
X13808558Y461651D01*
X13808557Y461652D01*
X13808557Y461654D01*
X13729050Y613141D01*
X13615601Y741199D01*
X13474802Y838385D01*
X13314839Y899052D01*
X13314835Y899053D01*
X13287711Y902346D01*
X13223534Y929969D01*
X13184478Y987904D01*
X13179440Y1011559D01*
X13166314Y1128056D01*
X13164954Y1131944D01*
X13110456Y1287690D01*
X13110455Y1287691D01*
X13110454Y1287695D01*
X13110452Y1287698D01*
X13020481Y1430885D01*
X13020476Y1430891D01*
X12900890Y1550477D01*
X12900884Y1550482D01*
X12757697Y1640453D01*
X12757694Y1640455D01*
X12598056Y1696315D01*
X12430003Y1715249D01*
X12429997Y1715249D01*
X12261943Y1696315D01*
X12102305Y1640455D01*
X12102302Y1640453D01*
X11959115Y1550482D01*
X11959109Y1550477D01*
X11839523Y1430891D01*
X11839518Y1430885D01*
X11749547Y1287698D01*
X11749545Y1287695D01*
X11693685Y1128057D01*
X11674751Y960003D01*
X11674751Y959998D01*
X1221455Y959998D01*
X1229192Y972310D01*
X1285049Y1131941D01*
X1294517Y1215971D01*
X1303985Y1299998D01*
X1303985Y1300003D01*
X1285049Y1468058D01*
X1229193Y1627687D01*
X1229192Y1627690D01*
X1227698Y1630067D01*
X1227203Y1631819D01*
X1226174Y1633956D01*
X1226548Y1634137D01*
X1208699Y1697302D01*
X1227700Y1762010D01*
X1240456Y1782310D01*
X1296313Y1941941D01*
X1305781Y2025971D01*
X1315249Y2109998D01*
X1315249Y2110003D01*
X1296314Y2278057D01*
X1240454Y2437695D01*
X1240452Y2437698D01*
X1150481Y2580885D01*
X1150476Y2580891D01*
X1030890Y2700477D01*
X1030884Y2700482D01*
X887697Y2790453D01*
X887694Y2790455D01*
X728056Y2846315D01*
X560003Y2865249D01*
X559997Y2865249D01*
X391943Y2846315D01*
X232305Y2790455D01*
X232302Y2790453D01*
X89115Y2700482D01*
X89109Y2700477D01*
X-30477Y2580891D01*
X-30482Y2580885D01*
X-120453Y2437698D01*
X-120455Y2437695D01*
X-176315Y2278057D01*
X-195249Y2110003D01*
X-195249Y2109998D01*
X-176315Y1941944D01*
X-120456Y1782309D01*
X-118968Y1779942D01*
X-118474Y1778193D01*
X-117434Y1776034D01*
X-117812Y1775852D01*
X-99964Y1712706D01*
X-118963Y1647995D01*
X-131719Y1627695D01*
X-187579Y1468057D01*
X-206513Y1300003D01*
X-206513Y1299998D01*
X-17196330Y1299998D01*
X-17177771Y1527294D01*
X-17135471Y1959306D01*
X-17086891Y2333165D01*
X-17024440Y2763674D01*
X-16958292Y3133555D01*
X-16875668Y3561982D01*
X-16792293Y3926744D01*
X-16750450Y4099998D01*
X-10735249Y4099998D01*
X-10716315Y3931944D01*
X-10660455Y3772306D01*
X-10660453Y3772303D01*
X-10570482Y3629116D01*
X-10570477Y3629110D01*
X-10450891Y3509524D01*
X-10450885Y3509519D01*
X-10307698Y3419548D01*
X-10307695Y3419546D01*
X-10307691Y3419545D01*
X-10307690Y3419544D01*
X-10235087Y3394140D01*
X-10148057Y3363686D01*
X-9980003Y3344751D01*
X-9980000Y3344751D01*
X-9979997Y3344751D01*
X-9811944Y3363686D01*
X-9811941Y3363687D01*
X-9652310Y3419544D01*
X-9652308Y3419546D01*
X-9652306Y3419546D01*
X-9652303Y3419548D01*
X-9509116Y3509519D01*
X-9509115Y3509520D01*
X-9509110Y3509523D01*
X-9389523Y3629110D01*
X-9299548Y3772303D01*
X-9299546Y3772306D01*
X-9299546Y3772308D01*
X-9299544Y3772310D01*
X-9243687Y3931941D01*
X-9243687Y3931942D01*
X-9243686Y3931944D01*
X-9224751Y4099998D01*
X-9224751Y4100003D01*
X-9243686Y4268057D01*
X-9299546Y4427695D01*
X-9299548Y4427698D01*
X-9389519Y4570885D01*
X-9389524Y4570891D01*
X-9509110Y4690477D01*
X-9509116Y4690482D01*
X-9652303Y4780453D01*
X-9652306Y4780455D01*
X-9811944Y4836315D01*
X-9979997Y4855249D01*
X-9980003Y4855249D01*
X-10148057Y4836315D01*
X-10307695Y4780455D01*
X-10307698Y4780453D01*
X-10450885Y4690482D01*
X-10450891Y4690477D01*
X-10570477Y4570891D01*
X-10570482Y4570885D01*
X-10660453Y4427698D01*
X-10660455Y4427695D01*
X-10716315Y4268057D01*
X-10735249Y4100003D01*
X-10735249Y4099998D01*
X-16750450Y4099998D01*
X-16689476Y4352462D01*
X-16589352Y4710805D01*
X-16466297Y5133280D01*
X-16350015Y5483923D01*
X-16349993Y5483993D01*
X-16206603Y5902772D01*
X-16074962Y6244238D01*
X-15910973Y6659207D01*
X-15765214Y6989406D01*
X-15580053Y7400928D01*
X-15421996Y7717195D01*
X-15214577Y8126275D01*
X-15184442Y8179998D01*
X-14735249Y8179998D01*
X-14716315Y8011944D01*
X-14660455Y7852306D01*
X-14660453Y7852303D01*
X-14570482Y7709116D01*
X-14570477Y7709110D01*
X-14450891Y7589524D01*
X-14450885Y7589519D01*
X-14307698Y7499548D01*
X-14307695Y7499546D01*
X-14307691Y7499545D01*
X-14307690Y7499544D01*
X-14235087Y7474140D01*
X-14148057Y7443686D01*
X-13980003Y7424751D01*
X-13980000Y7424751D01*
X-13979997Y7424751D01*
X-13811944Y7443686D01*
X-13759774Y7461941D01*
X-13652310Y7499544D01*
X-13652308Y7499546D01*
X-13652306Y7499546D01*
X-13652303Y7499548D01*
X-13509116Y7589519D01*
X-13509115Y7589520D01*
X-13509110Y7589523D01*
X-13389523Y7709110D01*
X-13384274Y7717463D01*
X-13299548Y7852303D01*
X-13299546Y7852306D01*
X-13299546Y7852308D01*
X-13299544Y7852310D01*
X-13243687Y8011941D01*
X-13243687Y8011942D01*
X-13243686Y8011944D01*
X-13224751Y8179998D01*
X-8105249Y8179998D01*
X-8086315Y8011944D01*
X-8030455Y7852306D01*
X-8030453Y7852303D01*
X-7940482Y7709116D01*
X-7940477Y7709110D01*
X-7820891Y7589524D01*
X-7820885Y7589519D01*
X-7677698Y7499548D01*
X-7677695Y7499546D01*
X-7677691Y7499545D01*
X-7677690Y7499544D01*
X-7605087Y7474140D01*
X-7518057Y7443686D01*
X-7350003Y7424751D01*
X-7350000Y7424751D01*
X-7349997Y7424751D01*
X-7181944Y7443686D01*
X-7129774Y7461941D01*
X-7022310Y7499544D01*
X-7022308Y7499546D01*
X-7022306Y7499546D01*
X-7022303Y7499548D01*
X-6879116Y7589519D01*
X-6879115Y7589520D01*
X-6879110Y7589523D01*
X-6759523Y7709110D01*
X-6754274Y7717463D01*
X-6669548Y7852303D01*
X-6669546Y7852306D01*
X-6669546Y7852308D01*
X-6669544Y7852310D01*
X-6613687Y8011941D01*
X-6613687Y8011942D01*
X-6613686Y8011944D01*
X-6594751Y8179998D01*
X-6594751Y8180003D01*
X-6613686Y8348057D01*
X-6669546Y8507695D01*
X-6669548Y8507698D01*
X-6759519Y8650885D01*
X-6759524Y8650891D01*
X-6879110Y8770477D01*
X-6879116Y8770482D01*
X-7022303Y8860453D01*
X-7022306Y8860455D01*
X-7181944Y8916315D01*
X-7303408Y8930000D01*
X-3345341Y8930000D01*
X-3326025Y8733871D01*
X-3268812Y8545267D01*
X-3175914Y8371468D01*
X-3175910Y8371461D01*
X-3050884Y8219117D01*
X-2898540Y8094091D01*
X-2898533Y8094087D01*
X-2724734Y8001189D01*
X-2724731Y8001189D01*
X-2724727Y8001186D01*
X-2536132Y7943976D01*
X-2340000Y7924659D01*
X-2143868Y7943976D01*
X-1955273Y8001186D01*
X-1781462Y8094090D01*
X-1629117Y8219117D01*
X-1504090Y8371462D01*
X-1457638Y8458368D01*
X-1411189Y8545267D01*
X-1411189Y8545268D01*
X-1411186Y8545273D01*
X-1353976Y8733868D01*
X-1334659Y8930000D01*
X-1353976Y9126132D01*
X-1411186Y9314727D01*
X-1411189Y9314731D01*
X-1411189Y9314734D01*
X-1504087Y9488533D01*
X-1504091Y9488540D01*
X-1521701Y9509998D01*
X9854751Y9509998D01*
X9873685Y9341944D01*
X9929545Y9182306D01*
X9929547Y9182303D01*
X10019518Y9039116D01*
X10019523Y9039110D01*
X10139109Y8919524D01*
X10139115Y8919519D01*
X10282302Y8829548D01*
X10282305Y8829546D01*
X10282309Y8829545D01*
X10282310Y8829544D01*
X10354913Y8804140D01*
X10441943Y8773686D01*
X10609997Y8754751D01*
X10610000Y8754751D01*
X10610002Y8754751D01*
X10657519Y8760105D01*
X10726341Y8748051D01*
X10777720Y8700702D01*
X10795345Y8633092D01*
X10794624Y8623004D01*
X10790355Y8585106D01*
X10790354Y8585101D01*
X10809288Y8417047D01*
X10865148Y8257409D01*
X10865150Y8257406D01*
X10955121Y8114219D01*
X10955126Y8114213D01*
X11074712Y7994627D01*
X11074718Y7994622D01*
X11217905Y7904651D01*
X11217908Y7904649D01*
X11217912Y7904648D01*
X11217913Y7904647D01*
X11290516Y7879243D01*
X11377546Y7848789D01*
X11545600Y7829854D01*
X11545603Y7829854D01*
X11545604Y7829854D01*
X11554833Y7830894D01*
X11623655Y7818840D01*
X11675035Y7771492D01*
X11692660Y7703882D01*
X11691938Y7693791D01*
X11684751Y7630004D01*
X11684751Y7629998D01*
X11703685Y7461944D01*
X11759545Y7302306D01*
X11759547Y7302303D01*
X11849518Y7159116D01*
X11849523Y7159110D01*
X11969109Y7039524D01*
X11969115Y7039519D01*
X12112302Y6949548D01*
X12112305Y6949546D01*
X12112309Y6949545D01*
X12112310Y6949544D01*
X12184913Y6924140D01*
X12271943Y6893686D01*
X12439997Y6874751D01*
X12440000Y6874751D01*
X12440003Y6874751D01*
X12608056Y6893686D01*
X12608059Y6893687D01*
X12767690Y6949544D01*
X12767692Y6949546D01*
X12767694Y6949546D01*
X12767697Y6949548D01*
X12910884Y7039519D01*
X12910885Y7039520D01*
X12910890Y7039523D01*
X13030477Y7159110D01*
X13120452Y7302303D01*
X13120454Y7302306D01*
X13120454Y7302308D01*
X13120456Y7302310D01*
X13176313Y7461941D01*
X13176313Y7461942D01*
X13176314Y7461944D01*
X13195249Y7629998D01*
X13195249Y7630003D01*
X13176314Y7798057D01*
X13132014Y7924659D01*
X13120456Y7957690D01*
X13120455Y7957691D01*
X13120454Y7957695D01*
X13120452Y7957698D01*
X13030481Y8100885D01*
X13030476Y8100891D01*
X12910890Y8220477D01*
X12910884Y8220482D01*
X12767697Y8310453D01*
X12767694Y8310455D01*
X12608056Y8366315D01*
X12440003Y8385249D01*
X12439996Y8385249D01*
X12430761Y8384209D01*
X12361940Y8396267D01*
X12310563Y8443619D01*
X12292942Y8511231D01*
X12293662Y8521298D01*
X12300852Y8585103D01*
X12295445Y8633092D01*
X12281917Y8753160D01*
X12226057Y8912798D01*
X12226055Y8912801D01*
X12136084Y9055988D01*
X12136079Y9055994D01*
X12016493Y9175580D01*
X12016487Y9175585D01*
X11873300Y9265556D01*
X11873297Y9265558D01*
X11713659Y9321418D01*
X11545606Y9340352D01*
X11545604Y9340352D01*
X11545603Y9340352D01*
X11527052Y9338262D01*
X11498081Y9334998D01*
X11429259Y9347054D01*
X11377880Y9394404D01*
X11360257Y9462015D01*
X11360979Y9472104D01*
X11365249Y9509999D01*
X11365249Y9510003D01*
X11346314Y9678057D01*
X11290454Y9837695D01*
X11290452Y9837698D01*
X11200481Y9980885D01*
X11200476Y9980891D01*
X11080890Y10100477D01*
X11080884Y10100482D01*
X10937697Y10190453D01*
X10937694Y10190455D01*
X10778056Y10246315D01*
X10610003Y10265249D01*
X10609997Y10265249D01*
X10441943Y10246315D01*
X10282305Y10190455D01*
X10282302Y10190453D01*
X10139115Y10100482D01*
X10139109Y10100477D01*
X10019523Y9980891D01*
X10019518Y9980885D01*
X9929547Y9837698D01*
X9929545Y9837695D01*
X9873685Y9678057D01*
X9854751Y9510003D01*
X9854751Y9509998D01*
X-1521701Y9509998D01*
X-1629117Y9640884D01*
X-1781461Y9765910D01*
X-1781468Y9765914D01*
X-1955267Y9858812D01*
X-1955273Y9858814D01*
X-2143868Y9916024D01*
X-2143871Y9916025D01*
X-2340000Y9935341D01*
X-2536130Y9916025D01*
X-2724734Y9858812D01*
X-2898533Y9765914D01*
X-2898540Y9765910D01*
X-3050884Y9640884D01*
X-3175910Y9488540D01*
X-3175914Y9488533D01*
X-3268812Y9314734D01*
X-3326025Y9126130D01*
X-3345341Y8930000D01*
X-7303408Y8930000D01*
X-7349997Y8935249D01*
X-7350003Y8935249D01*
X-7518057Y8916315D01*
X-7677695Y8860455D01*
X-7677698Y8860453D01*
X-7820885Y8770482D01*
X-7820891Y8770477D01*
X-7940477Y8650891D01*
X-7940482Y8650885D01*
X-8030453Y8507698D01*
X-8030455Y8507695D01*
X-8086315Y8348057D01*
X-8105249Y8180003D01*
X-8105249Y8179998D01*
X-13224751Y8179998D01*
X-13224751Y8180003D01*
X-13243686Y8348057D01*
X-13299546Y8507695D01*
X-13299548Y8507698D01*
X-13389519Y8650885D01*
X-13389524Y8650891D01*
X-13509110Y8770477D01*
X-13509116Y8770482D01*
X-13652303Y8860453D01*
X-13652306Y8860455D01*
X-13811944Y8916315D01*
X-13979997Y8935249D01*
X-13980003Y8935249D01*
X-14148057Y8916315D01*
X-14307695Y8860455D01*
X-14307698Y8860453D01*
X-14450885Y8770482D01*
X-14450891Y8770477D01*
X-14570477Y8650891D01*
X-14570482Y8650885D01*
X-14660453Y8507698D01*
X-14660455Y8507695D01*
X-14716315Y8348057D01*
X-14735249Y8180003D01*
X-14735249Y8179998D01*
X-15184442Y8179998D01*
X-15047249Y8424575D01*
X-14815377Y8833601D01*
X-14645007Y9105980D01*
X-14383294Y9521404D01*
X-14228083Y9745047D01*
X-13920074Y10187024D01*
X-13918510Y10189161D01*
X-13903970Y10208114D01*
X-13507740Y10723857D01*
X-13451290Y10765024D01*
X-13381541Y10769137D01*
X-13344619Y10753106D01*
X-13344368Y10753549D01*
X-13340153Y10751166D01*
X-13340150Y10751164D01*
X-13173877Y10657166D01*
X-13136826Y10636220D01*
X-13136827Y10636220D01*
X-13009914Y10588566D01*
X-13009687Y10588395D01*
X-13008155Y10587905D01*
X-12918174Y10554118D01*
X-12918172Y10554118D01*
X-12918170Y10554117D01*
X-12778304Y10525202D01*
X-12777459Y10524752D01*
X-12772513Y10524005D01*
X-12748200Y10518979D01*
X-12744826Y10518181D01*
X-12696576Y10505347D01*
X-12683714Y10506553D01*
X-12539649Y10499556D01*
X-12538024Y10498992D01*
X-12537474Y10499029D01*
X-12530251Y10499099D01*
X-12491064Y10497196D01*
X-12488162Y10496985D01*
X-12455293Y10493820D01*
X-12443407Y10496867D01*
X-12299973Y10512244D01*
X-12297356Y10511771D01*
X-12295294Y10512258D01*
X-12287661Y10513564D01*
X-12224508Y10520335D01*
X-12215318Y10520960D01*
X-12204702Y10525554D01*
X-12065367Y10562939D01*
X-12061822Y10562856D01*
X-12058742Y10564143D01*
X-12050906Y10566819D01*
X-11998336Y10580924D01*
X-11998334Y10580925D01*
X-11998330Y10580926D01*
X-11993786Y10582532D01*
X-11993643Y10582127D01*
X-11983755Y10585462D01*
X-11973682Y10591860D01*
X-11841812Y10650349D01*
X-11837440Y10650929D01*
X-11822015Y10659130D01*
X-11784831Y10675622D01*
X-11780839Y10678197D01*
X-11764406Y10686845D01*
X-11756213Y10694080D01*
X-11667700Y10751163D01*
X-11634992Y10772257D01*
X-11630045Y10773719D01*
X-11629838Y10773901D01*
X-11614922Y10785202D01*
X-11603176Y10792777D01*
X-11588554Y10802206D01*
X-11588552Y10802208D01*
X-11588547Y10802211D01*
X-11578503Y10811167D01*
X-11564155Y10821940D01*
X-11557848Y10829582D01*
X-11450188Y10925570D01*
X-11444863Y10928093D01*
X-11444533Y10928498D01*
X-11430874Y10942789D01*
X-11414212Y10957644D01*
X-11400058Y10974888D01*
X-11388139Y10987251D01*
X-11383636Y10994894D01*
X-11292120Y11106383D01*
X-11286682Y11110086D01*
X-11286379Y11110616D01*
X-11274554Y11127782D01*
X-11266027Y11138170D01*
X-11266022Y11138176D01*
X-11250107Y11165217D01*
X-11240855Y11178523D01*
X-11237989Y11185805D01*
X-11164824Y11310108D01*
X-11159559Y11315044D01*
X-11159365Y11315566D01*
X-11149960Y11335360D01*
X-11147546Y11339461D01*
X-11132583Y11377292D01*
X-11126074Y11390840D01*
X-11124616Y11397433D01*
X-11071565Y11531555D01*
X-11066760Y11537718D01*
X-11066683Y11538112D01*
X-11062650Y11551931D01*
X-11063055Y11552056D01*
X-11061644Y11556637D01*
X-11061638Y11556651D01*
X-11049688Y11609760D01*
X-11047332Y11617705D01*
X-11046697Y11619419D01*
X-11046398Y11624380D01*
X-11014735Y11765096D01*
X-11010671Y11772416D01*
X-11010326Y11785116D01*
X-11006138Y11848484D01*
X-11005145Y11856168D01*
X-11004958Y11857136D01*
X-11005321Y11860854D01*
X-10995810Y12004776D01*
X-10992748Y12013125D01*
X-10997753Y12049485D01*
X-10998083Y12052388D01*
X-11001585Y12091480D01*
X-11001801Y12098456D01*
X-11002424Y12100848D01*
X-11015291Y12244491D01*
X-11013464Y12253686D01*
X-11029400Y12305065D01*
X-11030337Y12308415D01*
X-11036350Y12332501D01*
X-11037204Y12336920D01*
X-11037786Y12338251D01*
X-11050619Y12389649D01*
X-11072382Y12476813D01*
X-11109812Y12565339D01*
X-11110316Y12566718D01*
X-11110547Y12567079D01*
X-11137238Y12630206D01*
X-11163339Y12691939D01*
X-11286482Y12890403D01*
X-11286484Y12890406D01*
X-11289037Y12894520D01*
X-11288171Y12895058D01*
X-11310302Y12956088D01*
X-11294828Y13024223D01*
X-11266042Y13058968D01*
X-10866032Y13393120D01*
X-10747583Y13491910D01*
X-10745543Y13493535D01*
X-10350241Y13793758D01*
X-10098375Y13984124D01*
X-9714781Y14248329D01*
X-9427736Y14444402D01*
X-9043948Y14683282D01*
X-8736181Y14872540D01*
X-8348161Y15089762D01*
X-8178030Y15183455D01*
X-8109813Y15198551D01*
X-8044261Y15174370D01*
X-8002189Y15118587D01*
X-7996954Y15048914D01*
X-8018947Y15000525D01*
X-8043796Y14967332D01*
X-8043798Y14967329D01*
X-8094092Y14832483D01*
X-8100223Y14775453D01*
X-8100499Y14772877D01*
X-8100500Y14772865D01*
X-8100500Y12977130D01*
X-8100499Y12977124D01*
X-8094092Y12917517D01*
X-8043798Y12782672D01*
X-8043794Y12782665D01*
X-7957548Y12667456D01*
X-7957545Y12667453D01*
X-7842336Y12581207D01*
X-7842329Y12581203D01*
X-7710919Y12532190D01*
X-7654985Y12490319D01*
X-7630568Y12424855D01*
X-7645420Y12356582D01*
X-7666570Y12328327D01*
X-7788497Y12206400D01*
X-7924035Y12012831D01*
X-7924036Y12012829D01*
X-8023902Y11798665D01*
X-8023906Y11798656D01*
X-8085062Y11570414D01*
X-8085064Y11570404D01*
X-8105659Y11335001D01*
X-8105659Y11335000D01*
X-8085064Y11099597D01*
X-8085062Y11099587D01*
X-8023906Y10871345D01*
X-8023904Y10871341D01*
X-8023903Y10871337D01*
X-7962586Y10739843D01*
X-7924035Y10657170D01*
X-7924033Y10657166D01*
X-7822566Y10512258D01*
X-7788495Y10463599D01*
X-7621401Y10296505D01*
X-7549722Y10246315D01*
X-7427835Y10160968D01*
X-7427833Y10160967D01*
X-7427830Y10160965D01*
X-7213663Y10061097D01*
X-6985408Y9999937D01*
X-6797082Y9983461D01*
X-6750001Y9979341D01*
X-6750000Y9979341D01*
X-6749999Y9979341D01*
X-6710766Y9982774D01*
X-6514592Y9999937D01*
X-6286337Y10061097D01*
X-6072170Y10160965D01*
X-5878599Y10296505D01*
X-5711505Y10463599D01*
X-5575965Y10657170D01*
X-5532678Y10749998D01*
X3185251Y10749998D01*
X3204185Y10581944D01*
X3260045Y10422306D01*
X3260047Y10422303D01*
X3350018Y10279116D01*
X3350023Y10279110D01*
X3469609Y10159524D01*
X3469615Y10159519D01*
X3612802Y10069548D01*
X3612805Y10069546D01*
X3612809Y10069545D01*
X3612810Y10069544D01*
X3636956Y10061095D01*
X3772443Y10013686D01*
X3940497Y9994751D01*
X3940500Y9994751D01*
X3940503Y9994751D01*
X4108556Y10013686D01*
X4108559Y10013687D01*
X4268190Y10069544D01*
X4268192Y10069546D01*
X4268194Y10069546D01*
X4268197Y10069548D01*
X4411384Y10159519D01*
X4411385Y10159520D01*
X4411390Y10159523D01*
X4530977Y10279110D01*
X4541907Y10296505D01*
X4620952Y10422303D01*
X4620954Y10422306D01*
X4620954Y10422308D01*
X4620956Y10422310D01*
X4676813Y10581941D01*
X4676813Y10581942D01*
X4676814Y10581944D01*
X4695749Y10749998D01*
X4695749Y10750003D01*
X4676814Y10918057D01*
X4620954Y11077695D01*
X4620952Y11077698D01*
X4530981Y11220885D01*
X4530976Y11220891D01*
X4411390Y11340477D01*
X4411384Y11340482D01*
X4268197Y11430453D01*
X4268194Y11430455D01*
X4108556Y11486315D01*
X3940503Y11505249D01*
X3940497Y11505249D01*
X3772443Y11486315D01*
X3612805Y11430455D01*
X3612802Y11430453D01*
X3469615Y11340482D01*
X3469609Y11340477D01*
X3350023Y11220891D01*
X3350018Y11220885D01*
X3260047Y11077698D01*
X3260045Y11077695D01*
X3204185Y10918057D01*
X3185251Y10750003D01*
X3185251Y10749998D01*
X-5532678Y10749998D01*
X-5476097Y10871337D01*
X-5414937Y11099592D01*
X-5394341Y11335000D01*
X-5414937Y11570408D01*
X-5472472Y11785135D01*
X-5476095Y11798656D01*
X-5476096Y11798657D01*
X-5476097Y11798663D01*
X-5575965Y12012829D01*
X-5578738Y12016789D01*
X-5711504Y12206400D01*
X-5762496Y12257392D01*
X-5833433Y12328329D01*
X-5866916Y12389649D01*
X-5861932Y12459341D01*
X-5820061Y12515275D01*
X-5789085Y12532190D01*
X-5657669Y12581204D01*
X-5552403Y12660006D01*
X-1365244Y12660006D01*
X-1346310Y12491952D01*
X-1290450Y12332314D01*
X-1290448Y12332311D01*
X-1200477Y12189124D01*
X-1200472Y12189118D01*
X-1080886Y12069532D01*
X-1080880Y12069527D01*
X-937693Y11979556D01*
X-937690Y11979554D01*
X-937686Y11979553D01*
X-937685Y11979552D01*
X-865082Y11954148D01*
X-778052Y11923694D01*
X-609998Y11904759D01*
X-609995Y11904759D01*
X-609992Y11904759D01*
X-441939Y11923694D01*
X-441936Y11923695D01*
X-282305Y11979552D01*
X-282303Y11979554D01*
X-282301Y11979554D01*
X-282298Y11979556D01*
X-139111Y12069527D01*
X-139110Y12069528D01*
X-139105Y12069531D01*
X-19518Y12189118D01*
X-8658Y12206401D01*
X51729Y12302506D01*
X7266404Y12302506D01*
X7285338Y12134452D01*
X7341198Y11974814D01*
X7341200Y11974811D01*
X7431171Y11831624D01*
X7431176Y11831618D01*
X7550762Y11712032D01*
X7550768Y11712027D01*
X7693955Y11622056D01*
X7693958Y11622054D01*
X7693962Y11622053D01*
X7693963Y11622052D01*
X7729195Y11609724D01*
X7853596Y11566194D01*
X8021650Y11547259D01*
X8021653Y11547259D01*
X8021656Y11547259D01*
X8189709Y11566194D01*
X8189712Y11566195D01*
X8349343Y11622052D01*
X8349345Y11622054D01*
X8349347Y11622054D01*
X8349350Y11622056D01*
X8492537Y11712027D01*
X8492538Y11712028D01*
X8492543Y11712031D01*
X8612130Y11831618D01*
X8612134Y11831624D01*
X8702105Y11974811D01*
X8702107Y11974814D01*
X8702107Y11974816D01*
X8702109Y11974818D01*
X8757966Y12134449D01*
X8757966Y12134450D01*
X8757967Y12134452D01*
X8776902Y12302506D01*
X8776902Y12302511D01*
X8763664Y12419998D01*
X9014751Y12419998D01*
X9033685Y12251944D01*
X9089545Y12092306D01*
X9089547Y12092303D01*
X9179518Y11949116D01*
X9179523Y11949110D01*
X9299109Y11829524D01*
X9299115Y11829519D01*
X9442302Y11739548D01*
X9442305Y11739546D01*
X9442309Y11739545D01*
X9442310Y11739544D01*
X9514913Y11714140D01*
X9601943Y11683686D01*
X9769997Y11664751D01*
X9770000Y11664751D01*
X9770003Y11664751D01*
X9938056Y11683686D01*
X9938059Y11683687D01*
X10097690Y11739544D01*
X10097692Y11739546D01*
X10097694Y11739546D01*
X10097697Y11739548D01*
X10240884Y11829519D01*
X10240885Y11829520D01*
X10240890Y11829523D01*
X10360477Y11949110D01*
X10376628Y11974814D01*
X10450452Y12092303D01*
X10450454Y12092306D01*
X10450454Y12092308D01*
X10450456Y12092310D01*
X10506313Y12251941D01*
X10506313Y12251942D01*
X10506314Y12251944D01*
X10525249Y12419998D01*
X10525249Y12420003D01*
X10506314Y12588057D01*
X10450454Y12747695D01*
X10450452Y12747698D01*
X10360481Y12890885D01*
X10360476Y12890891D01*
X10240890Y13010477D01*
X10240884Y13010482D01*
X10097697Y13100453D01*
X10097694Y13100455D01*
X9938056Y13156315D01*
X9770003Y13175249D01*
X9769997Y13175249D01*
X9601943Y13156315D01*
X9442305Y13100455D01*
X9442302Y13100453D01*
X9299115Y13010482D01*
X9299109Y13010477D01*
X9179523Y12890891D01*
X9179518Y12890885D01*
X9089547Y12747698D01*
X9089545Y12747695D01*
X9033685Y12588057D01*
X9014751Y12420003D01*
X9014751Y12419998D01*
X8763664Y12419998D01*
X8757967Y12470565D01*
X8702107Y12630203D01*
X8702105Y12630206D01*
X8612134Y12773393D01*
X8612129Y12773399D01*
X8492543Y12892985D01*
X8492537Y12892990D01*
X8349350Y12982961D01*
X8349347Y12982963D01*
X8189709Y13038823D01*
X8021656Y13057757D01*
X8021650Y13057757D01*
X7853596Y13038823D01*
X7693958Y12982963D01*
X7693955Y12982961D01*
X7550768Y12892990D01*
X7550762Y12892985D01*
X7431176Y12773399D01*
X7431171Y12773393D01*
X7341200Y12630206D01*
X7341198Y12630203D01*
X7285338Y12470565D01*
X7266404Y12302511D01*
X7266404Y12302506D01*
X51729Y12302506D01*
X70457Y12332311D01*
X70459Y12332314D01*
X70459Y12332316D01*
X70461Y12332318D01*
X126318Y12491949D01*
X126318Y12491950D01*
X126319Y12491952D01*
X145254Y12660006D01*
X145254Y12660011D01*
X126319Y12828065D01*
X74160Y12977127D01*
X70461Y12987698D01*
X70460Y12987699D01*
X70459Y12987703D01*
X70457Y12987706D01*
X-19514Y13130893D01*
X-19519Y13130899D01*
X-139105Y13250485D01*
X-139111Y13250490D01*
X-282298Y13340461D01*
X-282301Y13340463D01*
X-441939Y13396323D01*
X-609992Y13415257D01*
X-609998Y13415257D01*
X-778052Y13396323D01*
X-937690Y13340463D01*
X-937693Y13340461D01*
X-1080880Y13250490D01*
X-1080886Y13250485D01*
X-1200472Y13130899D01*
X-1200477Y13130893D01*
X-1290448Y12987706D01*
X-1290450Y12987703D01*
X-1346310Y12828065D01*
X-1365244Y12660011D01*
X-1365244Y12660006D01*
X-5552403Y12660006D01*
X-5542454Y12667454D01*
X-5456204Y12782669D01*
X-5405909Y12917517D01*
X-5399500Y12977127D01*
X-5399501Y14094998D01*
X6274751Y14094998D01*
X6293685Y13926944D01*
X6349545Y13767306D01*
X6349547Y13767303D01*
X6439518Y13624116D01*
X6439523Y13624110D01*
X6559109Y13504524D01*
X6559115Y13504519D01*
X6702302Y13414548D01*
X6702305Y13414546D01*
X6702309Y13414545D01*
X6702310Y13414544D01*
X6754383Y13396323D01*
X6861943Y13358686D01*
X7029997Y13339751D01*
X7030000Y13339751D01*
X7030003Y13339751D01*
X7198056Y13358686D01*
X7198059Y13358687D01*
X7357690Y13414544D01*
X7357692Y13414546D01*
X7357694Y13414546D01*
X7357697Y13414548D01*
X7500884Y13504519D01*
X7500885Y13504520D01*
X7500890Y13504523D01*
X7620477Y13624110D01*
X7710452Y13767303D01*
X7710454Y13767306D01*
X7710454Y13767308D01*
X7710456Y13767310D01*
X7766313Y13926941D01*
X7766313Y13926942D01*
X7766314Y13926944D01*
X7785249Y14094998D01*
X7785249Y14095003D01*
X7766314Y14263057D01*
X7710454Y14422695D01*
X7710452Y14422698D01*
X7620481Y14565885D01*
X7620476Y14565891D01*
X7500890Y14685477D01*
X7500884Y14685482D01*
X7357697Y14775453D01*
X7357694Y14775455D01*
X7198056Y14831315D01*
X7030003Y14850249D01*
X7029997Y14850249D01*
X6861943Y14831315D01*
X6702305Y14775455D01*
X6702302Y14775453D01*
X6559115Y14685482D01*
X6559109Y14685477D01*
X6439523Y14565891D01*
X6439518Y14565885D01*
X6349547Y14422698D01*
X6349545Y14422695D01*
X6293685Y14263057D01*
X6274751Y14095003D01*
X6274751Y14094998D01*
X-5399501Y14094998D01*
X-5399501Y14772872D01*
X-5405909Y14832483D01*
X-5420851Y14872544D01*
X-5456203Y14967329D01*
X-5456207Y14967336D01*
X-5542453Y15082545D01*
X-5542456Y15082548D01*
X-5657665Y15168794D01*
X-5657672Y15168798D01*
X-5792518Y15219092D01*
X-5792517Y15219092D01*
X-5852117Y15225499D01*
X-5852119Y15225500D01*
X-5852127Y15225500D01*
X-5852135Y15225500D01*
X-7584465Y15225500D01*
X-7651504Y15245185D01*
X-7697259Y15297989D01*
X-7707203Y15367147D01*
X-7678178Y15430703D01*
X-7639945Y15460395D01*
X-7631707Y15464518D01*
X-7296516Y15628693D01*
X-6897116Y15805887D01*
X-6551574Y15955047D01*
X-6146533Y16112690D01*
X-5792114Y16245919D01*
X-5381819Y16384061D01*
X-5019833Y16500664D01*
X-4604754Y16619292D01*
X-4236414Y16718731D01*
X-3817243Y16817752D01*
X-3443650Y16899625D01*
X-3021006Y16978973D01*
X-2643311Y17042952D01*
X-2217863Y17102554D01*
X-1837106Y17148409D01*
X-1409778Y17188176D01*
X-1026876Y17215760D01*
X-598351Y17235656D01*
X-214430Y17244859D01*
X214428Y17244859D01*
X598351Y17235655D01*
G37*
%TD.AperFunction*%
%TD*%
D16*
X7030000Y14095000D03*
X3940500Y10750000D03*
X-7110000Y-6970000D03*
X-13905000Y-6970000D03*
X11860000Y-11140000D03*
X10830000Y-5010000D03*
X11860000Y-9590000D03*
X10210000Y-12410000D03*
X-13980000Y6630000D03*
X-7100000Y-8160000D03*
X-609995Y12660008D03*
X-570004Y10750002D03*
X5715000Y6710000D03*
D17*
X6850000Y7100000D03*
D16*
X12440000Y-3540000D03*
X12540000Y3740000D03*
X-9760000Y7230000D03*
X-12830000Y-9620000D03*
X-4640000Y2275500D03*
D17*
X3380000Y-11830000D03*
X-2340000Y15155000D03*
X-3020000Y-15680000D03*
D16*
X-7310000Y-12410000D03*
D17*
X-3010000Y-14627247D03*
D16*
X-4640000Y-1163650D03*
X-13980000Y8180000D03*
D17*
X6225000Y-13440000D03*
D16*
X12430000Y960000D03*
X1600000Y0D03*
D17*
X1760000Y-8290000D03*
X-2340000Y8930000D03*
X4560000Y-230000D03*
X2990000Y-15660000D03*
X3000000Y-14630000D03*
D16*
X9770000Y12420000D03*
X-9980000Y4100000D03*
X6370000Y-2740000D03*
X7120000Y-6060000D03*
X7120000Y-4790000D03*
X-7350000Y8180000D03*
X12440000Y7630000D03*
X11545603Y8585103D03*
X10610000Y9510000D03*
X560000Y2110000D03*
X-7440000Y290000D03*
X548736Y1300000D03*
X-7390000Y-2250000D03*
X550000Y460000D03*
X-5680000Y-3520000D03*
X1000000Y-15150000D03*
X8021653Y12302508D03*
X-1000000Y-15150000D03*
D18*
X2900000Y-5770000D03*
X2900000Y-4370000D03*
X2200000Y-6470000D03*
X2200000Y-5070000D03*
X2200000Y-3670000D03*
X1500000Y-5770000D03*
X1500000Y-4370000D03*
X800000Y-6470000D03*
X800000Y-5070000D03*
X800000Y-3670000D03*
X100000Y-5770000D03*
X100000Y-4370000D03*
D17*
X-6750000Y13875000D03*
X-6750000Y11335000D03*
X13145000Y-2790000D03*
X13145000Y210000D03*
D18*
X4960000Y-9900276D03*
X6060000Y-9900276D03*
M02*
