%TF.GenerationSoftware,KiCad,Pcbnew,7.0.6*%
%TF.CreationDate,2023-09-26T22:04:44+02:00*%
%TF.ProjectId,torque_controller,746f7271-7565-45f6-936f-6e74726f6c6c,rev?*%
%TF.SameCoordinates,Original*%
%TF.FileFunction,Copper,L1,Top*%
%TF.FilePolarity,Positive*%
%FSLAX46Y46*%
G04 Gerber Fmt 4.6, Leading zero omitted, Abs format (unit mm)*
G04 Created by KiCad (PCBNEW 7.0.6) date 2023-09-26 22:04:44*
%MOMM*%
%LPD*%
G01*
G04 APERTURE LIST*
G04 Aperture macros list*
%AMRoundRect*
0 Rectangle with rounded corners*
0 $1 Rounding radius*
0 $2 $3 $4 $5 $6 $7 $8 $9 X,Y pos of 4 corners*
0 Add a 4 corners polygon primitive as box body*
4,1,4,$2,$3,$4,$5,$6,$7,$8,$9,$2,$3,0*
0 Add four circle primitives for the rounded corners*
1,1,$1+$1,$2,$3*
1,1,$1+$1,$4,$5*
1,1,$1+$1,$6,$7*
1,1,$1+$1,$8,$9*
0 Add four rect primitives between the rounded corners*
20,1,$1+$1,$2,$3,$4,$5,0*
20,1,$1+$1,$4,$5,$6,$7,0*
20,1,$1+$1,$6,$7,$8,$9,0*
20,1,$1+$1,$8,$9,$2,$3,0*%
G04 Aperture macros list end*
%TA.AperFunction,SMDPad,CuDef*%
%ADD10RoundRect,0.200000X0.275000X-0.200000X0.275000X0.200000X-0.275000X0.200000X-0.275000X-0.200000X0*%
%TD*%
%TA.AperFunction,SMDPad,CuDef*%
%ADD11R,1.000000X1.250000*%
%TD*%
%TA.AperFunction,SMDPad,CuDef*%
%ADD12RoundRect,0.200000X-0.275000X0.200000X-0.275000X-0.200000X0.275000X-0.200000X0.275000X0.200000X0*%
%TD*%
%TA.AperFunction,SMDPad,CuDef*%
%ADD13RoundRect,0.225000X0.250000X-0.225000X0.250000X0.225000X-0.250000X0.225000X-0.250000X-0.225000X0*%
%TD*%
%TA.AperFunction,SMDPad,CuDef*%
%ADD14R,1.500000X0.900000*%
%TD*%
%TA.AperFunction,SMDPad,CuDef*%
%ADD15R,0.900000X1.500000*%
%TD*%
%TA.AperFunction,SMDPad,CuDef*%
%ADD16R,0.900000X0.900000*%
%TD*%
%TA.AperFunction,HeatsinkPad*%
%ADD17C,0.600000*%
%TD*%
%TA.AperFunction,SMDPad,CuDef*%
%ADD18R,3.800000X3.800000*%
%TD*%
%TA.AperFunction,SMDPad,CuDef*%
%ADD19R,0.890000X2.030000*%
%TD*%
%TA.AperFunction,SMDPad,CuDef*%
%ADD20RoundRect,0.225000X-0.250000X0.225000X-0.250000X-0.225000X0.250000X-0.225000X0.250000X0.225000X0*%
%TD*%
%TA.AperFunction,ComponentPad*%
%ADD21R,1.700000X1.700000*%
%TD*%
%TA.AperFunction,ComponentPad*%
%ADD22O,1.700000X1.700000*%
%TD*%
%TA.AperFunction,SMDPad,CuDef*%
%ADD23RoundRect,0.200000X-0.200000X-0.275000X0.200000X-0.275000X0.200000X0.275000X-0.200000X0.275000X0*%
%TD*%
%TA.AperFunction,SMDPad,CuDef*%
%ADD24RoundRect,0.218750X0.218750X0.256250X-0.218750X0.256250X-0.218750X-0.256250X0.218750X-0.256250X0*%
%TD*%
%TA.AperFunction,ComponentPad*%
%ADD25C,0.500000*%
%TD*%
%TA.AperFunction,SMDPad,CuDef*%
%ADD26R,1.600000X0.500000*%
%TD*%
%TA.AperFunction,ViaPad*%
%ADD27C,0.500000*%
%TD*%
%TA.AperFunction,ViaPad*%
%ADD28C,1.000000*%
%TD*%
%TA.AperFunction,Conductor*%
%ADD29C,1.000000*%
%TD*%
%TA.AperFunction,Conductor*%
%ADD30C,0.200000*%
%TD*%
%TA.AperFunction,Conductor*%
%ADD31C,0.300000*%
%TD*%
%TA.AperFunction,Conductor*%
%ADD32C,1.500000*%
%TD*%
%TA.AperFunction,Conductor*%
%ADD33C,0.450000*%
%TD*%
%TA.AperFunction,Conductor*%
%ADD34C,0.250000*%
%TD*%
%ADD35C,0.300000*%
%ADD36C,0.350000*%
%ADD37C,0.200000*%
G04 APERTURE END LIST*
D10*
%TO.P,R3,1*%
%TO.N,Net-(D1-K)*%
X106920500Y-78925000D03*
%TO.P,R3,2*%
%TO.N,+3.3V*%
X106920500Y-77275000D03*
%TD*%
%TO.P,R1,2*%
%TO.N,+3.3V*%
X104082500Y-77305000D03*
%TO.P,R1,1*%
%TO.N,Net-(D1-A)*%
X104082500Y-78955000D03*
%TD*%
D11*
%TO.P,SWRST1,1,1*%
%TO.N,/NRST*%
X115520000Y-96645000D03*
%TO.P,SWRST1,2,2*%
%TO.N,GND*%
X115520000Y-88895000D03*
%TD*%
D12*
%TO.P,RRST1,1*%
%TO.N,+3.3V*%
X113810000Y-97445000D03*
%TO.P,RRST1,2*%
%TO.N,/NRST*%
X113810000Y-99095000D03*
%TD*%
D13*
%TO.P,C1,2*%
%TO.N,+3.3V*%
X108750000Y-77335000D03*
%TO.P,C1,1*%
%TO.N,GND*%
X108750000Y-78885000D03*
%TD*%
D14*
%TO.P,ESP32,1,GND*%
%TO.N,GND*%
X111730000Y-103810000D03*
%TO.P,ESP32,2,VDD*%
%TO.N,+3.3V*%
X111730000Y-102540000D03*
%TO.P,ESP32,3,EN*%
%TO.N,/NRST*%
X111730000Y-101270000D03*
%TO.P,ESP32,4,SENSOR_VP*%
%TO.N,unconnected-(ESP32-SENSOR_VP-Pad4)*%
X111730000Y-100000000D03*
%TO.P,ESP32,5,SENSOR_VN*%
%TO.N,unconnected-(ESP32-SENSOR_VN-Pad5)*%
X111730000Y-98730000D03*
%TO.P,ESP32,6,IO34*%
%TO.N,/CURR_SENS1*%
X111730000Y-97460000D03*
%TO.P,ESP32,7,IO35*%
%TO.N,/CURR_SENS2*%
X111730000Y-96190000D03*
%TO.P,ESP32,8,IO32*%
%TO.N,unconnected-(ESP32-IO32-Pad8)*%
X111730000Y-94920000D03*
%TO.P,ESP32,9,IO33*%
%TO.N,/EN_DRV*%
X111730000Y-93650000D03*
%TO.P,ESP32,10,IO25*%
%TO.N,/PWM_OUT3*%
X111730000Y-92380000D03*
%TO.P,ESP32,11,IO26*%
%TO.N,/PWM_OUT2*%
X111730000Y-91110000D03*
%TO.P,ESP32,12,IO27*%
%TO.N,/PWM_OUT1*%
X111730000Y-89840000D03*
%TO.P,ESP32,13,IO14*%
%TO.N,unconnected-(ESP32-IO14-Pad13)*%
X111730000Y-88570000D03*
%TO.P,ESP32,14,IO12*%
%TO.N,unconnected-(ESP32-IO12-Pad14)*%
X111730000Y-87300000D03*
D15*
%TO.P,ESP32,15,GND*%
%TO.N,GND*%
X108695000Y-86050000D03*
%TO.P,ESP32,16,IO13*%
%TO.N,unconnected-(ESP32-IO13-Pad16)*%
X107425000Y-86050000D03*
%TO.P,ESP32,17,SHD/SD2*%
%TO.N,unconnected-(ESP32-SHD{slash}SD2-Pad17)*%
X106155000Y-86050000D03*
%TO.P,ESP32,18,SWP/SD3*%
%TO.N,unconnected-(ESP32-SWP{slash}SD3-Pad18)*%
X104885000Y-86050000D03*
%TO.P,ESP32,19,SCS/CMD*%
%TO.N,unconnected-(ESP32-SCS{slash}CMD-Pad19)*%
X103615000Y-86050000D03*
%TO.P,ESP32,20,SCK/CLK*%
%TO.N,unconnected-(ESP32-SCK{slash}CLK-Pad20)*%
X102345000Y-86050000D03*
%TO.P,ESP32,21,SDO/SD0*%
%TO.N,unconnected-(ESP32-SDO{slash}SD0-Pad21)*%
X101075000Y-86050000D03*
%TO.P,ESP32,22,SDI/SD1*%
%TO.N,unconnected-(ESP32-SDI{slash}SD1-Pad22)*%
X99805000Y-86050000D03*
%TO.P,ESP32,23,IO15*%
%TO.N,unconnected-(ESP32-IO15-Pad23)*%
X98535000Y-86050000D03*
%TO.P,ESP32,24,IO2*%
%TO.N,unconnected-(ESP32-IO2-Pad24)*%
X97265000Y-86050000D03*
D14*
%TO.P,ESP32,25,IO0*%
%TO.N,/BOOT*%
X94230000Y-87300000D03*
%TO.P,ESP32,26,IO4*%
%TO.N,unconnected-(ESP32-IO4-Pad26)*%
X94230000Y-88570000D03*
%TO.P,ESP32,27,IO16*%
%TO.N,unconnected-(ESP32-IO16-Pad27)*%
X94230000Y-89840000D03*
%TO.P,ESP32,28,IO17*%
%TO.N,/CS*%
X94230000Y-91110000D03*
%TO.P,ESP32,29,IO5*%
%TO.N,unconnected-(ESP32-IO5-Pad29)*%
X94230000Y-92380000D03*
%TO.P,ESP32,30,IO18*%
%TO.N,/CLK*%
X94230000Y-93650000D03*
%TO.P,ESP32,31,IO19*%
%TO.N,/MISO*%
X94230000Y-94920000D03*
%TO.P,ESP32,32,NC*%
%TO.N,unconnected-(ESP32-NC-Pad32)*%
X94230000Y-96190000D03*
%TO.P,ESP32,33,IO21*%
%TO.N,/SDA*%
X94230000Y-97460000D03*
%TO.P,ESP32,34,RXD0/IO3*%
%TO.N,/RX*%
X94230000Y-98730000D03*
%TO.P,ESP32,35,TXD0/IO1*%
%TO.N,/TX*%
X94230000Y-100000000D03*
%TO.P,ESP32,36,IO22*%
%TO.N,/SCL*%
X94230000Y-101270000D03*
%TO.P,ESP32,37,IO23*%
%TO.N,unconnected-(ESP32-IO23-Pad37)*%
X94230000Y-102540000D03*
%TO.P,ESP32,38,GND*%
%TO.N,GND*%
X94230000Y-103810000D03*
D16*
%TO.P,ESP32,39,GND*%
X105880000Y-97870000D03*
D17*
X105880000Y-97170000D03*
D16*
X105880000Y-96470000D03*
D17*
X105880000Y-95770000D03*
D16*
X105880000Y-95070000D03*
D17*
X105180000Y-97870000D03*
X105180000Y-96470000D03*
X105180000Y-95070000D03*
D16*
X104480000Y-97870000D03*
D17*
X104480000Y-97170000D03*
D16*
X104480000Y-96470000D03*
D18*
X104480000Y-96470000D03*
D17*
X104480000Y-95770000D03*
D16*
X104480000Y-95070000D03*
D17*
X103780000Y-97870000D03*
X103780000Y-96470000D03*
X103780000Y-95070000D03*
D16*
X103080000Y-97870000D03*
D17*
X103080000Y-97170000D03*
D16*
X103080000Y-96470000D03*
D17*
X103080000Y-95770000D03*
D16*
X103080000Y-95070000D03*
%TD*%
D19*
%TO.P,J1,1,Pin_1*%
%TO.N,VCC*%
X105980000Y-106550000D03*
%TO.P,J1,2,Pin_2*%
%TO.N,/SDA*%
X103980000Y-106550000D03*
%TO.P,J1,3,Pin_3*%
%TO.N,/SCL*%
X101980000Y-106550000D03*
%TO.P,J1,4,Pin_4*%
%TO.N,GND*%
X99980000Y-106550000D03*
%TD*%
D20*
%TO.P,CESP32,1*%
%TO.N,GND*%
X113810000Y-100990000D03*
%TO.P,CESP32,2*%
%TO.N,+3.3V*%
X113810000Y-102540000D03*
%TD*%
D21*
%TO.P,J3,1,Pin_1*%
%TO.N,/TX*%
X96230000Y-77525000D03*
D22*
%TO.P,J3,2,Pin_2*%
%TO.N,/RX*%
X96230000Y-80065000D03*
%TD*%
D23*
%TO.P,R2,1*%
%TO.N,Net-(D2-A)*%
X99745003Y-78739994D03*
%TO.P,R2,2*%
%TO.N,+3.3V*%
X101395003Y-78739994D03*
%TD*%
D24*
%TO.P,D2,1,K*%
%TO.N,GND*%
X101317500Y-80650000D03*
%TO.P,D2,2,A*%
%TO.N,Net-(D2-A)*%
X99742500Y-80650000D03*
%TD*%
%TO.P,D1,1,K*%
%TO.N,Net-(D1-K)*%
X105657500Y-80650000D03*
%TO.P,D1,2,A*%
%TO.N,Net-(D1-A)*%
X104082500Y-80650000D03*
%TD*%
D25*
%TO.P,U1,7,PAD*%
%TO.N,GND*%
X107940000Y-101300276D03*
D26*
X108490000Y-101300276D03*
D25*
X109040000Y-101300276D03*
%TD*%
D27*
%TO.N,+3.3V*%
X110010000Y-77305000D03*
%TO.N,Net-(D1-K)*%
X106920500Y-80650000D03*
%TO.N,/CURR_SENS1*%
X95870000Y-98370000D03*
%TO.N,+3.3V*%
X89075000Y-98370000D03*
X114840000Y-102540000D03*
X113810000Y-96410000D03*
%TO.N,GND*%
X114840000Y-100990000D03*
X113190000Y-103810000D03*
X89000000Y-84770000D03*
X95880000Y-99560000D03*
%TO.N,+3.3V*%
X102370005Y-78739992D03*
%TO.N,GND*%
X102409996Y-80649998D03*
X108695000Y-84690000D03*
D28*
X109830000Y-84300000D03*
D27*
X115420000Y-94940000D03*
X115520000Y-87660000D03*
X93220000Y-84170000D03*
X90150000Y-101020000D03*
X98340000Y-89124500D03*
D28*
X106360000Y-103230000D03*
X100640000Y-76245000D03*
X99960000Y-107080000D03*
D27*
X95670000Y-103810000D03*
D28*
X99970000Y-106027247D03*
D27*
%TO.N,+3.3V*%
X98340000Y-92563650D03*
X89000000Y-83220000D03*
D28*
X109205000Y-104840000D03*
D27*
X115410000Y-90440000D03*
X104580000Y-91400000D03*
D28*
%TO.N,VCC*%
X104740000Y-99690000D03*
X100640000Y-82470000D03*
X107540000Y-91630000D03*
X105970000Y-107060000D03*
X105980000Y-106030000D03*
D27*
%TO.N,/EN_DRV*%
X112750000Y-78980000D03*
%TO.N,/BOOT*%
X93000000Y-87300000D03*
X109350000Y-94140000D03*
%TO.N,/CURR_SENS1*%
X110100000Y-97460000D03*
%TO.N,/CURR_SENS2*%
X110100000Y-96190000D03*
X95630000Y-83220000D03*
%TO.N,/PWM_OUT1*%
X115420000Y-83770000D03*
%TO.N,/PWM_OUT2*%
X114525603Y-82814897D03*
%TO.N,/PWM_OUT3*%
X113590000Y-81890000D03*
%TO.N,/CS*%
X103540000Y-89290000D03*
X95540000Y-91110000D03*
%TO.N,/CLK*%
X103528736Y-90100000D03*
X95590000Y-93650000D03*
%TO.N,/MISO*%
X103530000Y-90940000D03*
X97300000Y-94920000D03*
%TO.N,/SDA*%
X103980000Y-106550000D03*
%TO.N,Net-(D1-K)*%
X111001653Y-79097492D03*
%TO.N,/SCL*%
X101980000Y-106550000D03*
%TD*%
D29*
%TO.N,VCC*%
X101770000Y-93090000D02*
X99700000Y-95160000D01*
X105970000Y-91630000D02*
X104510000Y-93090000D01*
X104510000Y-93090000D02*
X101770000Y-93090000D01*
X107540000Y-91630000D02*
X105970000Y-91630000D01*
D30*
%TO.N,Net-(D1-K)*%
X106920500Y-78925000D02*
X106920500Y-80650000D01*
%TO.N,GND*%
X108750000Y-83220000D02*
X109830000Y-84300000D01*
X108750000Y-78885000D02*
X108750000Y-83220000D01*
D31*
%TO.N,+3.3V*%
X110010000Y-77305000D02*
X104000000Y-77305000D01*
%TO.N,Net-(D1-K)*%
X105657500Y-80650000D02*
X106920500Y-80650000D01*
%TO.N,Net-(D1-A)*%
X104082500Y-78955000D02*
X104082500Y-80650000D01*
D30*
%TO.N,/NRST*%
X112680000Y-101270000D02*
X111730000Y-101270000D01*
X112910000Y-101040000D02*
X112680000Y-101270000D01*
X113135000Y-99095000D02*
X112910000Y-99320000D01*
X113810000Y-99095000D02*
X113135000Y-99095000D01*
X112910000Y-99320000D02*
X112910000Y-101040000D01*
D32*
%TO.N,VCC*%
X100790000Y-96710000D02*
X100790000Y-100080000D01*
X96920000Y-92840000D02*
X100790000Y-96710000D01*
X96920000Y-88540000D02*
X96920000Y-92840000D01*
X96910000Y-88530000D02*
X96920000Y-88540000D01*
D33*
%TO.N,+3.3V*%
X113810000Y-102540000D02*
X114840000Y-102540000D01*
D30*
%TO.N,/NRST*%
X115105000Y-99095000D02*
X113810000Y-99095000D01*
X115520000Y-98680000D02*
X115105000Y-99095000D01*
X115520000Y-96645000D02*
X115520000Y-98680000D01*
%TO.N,+3.3V*%
X113810000Y-97445000D02*
X113810000Y-96410000D01*
D33*
%TO.N,GND*%
X113810000Y-100990000D02*
X114840000Y-100990000D01*
X111730000Y-103810000D02*
X113190000Y-103810000D01*
%TO.N,+3.3V*%
X113810000Y-102540000D02*
X111730000Y-102540000D01*
D29*
%TO.N,VCC*%
X95994814Y-87614814D02*
X96910000Y-88530000D01*
X98220000Y-82470000D02*
X95994814Y-84695186D01*
X95994814Y-84695186D02*
X95994814Y-87614814D01*
X100640000Y-82470000D02*
X98220000Y-82470000D01*
D31*
%TO.N,+3.3V*%
X101395003Y-78740009D02*
X102370005Y-78739992D01*
%TO.N,GND*%
X101317505Y-80650007D02*
X102409996Y-80649998D01*
D30*
%TO.N,Net-(D2-A)*%
X99745003Y-80647503D02*
X99742509Y-80650002D01*
D31*
X99745016Y-78739994D02*
X99745003Y-80647503D01*
D30*
%TO.N,/EN_DRV*%
X109870000Y-86345966D02*
X109870000Y-92570000D01*
X111975000Y-84240964D02*
X109870000Y-86345966D01*
X112750000Y-78980000D02*
X111975000Y-79755000D01*
X111975000Y-79755000D02*
X111975000Y-84240964D01*
X109870000Y-92570000D02*
X110950000Y-93650000D01*
X110950000Y-93650000D02*
X111730000Y-93650000D01*
%TO.N,GND*%
X115520000Y-87660000D02*
X115520000Y-88895000D01*
D31*
X95670000Y-103810000D02*
X94230000Y-103810000D01*
X108695000Y-84690000D02*
X108695000Y-86050000D01*
D32*
%TO.N,VCC*%
X105970000Y-105260000D02*
X105970000Y-107060000D01*
D29*
X104740000Y-99690000D02*
X101180000Y-99690000D01*
D32*
X100790000Y-100080000D02*
X105970000Y-105260000D01*
D29*
X101180000Y-99690000D02*
X100790000Y-100080000D01*
D30*
%TO.N,/TX*%
X91500000Y-99400000D02*
X92100000Y-100000000D01*
X95808655Y-77525000D02*
X91500000Y-81833655D01*
X92100000Y-100000000D02*
X94230000Y-100000000D01*
X96230000Y-77525000D02*
X95808655Y-77525000D01*
X91500000Y-81833655D02*
X91500000Y-99400000D01*
%TO.N,/RX*%
X91900000Y-98410000D02*
X91900000Y-81999341D01*
X92220000Y-98730000D02*
X91900000Y-98410000D01*
X93834341Y-80065000D02*
X96230000Y-80065000D01*
X94230000Y-98730000D02*
X92220000Y-98730000D01*
X91900000Y-81999341D02*
X93834341Y-80065000D01*
%TO.N,/BOOT*%
X94230000Y-87300000D02*
X93000000Y-87300000D01*
D34*
%TO.N,/CURR_SENS1*%
X110100000Y-97460000D02*
X111730000Y-97460000D01*
%TO.N,/CURR_SENS2*%
X110100000Y-96190000D02*
X111730000Y-96190000D01*
D30*
%TO.N,/PWM_OUT1*%
X113050000Y-86140000D02*
X113050000Y-89050000D01*
X113050000Y-89050000D02*
X112260000Y-89840000D01*
X112260000Y-89840000D02*
X111730000Y-89840000D01*
X115420000Y-83770000D02*
X113050000Y-86140000D01*
%TO.N,/PWM_OUT2*%
X114525603Y-82814897D02*
X114525603Y-82821733D01*
X110670000Y-90850000D02*
X110930000Y-91110000D01*
X110930000Y-91110000D02*
X111730000Y-91110000D01*
X114525603Y-82821733D02*
X110670000Y-86677336D01*
X110670000Y-86677336D02*
X110670000Y-90850000D01*
%TO.N,/PWM_OUT3*%
X110940000Y-92380000D02*
X111730000Y-92380000D01*
X110270000Y-91710000D02*
X110940000Y-92380000D01*
X113590000Y-81890000D02*
X113590000Y-83191650D01*
X110270000Y-86511651D02*
X110270000Y-91710000D01*
X113590000Y-83191650D02*
X110270000Y-86511651D01*
%TO.N,/CS*%
X95540000Y-91110000D02*
X94230000Y-91110000D01*
%TO.N,/CLK*%
X95590000Y-93650000D02*
X94230000Y-93650000D01*
%TO.N,/MISO*%
X97300000Y-94920000D02*
X94230000Y-94920000D01*
%TO.N,/SDA*%
X103980000Y-105190000D02*
X96250000Y-97460000D01*
X96250000Y-97460000D02*
X94230000Y-97460000D01*
X103980000Y-106550000D02*
X103980000Y-105190000D01*
%TO.N,/SCL*%
X101980000Y-106550000D02*
X101980000Y-105190000D01*
X101980000Y-105190000D02*
X98060000Y-101270000D01*
X98060000Y-101270000D02*
X94230000Y-101270000D01*
%TD*%
%TA.AperFunction,Conductor*%
%TO.N,Net-(D1-K)*%
G36*
X107017704Y-80153427D02*
G01*
X107021113Y-80161052D01*
X107026313Y-80254804D01*
X107043179Y-80327582D01*
X107070237Y-80388392D01*
X107106548Y-80457151D01*
X107106686Y-80457429D01*
X107146379Y-80543312D01*
X107146739Y-80552260D01*
X107140667Y-80558842D01*
X107140275Y-80559014D01*
X106925017Y-80649109D01*
X106916063Y-80649142D01*
X106915983Y-80649109D01*
X106700724Y-80559014D01*
X106694415Y-80552658D01*
X106694448Y-80543704D01*
X106694620Y-80543313D01*
X106734312Y-80457429D01*
X106734450Y-80457151D01*
X106770762Y-80388392D01*
X106797819Y-80327582D01*
X106814685Y-80254804D01*
X106819887Y-80161052D01*
X106823767Y-80152981D01*
X106831569Y-80150000D01*
X107009431Y-80150000D01*
X107017704Y-80153427D01*
G37*
%TD.AperFunction*%
%TD*%
%TA.AperFunction,Conductor*%
%TO.N,Net-(D1-K)*%
G36*
X106928247Y-78930844D02*
G01*
X107310946Y-79268952D01*
X107314877Y-79276998D01*
X107311967Y-79285467D01*
X107311271Y-79286189D01*
X107260502Y-79334580D01*
X107260495Y-79334587D01*
X107200515Y-79407919D01*
X107200497Y-79407943D01*
X107140499Y-79497461D01*
X107080499Y-79603148D01*
X107023716Y-79718468D01*
X107016986Y-79724377D01*
X107013219Y-79725000D01*
X106827781Y-79725000D01*
X106819508Y-79721573D01*
X106817284Y-79718468D01*
X106760501Y-79603148D01*
X106700501Y-79497461D01*
X106640502Y-79407943D01*
X106640484Y-79407919D01*
X106580504Y-79334587D01*
X106580497Y-79334580D01*
X106529728Y-79286189D01*
X106526103Y-79278001D01*
X106529331Y-79269648D01*
X106530053Y-79268952D01*
X106912753Y-78930844D01*
X106921222Y-78927934D01*
X106928247Y-78930844D01*
G37*
%TD.AperFunction*%
%TD*%
%TA.AperFunction,Conductor*%
%TO.N,GND*%
G36*
X109201800Y-83528896D02*
G01*
X109360678Y-83659038D01*
X109360681Y-83659040D01*
X109502421Y-83719866D01*
X109502420Y-83719866D01*
X109643389Y-83743849D01*
X109807303Y-83770043D01*
X109809007Y-83770448D01*
X110009232Y-83834204D01*
X110016075Y-83839979D01*
X110016830Y-83848902D01*
X110016500Y-83849809D01*
X109832563Y-84296202D01*
X109826242Y-84302546D01*
X109826202Y-84302563D01*
X109379809Y-84486500D01*
X109370855Y-84486483D01*
X109364534Y-84480139D01*
X109364204Y-84479232D01*
X109300448Y-84279007D01*
X109300043Y-84277303D01*
X109273849Y-84113389D01*
X109249866Y-83972420D01*
X109189040Y-83830681D01*
X109189038Y-83830678D01*
X109058896Y-83671800D01*
X109056304Y-83663228D01*
X109059674Y-83656113D01*
X109186113Y-83529674D01*
X109194386Y-83526247D01*
X109201800Y-83528896D01*
G37*
%TD.AperFunction*%
%TD*%
%TA.AperFunction,Conductor*%
%TO.N,GND*%
G36*
X108756834Y-78888919D02*
G01*
X109189208Y-79200118D01*
X109193921Y-79207732D01*
X109191869Y-79216449D01*
X109190922Y-79217601D01*
X109130005Y-79282802D01*
X109129996Y-79282813D01*
X109059993Y-79377993D01*
X108989998Y-79493411D01*
X108919998Y-79629083D01*
X108919999Y-79629082D01*
X108853101Y-79778092D01*
X108846586Y-79784236D01*
X108842427Y-79785000D01*
X108657573Y-79785000D01*
X108649300Y-79781573D01*
X108646899Y-79778092D01*
X108580000Y-79629082D01*
X108580001Y-79629083D01*
X108510001Y-79493411D01*
X108440004Y-79377993D01*
X108370001Y-79282813D01*
X108369992Y-79282802D01*
X108309076Y-79217601D01*
X108305932Y-79209217D01*
X108309638Y-79201065D01*
X108310790Y-79200118D01*
X108743164Y-78888919D01*
X108751881Y-78886867D01*
X108756834Y-78888919D01*
G37*
%TD.AperFunction*%
%TD*%
%TA.AperFunction,Conductor*%
%TO.N,+3.3V*%
G36*
X109912559Y-77078446D02*
G01*
X109918797Y-77084706D01*
X110009109Y-77300483D01*
X110009142Y-77309437D01*
X110009109Y-77309517D01*
X109918797Y-77525293D01*
X109912441Y-77531602D01*
X109903604Y-77531617D01*
X109818927Y-77497250D01*
X109749108Y-77473385D01*
X109749099Y-77473383D01*
X109686531Y-77460777D01*
X109612934Y-77455846D01*
X109521604Y-77455095D01*
X109513359Y-77451600D01*
X109510000Y-77443395D01*
X109510000Y-77166604D01*
X109513427Y-77158331D01*
X109521604Y-77154904D01*
X109612934Y-77154153D01*
X109686533Y-77149221D01*
X109686548Y-77149219D01*
X109749084Y-77136618D01*
X109749108Y-77136612D01*
X109818921Y-77112750D01*
X109818920Y-77112750D01*
X109903604Y-77078382D01*
X109912559Y-77078446D01*
G37*
%TD.AperFunction*%
%TD*%
%TA.AperFunction,Conductor*%
%TO.N,+3.3V*%
G36*
X104442499Y-76926444D02*
G01*
X104538726Y-76997177D01*
X104643418Y-77059131D01*
X104643427Y-77059136D01*
X104748107Y-77106086D01*
X104852803Y-77138042D01*
X104852814Y-77138045D01*
X104947671Y-77153409D01*
X104955289Y-77158114D01*
X104957500Y-77164958D01*
X104957500Y-77445042D01*
X104954073Y-77453315D01*
X104947670Y-77456592D01*
X104852803Y-77471956D01*
X104748107Y-77503912D01*
X104643427Y-77550862D01*
X104643418Y-77550867D01*
X104538726Y-77612821D01*
X104442499Y-77683555D01*
X104433803Y-77685694D01*
X104426942Y-77682032D01*
X104088741Y-77312904D01*
X104085679Y-77304489D01*
X104088741Y-77297096D01*
X104426942Y-76927967D01*
X104435058Y-76924182D01*
X104442499Y-76926444D01*
G37*
%TD.AperFunction*%
%TD*%
%TA.AperFunction,Conductor*%
%TO.N,Net-(D1-K)*%
G36*
X106823059Y-80423446D02*
G01*
X106829297Y-80429706D01*
X106919609Y-80645483D01*
X106919642Y-80654437D01*
X106919609Y-80654517D01*
X106829297Y-80870293D01*
X106822941Y-80876602D01*
X106814104Y-80876617D01*
X106729427Y-80842250D01*
X106659608Y-80818385D01*
X106659599Y-80818383D01*
X106597031Y-80805777D01*
X106523434Y-80800846D01*
X106432104Y-80800095D01*
X106423859Y-80796600D01*
X106420500Y-80788395D01*
X106420500Y-80511604D01*
X106423927Y-80503331D01*
X106432104Y-80499904D01*
X106523434Y-80499153D01*
X106597033Y-80494221D01*
X106597048Y-80494219D01*
X106659584Y-80481618D01*
X106659608Y-80481612D01*
X106729421Y-80457750D01*
X106729420Y-80457750D01*
X106814104Y-80423382D01*
X106823059Y-80423446D01*
G37*
%TD.AperFunction*%
%TD*%
%TA.AperFunction,Conductor*%
%TO.N,Net-(D1-K)*%
G36*
X106000083Y-80220098D02*
G01*
X106000550Y-80220475D01*
X106099437Y-80304503D01*
X106207698Y-80379249D01*
X106315963Y-80436748D01*
X106424230Y-80476998D01*
X106523231Y-80498030D01*
X106530612Y-80503102D01*
X106532500Y-80509475D01*
X106532500Y-80790524D01*
X106529073Y-80798797D01*
X106523231Y-80801969D01*
X106424230Y-80823000D01*
X106315963Y-80863250D01*
X106207698Y-80920749D01*
X106099437Y-80995495D01*
X106000550Y-81079524D01*
X105992027Y-81082270D01*
X105984058Y-81078184D01*
X105983681Y-81077717D01*
X105661938Y-80657109D01*
X105659633Y-80648455D01*
X105661938Y-80642891D01*
X105983681Y-80222282D01*
X105991429Y-80217793D01*
X106000083Y-80220098D01*
G37*
%TD.AperFunction*%
%TD*%
%TA.AperFunction,Conductor*%
%TO.N,Net-(D1-A)*%
G36*
X104090247Y-78960844D02*
G01*
X104473947Y-79299837D01*
X104477878Y-79307883D01*
X104475159Y-79316130D01*
X104432502Y-79366911D01*
X104382503Y-79441429D01*
X104332498Y-79530959D01*
X104282504Y-79635468D01*
X104235506Y-79747815D01*
X104229151Y-79754125D01*
X104224712Y-79755000D01*
X103940288Y-79755000D01*
X103932015Y-79751573D01*
X103929494Y-79747815D01*
X103882495Y-79635468D01*
X103832501Y-79530959D01*
X103782496Y-79441429D01*
X103732496Y-79366911D01*
X103689839Y-79316130D01*
X103687142Y-79307592D01*
X103691051Y-79299837D01*
X104074753Y-78960844D01*
X104083222Y-78957934D01*
X104090247Y-78960844D01*
G37*
%TD.AperFunction*%
%TD*%
%TA.AperFunction,Conductor*%
%TO.N,Net-(D1-A)*%
G36*
X104232577Y-79740927D02*
G01*
X104235300Y-79745203D01*
X104286669Y-79886507D01*
X104340834Y-80018255D01*
X104395012Y-80132778D01*
X104395012Y-80132777D01*
X104449179Y-80230030D01*
X104449179Y-80230031D01*
X104497328Y-80301147D01*
X104499129Y-80309918D01*
X104495005Y-80316797D01*
X104089865Y-80645033D01*
X104081280Y-80647578D01*
X104075135Y-80645033D01*
X103669993Y-80316797D01*
X103665722Y-80308926D01*
X103667670Y-80301146D01*
X103715820Y-80230031D01*
X103715820Y-80230030D01*
X103769987Y-80132777D01*
X103769987Y-80132778D01*
X103824165Y-80018255D01*
X103878330Y-79886507D01*
X103929700Y-79745203D01*
X103935747Y-79738598D01*
X103940696Y-79737500D01*
X104224304Y-79737500D01*
X104232577Y-79740927D01*
G37*
%TD.AperFunction*%
%TD*%
%TA.AperFunction,Conductor*%
%TO.N,/NRST*%
G36*
X112486462Y-100826600D02*
G01*
X112541207Y-100882517D01*
X112602427Y-100934035D01*
X112663637Y-100974536D01*
X112663646Y-100974540D01*
X112724839Y-101004024D01*
X112724855Y-101004030D01*
X112783253Y-101021663D01*
X112788144Y-101024591D01*
X112916641Y-101153088D01*
X112920068Y-101161361D01*
X112916641Y-101169634D01*
X112914161Y-101171526D01*
X112837988Y-101214932D01*
X112748500Y-101284839D01*
X112748486Y-101284851D01*
X112658999Y-101373670D01*
X112658980Y-101373690D01*
X112569493Y-101481422D01*
X112485560Y-101600204D01*
X112477987Y-101604983D01*
X112471209Y-101604124D01*
X111749715Y-101279884D01*
X111743574Y-101273367D01*
X111743839Y-101264416D01*
X111748489Y-101259181D01*
X112472080Y-100824754D01*
X112480937Y-100823434D01*
X112486462Y-100826600D01*
G37*
%TD.AperFunction*%
%TD*%
%TA.AperFunction,Conductor*%
%TO.N,/NRST*%
G36*
X113397227Y-98768986D02*
G01*
X113800807Y-99086504D01*
X113805191Y-99094312D01*
X113802768Y-99102933D01*
X113802210Y-99103591D01*
X113465696Y-99471859D01*
X113457586Y-99475655D01*
X113449947Y-99473257D01*
X113379624Y-99419425D01*
X113300790Y-99371987D01*
X113221968Y-99337463D01*
X113221950Y-99337457D01*
X113143125Y-99315841D01*
X113143115Y-99315839D01*
X113068373Y-99307583D01*
X113061385Y-99304227D01*
X112934530Y-99177372D01*
X112931103Y-99169099D01*
X112934530Y-99160826D01*
X112937729Y-99158557D01*
X113015905Y-99120929D01*
X113015913Y-99120925D01*
X113108951Y-99058146D01*
X113202006Y-98977353D01*
X113202010Y-98977350D01*
X113295043Y-98878580D01*
X113380842Y-98770890D01*
X113388678Y-98766555D01*
X113397227Y-98768986D01*
G37*
%TD.AperFunction*%
%TD*%
%TA.AperFunction,Conductor*%
%TO.N,+3.3V*%
G36*
X114154940Y-102112271D02*
G01*
X114263885Y-102175702D01*
X114263888Y-102175703D01*
X114381643Y-102230767D01*
X114381667Y-102230777D01*
X114499438Y-102272348D01*
X114499458Y-102272354D01*
X114617230Y-102300427D01*
X114617229Y-102300427D01*
X114724737Y-102313730D01*
X114732527Y-102318146D01*
X114735000Y-102325341D01*
X114735000Y-102754658D01*
X114731573Y-102762931D01*
X114724737Y-102766269D01*
X114617230Y-102779571D01*
X114499458Y-102807644D01*
X114499438Y-102807650D01*
X114381667Y-102849221D01*
X114381643Y-102849231D01*
X114263888Y-102904295D01*
X114263885Y-102904296D01*
X114154940Y-102967728D01*
X114146066Y-102968929D01*
X114139822Y-102964806D01*
X113814598Y-102547189D01*
X113812218Y-102538556D01*
X113814598Y-102532811D01*
X114139822Y-102115193D01*
X114147609Y-102110771D01*
X114154940Y-102112271D01*
G37*
%TD.AperFunction*%
%TD*%
%TA.AperFunction,Conductor*%
%TO.N,/NRST*%
G36*
X114170149Y-98717850D02*
G01*
X114266226Y-98802930D01*
X114266243Y-98802943D01*
X114370914Y-98877760D01*
X114370931Y-98877770D01*
X114475602Y-98934715D01*
X114475618Y-98934723D01*
X114580305Y-98973798D01*
X114580313Y-98973800D01*
X114675621Y-98993100D01*
X114683050Y-98998100D01*
X114684999Y-99004567D01*
X114684999Y-99185431D01*
X114681572Y-99193704D01*
X114675621Y-99196898D01*
X114580313Y-99216198D01*
X114580305Y-99216200D01*
X114475618Y-99255275D01*
X114475602Y-99255283D01*
X114370931Y-99312228D01*
X114370914Y-99312238D01*
X114266243Y-99387055D01*
X114266226Y-99387068D01*
X114170149Y-99472149D01*
X114161683Y-99475069D01*
X114153765Y-99471294D01*
X113816241Y-99102904D01*
X113813179Y-99094489D01*
X113816241Y-99087096D01*
X114153765Y-98718705D01*
X114161881Y-98714920D01*
X114170149Y-98717850D01*
G37*
%TD.AperFunction*%
%TD*%
%TA.AperFunction,Conductor*%
%TO.N,/NRST*%
G36*
X115527302Y-96653605D02*
G01*
X115529142Y-96655445D01*
X116012566Y-97260692D01*
X116015051Y-97269295D01*
X116010726Y-97277136D01*
X116010561Y-97277265D01*
X115940000Y-97331580D01*
X115859997Y-97412373D01*
X115779998Y-97512373D01*
X115779997Y-97512373D01*
X115699997Y-97631585D01*
X115623378Y-97764155D01*
X115616271Y-97769603D01*
X115613248Y-97770000D01*
X115426752Y-97770000D01*
X115418479Y-97766573D01*
X115416622Y-97764155D01*
X115340003Y-97631585D01*
X115340002Y-97631585D01*
X115260002Y-97512373D01*
X115260001Y-97512373D01*
X115180001Y-97412373D01*
X115099998Y-97331580D01*
X115029438Y-97277265D01*
X115024973Y-97269503D01*
X115027304Y-97260857D01*
X115027433Y-97260692D01*
X115510858Y-96655445D01*
X115518699Y-96651120D01*
X115527302Y-96653605D01*
G37*
%TD.AperFunction*%
%TD*%
%TA.AperFunction,Conductor*%
%TO.N,+3.3V*%
G36*
X113814517Y-96410890D02*
G01*
X114029774Y-96500985D01*
X114036083Y-96507341D01*
X114036050Y-96516295D01*
X114035878Y-96516687D01*
X113996182Y-96602575D01*
X113996044Y-96602853D01*
X113959737Y-96671607D01*
X113932679Y-96732416D01*
X113915813Y-96805194D01*
X113910613Y-96898948D01*
X113906733Y-96907019D01*
X113898931Y-96910000D01*
X113721069Y-96910000D01*
X113712796Y-96906573D01*
X113709387Y-96898948D01*
X113704185Y-96805194D01*
X113687319Y-96732416D01*
X113660262Y-96671607D01*
X113623950Y-96602846D01*
X113623812Y-96602568D01*
X113584120Y-96516687D01*
X113583760Y-96507739D01*
X113589832Y-96501157D01*
X113590224Y-96500985D01*
X113805483Y-96410890D01*
X113814437Y-96410857D01*
X113814517Y-96410890D01*
G37*
%TD.AperFunction*%
%TD*%
%TA.AperFunction,Conductor*%
%TO.N,+3.3V*%
G36*
X113910992Y-96648427D02*
G01*
X113913216Y-96651532D01*
X113969998Y-96766851D01*
X114029998Y-96872538D01*
X114089996Y-96962055D01*
X114090006Y-96962068D01*
X114149997Y-97035413D01*
X114200770Y-97083809D01*
X114204394Y-97091998D01*
X114201166Y-97100351D01*
X114200444Y-97101046D01*
X113817746Y-97439155D01*
X113809277Y-97442065D01*
X113802252Y-97439155D01*
X113419553Y-97101046D01*
X113415622Y-97093000D01*
X113418532Y-97084531D01*
X113419228Y-97083809D01*
X113469996Y-97035418D01*
X113529991Y-96962068D01*
X113530001Y-96962055D01*
X113590000Y-96872538D01*
X113649992Y-96766864D01*
X113706784Y-96651531D01*
X113713513Y-96645623D01*
X113717280Y-96645000D01*
X113902719Y-96645000D01*
X113910992Y-96648427D01*
G37*
%TD.AperFunction*%
%TD*%
%TA.AperFunction,Conductor*%
%TO.N,GND*%
G36*
X114154940Y-100562271D02*
G01*
X114263885Y-100625702D01*
X114263888Y-100625703D01*
X114381643Y-100680767D01*
X114381667Y-100680777D01*
X114499438Y-100722348D01*
X114499458Y-100722354D01*
X114617230Y-100750427D01*
X114617229Y-100750427D01*
X114724737Y-100763730D01*
X114732527Y-100768146D01*
X114735000Y-100775341D01*
X114735000Y-101204658D01*
X114731573Y-101212931D01*
X114724737Y-101216269D01*
X114617230Y-101229571D01*
X114499458Y-101257644D01*
X114499438Y-101257650D01*
X114381667Y-101299221D01*
X114381643Y-101299231D01*
X114263888Y-101354295D01*
X114263885Y-101354296D01*
X114154940Y-101417728D01*
X114146066Y-101418929D01*
X114139822Y-101414806D01*
X113814598Y-100997189D01*
X113812218Y-100988556D01*
X113814598Y-100982811D01*
X114139822Y-100565193D01*
X114147609Y-100560771D01*
X114154940Y-100562271D01*
G37*
%TD.AperFunction*%
%TD*%
%TA.AperFunction,Conductor*%
%TO.N,GND*%
G36*
X112486348Y-103365078D02*
G01*
X112569998Y-103431998D01*
X112570005Y-103432004D01*
X112659989Y-103490493D01*
X112659996Y-103490497D01*
X112749999Y-103535499D01*
X112839998Y-103566999D01*
X112920594Y-103583118D01*
X112928035Y-103588101D01*
X112930000Y-103594591D01*
X112930000Y-104025408D01*
X112926573Y-104033681D01*
X112920595Y-104036881D01*
X112839997Y-104053000D01*
X112749999Y-104084500D01*
X112659996Y-104129502D01*
X112659989Y-104129506D01*
X112570005Y-104187995D01*
X112569998Y-104188001D01*
X112486348Y-104254921D01*
X112477747Y-104257413D01*
X112473025Y-104255821D01*
X111745748Y-103820036D01*
X111740413Y-103812844D01*
X111741726Y-103803986D01*
X111745748Y-103799964D01*
X112473025Y-103364178D01*
X112481883Y-103362865D01*
X112486348Y-103365078D01*
G37*
%TD.AperFunction*%
%TD*%
%TA.AperFunction,Conductor*%
%TO.N,+3.3V*%
G36*
X112486348Y-102095078D02*
G01*
X112569998Y-102161998D01*
X112570005Y-102162004D01*
X112659989Y-102220493D01*
X112659996Y-102220497D01*
X112749999Y-102265499D01*
X112839998Y-102296999D01*
X112920594Y-102313118D01*
X112928035Y-102318101D01*
X112930000Y-102324591D01*
X112930000Y-102755408D01*
X112926573Y-102763681D01*
X112920595Y-102766881D01*
X112839997Y-102783000D01*
X112749999Y-102814500D01*
X112659996Y-102859502D01*
X112659989Y-102859506D01*
X112570005Y-102917995D01*
X112569998Y-102918001D01*
X112486348Y-102984921D01*
X112477747Y-102987413D01*
X112473025Y-102985821D01*
X111745748Y-102550036D01*
X111740413Y-102542844D01*
X111741726Y-102533986D01*
X111745748Y-102529964D01*
X112473025Y-102094178D01*
X112481883Y-102092865D01*
X112486348Y-102095078D01*
G37*
%TD.AperFunction*%
%TD*%
%TA.AperFunction,Conductor*%
%TO.N,+3.3V*%
G36*
X113480177Y-102115193D02*
G01*
X113805401Y-102532811D01*
X113807781Y-102541444D01*
X113805401Y-102547189D01*
X113480177Y-102964806D01*
X113472390Y-102969228D01*
X113465059Y-102967728D01*
X113356113Y-102904296D01*
X113356110Y-102904295D01*
X113238355Y-102849231D01*
X113238331Y-102849221D01*
X113120560Y-102807650D01*
X113120540Y-102807644D01*
X113002768Y-102779571D01*
X113002769Y-102779571D01*
X112895263Y-102766269D01*
X112887473Y-102761853D01*
X112885000Y-102754658D01*
X112885000Y-102325341D01*
X112888427Y-102317068D01*
X112895263Y-102313730D01*
X113002768Y-102300427D01*
X113120540Y-102272354D01*
X113120560Y-102272348D01*
X113238331Y-102230777D01*
X113238355Y-102230767D01*
X113356110Y-102175703D01*
X113356113Y-102175702D01*
X113465059Y-102112271D01*
X113473933Y-102111070D01*
X113480177Y-102115193D01*
G37*
%TD.AperFunction*%
%TD*%
%TA.AperFunction,Conductor*%
%TO.N,+3.3V*%
G36*
X102272564Y-78513438D02*
G01*
X102278802Y-78519698D01*
X102369113Y-78735475D01*
X102369146Y-78744430D01*
X102369113Y-78744509D01*
X102278802Y-78960285D01*
X102272447Y-78966594D01*
X102263609Y-78966609D01*
X102178932Y-78932243D01*
X102109114Y-78908379D01*
X102109105Y-78908377D01*
X102046538Y-78895773D01*
X101972941Y-78890844D01*
X101881612Y-78890095D01*
X101873367Y-78886600D01*
X101870008Y-78878395D01*
X101870004Y-78601605D01*
X101873431Y-78593332D01*
X101881607Y-78589905D01*
X101972938Y-78589152D01*
X102046544Y-78584217D01*
X102109099Y-78571610D01*
X102178931Y-78547741D01*
X102263609Y-78513374D01*
X102272564Y-78513438D01*
G37*
%TD.AperFunction*%
%TD*%
%TA.AperFunction,Conductor*%
%TO.N,+3.3V*%
G36*
X101756120Y-78347790D02*
G01*
X101756169Y-78347834D01*
X101836914Y-78419992D01*
X101926432Y-78484990D01*
X102015956Y-78534994D01*
X102105480Y-78569996D01*
X102185851Y-78587952D01*
X102193178Y-78593100D01*
X102195000Y-78599370D01*
X102195004Y-78880619D01*
X102191577Y-78888892D01*
X102185855Y-78892037D01*
X102105484Y-78909992D01*
X102015959Y-78944994D01*
X101926433Y-78994997D01*
X101836914Y-79059995D01*
X101756168Y-79132153D01*
X101747716Y-79135111D01*
X101739648Y-79131225D01*
X101739604Y-79131176D01*
X101400848Y-78747741D01*
X101397938Y-78739272D01*
X101400848Y-78732247D01*
X101739605Y-78348811D01*
X101747651Y-78344880D01*
X101756120Y-78347790D01*
G37*
%TD.AperFunction*%
%TD*%
%TA.AperFunction,Conductor*%
%TO.N,GND*%
G36*
X102312555Y-80423444D02*
G01*
X102318793Y-80429704D01*
X102409104Y-80645481D01*
X102409137Y-80654436D01*
X102409104Y-80654515D01*
X102318793Y-80870291D01*
X102312438Y-80876600D01*
X102303600Y-80876615D01*
X102218923Y-80842249D01*
X102149104Y-80818385D01*
X102149095Y-80818383D01*
X102086528Y-80805777D01*
X102012931Y-80800847D01*
X101921601Y-80800097D01*
X101913356Y-80796602D01*
X101909997Y-80788397D01*
X101909995Y-80511607D01*
X101913422Y-80503334D01*
X101921599Y-80499907D01*
X102012929Y-80499155D01*
X102086535Y-80494221D01*
X102149090Y-80481615D01*
X102218922Y-80457747D01*
X102303600Y-80423380D01*
X102312555Y-80423444D01*
G37*
%TD.AperFunction*%
%TD*%
%TA.AperFunction,Conductor*%
%TO.N,GND*%
G36*
X101660083Y-80220098D02*
G01*
X101660550Y-80220475D01*
X101759436Y-80304503D01*
X101867697Y-80379249D01*
X101975961Y-80436748D01*
X102084228Y-80476998D01*
X102183229Y-80498030D01*
X102190610Y-80503102D01*
X102192498Y-80509475D01*
X102192500Y-80790523D01*
X102189073Y-80798796D01*
X102183231Y-80801968D01*
X102084230Y-80823000D01*
X101975963Y-80863250D01*
X101867698Y-80920748D01*
X101759437Y-80995494D01*
X101660550Y-81079524D01*
X101652027Y-81082270D01*
X101644058Y-81078184D01*
X101643681Y-81077717D01*
X101321939Y-80657109D01*
X101319634Y-80648455D01*
X101321939Y-80642891D01*
X101643681Y-80222282D01*
X101651429Y-80217793D01*
X101660083Y-80220098D01*
G37*
%TD.AperFunction*%
%TD*%
%TA.AperFunction,Conductor*%
%TO.N,Net-(D2-A)*%
G36*
X99752907Y-78746236D02*
G01*
X100122584Y-79084939D01*
X100126369Y-79093055D01*
X100124585Y-79099793D01*
X100082825Y-79166224D01*
X100082825Y-79166223D01*
X100035870Y-79255918D01*
X99988916Y-79360610D01*
X99988917Y-79360609D01*
X99941963Y-79480303D01*
X99897746Y-79607145D01*
X99891787Y-79613829D01*
X99886698Y-79614994D01*
X99603323Y-79614992D01*
X99595050Y-79611565D01*
X99592275Y-79607144D01*
X99548054Y-79480299D01*
X99501094Y-79360600D01*
X99454141Y-79255917D01*
X99407180Y-79166218D01*
X99365420Y-79099792D01*
X99363918Y-79090964D01*
X99367421Y-79084938D01*
X99737099Y-78746236D01*
X99745514Y-78743174D01*
X99752907Y-78746236D01*
G37*
%TD.AperFunction*%
%TD*%
%TA.AperFunction,Conductor*%
%TO.N,Net-(D2-A)*%
G36*
X99886786Y-79737501D02*
G01*
X99895059Y-79740928D01*
X99897794Y-79745236D01*
X99948677Y-79886509D01*
X100002343Y-80018263D01*
X100056014Y-80132777D01*
X100109682Y-80230034D01*
X100109682Y-80230033D01*
X100157393Y-80301159D01*
X100159156Y-80309939D01*
X100155042Y-80316768D01*
X99749864Y-80645032D01*
X99741279Y-80647577D01*
X99735134Y-80645032D01*
X99330029Y-80316826D01*
X99325758Y-80308955D01*
X99327734Y-80301134D01*
X99376324Y-80230026D01*
X99430991Y-80132779D01*
X99430990Y-80132779D01*
X99485666Y-80018263D01*
X99540338Y-79886506D01*
X99592195Y-79745169D01*
X99598262Y-79738582D01*
X99603179Y-79737499D01*
X99886786Y-79737501D01*
G37*
%TD.AperFunction*%
%TD*%
%TA.AperFunction,Conductor*%
%TO.N,/EN_DRV*%
G36*
X112530258Y-78888931D02*
G01*
X112746175Y-78977435D01*
X112752531Y-78983744D01*
X112752564Y-78983824D01*
X112841068Y-79199741D01*
X112841035Y-79208695D01*
X112834679Y-79215004D01*
X112834281Y-79215159D01*
X112745477Y-79247822D01*
X112745183Y-79247921D01*
X112670899Y-79270863D01*
X112670898Y-79270863D01*
X112608766Y-79294728D01*
X112608763Y-79294730D01*
X112545377Y-79334265D01*
X112475404Y-79396882D01*
X112466954Y-79399845D01*
X112459329Y-79396436D01*
X112333562Y-79270669D01*
X112330135Y-79262396D01*
X112333116Y-79254594D01*
X112395732Y-79184621D01*
X112435265Y-79121239D01*
X112459136Y-79059100D01*
X112482076Y-78984814D01*
X112482175Y-78984520D01*
X112514840Y-78895718D01*
X112520913Y-78889136D01*
X112529860Y-78888776D01*
X112530258Y-78888931D01*
G37*
%TD.AperFunction*%
%TD*%
%TA.AperFunction,Conductor*%
%TO.N,/EN_DRV*%
G36*
X110986200Y-93203722D02*
G01*
X111709218Y-93637805D01*
X111714547Y-93645001D01*
X111713227Y-93653858D01*
X111707018Y-93658894D01*
X110989043Y-93907064D01*
X110980105Y-93906528D01*
X110975141Y-93901945D01*
X110900456Y-93775189D01*
X110900456Y-93775190D01*
X110820925Y-93659059D01*
X110741386Y-93561764D01*
X110661842Y-93483316D01*
X110593106Y-93431819D01*
X110588539Y-93424116D01*
X110590757Y-93415440D01*
X110591848Y-93414182D01*
X110720328Y-93285702D01*
X110728530Y-93282275D01*
X110774982Y-93281992D01*
X110826234Y-93273607D01*
X110877497Y-93257142D01*
X110928746Y-93232608D01*
X110973897Y-93203882D01*
X110982717Y-93202332D01*
X110986200Y-93203722D01*
G37*
%TD.AperFunction*%
%TD*%
%TA.AperFunction,Conductor*%
%TO.N,GND*%
G36*
X115524517Y-87660890D02*
G01*
X115739774Y-87750985D01*
X115746083Y-87757341D01*
X115746050Y-87766295D01*
X115745878Y-87766687D01*
X115706182Y-87852575D01*
X115706044Y-87852853D01*
X115669737Y-87921607D01*
X115642679Y-87982416D01*
X115625813Y-88055194D01*
X115620613Y-88148948D01*
X115616733Y-88157019D01*
X115608931Y-88160000D01*
X115431069Y-88160000D01*
X115422796Y-88156573D01*
X115419387Y-88148948D01*
X115414185Y-88055194D01*
X115397319Y-87982416D01*
X115370262Y-87921607D01*
X115333950Y-87852846D01*
X115333812Y-87852568D01*
X115294120Y-87766687D01*
X115293760Y-87757739D01*
X115299832Y-87751157D01*
X115300224Y-87750985D01*
X115515483Y-87660890D01*
X115524437Y-87660857D01*
X115524517Y-87660890D01*
G37*
%TD.AperFunction*%
%TD*%
%TA.AperFunction,Conductor*%
%TO.N,GND*%
G36*
X115621521Y-87773427D02*
G01*
X115623378Y-87775845D01*
X115699996Y-87908414D01*
X115699997Y-87908414D01*
X115779997Y-88027626D01*
X115779998Y-88027626D01*
X115859997Y-88127625D01*
X115940000Y-88208418D01*
X116010561Y-88262734D01*
X116015026Y-88270496D01*
X116012695Y-88279142D01*
X116012566Y-88279307D01*
X115529142Y-88884554D01*
X115521301Y-88888879D01*
X115512698Y-88886394D01*
X115510858Y-88884554D01*
X115027433Y-88279307D01*
X115024948Y-88270704D01*
X115029273Y-88262863D01*
X115029438Y-88262734D01*
X115099998Y-88208418D01*
X115180001Y-88127625D01*
X115260001Y-88027626D01*
X115260002Y-88027626D01*
X115340002Y-87908414D01*
X115340003Y-87908414D01*
X115416622Y-87775845D01*
X115423729Y-87770397D01*
X115426752Y-87770000D01*
X115613248Y-87770000D01*
X115621521Y-87773427D01*
G37*
%TD.AperFunction*%
%TD*%
%TA.AperFunction,Conductor*%
%TO.N,GND*%
G36*
X95572559Y-103583446D02*
G01*
X95578797Y-103589706D01*
X95669109Y-103805483D01*
X95669142Y-103814437D01*
X95669109Y-103814517D01*
X95578797Y-104030293D01*
X95572441Y-104036602D01*
X95563604Y-104036617D01*
X95478927Y-104002250D01*
X95409108Y-103978385D01*
X95409099Y-103978383D01*
X95346531Y-103965777D01*
X95272934Y-103960846D01*
X95181604Y-103960095D01*
X95173359Y-103956600D01*
X95170000Y-103948395D01*
X95170000Y-103671604D01*
X95173427Y-103663331D01*
X95181604Y-103659904D01*
X95272934Y-103659153D01*
X95346533Y-103654221D01*
X95346548Y-103654219D01*
X95409084Y-103641618D01*
X95409108Y-103641612D01*
X95478921Y-103617750D01*
X95478920Y-103617750D01*
X95563604Y-103583382D01*
X95572559Y-103583446D01*
G37*
%TD.AperFunction*%
%TD*%
%TA.AperFunction,Conductor*%
%TO.N,GND*%
G36*
X94986456Y-103366632D02*
G01*
X95069989Y-103452438D01*
X95069995Y-103452444D01*
X95159994Y-103528669D01*
X95160004Y-103528676D01*
X95249990Y-103588668D01*
X95250004Y-103588676D01*
X95339992Y-103632445D01*
X95421725Y-103657466D01*
X95428632Y-103663165D01*
X95430000Y-103668654D01*
X95430000Y-103951345D01*
X95426573Y-103959618D01*
X95421725Y-103962533D01*
X95339992Y-103987553D01*
X95250004Y-104031322D01*
X95249990Y-104031330D01*
X95160004Y-104091322D01*
X95159994Y-104091329D01*
X95069995Y-104167554D01*
X95069989Y-104167560D01*
X94986456Y-104253367D01*
X94978230Y-104256905D01*
X94972059Y-104255242D01*
X94245748Y-103820036D01*
X94240413Y-103812844D01*
X94241726Y-103803986D01*
X94245748Y-103799964D01*
X94972059Y-103364757D01*
X94980917Y-103363444D01*
X94986456Y-103366632D01*
G37*
%TD.AperFunction*%
%TD*%
%TA.AperFunction,Conductor*%
%TO.N,GND*%
G36*
X108699517Y-84690890D02*
G01*
X108915293Y-84781202D01*
X108921602Y-84787558D01*
X108921617Y-84796395D01*
X108887250Y-84881072D01*
X108863385Y-84950890D01*
X108863383Y-84950899D01*
X108850777Y-85013467D01*
X108845846Y-85087065D01*
X108845095Y-85178396D01*
X108841600Y-85186641D01*
X108833395Y-85190000D01*
X108556604Y-85190000D01*
X108548331Y-85186573D01*
X108544904Y-85178396D01*
X108544153Y-85087065D01*
X108539221Y-85013465D01*
X108539219Y-85013450D01*
X108526618Y-84950914D01*
X108526612Y-84950890D01*
X108502748Y-84881072D01*
X108468382Y-84796395D01*
X108468446Y-84787440D01*
X108474706Y-84781202D01*
X108690483Y-84690890D01*
X108699437Y-84690857D01*
X108699517Y-84690890D01*
G37*
%TD.AperFunction*%
%TD*%
%TA.AperFunction,Conductor*%
%TO.N,GND*%
G36*
X108845977Y-84853427D02*
G01*
X108848210Y-84856552D01*
X108904998Y-84972444D01*
X108965001Y-85078676D01*
X108965001Y-85078675D01*
X109025000Y-85168674D01*
X109085000Y-85242448D01*
X109085005Y-85242454D01*
X109138268Y-85293543D01*
X109141866Y-85301743D01*
X109140205Y-85308001D01*
X108705036Y-86034251D01*
X108697844Y-86039586D01*
X108688986Y-86038273D01*
X108684964Y-86034251D01*
X108249794Y-85308001D01*
X108248481Y-85299143D01*
X108251731Y-85293543D01*
X108304994Y-85242454D01*
X108304999Y-85242448D01*
X108364999Y-85168674D01*
X108424999Y-85078675D01*
X108424999Y-85078676D01*
X108485002Y-84972444D01*
X108541790Y-84856552D01*
X108548507Y-84850630D01*
X108552296Y-84850000D01*
X108837704Y-84850000D01*
X108845977Y-84853427D01*
G37*
%TD.AperFunction*%
%TD*%
%TA.AperFunction,Conductor*%
%TO.N,/TX*%
G36*
X95391815Y-77091847D02*
G01*
X96226386Y-77522065D01*
X96232169Y-77528902D01*
X96232177Y-77528926D01*
X96495199Y-78357662D01*
X96494435Y-78366584D01*
X96487586Y-78372353D01*
X96482643Y-78372816D01*
X96170498Y-78335081D01*
X95840291Y-78340161D01*
X95510089Y-78390241D01*
X95510076Y-78390244D01*
X95179879Y-78485323D01*
X95179869Y-78485326D01*
X94856932Y-78622324D01*
X94847978Y-78622400D01*
X94844090Y-78619826D01*
X94715229Y-78490965D01*
X94711802Y-78482692D01*
X94713955Y-78475929D01*
X94842595Y-78294343D01*
X94842598Y-78294339D01*
X94976954Y-78059683D01*
X95111304Y-77780035D01*
X95245649Y-77455401D01*
X95375458Y-77098250D01*
X95381505Y-77091645D01*
X95390451Y-77091251D01*
X95391815Y-77091847D01*
G37*
%TD.AperFunction*%
%TD*%
%TA.AperFunction,Conductor*%
%TO.N,/TX*%
G36*
X93488439Y-99555056D02*
G01*
X94214251Y-99989964D01*
X94219586Y-99997156D01*
X94218273Y-100006014D01*
X94214251Y-100010036D01*
X93488439Y-100444943D01*
X93479581Y-100446256D01*
X93473570Y-100442555D01*
X93389995Y-100345789D01*
X93300001Y-100258693D01*
X93299996Y-100258689D01*
X93210000Y-100188692D01*
X93209995Y-100188688D01*
X93120003Y-100135797D01*
X93037376Y-100102933D01*
X93030955Y-100096691D01*
X93030000Y-100092061D01*
X93030000Y-99907938D01*
X93033427Y-99899665D01*
X93037376Y-99897066D01*
X93120001Y-99864202D01*
X93209995Y-99811310D01*
X93210000Y-99811306D01*
X93299996Y-99741309D01*
X93300001Y-99741305D01*
X93389996Y-99654208D01*
X93473570Y-99557444D01*
X93481572Y-99553423D01*
X93488439Y-99555056D01*
G37*
%TD.AperFunction*%
%TD*%
%TA.AperFunction,Conductor*%
%TO.N,/RX*%
G36*
X95909178Y-79290589D02*
G01*
X95909683Y-79291650D01*
X96229134Y-80060510D01*
X96229143Y-80069465D01*
X96229134Y-80069488D01*
X95909683Y-80838349D01*
X95903344Y-80844674D01*
X95894389Y-80844665D01*
X95893328Y-80844160D01*
X95563964Y-80666681D01*
X95562155Y-80665477D01*
X95335476Y-80482102D01*
X95141331Y-80321575D01*
X95141329Y-80321574D01*
X94899772Y-80208054D01*
X94540347Y-80166204D01*
X94532526Y-80161844D01*
X94530000Y-80154583D01*
X94530000Y-79975416D01*
X94533427Y-79967143D01*
X94540347Y-79963795D01*
X94899772Y-79921944D01*
X95141329Y-79808423D01*
X95141331Y-79808422D01*
X95335476Y-79647896D01*
X95562155Y-79464521D01*
X95563964Y-79463317D01*
X95893328Y-79285839D01*
X95902237Y-79284931D01*
X95909178Y-79290589D01*
G37*
%TD.AperFunction*%
%TD*%
%TA.AperFunction,Conductor*%
%TO.N,/RX*%
G36*
X93488439Y-98285056D02*
G01*
X94214251Y-98719964D01*
X94219586Y-98727156D01*
X94218273Y-98736014D01*
X94214251Y-98740036D01*
X93488439Y-99174943D01*
X93479581Y-99176256D01*
X93473570Y-99172555D01*
X93389995Y-99075789D01*
X93300001Y-98988693D01*
X93299996Y-98988689D01*
X93210000Y-98918692D01*
X93209995Y-98918688D01*
X93120003Y-98865797D01*
X93037376Y-98832933D01*
X93030955Y-98826691D01*
X93030000Y-98822061D01*
X93030000Y-98637938D01*
X93033427Y-98629665D01*
X93037376Y-98627066D01*
X93120001Y-98594202D01*
X93209995Y-98541310D01*
X93210000Y-98541306D01*
X93299996Y-98471309D01*
X93300001Y-98471305D01*
X93389996Y-98384208D01*
X93473570Y-98287444D01*
X93481572Y-98283423D01*
X93488439Y-98285056D01*
G37*
%TD.AperFunction*%
%TD*%
%TA.AperFunction,Conductor*%
%TO.N,/BOOT*%
G36*
X93106295Y-87073948D02*
G01*
X93106687Y-87074120D01*
X93192568Y-87113812D01*
X93192846Y-87113950D01*
X93261607Y-87150262D01*
X93322416Y-87177319D01*
X93395194Y-87194185D01*
X93488948Y-87199386D01*
X93497019Y-87203266D01*
X93500000Y-87211068D01*
X93500000Y-87388931D01*
X93496573Y-87397204D01*
X93488948Y-87400613D01*
X93395194Y-87405813D01*
X93322416Y-87422679D01*
X93261607Y-87449737D01*
X93192853Y-87486044D01*
X93192575Y-87486182D01*
X93106687Y-87525878D01*
X93097739Y-87526238D01*
X93091157Y-87520166D01*
X93090985Y-87519774D01*
X93000890Y-87304517D01*
X93000857Y-87295563D01*
X93000890Y-87295483D01*
X93090985Y-87080224D01*
X93097341Y-87073915D01*
X93106295Y-87073948D01*
G37*
%TD.AperFunction*%
%TD*%
%TA.AperFunction,Conductor*%
%TO.N,/BOOT*%
G36*
X93488439Y-86855056D02*
G01*
X94214251Y-87289964D01*
X94219586Y-87297156D01*
X94218273Y-87306014D01*
X94214251Y-87310036D01*
X93488439Y-87744943D01*
X93479581Y-87746256D01*
X93473570Y-87742555D01*
X93389995Y-87645789D01*
X93300001Y-87558693D01*
X93299996Y-87558689D01*
X93210000Y-87488692D01*
X93209995Y-87488688D01*
X93120003Y-87435797D01*
X93037376Y-87402933D01*
X93030955Y-87396691D01*
X93030000Y-87392061D01*
X93030000Y-87207938D01*
X93033427Y-87199665D01*
X93037376Y-87197066D01*
X93120001Y-87164202D01*
X93209995Y-87111310D01*
X93210000Y-87111306D01*
X93299996Y-87041309D01*
X93300001Y-87041305D01*
X93389996Y-86954208D01*
X93473570Y-86857444D01*
X93481572Y-86853423D01*
X93488439Y-86855056D01*
G37*
%TD.AperFunction*%
%TD*%
%TA.AperFunction,Conductor*%
%TO.N,/CURR_SENS1*%
G36*
X110206403Y-97233690D02*
G01*
X110206545Y-97233751D01*
X110291801Y-97270762D01*
X110361204Y-97300876D01*
X110361221Y-97300882D01*
X110423000Y-97320732D01*
X110496223Y-97331655D01*
X110496238Y-97331657D01*
X110588677Y-97334635D01*
X110596835Y-97338327D01*
X110600000Y-97346329D01*
X110600000Y-97573670D01*
X110596573Y-97581943D01*
X110588677Y-97585364D01*
X110496238Y-97588341D01*
X110496223Y-97588343D01*
X110423004Y-97599265D01*
X110422995Y-97599268D01*
X110361221Y-97619115D01*
X110361204Y-97619121D01*
X110291801Y-97649237D01*
X110206545Y-97686248D01*
X110197592Y-97686399D01*
X110191154Y-97680175D01*
X110191093Y-97680033D01*
X110100890Y-97464517D01*
X110100857Y-97455563D01*
X110100890Y-97455483D01*
X110191093Y-97239966D01*
X110197449Y-97233657D01*
X110206403Y-97233690D01*
G37*
%TD.AperFunction*%
%TD*%
%TA.AperFunction,Conductor*%
%TO.N,/CURR_SENS1*%
G36*
X110988194Y-97014909D02*
G01*
X111714251Y-97449964D01*
X111719586Y-97457156D01*
X111718273Y-97466014D01*
X111714251Y-97470036D01*
X110988194Y-97905089D01*
X110979336Y-97906402D01*
X110973550Y-97902954D01*
X110890004Y-97811698D01*
X110799998Y-97730041D01*
X110710005Y-97665045D01*
X110620000Y-97616694D01*
X110537814Y-97587751D01*
X110531149Y-97581770D01*
X110530000Y-97576715D01*
X110530000Y-97343284D01*
X110533427Y-97335011D01*
X110537814Y-97332248D01*
X110620000Y-97303304D01*
X110710005Y-97254953D01*
X110799998Y-97189957D01*
X110890007Y-97108298D01*
X110973550Y-97017044D01*
X110981664Y-97013256D01*
X110988194Y-97014909D01*
G37*
%TD.AperFunction*%
%TD*%
%TA.AperFunction,Conductor*%
%TO.N,/CURR_SENS2*%
G36*
X110206403Y-95963690D02*
G01*
X110206545Y-95963751D01*
X110291801Y-96000762D01*
X110361204Y-96030876D01*
X110361221Y-96030882D01*
X110423000Y-96050732D01*
X110496223Y-96061655D01*
X110496238Y-96061657D01*
X110588677Y-96064635D01*
X110596835Y-96068327D01*
X110600000Y-96076329D01*
X110600000Y-96303670D01*
X110596573Y-96311943D01*
X110588677Y-96315364D01*
X110496238Y-96318341D01*
X110496223Y-96318343D01*
X110423004Y-96329265D01*
X110422995Y-96329268D01*
X110361221Y-96349115D01*
X110361204Y-96349121D01*
X110291801Y-96379237D01*
X110206545Y-96416248D01*
X110197592Y-96416399D01*
X110191154Y-96410175D01*
X110191093Y-96410033D01*
X110100890Y-96194516D01*
X110100857Y-96185562D01*
X110100890Y-96185482D01*
X110191093Y-95969966D01*
X110197449Y-95963657D01*
X110206403Y-95963690D01*
G37*
%TD.AperFunction*%
%TD*%
%TA.AperFunction,Conductor*%
%TO.N,/CURR_SENS2*%
G36*
X110988194Y-95744909D02*
G01*
X111714251Y-96179964D01*
X111719586Y-96187156D01*
X111718273Y-96196014D01*
X111714251Y-96200036D01*
X110988194Y-96635089D01*
X110979336Y-96636402D01*
X110973550Y-96632954D01*
X110890004Y-96541698D01*
X110799998Y-96460041D01*
X110710005Y-96395045D01*
X110620000Y-96346694D01*
X110537814Y-96317751D01*
X110531149Y-96311770D01*
X110530000Y-96306715D01*
X110530000Y-96073284D01*
X110533427Y-96065011D01*
X110537814Y-96062248D01*
X110620000Y-96033304D01*
X110710005Y-95984953D01*
X110799998Y-95919957D01*
X110890007Y-95838298D01*
X110973550Y-95747044D01*
X110981664Y-95743256D01*
X110988194Y-95744909D01*
G37*
%TD.AperFunction*%
%TD*%
%TA.AperFunction,Conductor*%
%TO.N,/PWM_OUT1*%
G36*
X115200258Y-83678931D02*
G01*
X115416175Y-83767435D01*
X115422531Y-83773744D01*
X115422564Y-83773824D01*
X115511068Y-83989741D01*
X115511035Y-83998695D01*
X115504679Y-84005004D01*
X115504281Y-84005159D01*
X115415477Y-84037822D01*
X115415183Y-84037921D01*
X115340899Y-84060863D01*
X115340898Y-84060863D01*
X115278766Y-84084728D01*
X115278763Y-84084730D01*
X115215377Y-84124265D01*
X115145404Y-84186882D01*
X115136954Y-84189845D01*
X115129329Y-84186436D01*
X115003562Y-84060669D01*
X115000135Y-84052396D01*
X115003116Y-84044594D01*
X115065732Y-83974621D01*
X115105265Y-83911239D01*
X115129136Y-83849100D01*
X115152076Y-83774814D01*
X115152175Y-83774520D01*
X115184840Y-83685718D01*
X115190913Y-83679136D01*
X115199860Y-83678776D01*
X115200258Y-83678931D01*
G37*
%TD.AperFunction*%
%TD*%
%TA.AperFunction,Conductor*%
%TO.N,/PWM_OUT2*%
G36*
X110987128Y-90664279D02*
G01*
X111709844Y-91098181D01*
X111715173Y-91105377D01*
X111713853Y-91114234D01*
X111707896Y-91119180D01*
X110989206Y-91386166D01*
X110980258Y-91385834D01*
X110975036Y-91381111D01*
X110903864Y-91259582D01*
X110903864Y-91259583D01*
X110827718Y-91147681D01*
X110751572Y-91053903D01*
X110675425Y-90978245D01*
X110610013Y-90928814D01*
X110605479Y-90921093D01*
X110607733Y-90912426D01*
X110608794Y-90911207D01*
X110738045Y-90781956D01*
X110744432Y-90778682D01*
X110788567Y-90771474D01*
X110836433Y-90755634D01*
X110884282Y-90731780D01*
X110884285Y-90731778D01*
X110932139Y-90699901D01*
X110932150Y-90699893D01*
X110973614Y-90665324D01*
X110982163Y-90662658D01*
X110987128Y-90664279D01*
G37*
%TD.AperFunction*%
%TD*%
%TA.AperFunction,Conductor*%
%TO.N,/PWM_OUT2*%
G36*
X114305914Y-82723850D02*
G01*
X114521778Y-82812332D01*
X114528134Y-82818641D01*
X114528167Y-82818721D01*
X114616690Y-83034685D01*
X114616657Y-83043639D01*
X114610301Y-83049948D01*
X114609949Y-83050086D01*
X114521710Y-83082962D01*
X114448172Y-83106770D01*
X114448171Y-83106770D01*
X114386976Y-83131633D01*
X114324432Y-83171895D01*
X114324427Y-83171899D01*
X114255109Y-83234452D01*
X114246671Y-83237451D01*
X114238998Y-83234039D01*
X114113227Y-83108268D01*
X114109800Y-83099995D01*
X114112745Y-83092234D01*
X114175073Y-83021924D01*
X114175080Y-83021913D01*
X114213580Y-82957901D01*
X114213586Y-82957888D01*
X114236194Y-82895013D01*
X114258078Y-82820103D01*
X114258193Y-82819749D01*
X114290477Y-82730689D01*
X114296519Y-82724079D01*
X114305464Y-82723676D01*
X114305914Y-82723850D01*
G37*
%TD.AperFunction*%
%TD*%
%TA.AperFunction,Conductor*%
%TO.N,/PWM_OUT3*%
G36*
X110986327Y-91933798D02*
G01*
X111709371Y-92367897D01*
X111714700Y-92375093D01*
X111713380Y-92383950D01*
X111707232Y-92388965D01*
X110989033Y-92641624D01*
X110980091Y-92641137D01*
X110975098Y-92636575D01*
X110899873Y-92510300D01*
X110819748Y-92394650D01*
X110739628Y-92297855D01*
X110739624Y-92297851D01*
X110659498Y-92219898D01*
X110659492Y-92219893D01*
X110590320Y-92168868D01*
X110585696Y-92161200D01*
X110587850Y-92152508D01*
X110588992Y-92151180D01*
X110717502Y-92022670D01*
X110725454Y-92019247D01*
X110772641Y-92017950D01*
X110824473Y-92008302D01*
X110876314Y-91990427D01*
X110928160Y-91964323D01*
X110928170Y-91964318D01*
X110973846Y-91934074D01*
X110982635Y-91932363D01*
X110986327Y-91933798D01*
G37*
%TD.AperFunction*%
%TD*%
%TA.AperFunction,Conductor*%
%TO.N,/PWM_OUT3*%
G36*
X113594517Y-81890890D02*
G01*
X113809774Y-81980985D01*
X113816083Y-81987341D01*
X113816050Y-81996295D01*
X113815878Y-81996687D01*
X113776182Y-82082575D01*
X113776044Y-82082853D01*
X113739737Y-82151607D01*
X113712679Y-82212416D01*
X113695813Y-82285194D01*
X113690613Y-82378948D01*
X113686733Y-82387019D01*
X113678931Y-82390000D01*
X113501069Y-82390000D01*
X113492796Y-82386573D01*
X113489387Y-82378948D01*
X113484185Y-82285194D01*
X113467319Y-82212416D01*
X113440262Y-82151607D01*
X113403950Y-82082846D01*
X113403812Y-82082568D01*
X113364120Y-81996687D01*
X113363760Y-81987739D01*
X113369832Y-81981157D01*
X113370224Y-81980985D01*
X113585483Y-81890890D01*
X113594437Y-81890857D01*
X113594517Y-81890890D01*
G37*
%TD.AperFunction*%
%TD*%
%TA.AperFunction,Conductor*%
%TO.N,/CS*%
G36*
X95448842Y-90889833D02*
G01*
X95449014Y-90890224D01*
X95539109Y-91105483D01*
X95539142Y-91114437D01*
X95539109Y-91114517D01*
X95449014Y-91329775D01*
X95442658Y-91336084D01*
X95433704Y-91336051D01*
X95433312Y-91335879D01*
X95347429Y-91296186D01*
X95347151Y-91296048D01*
X95278392Y-91259737D01*
X95217582Y-91232679D01*
X95144804Y-91215813D01*
X95051052Y-91210613D01*
X95042981Y-91206733D01*
X95040000Y-91198931D01*
X95040000Y-91021068D01*
X95043427Y-91012795D01*
X95051052Y-91009386D01*
X95144804Y-91004185D01*
X95217582Y-90987319D01*
X95278392Y-90960262D01*
X95347151Y-90923950D01*
X95347429Y-90923812D01*
X95433313Y-90884120D01*
X95442260Y-90883760D01*
X95448842Y-90889833D01*
G37*
%TD.AperFunction*%
%TD*%
%TA.AperFunction,Conductor*%
%TO.N,/CS*%
G36*
X94986429Y-90667444D02*
G01*
X95070003Y-90764208D01*
X95159998Y-90851305D01*
X95160003Y-90851309D01*
X95249999Y-90921306D01*
X95250004Y-90921310D01*
X95339998Y-90974202D01*
X95422624Y-91007066D01*
X95429045Y-91013308D01*
X95430000Y-91017938D01*
X95430000Y-91202061D01*
X95426573Y-91210334D01*
X95422624Y-91212933D01*
X95339996Y-91245797D01*
X95250004Y-91298688D01*
X95249999Y-91298692D01*
X95160003Y-91368689D01*
X95159998Y-91368693D01*
X95070005Y-91455789D01*
X94986429Y-91552555D01*
X94978427Y-91556576D01*
X94971560Y-91554943D01*
X94245748Y-91120036D01*
X94240413Y-91112844D01*
X94241726Y-91103986D01*
X94245748Y-91099964D01*
X94971560Y-90665056D01*
X94980418Y-90663743D01*
X94986429Y-90667444D01*
G37*
%TD.AperFunction*%
%TD*%
%TA.AperFunction,Conductor*%
%TO.N,/CLK*%
G36*
X95498842Y-93429833D02*
G01*
X95499014Y-93430224D01*
X95589109Y-93645482D01*
X95589142Y-93654436D01*
X95589109Y-93654516D01*
X95499014Y-93869775D01*
X95492658Y-93876084D01*
X95483704Y-93876051D01*
X95483312Y-93875879D01*
X95397429Y-93836186D01*
X95397151Y-93836048D01*
X95328392Y-93799737D01*
X95267582Y-93772679D01*
X95194804Y-93755813D01*
X95101052Y-93750613D01*
X95092981Y-93746733D01*
X95090000Y-93738931D01*
X95090000Y-93561068D01*
X95093427Y-93552795D01*
X95101052Y-93549386D01*
X95194804Y-93544185D01*
X95267582Y-93527319D01*
X95328392Y-93500262D01*
X95397151Y-93463950D01*
X95397429Y-93463812D01*
X95483313Y-93424120D01*
X95492260Y-93423760D01*
X95498842Y-93429833D01*
G37*
%TD.AperFunction*%
%TD*%
%TA.AperFunction,Conductor*%
%TO.N,/CLK*%
G36*
X94986429Y-93207444D02*
G01*
X95070003Y-93304208D01*
X95159998Y-93391305D01*
X95160003Y-93391309D01*
X95249999Y-93461306D01*
X95250004Y-93461310D01*
X95339998Y-93514202D01*
X95422624Y-93547066D01*
X95429045Y-93553308D01*
X95430000Y-93557938D01*
X95430000Y-93742061D01*
X95426573Y-93750334D01*
X95422624Y-93752933D01*
X95339996Y-93785797D01*
X95250004Y-93838688D01*
X95249999Y-93838692D01*
X95160003Y-93908689D01*
X95159998Y-93908693D01*
X95070005Y-93995789D01*
X94986429Y-94092555D01*
X94978427Y-94096576D01*
X94971560Y-94094943D01*
X94245748Y-93660036D01*
X94240413Y-93652844D01*
X94241726Y-93643986D01*
X94245748Y-93639964D01*
X94971560Y-93205056D01*
X94980418Y-93203743D01*
X94986429Y-93207444D01*
G37*
%TD.AperFunction*%
%TD*%
%TA.AperFunction,Conductor*%
%TO.N,/MISO*%
G36*
X97208842Y-94699833D02*
G01*
X97209014Y-94700224D01*
X97299109Y-94915483D01*
X97299142Y-94924437D01*
X97299109Y-94924517D01*
X97209014Y-95139775D01*
X97202658Y-95146084D01*
X97193704Y-95146051D01*
X97193312Y-95145879D01*
X97107429Y-95106186D01*
X97107151Y-95106048D01*
X97038392Y-95069737D01*
X96977582Y-95042679D01*
X96904804Y-95025813D01*
X96811052Y-95020613D01*
X96802981Y-95016733D01*
X96800000Y-95008931D01*
X96800000Y-94831068D01*
X96803427Y-94822795D01*
X96811052Y-94819386D01*
X96904804Y-94814185D01*
X96977582Y-94797319D01*
X97038392Y-94770262D01*
X97107151Y-94733950D01*
X97107429Y-94733812D01*
X97193313Y-94694120D01*
X97202260Y-94693760D01*
X97208842Y-94699833D01*
G37*
%TD.AperFunction*%
%TD*%
%TA.AperFunction,Conductor*%
%TO.N,/MISO*%
G36*
X94986429Y-94477444D02*
G01*
X95070003Y-94574208D01*
X95159998Y-94661305D01*
X95160003Y-94661309D01*
X95249999Y-94731306D01*
X95250004Y-94731310D01*
X95339998Y-94784202D01*
X95422624Y-94817066D01*
X95429045Y-94823308D01*
X95430000Y-94827938D01*
X95430000Y-95012061D01*
X95426573Y-95020334D01*
X95422624Y-95022933D01*
X95339996Y-95055797D01*
X95250004Y-95108688D01*
X95249999Y-95108692D01*
X95160003Y-95178689D01*
X95159998Y-95178693D01*
X95070005Y-95265789D01*
X94986429Y-95362555D01*
X94978427Y-95366576D01*
X94971560Y-95364943D01*
X94245748Y-94930036D01*
X94240413Y-94922844D01*
X94241726Y-94913986D01*
X94245748Y-94909964D01*
X94971560Y-94475056D01*
X94980418Y-94473743D01*
X94986429Y-94477444D01*
G37*
%TD.AperFunction*%
%TD*%
%TA.AperFunction,Conductor*%
%TO.N,/SDA*%
G36*
X94986429Y-97017444D02*
G01*
X95070003Y-97114208D01*
X95159998Y-97201305D01*
X95160003Y-97201309D01*
X95249999Y-97271306D01*
X95250004Y-97271310D01*
X95339998Y-97324202D01*
X95422624Y-97357066D01*
X95429045Y-97363308D01*
X95430000Y-97367938D01*
X95430000Y-97552061D01*
X95426573Y-97560334D01*
X95422624Y-97562933D01*
X95339996Y-97595797D01*
X95250004Y-97648688D01*
X95249999Y-97648692D01*
X95160003Y-97718689D01*
X95159998Y-97718693D01*
X95070005Y-97805789D01*
X94986429Y-97902555D01*
X94978427Y-97906576D01*
X94971560Y-97904943D01*
X94245748Y-97470036D01*
X94240413Y-97462844D01*
X94241726Y-97453986D01*
X94245748Y-97449964D01*
X94971560Y-97015056D01*
X94980418Y-97013743D01*
X94986429Y-97017444D01*
G37*
%TD.AperFunction*%
%TD*%
%TA.AperFunction,Conductor*%
%TO.N,/SDA*%
G36*
X104077204Y-106053427D02*
G01*
X104080613Y-106061052D01*
X104085813Y-106154804D01*
X104102679Y-106227582D01*
X104129737Y-106288392D01*
X104166048Y-106357151D01*
X104166186Y-106357429D01*
X104205879Y-106443312D01*
X104206239Y-106452260D01*
X104200167Y-106458842D01*
X104199775Y-106459014D01*
X103984517Y-106549109D01*
X103975563Y-106549142D01*
X103975483Y-106549109D01*
X103760224Y-106459014D01*
X103753915Y-106452658D01*
X103753948Y-106443704D01*
X103754120Y-106443313D01*
X103793812Y-106357429D01*
X103793950Y-106357151D01*
X103830262Y-106288392D01*
X103857319Y-106227582D01*
X103874185Y-106154804D01*
X103879387Y-106061052D01*
X103883267Y-106052981D01*
X103891069Y-106050000D01*
X104068931Y-106050000D01*
X104077204Y-106053427D01*
G37*
%TD.AperFunction*%
%TD*%
%TA.AperFunction,Conductor*%
%TO.N,/SDA*%
G36*
X103985840Y-105059284D02*
G01*
X103987659Y-105061638D01*
X104059116Y-105183482D01*
X104059116Y-105183481D01*
X104138232Y-105299573D01*
X104138233Y-105299573D01*
X104217348Y-105396855D01*
X104217355Y-105396864D01*
X104296464Y-105475331D01*
X104296469Y-105475335D01*
X104368516Y-105529669D01*
X104373058Y-105537386D01*
X104372376Y-105543250D01*
X103990957Y-106524339D01*
X103984765Y-106530808D01*
X103975812Y-106531004D01*
X103969343Y-106524812D01*
X103969338Y-106524800D01*
X103538902Y-105543892D01*
X103538716Y-105534940D01*
X103543022Y-105529526D01*
X103595712Y-105493573D01*
X103656432Y-105438355D01*
X103717145Y-105369359D01*
X103777868Y-105286565D01*
X103837877Y-105191115D01*
X103839509Y-105189069D01*
X103969294Y-105059284D01*
X103977567Y-105055857D01*
X103985840Y-105059284D01*
G37*
%TD.AperFunction*%
%TD*%
%TA.AperFunction,Conductor*%
%TO.N,/SCL*%
G36*
X102077204Y-106053427D02*
G01*
X102080613Y-106061052D01*
X102085813Y-106154804D01*
X102102679Y-106227582D01*
X102129737Y-106288392D01*
X102166048Y-106357151D01*
X102166186Y-106357429D01*
X102205879Y-106443312D01*
X102206239Y-106452260D01*
X102200167Y-106458842D01*
X102199775Y-106459014D01*
X101984516Y-106549109D01*
X101975562Y-106549142D01*
X101975482Y-106549109D01*
X101760224Y-106459014D01*
X101753915Y-106452658D01*
X101753948Y-106443704D01*
X101754120Y-106443313D01*
X101793812Y-106357429D01*
X101793950Y-106357151D01*
X101830262Y-106288392D01*
X101857319Y-106227582D01*
X101874185Y-106154804D01*
X101879387Y-106061052D01*
X101883267Y-106052981D01*
X101891069Y-106050000D01*
X102068931Y-106050000D01*
X102077204Y-106053427D01*
G37*
%TD.AperFunction*%
%TD*%
%TA.AperFunction,Conductor*%
%TO.N,/SCL*%
G36*
X101985840Y-105059284D02*
G01*
X101987659Y-105061638D01*
X102059116Y-105183482D01*
X102059116Y-105183481D01*
X102138232Y-105299573D01*
X102138233Y-105299573D01*
X102217348Y-105396855D01*
X102217355Y-105396864D01*
X102296464Y-105475331D01*
X102296469Y-105475335D01*
X102368516Y-105529669D01*
X102373058Y-105537386D01*
X102372376Y-105543250D01*
X101990957Y-106524339D01*
X101984765Y-106530808D01*
X101975812Y-106531004D01*
X101969343Y-106524812D01*
X101969338Y-106524800D01*
X101538902Y-105543892D01*
X101538716Y-105534940D01*
X101543022Y-105529526D01*
X101595712Y-105493573D01*
X101656432Y-105438355D01*
X101717145Y-105369359D01*
X101777868Y-105286565D01*
X101837877Y-105191115D01*
X101839509Y-105189069D01*
X101969294Y-105059284D01*
X101977567Y-105055857D01*
X101985840Y-105059284D01*
G37*
%TD.AperFunction*%
%TD*%
%TA.AperFunction,Conductor*%
%TO.N,/SCL*%
G36*
X94986429Y-100827444D02*
G01*
X95070003Y-100924208D01*
X95159998Y-101011305D01*
X95160003Y-101011309D01*
X95249999Y-101081306D01*
X95250004Y-101081310D01*
X95339998Y-101134202D01*
X95422624Y-101167066D01*
X95429045Y-101173308D01*
X95430000Y-101177938D01*
X95430000Y-101362061D01*
X95426573Y-101370334D01*
X95422624Y-101372933D01*
X95339996Y-101405797D01*
X95250004Y-101458688D01*
X95249999Y-101458692D01*
X95160003Y-101528689D01*
X95159998Y-101528693D01*
X95070005Y-101615789D01*
X94986429Y-101712555D01*
X94978427Y-101716576D01*
X94971560Y-101714943D01*
X94245748Y-101280036D01*
X94240413Y-101272844D01*
X94241726Y-101263986D01*
X94245748Y-101259964D01*
X94971560Y-100825056D01*
X94980418Y-100823743D01*
X94986429Y-100827444D01*
G37*
%TD.AperFunction*%
%TD*%
%TA.AperFunction,Conductor*%
%TO.N,VCC*%
G36*
X96356366Y-87266671D02*
G01*
X97428602Y-87991739D01*
X97433536Y-87999212D01*
X97431740Y-88007985D01*
X97430332Y-88009693D01*
X96910707Y-88530707D01*
X96389693Y-89050332D01*
X96381415Y-89053748D01*
X96373147Y-89050310D01*
X96371739Y-89048602D01*
X95646671Y-87976366D01*
X95644875Y-87967593D01*
X95648090Y-87961539D01*
X96341539Y-87268090D01*
X96349812Y-87264663D01*
X96356366Y-87266671D01*
G37*
%TD.AperFunction*%
%TD*%
D35*
X110010000Y-77305000D03*
X106920500Y-80650000D03*
X95870000Y-98370000D03*
X89075000Y-98370000D03*
X114840000Y-102540000D03*
X113810000Y-96410000D03*
X114840000Y-100990000D03*
X113190000Y-103810000D03*
X89000000Y-84770000D03*
X95880000Y-99560000D03*
X102370005Y-78739992D03*
X102409996Y-80649998D03*
X108695000Y-84690000D03*
D36*
X109830000Y-84300000D03*
D35*
X115420000Y-94940000D03*
X115520000Y-87660000D03*
X93220000Y-84170000D03*
X90150000Y-101020000D03*
X98340000Y-89124500D03*
D36*
X106360000Y-103230000D03*
X100640000Y-76245000D03*
X99960000Y-107080000D03*
D35*
X95670000Y-103810000D03*
D36*
X99970000Y-106027247D03*
D35*
X98340000Y-92563650D03*
X89000000Y-83220000D03*
D36*
X109205000Y-104840000D03*
D35*
X115410000Y-90440000D03*
X104580000Y-91400000D03*
D36*
X104740000Y-99690000D03*
X100640000Y-82470000D03*
X107540000Y-91630000D03*
X105970000Y-107060000D03*
X105980000Y-106030000D03*
D35*
X112750000Y-78980000D03*
X93000000Y-87300000D03*
X109350000Y-94140000D03*
X110100000Y-97460000D03*
X110100000Y-96190000D03*
X95630000Y-83220000D03*
X115420000Y-83770000D03*
X114525603Y-82814897D03*
X113590000Y-81890000D03*
X103540000Y-89290000D03*
X95540000Y-91110000D03*
X103528736Y-90100000D03*
X95590000Y-93650000D03*
X103530000Y-90940000D03*
X97300000Y-94920000D03*
X103980000Y-106550000D03*
X111001653Y-79097492D03*
X101980000Y-106550000D03*
D37*
X105880000Y-97170000D03*
X105880000Y-95770000D03*
X105180000Y-97870000D03*
X105180000Y-96470000D03*
X105180000Y-95070000D03*
X104480000Y-97170000D03*
X104480000Y-95770000D03*
X103780000Y-97870000D03*
X103780000Y-96470000D03*
X103780000Y-95070000D03*
X103080000Y-97170000D03*
X103080000Y-95770000D03*
D36*
X96230000Y-77525000D03*
X96230000Y-80065000D03*
X116125000Y-94190000D03*
X116125000Y-91190000D03*
D37*
X107940000Y-101300276D03*
X109040000Y-101300276D03*
M02*
