%TF.GenerationSoftware,KiCad,Pcbnew,7.0.6*%
%TF.CreationDate,2023-09-26T22:04:44+02:00*%
%TF.ProjectId,torque_controller,746f7271-7565-45f6-936f-6e74726f6c6c,rev?*%
%TF.SameCoordinates,Original*%
%TF.FileFunction,Copper,L3,Inr*%
%TF.FilePolarity,Positive*%
%FSLAX46Y46*%
G04 Gerber Fmt 4.6, Leading zero omitted, Abs format (unit mm)*
G04 Created by KiCad (PCBNEW 7.0.6) date 2023-09-26 22:04:44*
%MOMM*%
%LPD*%
G01*
G04 APERTURE LIST*
%TA.AperFunction,HeatsinkPad*%
%ADD10C,0.600000*%
%TD*%
%TA.AperFunction,ComponentPad*%
%ADD11R,1.700000X1.700000*%
%TD*%
%TA.AperFunction,ComponentPad*%
%ADD12O,1.700000X1.700000*%
%TD*%
%TA.AperFunction,ComponentPad*%
%ADD13C,0.500000*%
%TD*%
%TA.AperFunction,ViaPad*%
%ADD14C,0.500000*%
%TD*%
%TA.AperFunction,ViaPad*%
%ADD15C,1.000000*%
%TD*%
%ADD16C,0.300000*%
%ADD17C,0.350000*%
%ADD18C,0.200000*%
G04 APERTURE END LIST*
D10*
%TO.N,GND*%
%TO.C,ESP32*%
X105880000Y-97170000D03*
X105880000Y-95770000D03*
X105180000Y-97870000D03*
X105180000Y-96470000D03*
X105180000Y-95070000D03*
X104480000Y-97170000D03*
X104480000Y-95770000D03*
X103780000Y-97870000D03*
X103780000Y-96470000D03*
X103780000Y-95070000D03*
X103080000Y-97170000D03*
X103080000Y-95770000D03*
%TD*%
D11*
%TO.N,/TX*%
%TO.C,J3*%
X96230000Y-77525000D03*
D12*
%TO.N,/RX*%
X96230000Y-80065000D03*
%TD*%
D13*
%TO.N,GND*%
%TO.C,U1*%
X107940000Y-101300276D03*
X109040000Y-101300276D03*
%TD*%
D14*
%TO.N,+3.3V*%
X110010000Y-77305000D03*
%TO.N,Net-(D1-K)*%
X106920500Y-80650000D03*
%TO.N,/CURR_SENS1*%
X95870000Y-98370000D03*
%TO.N,+3.3V*%
X89075000Y-98370000D03*
X114840000Y-102540000D03*
X113810000Y-96410000D03*
%TO.N,GND*%
X114840000Y-100990000D03*
X113190000Y-103810000D03*
X89000000Y-84770000D03*
X95880000Y-99560000D03*
%TO.N,+3.3V*%
X102370005Y-78739992D03*
%TO.N,GND*%
X102409996Y-80649998D03*
X108695000Y-84690000D03*
D15*
X109830000Y-84300000D03*
D14*
X115420000Y-94940000D03*
X115520000Y-87660000D03*
X93220000Y-84170000D03*
X90150000Y-101020000D03*
X98340000Y-89124500D03*
D15*
X106360000Y-103230000D03*
X100640000Y-76245000D03*
X99960000Y-107080000D03*
D14*
X95670000Y-103810000D03*
D15*
X99970000Y-106027247D03*
D14*
%TO.N,+3.3V*%
X98340000Y-92563650D03*
X89000000Y-83220000D03*
D15*
X109205000Y-104840000D03*
D14*
X115410000Y-90440000D03*
X104580000Y-91400000D03*
D15*
%TO.N,VCC*%
X104740000Y-99690000D03*
X100640000Y-82470000D03*
X107540000Y-91630000D03*
X105970000Y-107060000D03*
X105980000Y-106030000D03*
D14*
%TO.N,/EN_DRV*%
X112750000Y-78980000D03*
%TO.N,/BOOT*%
X93000000Y-87300000D03*
X109350000Y-94140000D03*
%TO.N,/CURR_SENS1*%
X110100000Y-97460000D03*
%TO.N,/CURR_SENS2*%
X110100000Y-96190000D03*
X95630000Y-83220000D03*
%TO.N,/PWM_OUT1*%
X115420000Y-83770000D03*
%TO.N,/PWM_OUT2*%
X114525603Y-82814897D03*
%TO.N,/PWM_OUT3*%
X113590000Y-81890000D03*
%TO.N,/CS*%
X103540000Y-89290000D03*
X95540000Y-91110000D03*
%TO.N,/CLK*%
X103528736Y-90100000D03*
X95590000Y-93650000D03*
%TO.N,/MISO*%
X103530000Y-90940000D03*
X97300000Y-94920000D03*
%TO.N,/SDA*%
X103980000Y-106550000D03*
%TO.N,Net-(D1-K)*%
X111001653Y-79097492D03*
%TO.N,/SCL*%
X101980000Y-106550000D03*
%TD*%
%TA.AperFunction,Conductor*%
%TO.N,GND*%
G36*
X103578351Y-74164345D02*
G01*
X104006876Y-74184241D01*
X104389748Y-74211822D01*
X104817075Y-74251588D01*
X105197909Y-74297453D01*
X105623297Y-74357047D01*
X106000995Y-74421025D01*
X106423618Y-74500369D01*
X106797283Y-74582258D01*
X107216399Y-74681266D01*
X107584822Y-74780729D01*
X107999801Y-74899328D01*
X108361797Y-75015932D01*
X108772111Y-75154081D01*
X109042159Y-75255595D01*
X109126571Y-75287326D01*
X109531558Y-75444948D01*
X109877147Y-75594128D01*
X110276486Y-75771295D01*
X110611733Y-75935497D01*
X111005230Y-76132397D01*
X111184649Y-76231206D01*
X111328209Y-76310267D01*
X111716171Y-76527456D01*
X112024032Y-76716773D01*
X112212548Y-76834110D01*
X112407715Y-76955587D01*
X112694994Y-77151820D01*
X113078361Y-77415868D01*
X113330444Y-77606399D01*
X113725496Y-77906432D01*
X113727617Y-77908120D01*
X113820338Y-77985454D01*
X113846637Y-78007388D01*
X114246038Y-78341032D01*
X114284867Y-78399117D01*
X114286129Y-78468975D01*
X114268604Y-78505214D01*
X114269035Y-78505481D01*
X114266499Y-78509566D01*
X114266493Y-78509581D01*
X114266482Y-78509596D01*
X114200317Y-78616230D01*
X114200315Y-78616234D01*
X114143337Y-78708062D01*
X114090536Y-78832945D01*
X114090354Y-78833166D01*
X114089800Y-78834684D01*
X114052381Y-78923189D01*
X114017780Y-79061771D01*
X114017295Y-79062597D01*
X114016345Y-79067519D01*
X114010344Y-79091556D01*
X114009407Y-79094905D01*
X113994610Y-79142608D01*
X113995290Y-79155508D01*
X113982420Y-79299180D01*
X113981789Y-79300780D01*
X113981805Y-79301337D01*
X113981581Y-79308552D01*
X113978089Y-79347535D01*
X113977757Y-79350460D01*
X113973248Y-79383211D01*
X113975808Y-79395214D01*
X113985323Y-79539174D01*
X113984742Y-79541774D01*
X113985147Y-79543864D01*
X113986141Y-79551558D01*
X113990321Y-79614806D01*
X113990573Y-79624094D01*
X113994733Y-79634895D01*
X114026405Y-79775654D01*
X114026177Y-79779192D01*
X114027338Y-79782323D01*
X114029696Y-79790276D01*
X114041637Y-79843350D01*
X114043057Y-79847955D01*
X114042653Y-79848079D01*
X114045577Y-79858107D01*
X114051557Y-79868429D01*
X114104619Y-80002578D01*
X114105019Y-80006966D01*
X114112584Y-80022714D01*
X114127545Y-80060538D01*
X114127546Y-80060541D01*
X114129959Y-80064640D01*
X114137922Y-80081401D01*
X114144814Y-80089878D01*
X114217992Y-80214203D01*
X114219251Y-80219209D01*
X114219432Y-80219431D01*
X114230106Y-80234784D01*
X114230113Y-80234795D01*
X114246026Y-80261830D01*
X114254543Y-80272206D01*
X114264728Y-80286990D01*
X114272112Y-80293608D01*
X114363639Y-80405110D01*
X114365943Y-80410534D01*
X114366339Y-80410884D01*
X114380056Y-80425111D01*
X114394212Y-80442356D01*
X114410857Y-80457196D01*
X114422724Y-80469611D01*
X114430181Y-80474425D01*
X114537861Y-80570430D01*
X114541337Y-80576011D01*
X114541847Y-80576331D01*
X114558513Y-80588844D01*
X114568534Y-80597778D01*
X114568543Y-80597785D01*
X114568547Y-80597788D01*
X114594905Y-80614787D01*
X114607822Y-80624572D01*
X114614973Y-80627729D01*
X114736210Y-80705919D01*
X114740927Y-80711381D01*
X114741439Y-80711595D01*
X114760827Y-80721796D01*
X114764831Y-80724378D01*
X114764833Y-80724379D01*
X114764835Y-80724380D01*
X114802008Y-80740868D01*
X114815276Y-80747921D01*
X114821793Y-80749643D01*
X114953674Y-80808137D01*
X114959636Y-80813191D01*
X114960024Y-80813283D01*
X114973654Y-80817871D01*
X114973796Y-80817472D01*
X114978331Y-80819075D01*
X115030877Y-80833174D01*
X115038729Y-80835855D01*
X115040420Y-80836561D01*
X115045366Y-80837061D01*
X115184692Y-80874443D01*
X115191841Y-80878804D01*
X115204543Y-80879668D01*
X115267648Y-80886434D01*
X115275294Y-80887742D01*
X115276250Y-80887967D01*
X115279970Y-80887756D01*
X115403582Y-80901008D01*
X115423403Y-80903133D01*
X115431620Y-80906533D01*
X115468161Y-80903015D01*
X115471062Y-80902804D01*
X115510249Y-80900901D01*
X115517237Y-80900968D01*
X115519643Y-80900444D01*
X115663717Y-80893447D01*
X115672827Y-80895648D01*
X115724817Y-80881820D01*
X115728176Y-80881026D01*
X115752499Y-80875998D01*
X115756936Y-80875327D01*
X115758282Y-80874803D01*
X115825769Y-80860850D01*
X115898169Y-80845883D01*
X115988153Y-80812094D01*
X115989510Y-80811660D01*
X115989869Y-80811451D01*
X116116820Y-80763783D01*
X116116823Y-80763780D01*
X116116826Y-80763780D01*
X116320149Y-80648837D01*
X116320151Y-80648835D01*
X116324367Y-80646452D01*
X116324871Y-80647344D01*
X116386728Y-80627720D01*
X116454177Y-80645951D01*
X116487738Y-80676145D01*
X116884097Y-81192055D01*
X116898443Y-81210753D01*
X116900111Y-81213034D01*
X117030450Y-81400063D01*
X117207852Y-81654626D01*
X117208309Y-81655281D01*
X117363287Y-81878587D01*
X117383998Y-81911462D01*
X117625123Y-82294210D01*
X117795364Y-82566383D01*
X118027247Y-82975425D01*
X118194575Y-83273725D01*
X118401994Y-83682805D01*
X118408647Y-83696118D01*
X118560039Y-83999051D01*
X118745241Y-84410663D01*
X118787465Y-84506314D01*
X118890957Y-84740761D01*
X119055000Y-85155868D01*
X119186593Y-85497210D01*
X119330014Y-85916077D01*
X119446288Y-86266699D01*
X119569353Y-86689208D01*
X119669474Y-87047538D01*
X119772294Y-87473269D01*
X119855660Y-87837990D01*
X119865783Y-87890481D01*
X119938294Y-88266470D01*
X120004433Y-88636302D01*
X120066896Y-89066893D01*
X120115469Y-89440694D01*
X120157772Y-89872746D01*
X120188524Y-90249389D01*
X120210677Y-90682157D01*
X120223443Y-91060586D01*
X120225470Y-91493352D01*
X120220153Y-91872461D01*
X120202097Y-92304456D01*
X120178666Y-92683270D01*
X120140594Y-93113656D01*
X120099082Y-93491168D01*
X120041090Y-93919128D01*
X119981578Y-94294412D01*
X119903792Y-94719116D01*
X119826436Y-95091127D01*
X119728992Y-95511839D01*
X119634000Y-95879607D01*
X119517074Y-96295514D01*
X119404720Y-96658063D01*
X119268511Y-97068376D01*
X119139097Y-97424827D01*
X118983840Y-97828735D01*
X118837790Y-98178054D01*
X118663668Y-98574941D01*
X118625668Y-98654878D01*
X118501444Y-98916190D01*
X118308751Y-99305224D01*
X118130871Y-99637506D01*
X117919825Y-100018061D01*
X117726926Y-100340409D01*
X117497791Y-100711794D01*
X117290578Y-101023289D01*
X117043526Y-101384973D01*
X116822950Y-101684499D01*
X116558084Y-102036025D01*
X116325142Y-102322616D01*
X116042528Y-102663522D01*
X115798529Y-102936036D01*
X115700360Y-103043841D01*
X115640669Y-103080156D01*
X115570821Y-103078434D01*
X115512992Y-103039223D01*
X115485542Y-102974971D01*
X115497186Y-102906079D01*
X115503680Y-102894388D01*
X115520456Y-102867690D01*
X115576313Y-102708059D01*
X115576313Y-102708058D01*
X115576314Y-102708056D01*
X115595249Y-102540002D01*
X115595249Y-102539997D01*
X115576314Y-102371943D01*
X115520454Y-102212305D01*
X115520452Y-102212302D01*
X115430481Y-102069115D01*
X115430476Y-102069109D01*
X115310890Y-101949523D01*
X115310884Y-101949518D01*
X115167697Y-101859547D01*
X115167694Y-101859545D01*
X115008056Y-101803685D01*
X114840003Y-101784751D01*
X114839997Y-101784751D01*
X114671943Y-101803685D01*
X114512305Y-101859545D01*
X114512302Y-101859547D01*
X114369115Y-101949518D01*
X114369109Y-101949523D01*
X114249523Y-102069109D01*
X114249518Y-102069115D01*
X114159547Y-102212302D01*
X114159545Y-102212305D01*
X114103685Y-102371943D01*
X114084751Y-102539997D01*
X114084751Y-102540002D01*
X114103685Y-102708056D01*
X114159545Y-102867694D01*
X114159547Y-102867697D01*
X114249518Y-103010884D01*
X114249523Y-103010890D01*
X114369109Y-103130476D01*
X114369115Y-103130481D01*
X114512302Y-103220452D01*
X114512305Y-103220454D01*
X114512309Y-103220455D01*
X114512310Y-103220456D01*
X114584913Y-103245860D01*
X114671943Y-103276314D01*
X114839997Y-103295249D01*
X114840000Y-103295249D01*
X114840003Y-103295249D01*
X115008056Y-103276314D01*
X115008059Y-103276313D01*
X115167690Y-103220456D01*
X115251060Y-103168070D01*
X115318295Y-103149070D01*
X115385131Y-103169437D01*
X115430345Y-103222704D01*
X115439584Y-103291961D01*
X115409913Y-103355217D01*
X115405360Y-103360094D01*
X115244744Y-103523106D01*
X114925682Y-103842362D01*
X114665863Y-104082018D01*
X114326864Y-104391085D01*
X114064781Y-104610629D01*
X113702875Y-104911023D01*
X113447382Y-105105070D01*
X113055069Y-105401042D01*
X112831328Y-105554706D01*
X112386093Y-105859224D01*
X112383711Y-105860774D01*
X112363683Y-105873165D01*
X111802394Y-106219935D01*
X111735015Y-106238424D01*
X111668336Y-106217551D01*
X111639612Y-106189604D01*
X111639205Y-106189944D01*
X111636111Y-106186230D01*
X111636109Y-106186226D01*
X111636105Y-106186222D01*
X111636101Y-106186217D01*
X111548140Y-106095972D01*
X111548137Y-106095969D01*
X111473090Y-106018973D01*
X111473089Y-106018972D01*
X111473088Y-106018971D01*
X111473081Y-106018965D01*
X111364826Y-105937879D01*
X111364498Y-105937441D01*
X111361963Y-105935734D01*
X111286164Y-105878958D01*
X111286161Y-105878956D01*
X111286157Y-105878953D01*
X111286151Y-105878949D01*
X111286145Y-105878946D01*
X111159546Y-105811816D01*
X111158679Y-105810970D01*
X111153011Y-105808352D01*
X111129387Y-105795825D01*
X111126429Y-105794151D01*
X111085826Y-105769681D01*
X111073175Y-105767248D01*
X110936989Y-105720261D01*
X110935253Y-105719027D01*
X110933909Y-105718736D01*
X110926815Y-105716751D01*
X110885763Y-105702587D01*
X110883108Y-105701603D01*
X110856904Y-105691200D01*
X110844713Y-105690805D01*
X110729667Y-105670239D01*
X110702766Y-105665430D01*
X110700013Y-105664057D01*
X110697200Y-105663920D01*
X110689318Y-105663026D01*
X110629101Y-105652261D01*
X110629097Y-105652261D01*
X110622119Y-105651160D01*
X110618421Y-105650358D01*
X110607061Y-105651788D01*
X110462827Y-105648676D01*
X110459038Y-105647474D01*
X110455124Y-105647928D01*
X110446638Y-105648327D01*
X110395613Y-105647226D01*
X110390800Y-105647497D01*
X110390791Y-105647351D01*
X110377507Y-105647914D01*
X110366306Y-105651169D01*
X110223274Y-105670416D01*
X110218510Y-105669687D01*
X110218274Y-105669755D01*
X110200555Y-105673473D01*
X110164143Y-105678373D01*
X110156246Y-105680722D01*
X110138182Y-105684426D01*
X110128589Y-105688948D01*
X110085316Y-105701818D01*
X110015447Y-105702061D01*
X109956537Y-105664492D01*
X109927291Y-105601037D01*
X109936994Y-105531845D01*
X109954109Y-105504303D01*
X110040910Y-105398538D01*
X110133814Y-105224727D01*
X110191024Y-105036132D01*
X110210341Y-104840000D01*
X110191024Y-104643868D01*
X110133814Y-104455273D01*
X110133811Y-104455269D01*
X110133811Y-104455266D01*
X110040913Y-104281467D01*
X110040909Y-104281460D01*
X109915883Y-104129116D01*
X109763539Y-104004090D01*
X109763532Y-104004086D01*
X109589733Y-103911188D01*
X109589727Y-103911186D01*
X109401132Y-103853976D01*
X109401129Y-103853975D01*
X109205000Y-103834659D01*
X109008870Y-103853975D01*
X108820266Y-103911188D01*
X108646467Y-104004086D01*
X108646460Y-104004090D01*
X108494116Y-104129116D01*
X108369090Y-104281460D01*
X108369086Y-104281467D01*
X108276188Y-104455266D01*
X108218975Y-104643870D01*
X108199659Y-104840000D01*
X108218975Y-105036129D01*
X108276188Y-105224733D01*
X108369086Y-105398532D01*
X108369090Y-105398539D01*
X108494116Y-105550883D01*
X108646460Y-105675909D01*
X108646467Y-105675913D01*
X108820266Y-105768811D01*
X108820269Y-105768811D01*
X108820273Y-105768814D01*
X109008868Y-105826024D01*
X109205000Y-105845341D01*
X109369751Y-105829114D01*
X109438395Y-105842133D01*
X109489105Y-105890197D01*
X109505780Y-105958048D01*
X109483124Y-106024143D01*
X109466886Y-106042816D01*
X109388065Y-106116997D01*
X109381214Y-106120472D01*
X109380890Y-106120915D01*
X109369662Y-106133604D01*
X109369770Y-106133702D01*
X109366529Y-106137264D01*
X109366528Y-106137266D01*
X109353248Y-106154362D01*
X109335219Y-106177574D01*
X109329560Y-106183911D01*
X109327948Y-106185483D01*
X109325284Y-106190364D01*
X109236787Y-106304299D01*
X109230073Y-106309140D01*
X109226809Y-106315590D01*
X109223279Y-106321680D01*
X109193671Y-106375232D01*
X109189397Y-106381914D01*
X109188500Y-106383135D01*
X109187051Y-106387204D01*
X109117286Y-106513387D01*
X109111005Y-106519601D01*
X109101459Y-106550025D01*
X109100550Y-106552707D01*
X109085676Y-106593490D01*
X109082746Y-106600248D01*
X109082535Y-106600663D01*
X109081987Y-106603603D01*
X109032629Y-106738935D01*
X109027078Y-106746462D01*
X109019942Y-106797260D01*
X109019377Y-106800611D01*
X109014217Y-106826818D01*
X109012834Y-106832249D01*
X109012785Y-106834092D01*
X108985102Y-106974690D01*
X108981403Y-107069335D01*
X108981154Y-107072113D01*
X108981262Y-107072933D01*
X108975979Y-107208060D01*
X108975980Y-107208076D01*
X108988413Y-107314541D01*
X109003071Y-107440059D01*
X109004007Y-107444811D01*
X109003000Y-107445009D01*
X109002144Y-107509900D01*
X108963597Y-107568174D01*
X108924551Y-107590454D01*
X108718656Y-107662417D01*
X108290343Y-107811398D01*
X107918280Y-107922996D01*
X107524345Y-108039232D01*
X107139436Y-108136113D01*
X106748599Y-108231385D01*
X106356309Y-108311618D01*
X105964816Y-108387431D01*
X105567459Y-108450297D01*
X105174607Y-108507046D01*
X104773825Y-108552154D01*
X104379682Y-108589966D01*
X103976670Y-108617108D01*
X103581714Y-108636009D01*
X103177636Y-108645069D01*
X102782362Y-108645069D01*
X102378283Y-108636009D01*
X101983327Y-108617108D01*
X101580315Y-108589966D01*
X101186172Y-108552154D01*
X100785390Y-108507046D01*
X100392538Y-108450297D01*
X99995181Y-108387431D01*
X99603688Y-108311618D01*
X99211398Y-108231385D01*
X98820561Y-108136113D01*
X98435652Y-108039232D01*
X98041717Y-107922996D01*
X97669654Y-107811398D01*
X97241223Y-107662376D01*
X97035448Y-107590455D01*
X96978657Y-107549754D01*
X96952886Y-107484811D01*
X96956494Y-107444902D01*
X96955993Y-107444804D01*
X96956928Y-107440054D01*
X96956928Y-107440053D01*
X96984019Y-107208073D01*
X96984018Y-107208060D01*
X96978735Y-107072911D01*
X96978868Y-107072380D01*
X96978595Y-107069334D01*
X96974896Y-106974694D01*
X96947214Y-106834093D01*
X96947324Y-106832883D01*
X96945784Y-106826832D01*
X96940621Y-106800611D01*
X96940609Y-106800548D01*
X96940049Y-106797225D01*
X96933455Y-106750290D01*
X96927370Y-106738935D01*
X96878014Y-106603613D01*
X96877878Y-106601486D01*
X96877257Y-106600259D01*
X96874326Y-106593500D01*
X96859412Y-106552608D01*
X96858528Y-106550002D01*
X101224751Y-106550002D01*
X101243685Y-106718056D01*
X101299545Y-106877694D01*
X101299547Y-106877697D01*
X101389518Y-107020884D01*
X101389523Y-107020890D01*
X101509109Y-107140476D01*
X101509115Y-107140481D01*
X101652302Y-107230452D01*
X101652305Y-107230454D01*
X101652309Y-107230455D01*
X101652310Y-107230456D01*
X101724913Y-107255860D01*
X101811943Y-107286314D01*
X101979997Y-107305249D01*
X101980000Y-107305249D01*
X101980003Y-107305249D01*
X102148056Y-107286314D01*
X102148059Y-107286313D01*
X102307690Y-107230456D01*
X102307692Y-107230454D01*
X102307694Y-107230454D01*
X102307697Y-107230452D01*
X102450884Y-107140481D01*
X102450885Y-107140480D01*
X102450890Y-107140477D01*
X102570477Y-107020890D01*
X102599505Y-106974693D01*
X102660452Y-106877697D01*
X102660454Y-106877694D01*
X102660454Y-106877692D01*
X102660456Y-106877690D01*
X102716313Y-106718059D01*
X102716313Y-106718058D01*
X102716314Y-106718056D01*
X102735249Y-106550002D01*
X103224751Y-106550002D01*
X103243685Y-106718056D01*
X103299545Y-106877694D01*
X103299547Y-106877697D01*
X103389518Y-107020884D01*
X103389523Y-107020890D01*
X103509109Y-107140476D01*
X103509115Y-107140481D01*
X103652302Y-107230452D01*
X103652305Y-107230454D01*
X103652309Y-107230455D01*
X103652310Y-107230456D01*
X103724913Y-107255860D01*
X103811943Y-107286314D01*
X103979997Y-107305249D01*
X103980000Y-107305249D01*
X103980003Y-107305249D01*
X104148056Y-107286314D01*
X104148059Y-107286313D01*
X104307690Y-107230456D01*
X104307692Y-107230454D01*
X104307694Y-107230454D01*
X104307697Y-107230452D01*
X104450884Y-107140481D01*
X104450885Y-107140480D01*
X104450890Y-107140477D01*
X104531367Y-107060000D01*
X104964659Y-107060000D01*
X104983975Y-107256129D01*
X104983976Y-107256132D01*
X105039768Y-107440054D01*
X105041188Y-107444733D01*
X105134086Y-107618532D01*
X105134090Y-107618539D01*
X105259116Y-107770883D01*
X105411460Y-107895909D01*
X105411467Y-107895913D01*
X105585266Y-107988811D01*
X105585269Y-107988811D01*
X105585273Y-107988814D01*
X105773868Y-108046024D01*
X105970000Y-108065341D01*
X106166132Y-108046024D01*
X106354727Y-107988814D01*
X106528538Y-107895910D01*
X106680883Y-107770883D01*
X106805910Y-107618538D01*
X106898663Y-107445009D01*
X106898811Y-107444733D01*
X106898811Y-107444732D01*
X106898814Y-107444727D01*
X106956024Y-107256132D01*
X106975341Y-107060000D01*
X106956024Y-106863868D01*
X106898814Y-106675273D01*
X106865424Y-106612806D01*
X106851183Y-106544406D01*
X106865424Y-106495902D01*
X106908814Y-106414727D01*
X106966024Y-106226132D01*
X106985341Y-106030000D01*
X106966024Y-105833868D01*
X106908814Y-105645273D01*
X106908811Y-105645269D01*
X106908811Y-105645266D01*
X106815913Y-105471467D01*
X106815909Y-105471460D01*
X106690883Y-105319116D01*
X106538539Y-105194090D01*
X106538532Y-105194086D01*
X106364733Y-105101188D01*
X106364727Y-105101186D01*
X106176132Y-105043976D01*
X106176129Y-105043975D01*
X105980000Y-105024659D01*
X105783870Y-105043975D01*
X105595266Y-105101188D01*
X105421467Y-105194086D01*
X105421460Y-105194090D01*
X105269116Y-105319116D01*
X105144090Y-105471460D01*
X105144086Y-105471467D01*
X105051188Y-105645266D01*
X104993975Y-105833870D01*
X104974659Y-106030000D01*
X104993975Y-106226129D01*
X105051187Y-106414730D01*
X105084574Y-106477191D01*
X105098816Y-106545594D01*
X105084575Y-106594097D01*
X105041187Y-106675271D01*
X104983975Y-106863870D01*
X104964659Y-107060000D01*
X104531367Y-107060000D01*
X104570477Y-107020890D01*
X104599505Y-106974693D01*
X104660452Y-106877697D01*
X104660454Y-106877694D01*
X104660454Y-106877692D01*
X104660456Y-106877690D01*
X104716313Y-106718059D01*
X104716313Y-106718058D01*
X104716314Y-106718056D01*
X104735249Y-106550002D01*
X104735249Y-106549997D01*
X104716314Y-106381943D01*
X104681038Y-106281130D01*
X104660456Y-106222310D01*
X104660455Y-106222309D01*
X104660454Y-106222305D01*
X104660452Y-106222302D01*
X104570481Y-106079115D01*
X104570476Y-106079109D01*
X104450890Y-105959523D01*
X104450884Y-105959518D01*
X104307697Y-105869547D01*
X104307694Y-105869545D01*
X104148056Y-105813685D01*
X103980003Y-105794751D01*
X103979997Y-105794751D01*
X103811943Y-105813685D01*
X103652305Y-105869545D01*
X103652302Y-105869547D01*
X103509115Y-105959518D01*
X103509109Y-105959523D01*
X103389523Y-106079109D01*
X103389518Y-106079115D01*
X103299547Y-106222302D01*
X103299545Y-106222305D01*
X103243685Y-106381943D01*
X103224751Y-106549997D01*
X103224751Y-106550002D01*
X102735249Y-106550002D01*
X102735249Y-106549997D01*
X102716314Y-106381943D01*
X102681038Y-106281130D01*
X102660456Y-106222310D01*
X102660455Y-106222309D01*
X102660454Y-106222305D01*
X102660452Y-106222302D01*
X102570481Y-106079115D01*
X102570476Y-106079109D01*
X102450890Y-105959523D01*
X102450884Y-105959518D01*
X102307697Y-105869547D01*
X102307694Y-105869545D01*
X102148056Y-105813685D01*
X101980003Y-105794751D01*
X101979997Y-105794751D01*
X101811943Y-105813685D01*
X101652305Y-105869545D01*
X101652302Y-105869547D01*
X101509115Y-105959518D01*
X101509109Y-105959523D01*
X101389523Y-106079109D01*
X101389518Y-106079115D01*
X101299547Y-106222302D01*
X101299545Y-106222305D01*
X101243685Y-106381943D01*
X101224751Y-106549997D01*
X101224751Y-106550002D01*
X96858528Y-106550002D01*
X96858522Y-106549983D01*
X96850085Y-106523095D01*
X96842710Y-106513384D01*
X96793540Y-106424452D01*
X96772943Y-106387198D01*
X96772273Y-106384194D01*
X96770606Y-106381922D01*
X96766331Y-106375239D01*
X96736719Y-106321680D01*
X96733195Y-106315605D01*
X96731480Y-106312216D01*
X96723207Y-106304295D01*
X96688154Y-106259167D01*
X96634705Y-106190353D01*
X96633250Y-106186656D01*
X96630436Y-106183909D01*
X96624775Y-106177569D01*
X96593472Y-106137268D01*
X96590229Y-106133703D01*
X96590336Y-106133604D01*
X96581524Y-106123645D01*
X96571936Y-106117000D01*
X96557452Y-106103369D01*
X96549311Y-106095707D01*
X96466842Y-106018092D01*
X96464405Y-106013935D01*
X96464209Y-106013798D01*
X96450149Y-106002382D01*
X96423395Y-105977203D01*
X96423387Y-105977197D01*
X96416591Y-105972550D01*
X96402330Y-105960863D01*
X96392778Y-105956267D01*
X96273633Y-105874800D01*
X96270082Y-105870458D01*
X96269572Y-105870215D01*
X96252895Y-105860621D01*
X96230594Y-105845372D01*
X96230592Y-105845371D01*
X96230589Y-105845369D01*
X96214770Y-105837836D01*
X96199438Y-105828921D01*
X96190316Y-105826191D01*
X96059993Y-105764133D01*
X96055261Y-105759898D01*
X96054582Y-105759703D01*
X96035536Y-105752487D01*
X96019724Y-105744958D01*
X96008268Y-105741550D01*
X95993833Y-105737257D01*
X95978098Y-105731212D01*
X95969752Y-105730094D01*
X95831407Y-105688947D01*
X95825498Y-105685120D01*
X95824810Y-105685041D01*
X95803754Y-105680723D01*
X95795856Y-105678374D01*
X95759435Y-105673473D01*
X95744025Y-105670239D01*
X95736726Y-105670417D01*
X95593692Y-105651170D01*
X95586675Y-105648041D01*
X95586123Y-105648069D01*
X95569207Y-105647352D01*
X95569199Y-105647498D01*
X95564385Y-105647227D01*
X95513366Y-105648328D01*
X95504878Y-105647929D01*
X95502642Y-105647669D01*
X95497170Y-105648677D01*
X95352935Y-105651789D01*
X95344943Y-105649628D01*
X95337868Y-105651162D01*
X95330911Y-105652259D01*
X95270682Y-105663027D01*
X95262799Y-105663921D01*
X95261299Y-105663994D01*
X95257233Y-105665431D01*
X95115286Y-105690807D01*
X95106498Y-105689848D01*
X95076837Y-105701623D01*
X95074183Y-105702607D01*
X95033184Y-105716753D01*
X95026092Y-105718738D01*
X95025635Y-105718836D01*
X95023005Y-105720265D01*
X94886816Y-105767252D01*
X94877479Y-105767687D01*
X94833542Y-105794167D01*
X94830584Y-105795841D01*
X94806993Y-105808350D01*
X94801912Y-105810697D01*
X94800452Y-105811819D01*
X94673397Y-105879190D01*
X94663772Y-105881160D01*
X94614477Y-105923261D01*
X94611383Y-105925738D01*
X94598047Y-105935727D01*
X94595746Y-105937276D01*
X94595181Y-105937874D01*
X94486913Y-106018971D01*
X94486910Y-106018973D01*
X94412117Y-106095707D01*
X94412117Y-106095708D01*
X94323898Y-106186218D01*
X94320795Y-106189945D01*
X94319988Y-106189273D01*
X94269125Y-106229460D01*
X94199587Y-106236259D01*
X94157604Y-106219938D01*
X93598152Y-105874302D01*
X93583730Y-105865380D01*
X93576249Y-105860751D01*
X93573878Y-105859208D01*
X93129413Y-105555217D01*
X93095382Y-105531845D01*
X92904892Y-105401017D01*
X92512934Y-105105312D01*
X92257107Y-104911011D01*
X91895471Y-104610842D01*
X91709751Y-104455266D01*
X91633102Y-104391058D01*
X91394936Y-104173921D01*
X91294403Y-104082264D01*
X91209647Y-104004086D01*
X91034278Y-103842326D01*
X90789639Y-103597538D01*
X90715388Y-103523241D01*
X90490745Y-103295249D01*
X90461986Y-103266061D01*
X90161585Y-102936165D01*
X89917433Y-102663480D01*
X89634993Y-102322783D01*
X89545193Y-102212302D01*
X89401876Y-102035977D01*
X89360107Y-101980542D01*
X107613285Y-101980542D01*
X107772056Y-102036100D01*
X107939996Y-102055022D01*
X107940004Y-102055022D01*
X108107943Y-102036100D01*
X108266713Y-101980543D01*
X108266714Y-101980542D01*
X108713285Y-101980542D01*
X108872056Y-102036100D01*
X109039996Y-102055022D01*
X109040004Y-102055022D01*
X109207943Y-102036100D01*
X109366713Y-101980543D01*
X109366714Y-101980541D01*
X109040001Y-101653829D01*
X109040000Y-101653829D01*
X108713285Y-101980542D01*
X108266714Y-101980542D01*
X107940001Y-101653829D01*
X107940000Y-101653829D01*
X107613285Y-101980542D01*
X89360107Y-101980542D01*
X89268940Y-101859547D01*
X89137174Y-101684670D01*
X88916438Y-101384927D01*
X88858619Y-101300279D01*
X107185254Y-101300279D01*
X107204175Y-101468214D01*
X107204176Y-101468219D01*
X107259732Y-101626990D01*
X107553955Y-101332768D01*
X107840000Y-101332768D01*
X107878197Y-101385341D01*
X107924162Y-101400276D01*
X107955838Y-101400276D01*
X108001803Y-101385341D01*
X108040000Y-101332768D01*
X108040000Y-101300276D01*
X108293553Y-101300276D01*
X108489999Y-101496723D01*
X108653955Y-101332768D01*
X108940000Y-101332768D01*
X108978197Y-101385341D01*
X109024162Y-101400276D01*
X109055838Y-101400276D01*
X109101803Y-101385341D01*
X109140000Y-101332768D01*
X109140000Y-101300277D01*
X109393553Y-101300277D01*
X109720266Y-101626990D01*
X109720267Y-101626989D01*
X109775824Y-101468219D01*
X109794746Y-101300279D01*
X109794746Y-101300272D01*
X109775824Y-101132332D01*
X109720266Y-100973561D01*
X109393553Y-101300275D01*
X109393553Y-101300277D01*
X109140000Y-101300277D01*
X109140000Y-101267784D01*
X109101803Y-101215211D01*
X109055838Y-101200276D01*
X109024162Y-101200276D01*
X108978197Y-101215211D01*
X108940000Y-101267784D01*
X108940000Y-101332768D01*
X108653955Y-101332768D01*
X108686447Y-101300276D01*
X108490000Y-101103828D01*
X108293553Y-101300276D01*
X108040000Y-101300276D01*
X108040000Y-101267784D01*
X108001803Y-101215211D01*
X107955838Y-101200276D01*
X107924162Y-101200276D01*
X107878197Y-101215211D01*
X107840000Y-101267784D01*
X107840000Y-101332768D01*
X107553955Y-101332768D01*
X107586447Y-101300276D01*
X107259732Y-100973561D01*
X107204176Y-101132329D01*
X107204175Y-101132334D01*
X107185254Y-101300272D01*
X107185254Y-101300279D01*
X88858619Y-101300279D01*
X88669469Y-101023362D01*
X88669420Y-101023289D01*
X88462192Y-100711772D01*
X88233145Y-100340529D01*
X88040147Y-100018016D01*
X87858237Y-99690000D01*
X103734659Y-99690000D01*
X103753975Y-99886129D01*
X103753976Y-99886132D01*
X103793996Y-100018061D01*
X103811188Y-100074733D01*
X103904086Y-100248532D01*
X103904090Y-100248539D01*
X104029116Y-100400883D01*
X104181460Y-100525909D01*
X104181467Y-100525913D01*
X104355266Y-100618811D01*
X104355269Y-100618811D01*
X104355273Y-100618814D01*
X104543868Y-100676024D01*
X104740000Y-100695341D01*
X104936132Y-100676024D01*
X105120791Y-100620008D01*
X107613285Y-100620008D01*
X107940000Y-100946723D01*
X107940001Y-100946723D01*
X108266714Y-100620008D01*
X108713285Y-100620008D01*
X109040000Y-100946723D01*
X109040001Y-100946723D01*
X109366714Y-100620008D01*
X109207943Y-100564452D01*
X109207938Y-100564451D01*
X109040004Y-100545530D01*
X109039996Y-100545530D01*
X108872058Y-100564451D01*
X108872053Y-100564452D01*
X108713285Y-100620008D01*
X108266714Y-100620008D01*
X108107943Y-100564452D01*
X108107938Y-100564451D01*
X107940004Y-100545530D01*
X107939996Y-100545530D01*
X107772058Y-100564451D01*
X107772053Y-100564452D01*
X107613285Y-100620008D01*
X105120791Y-100620008D01*
X105124727Y-100618814D01*
X105298538Y-100525910D01*
X105450883Y-100400883D01*
X105575910Y-100248538D01*
X105622361Y-100161632D01*
X105668811Y-100074733D01*
X105668811Y-100074732D01*
X105668814Y-100074727D01*
X105726024Y-99886132D01*
X105745341Y-99690000D01*
X105726024Y-99493868D01*
X105668814Y-99305273D01*
X105668811Y-99305269D01*
X105668811Y-99305266D01*
X105575913Y-99131467D01*
X105575909Y-99131460D01*
X105450883Y-98979116D01*
X105317069Y-98869298D01*
X105277735Y-98811552D01*
X105275864Y-98741708D01*
X105312052Y-98681940D01*
X105354780Y-98656403D01*
X105529305Y-98595334D01*
X105529307Y-98595333D01*
X105543107Y-98586661D01*
X105543107Y-98586660D01*
X105180001Y-98223553D01*
X105180000Y-98223553D01*
X104804492Y-98599059D01*
X104800831Y-98619958D01*
X104753480Y-98671336D01*
X104701821Y-98688419D01*
X104543870Y-98703975D01*
X104355266Y-98761188D01*
X104181467Y-98854086D01*
X104181460Y-98854090D01*
X104029116Y-98979116D01*
X103904090Y-99131460D01*
X103904086Y-99131467D01*
X103811188Y-99305266D01*
X103753975Y-99493870D01*
X103734659Y-99690000D01*
X87858237Y-99690000D01*
X87829169Y-99637585D01*
X87651247Y-99305224D01*
X87651231Y-99305193D01*
X87458570Y-98916223D01*
X87408811Y-98811552D01*
X87296302Y-98574879D01*
X87206418Y-98370002D01*
X88319751Y-98370002D01*
X88338685Y-98538056D01*
X88394545Y-98697694D01*
X88394547Y-98697697D01*
X88484518Y-98840884D01*
X88484523Y-98840890D01*
X88604109Y-98960476D01*
X88604115Y-98960481D01*
X88747302Y-99050452D01*
X88747305Y-99050454D01*
X88747309Y-99050455D01*
X88747310Y-99050456D01*
X88819913Y-99075860D01*
X88906943Y-99106314D01*
X89074997Y-99125249D01*
X89075000Y-99125249D01*
X89075003Y-99125249D01*
X89243056Y-99106314D01*
X89243059Y-99106313D01*
X89402690Y-99050456D01*
X89402692Y-99050454D01*
X89402694Y-99050454D01*
X89402697Y-99050452D01*
X89545884Y-98960481D01*
X89545885Y-98960480D01*
X89545890Y-98960477D01*
X89665477Y-98840890D01*
X89665481Y-98840884D01*
X89755452Y-98697697D01*
X89755454Y-98697694D01*
X89755454Y-98697692D01*
X89755456Y-98697690D01*
X89811313Y-98538059D01*
X89811313Y-98538058D01*
X89811314Y-98538056D01*
X89830249Y-98370002D01*
X95114751Y-98370002D01*
X95133685Y-98538056D01*
X95189545Y-98697694D01*
X95189547Y-98697697D01*
X95279518Y-98840884D01*
X95279523Y-98840890D01*
X95399109Y-98960476D01*
X95399115Y-98960481D01*
X95542302Y-99050452D01*
X95542305Y-99050454D01*
X95542309Y-99050455D01*
X95542310Y-99050456D01*
X95614913Y-99075860D01*
X95701943Y-99106314D01*
X95869997Y-99125249D01*
X95870000Y-99125249D01*
X95870003Y-99125249D01*
X96038056Y-99106314D01*
X96038059Y-99106313D01*
X96197690Y-99050456D01*
X96197692Y-99050454D01*
X96197694Y-99050454D01*
X96197697Y-99050452D01*
X96340884Y-98960481D01*
X96340885Y-98960480D01*
X96340890Y-98960477D01*
X96460477Y-98840890D01*
X96460481Y-98840884D01*
X96550452Y-98697697D01*
X96550454Y-98697694D01*
X96550454Y-98697692D01*
X96550456Y-98697690D01*
X96589307Y-98586660D01*
X103416891Y-98586660D01*
X103430697Y-98595335D01*
X103430701Y-98595337D01*
X103600858Y-98654877D01*
X103600861Y-98654878D01*
X103779997Y-98675062D01*
X103780003Y-98675062D01*
X103959138Y-98654878D01*
X104129307Y-98595333D01*
X104143107Y-98586661D01*
X104143107Y-98586660D01*
X103780001Y-98223553D01*
X103780000Y-98223553D01*
X103416891Y-98586660D01*
X96589307Y-98586660D01*
X96606313Y-98538059D01*
X96606313Y-98538058D01*
X96606314Y-98538056D01*
X96625249Y-98370002D01*
X96625249Y-98369997D01*
X96606314Y-98201943D01*
X96552568Y-98048346D01*
X96550456Y-98042310D01*
X96550455Y-98042309D01*
X96550454Y-98042305D01*
X96550452Y-98042302D01*
X96460481Y-97899115D01*
X96460476Y-97899109D01*
X96448027Y-97886660D01*
X102716891Y-97886660D01*
X102730697Y-97895335D01*
X102730701Y-97895337D01*
X102900859Y-97954878D01*
X102901644Y-97955057D01*
X102902099Y-97955311D01*
X102907430Y-97957177D01*
X102907103Y-97958110D01*
X102962623Y-97989166D01*
X102991952Y-98042875D01*
X102992823Y-98042571D01*
X102994672Y-98047855D01*
X102994940Y-98048346D01*
X102995120Y-98049137D01*
X103054662Y-98219298D01*
X103054667Y-98219308D01*
X103063338Y-98233108D01*
X103393954Y-97902492D01*
X103680000Y-97902492D01*
X103718197Y-97955065D01*
X103764162Y-97970000D01*
X103795838Y-97970000D01*
X103841803Y-97955065D01*
X103880000Y-97902492D01*
X103880000Y-97870000D01*
X104133553Y-97870000D01*
X104479998Y-98216447D01*
X104479999Y-98216447D01*
X104793955Y-97902492D01*
X105080000Y-97902492D01*
X105118197Y-97955065D01*
X105164162Y-97970000D01*
X105195838Y-97970000D01*
X105241803Y-97955065D01*
X105280000Y-97902492D01*
X105280000Y-97870000D01*
X105533553Y-97870000D01*
X105896660Y-98233107D01*
X105896661Y-98233107D01*
X105905333Y-98219307D01*
X105964877Y-98049141D01*
X105965056Y-98048358D01*
X105965310Y-98047902D01*
X105967177Y-98042569D01*
X105968111Y-98042895D01*
X105999164Y-97987379D01*
X106052874Y-97958050D01*
X106052569Y-97957177D01*
X106057871Y-97955321D01*
X106058358Y-97955056D01*
X106059141Y-97954877D01*
X106229307Y-97895333D01*
X106243107Y-97886661D01*
X106243107Y-97886660D01*
X105880000Y-97523553D01*
X105533553Y-97870000D01*
X105280000Y-97870000D01*
X105280000Y-97837508D01*
X105241803Y-97784935D01*
X105195838Y-97770000D01*
X105164162Y-97770000D01*
X105118197Y-97784935D01*
X105080000Y-97837508D01*
X105080000Y-97902492D01*
X104793955Y-97902492D01*
X104826447Y-97870000D01*
X104480000Y-97523553D01*
X104133553Y-97870000D01*
X103880000Y-97870000D01*
X103880000Y-97837508D01*
X103841803Y-97784935D01*
X103795838Y-97770000D01*
X103764162Y-97770000D01*
X103718197Y-97784935D01*
X103680000Y-97837508D01*
X103680000Y-97902492D01*
X103393954Y-97902492D01*
X103426447Y-97869999D01*
X103080001Y-97523553D01*
X103080000Y-97523553D01*
X102716891Y-97886660D01*
X96448027Y-97886660D01*
X96340890Y-97779523D01*
X96340884Y-97779518D01*
X96197697Y-97689547D01*
X96197694Y-97689545D01*
X96038056Y-97633685D01*
X95870003Y-97614751D01*
X95869997Y-97614751D01*
X95701943Y-97633685D01*
X95542305Y-97689545D01*
X95542302Y-97689547D01*
X95399115Y-97779518D01*
X95399109Y-97779523D01*
X95279523Y-97899109D01*
X95279518Y-97899115D01*
X95189547Y-98042302D01*
X95189545Y-98042305D01*
X95133685Y-98201943D01*
X95114751Y-98369997D01*
X95114751Y-98370002D01*
X89830249Y-98370002D01*
X89830249Y-98369997D01*
X89811314Y-98201943D01*
X89757568Y-98048346D01*
X89755456Y-98042310D01*
X89755455Y-98042309D01*
X89755454Y-98042305D01*
X89755452Y-98042302D01*
X89665481Y-97899115D01*
X89665476Y-97899109D01*
X89545890Y-97779523D01*
X89545884Y-97779518D01*
X89402697Y-97689547D01*
X89402694Y-97689545D01*
X89243056Y-97633685D01*
X89075003Y-97614751D01*
X89074997Y-97614751D01*
X88906943Y-97633685D01*
X88747305Y-97689545D01*
X88747302Y-97689547D01*
X88604115Y-97779518D01*
X88604109Y-97779523D01*
X88484523Y-97899109D01*
X88484518Y-97899115D01*
X88394547Y-98042302D01*
X88394545Y-98042305D01*
X88338685Y-98201943D01*
X88319751Y-98369997D01*
X88319751Y-98370002D01*
X87206418Y-98370002D01*
X87146360Y-98233108D01*
X87122247Y-98178147D01*
X87106488Y-98140454D01*
X86976148Y-97828712D01*
X86820919Y-97424877D01*
X86728384Y-97170002D01*
X102274938Y-97170002D01*
X102295121Y-97349138D01*
X102295122Y-97349141D01*
X102354662Y-97519298D01*
X102354667Y-97519308D01*
X102363338Y-97533108D01*
X102693955Y-97202492D01*
X102980000Y-97202492D01*
X103018197Y-97255065D01*
X103064162Y-97270000D01*
X103095838Y-97270000D01*
X103141803Y-97255065D01*
X103180000Y-97202492D01*
X103180000Y-97170000D01*
X103433553Y-97170000D01*
X103780000Y-97516447D01*
X104093955Y-97202492D01*
X104380000Y-97202492D01*
X104418197Y-97255065D01*
X104464162Y-97270000D01*
X104495838Y-97270000D01*
X104541803Y-97255065D01*
X104580000Y-97202492D01*
X104580000Y-97170000D01*
X104833553Y-97170000D01*
X105180000Y-97516446D01*
X105493955Y-97202492D01*
X105780000Y-97202492D01*
X105818197Y-97255065D01*
X105864162Y-97270000D01*
X105895838Y-97270000D01*
X105941803Y-97255065D01*
X105980000Y-97202492D01*
X105980000Y-97170000D01*
X106233553Y-97170000D01*
X106596660Y-97533107D01*
X106596661Y-97533107D01*
X106605333Y-97519307D01*
X106626085Y-97460002D01*
X109344751Y-97460002D01*
X109363685Y-97628056D01*
X109419545Y-97787694D01*
X109419547Y-97787697D01*
X109509518Y-97930884D01*
X109509523Y-97930890D01*
X109629109Y-98050476D01*
X109629115Y-98050481D01*
X109772302Y-98140452D01*
X109772305Y-98140454D01*
X109772309Y-98140455D01*
X109772310Y-98140456D01*
X109844913Y-98165860D01*
X109931943Y-98196314D01*
X110099997Y-98215249D01*
X110100000Y-98215249D01*
X110100003Y-98215249D01*
X110268056Y-98196314D01*
X110319923Y-98178165D01*
X110427690Y-98140456D01*
X110427692Y-98140454D01*
X110427694Y-98140454D01*
X110427697Y-98140452D01*
X110570884Y-98050481D01*
X110570885Y-98050480D01*
X110570890Y-98050477D01*
X110690477Y-97930890D01*
X110710446Y-97899110D01*
X110780452Y-97787697D01*
X110780454Y-97787694D01*
X110780454Y-97787692D01*
X110780456Y-97787690D01*
X110836313Y-97628059D01*
X110836313Y-97628058D01*
X110836314Y-97628056D01*
X110855249Y-97460002D01*
X110855249Y-97459997D01*
X110836314Y-97291943D01*
X110780454Y-97132305D01*
X110780452Y-97132302D01*
X110690481Y-96989115D01*
X110690476Y-96989109D01*
X110614048Y-96912681D01*
X110580563Y-96851358D01*
X110585547Y-96781666D01*
X110614048Y-96737319D01*
X110614047Y-96737319D01*
X110690477Y-96660890D01*
X110692212Y-96658129D01*
X110780452Y-96517697D01*
X110780454Y-96517694D01*
X110780454Y-96517692D01*
X110780456Y-96517690D01*
X110818137Y-96410002D01*
X113054751Y-96410002D01*
X113073685Y-96578056D01*
X113129545Y-96737694D01*
X113129547Y-96737697D01*
X113219518Y-96880884D01*
X113219523Y-96880890D01*
X113339109Y-97000476D01*
X113339115Y-97000481D01*
X113482302Y-97090452D01*
X113482305Y-97090454D01*
X113482309Y-97090455D01*
X113482310Y-97090456D01*
X113554913Y-97115860D01*
X113641943Y-97146314D01*
X113809997Y-97165249D01*
X113810000Y-97165249D01*
X113810003Y-97165249D01*
X113978056Y-97146314D01*
X114018077Y-97132310D01*
X114137690Y-97090456D01*
X114137692Y-97090454D01*
X114137694Y-97090454D01*
X114137697Y-97090452D01*
X114280884Y-97000481D01*
X114280885Y-97000480D01*
X114280890Y-97000477D01*
X114400477Y-96880890D01*
X114400481Y-96880884D01*
X114490452Y-96737697D01*
X114490454Y-96737694D01*
X114490454Y-96737692D01*
X114490456Y-96737690D01*
X114546313Y-96578059D01*
X114546313Y-96578058D01*
X114546314Y-96578056D01*
X114565249Y-96410002D01*
X114565249Y-96409997D01*
X114546314Y-96241943D01*
X114508231Y-96133108D01*
X114490456Y-96082310D01*
X114490455Y-96082309D01*
X114490454Y-96082305D01*
X114490452Y-96082302D01*
X114400481Y-95939115D01*
X114400476Y-95939109D01*
X114280890Y-95819523D01*
X114280884Y-95819518D01*
X114137697Y-95729547D01*
X114137694Y-95729545D01*
X113978056Y-95673685D01*
X113810003Y-95654751D01*
X113809997Y-95654751D01*
X113641943Y-95673685D01*
X113482305Y-95729545D01*
X113482302Y-95729547D01*
X113339115Y-95819518D01*
X113339109Y-95819523D01*
X113219523Y-95939109D01*
X113219518Y-95939115D01*
X113129547Y-96082302D01*
X113129545Y-96082305D01*
X113073685Y-96241943D01*
X113054751Y-96409997D01*
X113054751Y-96410002D01*
X110818137Y-96410002D01*
X110836313Y-96358059D01*
X110836313Y-96358058D01*
X110836314Y-96358056D01*
X110855249Y-96190002D01*
X110855249Y-96189997D01*
X110836314Y-96021943D01*
X110805860Y-95934913D01*
X110780456Y-95862310D01*
X110780455Y-95862309D01*
X110780454Y-95862305D01*
X110780452Y-95862302D01*
X110690481Y-95719115D01*
X110690476Y-95719109D01*
X110570890Y-95599523D01*
X110570884Y-95599518D01*
X110427697Y-95509547D01*
X110427694Y-95509545D01*
X110268056Y-95453685D01*
X110100003Y-95434751D01*
X110099997Y-95434751D01*
X109931943Y-95453685D01*
X109772305Y-95509545D01*
X109772302Y-95509547D01*
X109629115Y-95599518D01*
X109629109Y-95599523D01*
X109509523Y-95719109D01*
X109509518Y-95719115D01*
X109419547Y-95862302D01*
X109419545Y-95862305D01*
X109363685Y-96021943D01*
X109344751Y-96189997D01*
X109344751Y-96190002D01*
X109363685Y-96358056D01*
X109419545Y-96517694D01*
X109419547Y-96517697D01*
X109509518Y-96660884D01*
X109509523Y-96660890D01*
X109585952Y-96737319D01*
X109619437Y-96798642D01*
X109614453Y-96868334D01*
X109585952Y-96912681D01*
X109509523Y-96989109D01*
X109509518Y-96989115D01*
X109419547Y-97132302D01*
X109419545Y-97132305D01*
X109363685Y-97291943D01*
X109344751Y-97459997D01*
X109344751Y-97460002D01*
X106626085Y-97460002D01*
X106664878Y-97349138D01*
X106685062Y-97170002D01*
X106685062Y-97169997D01*
X106664878Y-96990861D01*
X106664877Y-96990858D01*
X106605337Y-96820701D01*
X106605335Y-96820697D01*
X106596660Y-96806891D01*
X106233553Y-97169999D01*
X106233553Y-97170000D01*
X105980000Y-97170000D01*
X105980000Y-97137508D01*
X105941803Y-97084935D01*
X105895838Y-97070000D01*
X105864162Y-97070000D01*
X105818197Y-97084935D01*
X105780000Y-97137508D01*
X105780000Y-97202492D01*
X105493955Y-97202492D01*
X105526447Y-97170000D01*
X105180000Y-96823553D01*
X104833553Y-97169999D01*
X104833553Y-97170000D01*
X104580000Y-97170000D01*
X104580000Y-97137508D01*
X104541803Y-97084935D01*
X104495838Y-97070000D01*
X104464162Y-97070000D01*
X104418197Y-97084935D01*
X104380000Y-97137508D01*
X104380000Y-97202492D01*
X104093955Y-97202492D01*
X104126447Y-97170000D01*
X103780000Y-96823553D01*
X103433553Y-97170000D01*
X103180000Y-97170000D01*
X103180000Y-97137508D01*
X103141803Y-97084935D01*
X103095838Y-97070000D01*
X103064162Y-97070000D01*
X103018197Y-97084935D01*
X102980000Y-97137508D01*
X102980000Y-97202492D01*
X102693955Y-97202492D01*
X102726447Y-97170000D01*
X102726447Y-97169999D01*
X102363338Y-96806890D01*
X102363338Y-96806891D01*
X102354664Y-96820696D01*
X102295122Y-96990858D01*
X102295121Y-96990861D01*
X102274938Y-97169997D01*
X102274938Y-97170002D01*
X86728384Y-97170002D01*
X86728383Y-97170000D01*
X86691474Y-97068342D01*
X86577116Y-96723851D01*
X86555299Y-96658129D01*
X86496997Y-96470000D01*
X102733552Y-96470000D01*
X103080000Y-96816447D01*
X103080001Y-96816447D01*
X103393955Y-96502492D01*
X103680000Y-96502492D01*
X103718197Y-96555065D01*
X103764162Y-96570000D01*
X103795838Y-96570000D01*
X103841803Y-96555065D01*
X103880000Y-96502492D01*
X103880000Y-96470000D01*
X104133553Y-96470000D01*
X104480000Y-96816447D01*
X104793955Y-96502492D01*
X105080000Y-96502492D01*
X105118197Y-96555065D01*
X105164162Y-96570000D01*
X105195838Y-96570000D01*
X105241803Y-96555065D01*
X105280000Y-96502492D01*
X105280000Y-96470000D01*
X105533553Y-96470000D01*
X105880000Y-96816447D01*
X106226447Y-96470000D01*
X105880000Y-96123553D01*
X105533553Y-96470000D01*
X105280000Y-96470000D01*
X105280000Y-96437508D01*
X105241803Y-96384935D01*
X105195838Y-96370000D01*
X105164162Y-96370000D01*
X105118197Y-96384935D01*
X105080000Y-96437508D01*
X105080000Y-96502492D01*
X104793955Y-96502492D01*
X104826447Y-96470000D01*
X104480000Y-96123553D01*
X104133553Y-96470000D01*
X103880000Y-96470000D01*
X103880000Y-96437508D01*
X103841803Y-96384935D01*
X103795838Y-96370000D01*
X103764162Y-96370000D01*
X103718197Y-96384935D01*
X103680000Y-96437508D01*
X103680000Y-96502492D01*
X103393955Y-96502492D01*
X103426447Y-96470000D01*
X103426447Y-96469999D01*
X103080001Y-96123553D01*
X103080000Y-96123553D01*
X102733552Y-96469999D01*
X102733552Y-96470000D01*
X86496997Y-96470000D01*
X86442910Y-96295469D01*
X86427862Y-96241943D01*
X86326013Y-95879666D01*
X86297688Y-95770002D01*
X102274938Y-95770002D01*
X102295121Y-95949138D01*
X102295122Y-95949141D01*
X102354662Y-96119298D01*
X102354667Y-96119308D01*
X102363338Y-96133108D01*
X102693955Y-95802492D01*
X102980000Y-95802492D01*
X103018197Y-95855065D01*
X103064162Y-95870000D01*
X103095838Y-95870000D01*
X103141803Y-95855065D01*
X103180000Y-95802492D01*
X103180000Y-95769999D01*
X103433553Y-95769999D01*
X103779999Y-96116447D01*
X103780000Y-96116447D01*
X104093955Y-95802492D01*
X104380000Y-95802492D01*
X104418197Y-95855065D01*
X104464162Y-95870000D01*
X104495838Y-95870000D01*
X104541803Y-95855065D01*
X104580000Y-95802492D01*
X104580000Y-95770000D01*
X104833553Y-95770000D01*
X105180000Y-96116447D01*
X105493955Y-95802492D01*
X105780000Y-95802492D01*
X105818197Y-95855065D01*
X105864162Y-95870000D01*
X105895838Y-95870000D01*
X105941803Y-95855065D01*
X105980000Y-95802492D01*
X105980000Y-95770000D01*
X106233553Y-95770000D01*
X106596660Y-96133107D01*
X106596661Y-96133107D01*
X106605333Y-96119307D01*
X106664878Y-95949138D01*
X106685062Y-95770002D01*
X106685062Y-95769997D01*
X106664878Y-95590861D01*
X106664877Y-95590858D01*
X106605337Y-95420701D01*
X106605335Y-95420697D01*
X106596660Y-95406891D01*
X106233553Y-95769999D01*
X106233553Y-95770000D01*
X105980000Y-95770000D01*
X105980000Y-95737508D01*
X105941803Y-95684935D01*
X105895838Y-95670000D01*
X105864162Y-95670000D01*
X105818197Y-95684935D01*
X105780000Y-95737508D01*
X105780000Y-95802492D01*
X105493955Y-95802492D01*
X105526447Y-95770000D01*
X105180000Y-95423553D01*
X104833553Y-95770000D01*
X104580000Y-95770000D01*
X104580000Y-95737508D01*
X104541803Y-95684935D01*
X104495838Y-95670000D01*
X104464162Y-95670000D01*
X104418197Y-95684935D01*
X104380000Y-95737508D01*
X104380000Y-95802492D01*
X104093955Y-95802492D01*
X104126447Y-95770000D01*
X104126447Y-95769999D01*
X103780001Y-95423553D01*
X103780000Y-95423553D01*
X103433553Y-95769998D01*
X103433553Y-95769999D01*
X103180000Y-95769999D01*
X103180000Y-95737508D01*
X103141803Y-95684935D01*
X103095838Y-95670000D01*
X103064162Y-95670000D01*
X103018197Y-95684935D01*
X102980000Y-95737508D01*
X102980000Y-95802492D01*
X102693955Y-95802492D01*
X102726447Y-95770000D01*
X102726447Y-95769999D01*
X102363338Y-95406890D01*
X102363338Y-95406891D01*
X102354664Y-95420696D01*
X102295122Y-95590858D01*
X102295121Y-95590861D01*
X102274938Y-95769997D01*
X102274938Y-95770002D01*
X86297688Y-95770002D01*
X86230989Y-95511770D01*
X86133571Y-95091169D01*
X86097978Y-94920002D01*
X96544751Y-94920002D01*
X96563685Y-95088056D01*
X96619545Y-95247694D01*
X96619547Y-95247697D01*
X96709518Y-95390884D01*
X96709523Y-95390890D01*
X96829109Y-95510476D01*
X96829115Y-95510481D01*
X96972302Y-95600452D01*
X96972305Y-95600454D01*
X96972309Y-95600455D01*
X96972310Y-95600456D01*
X97044913Y-95625860D01*
X97131943Y-95656314D01*
X97299997Y-95675249D01*
X97300000Y-95675249D01*
X97300003Y-95675249D01*
X97468056Y-95656314D01*
X97472523Y-95654751D01*
X97627690Y-95600456D01*
X97627692Y-95600454D01*
X97627694Y-95600454D01*
X97627697Y-95600452D01*
X97770884Y-95510481D01*
X97770885Y-95510480D01*
X97770890Y-95510477D01*
X97890477Y-95390890D01*
X97951670Y-95293503D01*
X97980452Y-95247697D01*
X97980454Y-95247694D01*
X97980454Y-95247692D01*
X97980456Y-95247690D01*
X98036313Y-95088059D01*
X98036313Y-95088058D01*
X98036314Y-95088056D01*
X98040226Y-95053338D01*
X102716890Y-95053338D01*
X103079999Y-95416447D01*
X103393955Y-95102492D01*
X103680000Y-95102492D01*
X103718197Y-95155065D01*
X103764162Y-95170000D01*
X103795838Y-95170000D01*
X103841803Y-95155065D01*
X103880000Y-95102492D01*
X103880000Y-95069999D01*
X104133553Y-95069999D01*
X104479999Y-95416447D01*
X104480000Y-95416447D01*
X104793955Y-95102492D01*
X105080000Y-95102492D01*
X105118197Y-95155065D01*
X105164162Y-95170000D01*
X105195838Y-95170000D01*
X105241803Y-95155065D01*
X105280000Y-95102492D01*
X105280000Y-95070000D01*
X105533553Y-95070000D01*
X105880000Y-95416447D01*
X105880001Y-95416447D01*
X106243108Y-95053338D01*
X106243108Y-95053337D01*
X106229308Y-95044667D01*
X106229298Y-95044662D01*
X106059137Y-94985120D01*
X106058346Y-94984940D01*
X106057886Y-94984683D01*
X106052571Y-94982823D01*
X106052896Y-94981891D01*
X105997370Y-94950827D01*
X105968049Y-94897124D01*
X105967177Y-94897430D01*
X105965322Y-94892130D01*
X105965057Y-94891644D01*
X105964878Y-94890859D01*
X105905337Y-94720701D01*
X105905335Y-94720697D01*
X105896660Y-94706891D01*
X105533553Y-95069999D01*
X105533553Y-95070000D01*
X105280000Y-95070000D01*
X105280000Y-95037508D01*
X105241803Y-94984935D01*
X105195838Y-94970000D01*
X105164162Y-94970000D01*
X105118197Y-94984935D01*
X105080000Y-95037508D01*
X105080000Y-95102492D01*
X104793955Y-95102492D01*
X104826447Y-95070000D01*
X104826447Y-95069999D01*
X104479999Y-94723553D01*
X104479998Y-94723553D01*
X104133553Y-95069998D01*
X104133553Y-95069999D01*
X103880000Y-95069999D01*
X103880000Y-95037508D01*
X103841803Y-94984935D01*
X103795838Y-94970000D01*
X103764162Y-94970000D01*
X103718197Y-94984935D01*
X103680000Y-95037508D01*
X103680000Y-95102492D01*
X103393955Y-95102492D01*
X103426447Y-95070000D01*
X103426447Y-95069999D01*
X103063338Y-94706890D01*
X103063338Y-94706891D01*
X103054665Y-94720695D01*
X102995118Y-94890869D01*
X102994939Y-94891656D01*
X102994683Y-94892112D01*
X102992823Y-94897430D01*
X102991890Y-94897103D01*
X102960824Y-94952631D01*
X102907125Y-94981952D01*
X102907430Y-94982823D01*
X102902143Y-94984672D01*
X102901656Y-94984939D01*
X102900869Y-94985118D01*
X102730695Y-95044665D01*
X102716891Y-95053338D01*
X102716890Y-95053338D01*
X98040226Y-95053338D01*
X98055249Y-94920002D01*
X98055249Y-94919997D01*
X98036314Y-94751943D01*
X97980454Y-94592305D01*
X97980452Y-94592302D01*
X97890481Y-94449115D01*
X97890476Y-94449109D01*
X97794705Y-94353338D01*
X103416890Y-94353338D01*
X103780000Y-94716447D01*
X103780001Y-94716447D01*
X104143108Y-94353338D01*
X104816890Y-94353338D01*
X105180000Y-94716447D01*
X105180001Y-94716447D01*
X105543108Y-94353338D01*
X105543108Y-94353337D01*
X105529308Y-94344667D01*
X105529298Y-94344662D01*
X105359141Y-94285122D01*
X105359138Y-94285121D01*
X105180003Y-94264938D01*
X105179997Y-94264938D01*
X105000861Y-94285121D01*
X105000858Y-94285122D01*
X104830696Y-94344664D01*
X104816891Y-94353338D01*
X104816890Y-94353338D01*
X104143108Y-94353338D01*
X104143108Y-94353337D01*
X104129308Y-94344667D01*
X104129298Y-94344662D01*
X103959141Y-94285122D01*
X103959138Y-94285121D01*
X103780003Y-94264938D01*
X103779997Y-94264938D01*
X103600861Y-94285121D01*
X103600858Y-94285122D01*
X103430696Y-94344664D01*
X103416891Y-94353338D01*
X103416890Y-94353338D01*
X97794705Y-94353338D01*
X97770890Y-94329523D01*
X97770884Y-94329518D01*
X97627697Y-94239547D01*
X97627694Y-94239545D01*
X97468056Y-94183685D01*
X97300003Y-94164751D01*
X97299997Y-94164751D01*
X97131943Y-94183685D01*
X96972305Y-94239545D01*
X96972302Y-94239547D01*
X96829115Y-94329518D01*
X96829109Y-94329523D01*
X96709523Y-94449109D01*
X96709518Y-94449115D01*
X96619547Y-94592302D01*
X96619545Y-94592305D01*
X96563685Y-94751943D01*
X96544751Y-94919997D01*
X96544751Y-94920002D01*
X86097978Y-94920002D01*
X86056203Y-94719101D01*
X85978427Y-94294450D01*
X85969720Y-94239547D01*
X85918897Y-93919054D01*
X85882439Y-93650002D01*
X94834751Y-93650002D01*
X94853685Y-93818056D01*
X94909545Y-93977694D01*
X94909547Y-93977697D01*
X94999518Y-94120884D01*
X94999523Y-94120890D01*
X95119109Y-94240476D01*
X95119115Y-94240481D01*
X95262302Y-94330452D01*
X95262305Y-94330454D01*
X95262309Y-94330455D01*
X95262310Y-94330456D01*
X95327703Y-94353338D01*
X95421943Y-94386314D01*
X95589997Y-94405249D01*
X95590000Y-94405249D01*
X95590003Y-94405249D01*
X95758056Y-94386314D01*
X95758059Y-94386313D01*
X95917690Y-94330456D01*
X95917692Y-94330454D01*
X95917694Y-94330454D01*
X95917697Y-94330452D01*
X96060884Y-94240481D01*
X96060885Y-94240480D01*
X96060890Y-94240477D01*
X96161365Y-94140002D01*
X108594751Y-94140002D01*
X108613685Y-94308056D01*
X108669545Y-94467694D01*
X108669547Y-94467697D01*
X108759518Y-94610884D01*
X108759523Y-94610890D01*
X108879109Y-94730476D01*
X108879115Y-94730481D01*
X109022302Y-94820452D01*
X109022305Y-94820454D01*
X109022309Y-94820455D01*
X109022310Y-94820456D01*
X109094913Y-94845860D01*
X109181943Y-94876314D01*
X109349997Y-94895249D01*
X109350000Y-94895249D01*
X109350003Y-94895249D01*
X109518056Y-94876314D01*
X109518059Y-94876313D01*
X109677690Y-94820456D01*
X109677692Y-94820454D01*
X109677694Y-94820454D01*
X109677697Y-94820452D01*
X109820884Y-94730481D01*
X109820885Y-94730480D01*
X109820890Y-94730477D01*
X109940477Y-94610890D01*
X109940481Y-94610884D01*
X110030452Y-94467697D01*
X110030454Y-94467694D01*
X110030454Y-94467692D01*
X110030456Y-94467690D01*
X110086313Y-94308059D01*
X110086313Y-94308058D01*
X110086314Y-94308056D01*
X110089977Y-94275542D01*
X115420500Y-94275542D01*
X115461441Y-94441650D01*
X115461442Y-94441653D01*
X115461443Y-94441654D01*
X115540950Y-94593141D01*
X115654399Y-94721199D01*
X115795198Y-94818385D01*
X115882472Y-94851483D01*
X115955160Y-94879051D01*
X115955162Y-94879051D01*
X115955164Y-94879052D01*
X115997572Y-94884201D01*
X116082387Y-94894500D01*
X116082389Y-94894500D01*
X116167613Y-94894500D01*
X116231223Y-94886776D01*
X116294836Y-94879052D01*
X116454802Y-94818385D01*
X116595601Y-94721199D01*
X116709050Y-94593141D01*
X116788557Y-94441654D01*
X116829500Y-94275542D01*
X116829500Y-94104458D01*
X116798256Y-93977697D01*
X116788558Y-93938349D01*
X116788557Y-93938348D01*
X116788557Y-93938346D01*
X116709050Y-93786859D01*
X116595601Y-93658801D01*
X116582853Y-93650002D01*
X116454803Y-93561616D01*
X116454802Y-93561615D01*
X116294839Y-93500948D01*
X116294834Y-93500947D01*
X116167613Y-93485500D01*
X116167611Y-93485500D01*
X116082389Y-93485500D01*
X116082387Y-93485500D01*
X115955165Y-93500947D01*
X115955160Y-93500948D01*
X115795197Y-93561615D01*
X115795196Y-93561616D01*
X115654399Y-93658800D01*
X115540950Y-93786859D01*
X115461441Y-93938349D01*
X115420500Y-94104457D01*
X115420500Y-94275542D01*
X110089977Y-94275542D01*
X110105249Y-94140002D01*
X110105249Y-94139997D01*
X110086314Y-93971943D01*
X110055860Y-93884913D01*
X110030456Y-93812310D01*
X110030455Y-93812309D01*
X110030454Y-93812305D01*
X110030452Y-93812302D01*
X109940481Y-93669115D01*
X109940476Y-93669109D01*
X109820890Y-93549523D01*
X109820884Y-93549518D01*
X109677697Y-93459547D01*
X109677694Y-93459545D01*
X109518056Y-93403685D01*
X109350003Y-93384751D01*
X109349997Y-93384751D01*
X109181943Y-93403685D01*
X109022305Y-93459545D01*
X109022302Y-93459547D01*
X108879115Y-93549518D01*
X108879109Y-93549523D01*
X108759523Y-93669109D01*
X108759518Y-93669115D01*
X108669547Y-93812302D01*
X108669545Y-93812305D01*
X108613685Y-93971943D01*
X108594751Y-94139997D01*
X108594751Y-94140002D01*
X96161365Y-94140002D01*
X96180477Y-94120890D01*
X96270452Y-93977697D01*
X96270454Y-93977694D01*
X96270454Y-93977692D01*
X96270456Y-93977690D01*
X96326313Y-93818059D01*
X96326313Y-93818058D01*
X96326314Y-93818056D01*
X96345249Y-93650002D01*
X96345249Y-93649997D01*
X96326314Y-93481943D01*
X96270454Y-93322305D01*
X96270452Y-93322302D01*
X96180481Y-93179115D01*
X96180476Y-93179109D01*
X96060890Y-93059523D01*
X96060884Y-93059518D01*
X95917697Y-92969547D01*
X95917694Y-92969545D01*
X95758056Y-92913685D01*
X95590003Y-92894751D01*
X95589997Y-92894751D01*
X95421943Y-92913685D01*
X95262305Y-92969545D01*
X95262302Y-92969547D01*
X95119115Y-93059518D01*
X95119109Y-93059523D01*
X94999523Y-93179109D01*
X94999518Y-93179115D01*
X94909547Y-93322302D01*
X94909545Y-93322305D01*
X94853685Y-93481943D01*
X94834751Y-93649997D01*
X94834751Y-93650002D01*
X85882439Y-93650002D01*
X85870462Y-93561616D01*
X85860925Y-93491243D01*
X85842348Y-93322302D01*
X85819397Y-93113592D01*
X85781337Y-92683341D01*
X85777174Y-92616024D01*
X85773934Y-92563652D01*
X97584751Y-92563652D01*
X97603685Y-92731706D01*
X97659545Y-92891344D01*
X97659547Y-92891347D01*
X97749518Y-93034534D01*
X97749523Y-93034540D01*
X97869109Y-93154126D01*
X97869115Y-93154131D01*
X98012302Y-93244102D01*
X98012305Y-93244104D01*
X98012309Y-93244105D01*
X98012310Y-93244106D01*
X98084913Y-93269510D01*
X98171943Y-93299964D01*
X98339997Y-93318899D01*
X98340000Y-93318899D01*
X98340003Y-93318899D01*
X98508056Y-93299964D01*
X98508059Y-93299963D01*
X98667690Y-93244106D01*
X98667692Y-93244104D01*
X98667694Y-93244104D01*
X98667697Y-93244102D01*
X98810884Y-93154131D01*
X98810885Y-93154130D01*
X98810890Y-93154127D01*
X98930477Y-93034540D01*
X98971315Y-92969547D01*
X99020452Y-92891347D01*
X99020454Y-92891344D01*
X99020454Y-92891342D01*
X99020456Y-92891340D01*
X99076313Y-92731709D01*
X99076313Y-92731708D01*
X99076314Y-92731706D01*
X99095249Y-92563652D01*
X99095249Y-92563647D01*
X99076314Y-92395593D01*
X99020454Y-92235955D01*
X99020452Y-92235952D01*
X98930481Y-92092765D01*
X98930476Y-92092759D01*
X98810890Y-91973173D01*
X98810884Y-91973168D01*
X98667697Y-91883197D01*
X98667694Y-91883195D01*
X98508056Y-91827335D01*
X98340003Y-91808401D01*
X98339997Y-91808401D01*
X98171943Y-91827335D01*
X98012305Y-91883195D01*
X98012302Y-91883197D01*
X97869115Y-91973168D01*
X97869109Y-91973173D01*
X97749523Y-92092759D01*
X97749518Y-92092765D01*
X97659547Y-92235952D01*
X97659545Y-92235955D01*
X97603685Y-92395593D01*
X97584751Y-92563647D01*
X97584751Y-92563652D01*
X85773934Y-92563652D01*
X85757896Y-92304368D01*
X85739846Y-91872508D01*
X85739846Y-91872461D01*
X85734527Y-91493288D01*
X85736323Y-91110002D01*
X94784751Y-91110002D01*
X94803685Y-91278056D01*
X94859545Y-91437694D01*
X94859547Y-91437697D01*
X94949518Y-91580884D01*
X94949523Y-91580890D01*
X95069109Y-91700476D01*
X95069115Y-91700481D01*
X95212302Y-91790452D01*
X95212305Y-91790454D01*
X95212309Y-91790455D01*
X95212310Y-91790456D01*
X95263594Y-91808401D01*
X95371943Y-91846314D01*
X95539997Y-91865249D01*
X95540000Y-91865249D01*
X95540003Y-91865249D01*
X95708056Y-91846314D01*
X95708059Y-91846313D01*
X95867690Y-91790456D01*
X95867692Y-91790454D01*
X95867694Y-91790454D01*
X95867697Y-91790452D01*
X96010884Y-91700481D01*
X96010885Y-91700480D01*
X96010890Y-91700477D01*
X96130477Y-91580890D01*
X96130481Y-91580884D01*
X96220452Y-91437697D01*
X96220454Y-91437694D01*
X96220454Y-91437692D01*
X96220456Y-91437690D01*
X96276313Y-91278059D01*
X96276313Y-91278058D01*
X96276314Y-91278056D01*
X96295249Y-91110002D01*
X96295249Y-91109997D01*
X96276314Y-90941943D01*
X96224578Y-90794090D01*
X96220456Y-90782310D01*
X96220455Y-90782309D01*
X96220454Y-90782305D01*
X96220452Y-90782302D01*
X96130481Y-90639115D01*
X96130476Y-90639109D01*
X96010890Y-90519523D01*
X96010884Y-90519518D01*
X95867697Y-90429547D01*
X95867694Y-90429545D01*
X95708056Y-90373685D01*
X95540003Y-90354751D01*
X95539997Y-90354751D01*
X95371943Y-90373685D01*
X95212305Y-90429545D01*
X95212302Y-90429547D01*
X95069115Y-90519518D01*
X95069109Y-90519523D01*
X94949523Y-90639109D01*
X94949518Y-90639115D01*
X94859547Y-90782302D01*
X94859545Y-90782305D01*
X94803685Y-90941943D01*
X94784751Y-91109997D01*
X94784751Y-91110002D01*
X85736323Y-91110002D01*
X85736555Y-91060586D01*
X85749321Y-90682135D01*
X85771471Y-90249415D01*
X85783670Y-90100002D01*
X102773487Y-90100002D01*
X102792421Y-90268056D01*
X102829383Y-90373685D01*
X102842823Y-90412096D01*
X102848281Y-90427692D01*
X102865461Y-90455034D01*
X102884461Y-90522271D01*
X102865462Y-90586977D01*
X102849544Y-90612310D01*
X102793685Y-90771943D01*
X102774751Y-90939997D01*
X102774751Y-90940002D01*
X102793685Y-91108056D01*
X102849545Y-91267694D01*
X102849547Y-91267697D01*
X102939518Y-91410884D01*
X102939523Y-91410890D01*
X103059109Y-91530476D01*
X103059115Y-91530481D01*
X103202302Y-91620452D01*
X103202305Y-91620454D01*
X103202309Y-91620455D01*
X103202310Y-91620456D01*
X103274913Y-91645860D01*
X103361943Y-91676314D01*
X103529997Y-91695249D01*
X103530000Y-91695249D01*
X103530003Y-91695249D01*
X103656044Y-91681047D01*
X103698059Y-91676313D01*
X103744719Y-91659985D01*
X103814496Y-91656423D01*
X103875124Y-91691151D01*
X103897397Y-91723231D01*
X103899548Y-91727699D01*
X103989518Y-91870884D01*
X103989523Y-91870890D01*
X104109109Y-91990476D01*
X104109115Y-91990481D01*
X104252302Y-92080452D01*
X104252305Y-92080454D01*
X104252309Y-92080455D01*
X104252310Y-92080456D01*
X104324913Y-92105860D01*
X104411943Y-92136314D01*
X104579997Y-92155249D01*
X104580000Y-92155249D01*
X104580003Y-92155249D01*
X104748056Y-92136314D01*
X104748059Y-92136313D01*
X104907690Y-92080456D01*
X104907692Y-92080454D01*
X104907694Y-92080454D01*
X104907697Y-92080452D01*
X105050884Y-91990481D01*
X105050885Y-91990480D01*
X105050890Y-91990477D01*
X105170477Y-91870890D01*
X105170481Y-91870884D01*
X105260452Y-91727697D01*
X105260454Y-91727694D01*
X105260454Y-91727692D01*
X105260456Y-91727690D01*
X105294639Y-91630000D01*
X106534659Y-91630000D01*
X106553975Y-91826129D01*
X106560098Y-91846313D01*
X106603829Y-91990476D01*
X106611188Y-92014733D01*
X106704086Y-92188532D01*
X106704090Y-92188539D01*
X106829116Y-92340883D01*
X106981460Y-92465909D01*
X106981467Y-92465913D01*
X107155266Y-92558811D01*
X107155269Y-92558811D01*
X107155273Y-92558814D01*
X107343868Y-92616024D01*
X107540000Y-92635341D01*
X107736132Y-92616024D01*
X107924727Y-92558814D01*
X108098538Y-92465910D01*
X108250883Y-92340883D01*
X108375910Y-92188538D01*
X108468814Y-92014727D01*
X108526024Y-91826132D01*
X108545341Y-91630000D01*
X108526024Y-91433868D01*
X108468814Y-91245273D01*
X108468811Y-91245269D01*
X108468811Y-91245266D01*
X108375913Y-91071467D01*
X108375909Y-91071460D01*
X108250883Y-90919116D01*
X108098539Y-90794090D01*
X108098532Y-90794086D01*
X107924733Y-90701188D01*
X107924727Y-90701186D01*
X107736132Y-90643976D01*
X107736129Y-90643975D01*
X107540000Y-90624659D01*
X107343870Y-90643975D01*
X107155266Y-90701188D01*
X106981467Y-90794086D01*
X106981460Y-90794090D01*
X106829116Y-90919116D01*
X106704090Y-91071460D01*
X106704086Y-91071467D01*
X106611188Y-91245266D01*
X106553975Y-91433870D01*
X106534659Y-91630000D01*
X105294639Y-91630000D01*
X105316313Y-91568059D01*
X105316313Y-91568058D01*
X105316314Y-91568056D01*
X105335249Y-91400002D01*
X105335249Y-91399997D01*
X105316314Y-91231943D01*
X105277302Y-91120454D01*
X105260456Y-91072310D01*
X105260455Y-91072309D01*
X105260454Y-91072305D01*
X105260452Y-91072302D01*
X105170481Y-90929115D01*
X105170476Y-90929109D01*
X105050890Y-90809523D01*
X105050884Y-90809518D01*
X104907697Y-90719547D01*
X104907694Y-90719545D01*
X104748056Y-90663685D01*
X104580003Y-90644751D01*
X104579997Y-90644751D01*
X104411942Y-90663686D01*
X104365279Y-90680014D01*
X104295500Y-90683575D01*
X104234873Y-90648846D01*
X104212600Y-90616764D01*
X104210452Y-90612302D01*
X104193275Y-90584966D01*
X104174274Y-90517729D01*
X104193273Y-90453023D01*
X104201455Y-90440002D01*
X114654751Y-90440002D01*
X114673685Y-90608056D01*
X114729545Y-90767694D01*
X114729547Y-90767697D01*
X114819518Y-90910884D01*
X114819523Y-90910890D01*
X114939109Y-91030476D01*
X114939115Y-91030481D01*
X115082302Y-91120452D01*
X115082305Y-91120454D01*
X115082309Y-91120455D01*
X115082310Y-91120456D01*
X115241941Y-91176313D01*
X115241944Y-91176314D01*
X115314601Y-91184500D01*
X115379016Y-91211566D01*
X115418571Y-91269160D01*
X115421116Y-91278044D01*
X115451175Y-91399997D01*
X115461443Y-91441654D01*
X115540950Y-91593141D01*
X115654399Y-91721199D01*
X115795198Y-91818385D01*
X115868838Y-91846313D01*
X115955160Y-91879051D01*
X115955162Y-91879051D01*
X115955164Y-91879052D01*
X115989301Y-91883197D01*
X116082387Y-91894500D01*
X116082389Y-91894500D01*
X116167613Y-91894500D01*
X116231223Y-91886776D01*
X116294836Y-91879052D01*
X116454802Y-91818385D01*
X116595601Y-91721199D01*
X116709050Y-91593141D01*
X116788557Y-91441654D01*
X116829500Y-91275542D01*
X116829500Y-91104458D01*
X116821574Y-91072302D01*
X116788558Y-90938349D01*
X116788557Y-90938348D01*
X116788557Y-90938346D01*
X116709050Y-90786859D01*
X116595601Y-90658801D01*
X116454802Y-90561615D01*
X116294839Y-90500948D01*
X116294835Y-90500947D01*
X116267711Y-90497654D01*
X116203534Y-90470031D01*
X116164478Y-90412096D01*
X116159440Y-90388441D01*
X116146314Y-90271944D01*
X116144954Y-90268056D01*
X116090456Y-90112310D01*
X116090455Y-90112309D01*
X116090454Y-90112305D01*
X116090452Y-90112302D01*
X116000481Y-89969115D01*
X116000476Y-89969109D01*
X115880890Y-89849523D01*
X115880884Y-89849518D01*
X115737697Y-89759547D01*
X115737694Y-89759545D01*
X115578056Y-89703685D01*
X115410003Y-89684751D01*
X115409997Y-89684751D01*
X115241943Y-89703685D01*
X115082305Y-89759545D01*
X115082302Y-89759547D01*
X114939115Y-89849518D01*
X114939109Y-89849523D01*
X114819523Y-89969109D01*
X114819518Y-89969115D01*
X114729547Y-90112302D01*
X114729545Y-90112305D01*
X114673685Y-90271943D01*
X114654751Y-90439997D01*
X114654751Y-90440002D01*
X104201455Y-90440002D01*
X104209192Y-90427690D01*
X104265049Y-90268059D01*
X104274517Y-90184029D01*
X104283985Y-90100002D01*
X104283985Y-90099997D01*
X104265049Y-89931942D01*
X104209193Y-89772313D01*
X104209192Y-89772310D01*
X104207698Y-89769933D01*
X104207203Y-89768181D01*
X104206174Y-89766044D01*
X104206548Y-89765863D01*
X104188699Y-89702698D01*
X104207700Y-89637990D01*
X104220456Y-89617690D01*
X104276313Y-89458059D01*
X104285781Y-89374029D01*
X104295249Y-89290002D01*
X104295249Y-89289997D01*
X104276314Y-89121943D01*
X104220454Y-88962305D01*
X104220452Y-88962302D01*
X104130481Y-88819115D01*
X104130476Y-88819109D01*
X104010890Y-88699523D01*
X104010884Y-88699518D01*
X103867697Y-88609547D01*
X103867694Y-88609545D01*
X103708056Y-88553685D01*
X103540003Y-88534751D01*
X103539997Y-88534751D01*
X103371943Y-88553685D01*
X103212305Y-88609545D01*
X103212302Y-88609547D01*
X103069115Y-88699518D01*
X103069109Y-88699523D01*
X102949523Y-88819109D01*
X102949518Y-88819115D01*
X102859547Y-88962302D01*
X102859545Y-88962305D01*
X102803685Y-89121943D01*
X102784751Y-89289997D01*
X102784751Y-89290002D01*
X102803685Y-89458056D01*
X102859544Y-89617691D01*
X102861032Y-89620058D01*
X102861526Y-89621807D01*
X102862566Y-89623966D01*
X102862188Y-89624148D01*
X102880036Y-89687294D01*
X102861037Y-89752005D01*
X102848281Y-89772305D01*
X102792421Y-89931943D01*
X102773487Y-90099997D01*
X102773487Y-90100002D01*
X85783670Y-90100002D01*
X85802229Y-89872706D01*
X85844529Y-89440694D01*
X85893109Y-89066835D01*
X85955560Y-88636326D01*
X86021708Y-88266445D01*
X86104332Y-87838018D01*
X86187707Y-87473256D01*
X86229550Y-87300002D01*
X92244751Y-87300002D01*
X92263685Y-87468056D01*
X92319545Y-87627694D01*
X92319547Y-87627697D01*
X92409518Y-87770884D01*
X92409523Y-87770890D01*
X92529109Y-87890476D01*
X92529115Y-87890481D01*
X92672302Y-87980452D01*
X92672305Y-87980454D01*
X92672309Y-87980455D01*
X92672310Y-87980456D01*
X92744913Y-88005860D01*
X92831943Y-88036314D01*
X92999997Y-88055249D01*
X93000000Y-88055249D01*
X93000003Y-88055249D01*
X93168056Y-88036314D01*
X93168059Y-88036313D01*
X93327690Y-87980456D01*
X93327692Y-87980454D01*
X93327694Y-87980454D01*
X93327697Y-87980452D01*
X93470884Y-87890481D01*
X93470885Y-87890480D01*
X93470890Y-87890477D01*
X93590477Y-87770890D01*
X93680452Y-87627697D01*
X93680454Y-87627694D01*
X93680454Y-87627692D01*
X93680456Y-87627690D01*
X93736313Y-87468059D01*
X93736313Y-87468058D01*
X93736314Y-87468056D01*
X93755249Y-87300002D01*
X93755249Y-87299997D01*
X93736314Y-87131943D01*
X93680454Y-86972305D01*
X93680452Y-86972302D01*
X93590481Y-86829115D01*
X93590476Y-86829109D01*
X93470890Y-86709523D01*
X93470884Y-86709518D01*
X93327697Y-86619547D01*
X93327694Y-86619545D01*
X93168056Y-86563685D01*
X93000003Y-86544751D01*
X92999997Y-86544751D01*
X92831943Y-86563685D01*
X92672305Y-86619545D01*
X92672302Y-86619547D01*
X92529115Y-86709518D01*
X92529109Y-86709523D01*
X92409523Y-86829109D01*
X92409518Y-86829115D01*
X92319547Y-86972302D01*
X92319545Y-86972305D01*
X92263685Y-87131943D01*
X92244751Y-87299997D01*
X92244751Y-87300002D01*
X86229550Y-87300002D01*
X86290524Y-87047538D01*
X86390648Y-86689195D01*
X86513703Y-86266720D01*
X86629985Y-85916077D01*
X86630007Y-85916007D01*
X86773397Y-85497228D01*
X86905038Y-85155762D01*
X87069027Y-84740793D01*
X87214786Y-84410594D01*
X87399947Y-83999072D01*
X87558004Y-83682805D01*
X87765423Y-83273725D01*
X87795558Y-83220002D01*
X88244751Y-83220002D01*
X88263685Y-83388056D01*
X88319545Y-83547694D01*
X88319547Y-83547697D01*
X88409518Y-83690884D01*
X88409523Y-83690890D01*
X88529109Y-83810476D01*
X88529115Y-83810481D01*
X88672302Y-83900452D01*
X88672305Y-83900454D01*
X88672309Y-83900455D01*
X88672310Y-83900456D01*
X88744913Y-83925860D01*
X88831943Y-83956314D01*
X88999997Y-83975249D01*
X89000000Y-83975249D01*
X89000003Y-83975249D01*
X89168056Y-83956314D01*
X89220226Y-83938059D01*
X89327690Y-83900456D01*
X89327692Y-83900454D01*
X89327694Y-83900454D01*
X89327697Y-83900452D01*
X89470884Y-83810481D01*
X89470885Y-83810480D01*
X89470890Y-83810477D01*
X89590477Y-83690890D01*
X89595726Y-83682537D01*
X89680452Y-83547697D01*
X89680454Y-83547694D01*
X89680454Y-83547692D01*
X89680456Y-83547690D01*
X89736313Y-83388059D01*
X89736313Y-83388058D01*
X89736314Y-83388056D01*
X89755249Y-83220002D01*
X94874751Y-83220002D01*
X94893685Y-83388056D01*
X94949545Y-83547694D01*
X94949547Y-83547697D01*
X95039518Y-83690884D01*
X95039523Y-83690890D01*
X95159109Y-83810476D01*
X95159115Y-83810481D01*
X95302302Y-83900452D01*
X95302305Y-83900454D01*
X95302309Y-83900455D01*
X95302310Y-83900456D01*
X95374913Y-83925860D01*
X95461943Y-83956314D01*
X95629997Y-83975249D01*
X95630000Y-83975249D01*
X95630003Y-83975249D01*
X95798056Y-83956314D01*
X95850226Y-83938059D01*
X95957690Y-83900456D01*
X95957692Y-83900454D01*
X95957694Y-83900454D01*
X95957697Y-83900452D01*
X96100884Y-83810481D01*
X96100885Y-83810480D01*
X96100890Y-83810477D01*
X96220477Y-83690890D01*
X96225726Y-83682537D01*
X96310452Y-83547697D01*
X96310454Y-83547694D01*
X96310454Y-83547692D01*
X96310456Y-83547690D01*
X96366313Y-83388059D01*
X96366313Y-83388058D01*
X96366314Y-83388056D01*
X96385249Y-83220002D01*
X96385249Y-83219997D01*
X96366314Y-83051943D01*
X96310454Y-82892305D01*
X96310452Y-82892302D01*
X96220481Y-82749115D01*
X96220476Y-82749109D01*
X96100890Y-82629523D01*
X96100884Y-82629518D01*
X95957697Y-82539547D01*
X95957694Y-82539545D01*
X95798056Y-82483685D01*
X95676592Y-82470000D01*
X99634659Y-82470000D01*
X99653975Y-82666129D01*
X99711188Y-82854733D01*
X99804086Y-83028532D01*
X99804090Y-83028539D01*
X99929116Y-83180883D01*
X100081460Y-83305909D01*
X100081467Y-83305913D01*
X100255266Y-83398811D01*
X100255269Y-83398811D01*
X100255273Y-83398814D01*
X100443868Y-83456024D01*
X100640000Y-83475341D01*
X100836132Y-83456024D01*
X101024727Y-83398814D01*
X101198538Y-83305910D01*
X101350883Y-83180883D01*
X101475910Y-83028538D01*
X101522362Y-82941632D01*
X101568811Y-82854733D01*
X101568811Y-82854732D01*
X101568814Y-82854727D01*
X101626024Y-82666132D01*
X101645341Y-82470000D01*
X101626024Y-82273868D01*
X101568814Y-82085273D01*
X101568811Y-82085269D01*
X101568811Y-82085266D01*
X101475913Y-81911467D01*
X101475909Y-81911460D01*
X101458299Y-81890002D01*
X112834751Y-81890002D01*
X112853685Y-82058056D01*
X112909545Y-82217694D01*
X112909547Y-82217697D01*
X112999518Y-82360884D01*
X112999523Y-82360890D01*
X113119109Y-82480476D01*
X113119115Y-82480481D01*
X113262302Y-82570452D01*
X113262305Y-82570454D01*
X113262309Y-82570455D01*
X113262310Y-82570456D01*
X113334913Y-82595860D01*
X113421943Y-82626314D01*
X113589997Y-82645249D01*
X113590000Y-82645249D01*
X113590002Y-82645249D01*
X113637519Y-82639895D01*
X113706341Y-82651949D01*
X113757720Y-82699298D01*
X113775345Y-82766908D01*
X113774624Y-82776996D01*
X113770355Y-82814894D01*
X113770354Y-82814899D01*
X113789288Y-82982953D01*
X113845148Y-83142591D01*
X113845150Y-83142594D01*
X113935121Y-83285781D01*
X113935126Y-83285787D01*
X114054712Y-83405373D01*
X114054718Y-83405378D01*
X114197905Y-83495349D01*
X114197908Y-83495351D01*
X114197912Y-83495352D01*
X114197913Y-83495353D01*
X114270516Y-83520757D01*
X114357546Y-83551211D01*
X114525600Y-83570146D01*
X114525603Y-83570146D01*
X114525604Y-83570146D01*
X114534833Y-83569106D01*
X114603655Y-83581160D01*
X114655035Y-83628508D01*
X114672660Y-83696118D01*
X114671938Y-83706209D01*
X114664751Y-83769996D01*
X114664751Y-83770002D01*
X114683685Y-83938056D01*
X114739545Y-84097694D01*
X114739547Y-84097697D01*
X114829518Y-84240884D01*
X114829523Y-84240890D01*
X114949109Y-84360476D01*
X114949115Y-84360481D01*
X115092302Y-84450452D01*
X115092305Y-84450454D01*
X115092309Y-84450455D01*
X115092310Y-84450456D01*
X115164913Y-84475860D01*
X115251943Y-84506314D01*
X115419997Y-84525249D01*
X115420000Y-84525249D01*
X115420003Y-84525249D01*
X115588056Y-84506314D01*
X115588059Y-84506313D01*
X115747690Y-84450456D01*
X115747692Y-84450454D01*
X115747694Y-84450454D01*
X115747697Y-84450452D01*
X115890884Y-84360481D01*
X115890885Y-84360480D01*
X115890890Y-84360477D01*
X116010477Y-84240890D01*
X116100452Y-84097697D01*
X116100454Y-84097694D01*
X116100454Y-84097692D01*
X116100456Y-84097690D01*
X116156313Y-83938059D01*
X116156313Y-83938058D01*
X116156314Y-83938056D01*
X116175249Y-83770002D01*
X116175249Y-83769997D01*
X116156314Y-83601943D01*
X116112014Y-83475341D01*
X116100456Y-83442310D01*
X116100455Y-83442309D01*
X116100454Y-83442305D01*
X116100452Y-83442302D01*
X116010481Y-83299115D01*
X116010476Y-83299109D01*
X115890890Y-83179523D01*
X115890884Y-83179518D01*
X115747697Y-83089547D01*
X115747694Y-83089545D01*
X115588056Y-83033685D01*
X115420003Y-83014751D01*
X115419996Y-83014751D01*
X115410761Y-83015791D01*
X115341940Y-83003733D01*
X115290563Y-82956381D01*
X115272942Y-82888769D01*
X115273662Y-82878702D01*
X115280852Y-82814897D01*
X115275445Y-82766908D01*
X115261917Y-82646840D01*
X115206057Y-82487202D01*
X115206055Y-82487199D01*
X115116084Y-82344012D01*
X115116079Y-82344006D01*
X114996493Y-82224420D01*
X114996487Y-82224415D01*
X114853300Y-82134444D01*
X114853297Y-82134442D01*
X114693659Y-82078582D01*
X114525606Y-82059648D01*
X114525604Y-82059648D01*
X114525603Y-82059648D01*
X114507052Y-82061738D01*
X114478081Y-82065002D01*
X114409259Y-82052946D01*
X114357880Y-82005596D01*
X114340257Y-81937985D01*
X114340979Y-81927896D01*
X114345249Y-81890001D01*
X114345249Y-81889997D01*
X114326314Y-81721943D01*
X114270454Y-81562305D01*
X114270452Y-81562302D01*
X114180481Y-81419115D01*
X114180476Y-81419109D01*
X114060890Y-81299523D01*
X114060884Y-81299518D01*
X113917697Y-81209547D01*
X113917694Y-81209545D01*
X113758056Y-81153685D01*
X113590003Y-81134751D01*
X113589997Y-81134751D01*
X113421943Y-81153685D01*
X113262305Y-81209545D01*
X113262302Y-81209547D01*
X113119115Y-81299518D01*
X113119109Y-81299523D01*
X112999523Y-81419109D01*
X112999518Y-81419115D01*
X112909547Y-81562302D01*
X112909545Y-81562305D01*
X112853685Y-81721943D01*
X112834751Y-81889997D01*
X112834751Y-81890002D01*
X101458299Y-81890002D01*
X101350883Y-81759116D01*
X101198539Y-81634090D01*
X101198532Y-81634086D01*
X101024733Y-81541188D01*
X101024727Y-81541186D01*
X100836132Y-81483976D01*
X100836129Y-81483975D01*
X100640000Y-81464659D01*
X100443870Y-81483975D01*
X100255266Y-81541188D01*
X100081467Y-81634086D01*
X100081460Y-81634090D01*
X99929116Y-81759116D01*
X99804090Y-81911460D01*
X99804086Y-81911467D01*
X99711188Y-82085266D01*
X99653975Y-82273870D01*
X99634659Y-82470000D01*
X95676592Y-82470000D01*
X95630003Y-82464751D01*
X95629997Y-82464751D01*
X95461943Y-82483685D01*
X95302305Y-82539545D01*
X95302302Y-82539547D01*
X95159115Y-82629518D01*
X95159109Y-82629523D01*
X95039523Y-82749109D01*
X95039518Y-82749115D01*
X94949547Y-82892302D01*
X94949545Y-82892305D01*
X94893685Y-83051943D01*
X94874751Y-83219997D01*
X94874751Y-83220002D01*
X89755249Y-83220002D01*
X89755249Y-83219997D01*
X89736314Y-83051943D01*
X89680454Y-82892305D01*
X89680452Y-82892302D01*
X89590481Y-82749115D01*
X89590476Y-82749109D01*
X89470890Y-82629523D01*
X89470884Y-82629518D01*
X89327697Y-82539547D01*
X89327694Y-82539545D01*
X89168056Y-82483685D01*
X89000003Y-82464751D01*
X88999997Y-82464751D01*
X88831943Y-82483685D01*
X88672305Y-82539545D01*
X88672302Y-82539547D01*
X88529115Y-82629518D01*
X88529109Y-82629523D01*
X88409523Y-82749109D01*
X88409518Y-82749115D01*
X88319547Y-82892302D01*
X88319545Y-82892305D01*
X88263685Y-83051943D01*
X88244751Y-83219997D01*
X88244751Y-83220002D01*
X87795558Y-83220002D01*
X87932751Y-82975425D01*
X88164623Y-82566399D01*
X88334993Y-82294020D01*
X88596706Y-81878596D01*
X88751917Y-81654953D01*
X89059926Y-81212976D01*
X89061490Y-81210839D01*
X89076030Y-81191886D01*
X89472260Y-80676143D01*
X89528710Y-80634976D01*
X89598459Y-80630863D01*
X89635381Y-80646894D01*
X89635632Y-80646451D01*
X89639847Y-80648834D01*
X89639850Y-80648836D01*
X89806123Y-80742834D01*
X89843174Y-80763780D01*
X89843173Y-80763780D01*
X89970086Y-80811434D01*
X89970313Y-80811605D01*
X89971845Y-80812095D01*
X90061826Y-80845882D01*
X90061828Y-80845882D01*
X90061830Y-80845883D01*
X90201696Y-80874798D01*
X90202541Y-80875248D01*
X90207487Y-80875995D01*
X90231800Y-80881021D01*
X90235174Y-80881819D01*
X90283424Y-80894653D01*
X90296286Y-80893447D01*
X90440351Y-80900444D01*
X90441976Y-80901008D01*
X90442526Y-80900971D01*
X90449749Y-80900901D01*
X90488936Y-80902804D01*
X90491838Y-80903015D01*
X90524707Y-80906180D01*
X90536593Y-80903133D01*
X90680027Y-80887756D01*
X90682644Y-80888229D01*
X90684706Y-80887742D01*
X90692339Y-80886436D01*
X90755492Y-80879665D01*
X90764682Y-80879040D01*
X90775298Y-80874446D01*
X90914633Y-80837061D01*
X90918178Y-80837144D01*
X90921258Y-80835857D01*
X90929094Y-80833181D01*
X90981664Y-80819076D01*
X90981666Y-80819075D01*
X90981670Y-80819074D01*
X90986214Y-80817468D01*
X90986357Y-80817873D01*
X90996245Y-80814538D01*
X91006318Y-80808140D01*
X91138188Y-80749651D01*
X91142560Y-80749071D01*
X91157985Y-80740870D01*
X91195169Y-80724378D01*
X91199161Y-80721803D01*
X91215594Y-80713155D01*
X91223787Y-80705920D01*
X91312300Y-80648837D01*
X91345008Y-80627743D01*
X91349955Y-80626281D01*
X91350162Y-80626099D01*
X91365078Y-80614798D01*
X91376824Y-80607223D01*
X91391446Y-80597794D01*
X91391448Y-80597792D01*
X91391453Y-80597789D01*
X91401497Y-80588833D01*
X91415845Y-80578060D01*
X91422152Y-80570418D01*
X91529812Y-80474430D01*
X91535137Y-80471907D01*
X91535467Y-80471502D01*
X91549126Y-80457211D01*
X91565788Y-80442356D01*
X91579942Y-80425112D01*
X91591861Y-80412749D01*
X91596364Y-80405106D01*
X91687880Y-80293617D01*
X91693318Y-80289914D01*
X91693621Y-80289384D01*
X91705446Y-80272218D01*
X91713973Y-80261830D01*
X91713978Y-80261824D01*
X91729893Y-80234783D01*
X91739145Y-80221477D01*
X91742011Y-80214195D01*
X91815176Y-80089892D01*
X91820441Y-80084956D01*
X91820635Y-80084434D01*
X91830040Y-80064640D01*
X91832454Y-80060539D01*
X91847417Y-80022708D01*
X91853926Y-80009160D01*
X91855384Y-80002567D01*
X91908435Y-79868445D01*
X91913240Y-79862282D01*
X91913317Y-79861888D01*
X91917350Y-79848069D01*
X91916945Y-79847944D01*
X91918356Y-79843363D01*
X91918362Y-79843349D01*
X91930312Y-79790240D01*
X91932668Y-79782295D01*
X91933303Y-79780581D01*
X91933602Y-79775620D01*
X91965265Y-79634904D01*
X91969329Y-79627584D01*
X91969674Y-79614884D01*
X91973862Y-79551516D01*
X91974855Y-79543832D01*
X91975042Y-79542864D01*
X91974679Y-79539146D01*
X91984190Y-79395224D01*
X91987252Y-79386875D01*
X91982247Y-79350515D01*
X91981917Y-79347612D01*
X91978415Y-79308520D01*
X91978199Y-79301544D01*
X91977576Y-79299152D01*
X91964709Y-79155509D01*
X91966536Y-79146314D01*
X91950600Y-79094935D01*
X91949663Y-79091585D01*
X91943650Y-79067499D01*
X91942796Y-79063080D01*
X91942214Y-79061749D01*
X91929381Y-79010351D01*
X91907618Y-78923187D01*
X91870188Y-78834661D01*
X91869684Y-78833282D01*
X91869453Y-78832921D01*
X91842762Y-78769794D01*
X91816661Y-78708061D01*
X91693518Y-78509597D01*
X91693516Y-78509594D01*
X91690963Y-78505480D01*
X91691829Y-78504942D01*
X91669698Y-78443912D01*
X91685172Y-78375777D01*
X91713958Y-78341032D01*
X92113968Y-78006880D01*
X92232417Y-77908090D01*
X92234457Y-77906465D01*
X92629759Y-77606242D01*
X92881625Y-77415876D01*
X93265219Y-77151671D01*
X93552264Y-76955598D01*
X93936052Y-76716718D01*
X94243819Y-76527460D01*
X94631839Y-76310238D01*
X94801970Y-76216545D01*
X94870187Y-76201449D01*
X94935739Y-76225630D01*
X94977811Y-76281413D01*
X94983046Y-76351086D01*
X94961053Y-76399475D01*
X94936204Y-76432668D01*
X94936202Y-76432671D01*
X94885908Y-76567517D01*
X94879777Y-76624547D01*
X94879501Y-76627123D01*
X94879500Y-76627135D01*
X94879500Y-78422870D01*
X94879501Y-78422876D01*
X94885908Y-78482483D01*
X94936202Y-78617328D01*
X94936206Y-78617335D01*
X95022452Y-78732544D01*
X95022455Y-78732547D01*
X95137664Y-78818793D01*
X95137671Y-78818797D01*
X95269081Y-78867810D01*
X95325015Y-78909681D01*
X95349432Y-78975145D01*
X95334580Y-79043418D01*
X95313430Y-79071673D01*
X95191503Y-79193600D01*
X95055965Y-79387169D01*
X95055964Y-79387171D01*
X94956098Y-79601335D01*
X94956094Y-79601344D01*
X94894938Y-79829586D01*
X94894936Y-79829596D01*
X94874341Y-80064999D01*
X94874341Y-80065000D01*
X94894936Y-80300403D01*
X94894938Y-80300413D01*
X94956094Y-80528655D01*
X94956096Y-80528659D01*
X94956097Y-80528663D01*
X95017414Y-80660157D01*
X95055965Y-80742830D01*
X95055967Y-80742834D01*
X95157434Y-80887742D01*
X95191505Y-80936401D01*
X95358599Y-81103495D01*
X95430278Y-81153685D01*
X95552165Y-81239032D01*
X95552167Y-81239033D01*
X95552170Y-81239035D01*
X95766337Y-81338903D01*
X95994592Y-81400063D01*
X96182918Y-81416539D01*
X96229999Y-81420659D01*
X96230000Y-81420659D01*
X96230001Y-81420659D01*
X96269234Y-81417226D01*
X96465408Y-81400063D01*
X96693663Y-81338903D01*
X96907830Y-81239035D01*
X97101401Y-81103495D01*
X97268495Y-80936401D01*
X97404035Y-80742830D01*
X97447322Y-80650002D01*
X106165251Y-80650002D01*
X106184185Y-80818056D01*
X106240045Y-80977694D01*
X106240047Y-80977697D01*
X106330018Y-81120884D01*
X106330023Y-81120890D01*
X106449609Y-81240476D01*
X106449615Y-81240481D01*
X106592802Y-81330452D01*
X106592805Y-81330454D01*
X106592809Y-81330455D01*
X106592810Y-81330456D01*
X106616956Y-81338905D01*
X106752443Y-81386314D01*
X106920497Y-81405249D01*
X106920500Y-81405249D01*
X106920503Y-81405249D01*
X107088556Y-81386314D01*
X107088559Y-81386313D01*
X107248190Y-81330456D01*
X107248192Y-81330454D01*
X107248194Y-81330454D01*
X107248197Y-81330452D01*
X107391384Y-81240481D01*
X107391385Y-81240480D01*
X107391390Y-81240477D01*
X107510977Y-81120890D01*
X107521907Y-81103495D01*
X107600952Y-80977697D01*
X107600954Y-80977694D01*
X107600954Y-80977692D01*
X107600956Y-80977690D01*
X107656813Y-80818059D01*
X107656813Y-80818058D01*
X107656814Y-80818056D01*
X107675749Y-80650002D01*
X107675749Y-80649997D01*
X107656814Y-80481943D01*
X107600954Y-80322305D01*
X107600952Y-80322302D01*
X107510981Y-80179115D01*
X107510976Y-80179109D01*
X107391390Y-80059523D01*
X107391384Y-80059518D01*
X107248197Y-79969547D01*
X107248194Y-79969545D01*
X107088556Y-79913685D01*
X106920503Y-79894751D01*
X106920497Y-79894751D01*
X106752443Y-79913685D01*
X106592805Y-79969545D01*
X106592802Y-79969547D01*
X106449615Y-80059518D01*
X106449609Y-80059523D01*
X106330023Y-80179109D01*
X106330018Y-80179115D01*
X106240047Y-80322302D01*
X106240045Y-80322305D01*
X106184185Y-80481943D01*
X106165251Y-80649997D01*
X106165251Y-80650002D01*
X97447322Y-80650002D01*
X97503903Y-80528663D01*
X97565063Y-80300408D01*
X97585659Y-80065000D01*
X97565063Y-79829592D01*
X97507528Y-79614865D01*
X97503905Y-79601344D01*
X97503904Y-79601343D01*
X97503903Y-79601337D01*
X97404035Y-79387171D01*
X97401262Y-79383211D01*
X97268496Y-79193600D01*
X97217504Y-79142608D01*
X97146567Y-79071671D01*
X97113084Y-79010351D01*
X97118068Y-78940659D01*
X97159939Y-78884725D01*
X97190915Y-78867810D01*
X97322331Y-78818796D01*
X97427597Y-78739994D01*
X101614756Y-78739994D01*
X101633690Y-78908048D01*
X101689550Y-79067686D01*
X101689552Y-79067689D01*
X101779523Y-79210876D01*
X101779528Y-79210882D01*
X101899114Y-79330468D01*
X101899120Y-79330473D01*
X102042307Y-79420444D01*
X102042310Y-79420446D01*
X102042314Y-79420447D01*
X102042315Y-79420448D01*
X102114918Y-79445852D01*
X102201948Y-79476306D01*
X102370002Y-79495241D01*
X102370005Y-79495241D01*
X102370008Y-79495241D01*
X102538061Y-79476306D01*
X102538064Y-79476305D01*
X102697695Y-79420448D01*
X102697697Y-79420446D01*
X102697699Y-79420446D01*
X102697702Y-79420444D01*
X102840889Y-79330473D01*
X102840890Y-79330472D01*
X102840895Y-79330469D01*
X102960482Y-79210882D01*
X102971342Y-79193599D01*
X103031729Y-79097494D01*
X110246404Y-79097494D01*
X110265338Y-79265548D01*
X110321198Y-79425186D01*
X110321200Y-79425189D01*
X110411171Y-79568376D01*
X110411176Y-79568382D01*
X110530762Y-79687968D01*
X110530768Y-79687973D01*
X110673955Y-79777944D01*
X110673958Y-79777946D01*
X110673962Y-79777947D01*
X110673963Y-79777948D01*
X110709195Y-79790276D01*
X110833596Y-79833806D01*
X111001650Y-79852741D01*
X111001653Y-79852741D01*
X111001656Y-79852741D01*
X111169709Y-79833806D01*
X111169712Y-79833805D01*
X111329343Y-79777948D01*
X111329345Y-79777946D01*
X111329347Y-79777946D01*
X111329350Y-79777944D01*
X111472537Y-79687973D01*
X111472538Y-79687972D01*
X111472543Y-79687969D01*
X111592130Y-79568382D01*
X111592134Y-79568376D01*
X111682105Y-79425189D01*
X111682107Y-79425186D01*
X111682107Y-79425184D01*
X111682109Y-79425182D01*
X111737966Y-79265551D01*
X111737966Y-79265550D01*
X111737967Y-79265548D01*
X111756902Y-79097494D01*
X111756902Y-79097489D01*
X111743664Y-78980002D01*
X111994751Y-78980002D01*
X112013685Y-79148056D01*
X112069545Y-79307694D01*
X112069547Y-79307697D01*
X112159518Y-79450884D01*
X112159523Y-79450890D01*
X112279109Y-79570476D01*
X112279115Y-79570481D01*
X112422302Y-79660452D01*
X112422305Y-79660454D01*
X112422309Y-79660455D01*
X112422310Y-79660456D01*
X112494913Y-79685860D01*
X112581943Y-79716314D01*
X112749997Y-79735249D01*
X112750000Y-79735249D01*
X112750003Y-79735249D01*
X112918056Y-79716314D01*
X112918059Y-79716313D01*
X113077690Y-79660456D01*
X113077692Y-79660454D01*
X113077694Y-79660454D01*
X113077697Y-79660452D01*
X113220884Y-79570481D01*
X113220885Y-79570480D01*
X113220890Y-79570477D01*
X113340477Y-79450890D01*
X113356628Y-79425186D01*
X113430452Y-79307697D01*
X113430454Y-79307694D01*
X113430454Y-79307692D01*
X113430456Y-79307690D01*
X113486313Y-79148059D01*
X113486313Y-79148058D01*
X113486314Y-79148056D01*
X113505249Y-78980002D01*
X113505249Y-78979997D01*
X113486314Y-78811943D01*
X113430454Y-78652305D01*
X113430452Y-78652302D01*
X113340481Y-78509115D01*
X113340476Y-78509109D01*
X113220890Y-78389523D01*
X113220884Y-78389518D01*
X113077697Y-78299547D01*
X113077694Y-78299545D01*
X112918056Y-78243685D01*
X112750003Y-78224751D01*
X112749997Y-78224751D01*
X112581943Y-78243685D01*
X112422305Y-78299545D01*
X112422302Y-78299547D01*
X112279115Y-78389518D01*
X112279109Y-78389523D01*
X112159523Y-78509109D01*
X112159518Y-78509115D01*
X112069547Y-78652302D01*
X112069545Y-78652305D01*
X112013685Y-78811943D01*
X111994751Y-78979997D01*
X111994751Y-78980002D01*
X111743664Y-78980002D01*
X111737967Y-78929435D01*
X111682107Y-78769797D01*
X111682105Y-78769794D01*
X111592134Y-78626607D01*
X111592129Y-78626601D01*
X111472543Y-78507015D01*
X111472537Y-78507010D01*
X111329350Y-78417039D01*
X111329347Y-78417037D01*
X111169709Y-78361177D01*
X111001656Y-78342243D01*
X111001650Y-78342243D01*
X110833596Y-78361177D01*
X110673958Y-78417037D01*
X110673955Y-78417039D01*
X110530768Y-78507010D01*
X110530762Y-78507015D01*
X110411176Y-78626601D01*
X110411171Y-78626607D01*
X110321200Y-78769794D01*
X110321198Y-78769797D01*
X110265338Y-78929435D01*
X110246404Y-79097489D01*
X110246404Y-79097494D01*
X103031729Y-79097494D01*
X103050457Y-79067689D01*
X103050459Y-79067686D01*
X103050459Y-79067684D01*
X103050461Y-79067682D01*
X103106318Y-78908051D01*
X103106318Y-78908050D01*
X103106319Y-78908048D01*
X103125254Y-78739994D01*
X103125254Y-78739989D01*
X103106319Y-78571935D01*
X103054160Y-78422873D01*
X103050461Y-78412302D01*
X103050460Y-78412301D01*
X103050459Y-78412297D01*
X103050457Y-78412294D01*
X102960486Y-78269107D01*
X102960481Y-78269101D01*
X102840895Y-78149515D01*
X102840889Y-78149510D01*
X102697702Y-78059539D01*
X102697699Y-78059537D01*
X102538061Y-78003677D01*
X102370008Y-77984743D01*
X102370002Y-77984743D01*
X102201948Y-78003677D01*
X102042310Y-78059537D01*
X102042307Y-78059539D01*
X101899120Y-78149510D01*
X101899114Y-78149515D01*
X101779528Y-78269101D01*
X101779523Y-78269107D01*
X101689552Y-78412294D01*
X101689550Y-78412297D01*
X101633690Y-78571935D01*
X101614756Y-78739989D01*
X101614756Y-78739994D01*
X97427597Y-78739994D01*
X97437546Y-78732546D01*
X97523796Y-78617331D01*
X97574091Y-78482483D01*
X97580500Y-78422873D01*
X97580499Y-77305002D01*
X109254751Y-77305002D01*
X109273685Y-77473056D01*
X109329545Y-77632694D01*
X109329547Y-77632697D01*
X109419518Y-77775884D01*
X109419523Y-77775890D01*
X109539109Y-77895476D01*
X109539115Y-77895481D01*
X109682302Y-77985452D01*
X109682305Y-77985454D01*
X109682309Y-77985455D01*
X109682310Y-77985456D01*
X109734383Y-78003677D01*
X109841943Y-78041314D01*
X110009997Y-78060249D01*
X110010000Y-78060249D01*
X110010003Y-78060249D01*
X110178056Y-78041314D01*
X110178059Y-78041313D01*
X110337690Y-77985456D01*
X110337692Y-77985454D01*
X110337694Y-77985454D01*
X110337697Y-77985452D01*
X110480884Y-77895481D01*
X110480885Y-77895480D01*
X110480890Y-77895477D01*
X110600477Y-77775890D01*
X110690452Y-77632697D01*
X110690454Y-77632694D01*
X110690454Y-77632692D01*
X110690456Y-77632690D01*
X110746313Y-77473059D01*
X110746313Y-77473058D01*
X110746314Y-77473056D01*
X110765249Y-77305002D01*
X110765249Y-77304997D01*
X110746314Y-77136943D01*
X110690454Y-76977305D01*
X110690452Y-76977302D01*
X110600481Y-76834115D01*
X110600476Y-76834109D01*
X110480890Y-76714523D01*
X110480884Y-76714518D01*
X110337697Y-76624547D01*
X110337694Y-76624545D01*
X110178056Y-76568685D01*
X110010003Y-76549751D01*
X110009997Y-76549751D01*
X109841943Y-76568685D01*
X109682305Y-76624545D01*
X109682302Y-76624547D01*
X109539115Y-76714518D01*
X109539109Y-76714523D01*
X109419523Y-76834109D01*
X109419518Y-76834115D01*
X109329547Y-76977302D01*
X109329545Y-76977305D01*
X109273685Y-77136943D01*
X109254751Y-77304997D01*
X109254751Y-77305002D01*
X97580499Y-77305002D01*
X97580499Y-76627128D01*
X97574091Y-76567517D01*
X97559149Y-76527456D01*
X97523797Y-76432671D01*
X97523793Y-76432664D01*
X97437547Y-76317455D01*
X97437544Y-76317452D01*
X97322335Y-76231206D01*
X97322328Y-76231202D01*
X97187482Y-76180908D01*
X97187483Y-76180908D01*
X97127883Y-76174501D01*
X97127881Y-76174500D01*
X97127873Y-76174500D01*
X97127865Y-76174500D01*
X95395535Y-76174500D01*
X95328496Y-76154815D01*
X95282741Y-76102011D01*
X95272797Y-76032853D01*
X95301822Y-75969297D01*
X95340055Y-75939605D01*
X95348293Y-75935482D01*
X95683484Y-75771307D01*
X96082884Y-75594113D01*
X96428426Y-75444953D01*
X96833467Y-75287310D01*
X97187886Y-75154081D01*
X97598181Y-75015939D01*
X97960167Y-74899336D01*
X98375246Y-74780708D01*
X98743586Y-74681269D01*
X99162757Y-74582248D01*
X99536350Y-74500375D01*
X99958994Y-74421027D01*
X100336689Y-74357048D01*
X100762137Y-74297446D01*
X101142894Y-74251591D01*
X101570222Y-74211824D01*
X101953124Y-74184240D01*
X102381649Y-74164344D01*
X102765570Y-74155141D01*
X103194428Y-74155141D01*
X103578351Y-74164345D01*
G37*
%TD.AperFunction*%
%TD*%
D16*
X110010000Y-77305000D03*
X106920500Y-80650000D03*
X95870000Y-98370000D03*
X89075000Y-98370000D03*
X114840000Y-102540000D03*
X113810000Y-96410000D03*
X114840000Y-100990000D03*
X113190000Y-103810000D03*
X89000000Y-84770000D03*
X95880000Y-99560000D03*
X102370005Y-78739992D03*
X102409996Y-80649998D03*
X108695000Y-84690000D03*
D17*
X109830000Y-84300000D03*
D16*
X115420000Y-94940000D03*
X115520000Y-87660000D03*
X93220000Y-84170000D03*
X90150000Y-101020000D03*
X98340000Y-89124500D03*
D17*
X106360000Y-103230000D03*
X100640000Y-76245000D03*
X99960000Y-107080000D03*
D16*
X95670000Y-103810000D03*
D17*
X99970000Y-106027247D03*
D16*
X98340000Y-92563650D03*
X89000000Y-83220000D03*
D17*
X109205000Y-104840000D03*
D16*
X115410000Y-90440000D03*
X104580000Y-91400000D03*
D17*
X104740000Y-99690000D03*
X100640000Y-82470000D03*
X107540000Y-91630000D03*
X105970000Y-107060000D03*
X105980000Y-106030000D03*
D16*
X112750000Y-78980000D03*
X93000000Y-87300000D03*
X109350000Y-94140000D03*
X110100000Y-97460000D03*
X110100000Y-96190000D03*
X95630000Y-83220000D03*
X115420000Y-83770000D03*
X114525603Y-82814897D03*
X113590000Y-81890000D03*
X103540000Y-89290000D03*
X95540000Y-91110000D03*
X103528736Y-90100000D03*
X95590000Y-93650000D03*
X103530000Y-90940000D03*
X97300000Y-94920000D03*
X103980000Y-106550000D03*
X111001653Y-79097492D03*
X101980000Y-106550000D03*
D18*
X105880000Y-97170000D03*
X105880000Y-95770000D03*
X105180000Y-97870000D03*
X105180000Y-96470000D03*
X105180000Y-95070000D03*
X104480000Y-97170000D03*
X104480000Y-95770000D03*
X103780000Y-97870000D03*
X103780000Y-96470000D03*
X103780000Y-95070000D03*
X103080000Y-97170000D03*
X103080000Y-95770000D03*
D17*
X96230000Y-77525000D03*
X96230000Y-80065000D03*
X116125000Y-94190000D03*
X116125000Y-91190000D03*
D18*
X107940000Y-101300276D03*
X109040000Y-101300276D03*
M02*
