%TF.GenerationSoftware,KiCad,Pcbnew,7.0.6*%
%TF.CreationDate,2023-09-26T22:04:44+02:00*%
%TF.ProjectId,torque_controller,746f7271-7565-45f6-936f-6e74726f6c6c,rev?*%
%TF.SameCoordinates,Original*%
%TF.FileFunction,Soldermask,Bot*%
%TF.FilePolarity,Negative*%
%FSLAX46Y46*%
G04 Gerber Fmt 4.6, Leading zero omitted, Abs format (unit mm)*
G04 Created by KiCad (PCBNEW 7.0.6) date 2023-09-26 22:04:44*
%MOMM*%
%LPD*%
G01*
G04 APERTURE LIST*
G04 Aperture macros list*
%AMRoundRect*
0 Rectangle with rounded corners*
0 $1 Rounding radius*
0 $2 $3 $4 $5 $6 $7 $8 $9 X,Y pos of 4 corners*
0 Add a 4 corners polygon primitive as box body*
4,1,4,$2,$3,$4,$5,$6,$7,$8,$9,$2,$3,0*
0 Add four circle primitives for the rounded corners*
1,1,$1+$1,$2,$3*
1,1,$1+$1,$4,$5*
1,1,$1+$1,$6,$7*
1,1,$1+$1,$8,$9*
0 Add four rect primitives between the rounded corners*
20,1,$1+$1,$2,$3,$4,$5,0*
20,1,$1+$1,$4,$5,$6,$7,0*
20,1,$1+$1,$6,$7,$8,$9,0*
20,1,$1+$1,$8,$9,$2,$3,0*%
%AMRotRect*
0 Rectangle, with rotation*
0 The origin of the aperture is its center*
0 $1 length*
0 $2 width*
0 $3 Rotation angle, in degrees counterclockwise*
0 Add horizontal line*
21,1,$1,$2,0,0,$3*%
G04 Aperture macros list end*
%ADD10R,1.700000X1.700000*%
%ADD11O,1.700000X1.700000*%
%ADD12RoundRect,0.250000X0.312500X0.625000X-0.312500X0.625000X-0.312500X-0.625000X0.312500X-0.625000X0*%
%ADD13RoundRect,0.225000X0.250000X-0.225000X0.250000X0.225000X-0.250000X0.225000X-0.250000X-0.225000X0*%
%ADD14RoundRect,0.225000X-0.250000X0.225000X-0.250000X-0.225000X0.250000X-0.225000X0.250000X0.225000X0*%
%ADD15RoundRect,0.225000X0.225000X0.250000X-0.225000X0.250000X-0.225000X-0.250000X0.225000X-0.250000X0*%
%ADD16R,2.000000X2.000000*%
%ADD17R,0.890000X2.030000*%
%ADD18RoundRect,0.200000X-0.200000X-0.275000X0.200000X-0.275000X0.200000X0.275000X-0.200000X0.275000X0*%
%ADD19RoundRect,0.225000X0.335876X0.017678X0.017678X0.335876X-0.335876X-0.017678X-0.017678X-0.335876X0*%
%ADD20RoundRect,0.150000X0.512500X0.150000X-0.512500X0.150000X-0.512500X-0.150000X0.512500X-0.150000X0*%
%ADD21RoundRect,0.100000X0.637500X0.100000X-0.637500X0.100000X-0.637500X-0.100000X0.637500X-0.100000X0*%
%ADD22RoundRect,0.200000X-0.335876X-0.053033X-0.053033X-0.335876X0.335876X0.053033X0.053033X0.335876X0*%
%ADD23RoundRect,0.250000X1.025000X-0.787500X1.025000X0.787500X-1.025000X0.787500X-1.025000X-0.787500X0*%
%ADD24RoundRect,0.225000X0.017678X-0.335876X0.335876X-0.017678X-0.017678X0.335876X-0.335876X0.017678X0*%
%ADD25R,1.500000X0.700000*%
%ADD26R,0.800000X1.000000*%
%ADD27C,0.900000*%
%ADD28RotRect,0.450000X1.475000X315.000000*%
%ADD29RotRect,3.100000X5.180000X45.000000*%
%ADD30RoundRect,0.093750X0.106250X-0.093750X0.106250X0.093750X-0.106250X0.093750X-0.106250X-0.093750X0*%
%ADD31R,1.600000X1.000000*%
G04 APERTURE END LIST*
D10*
%TO.C,J3*%
X96230000Y-77525000D03*
D11*
X96230000Y-80065000D03*
%TD*%
D12*
%TO.C,RS1*%
X94712500Y-95400000D03*
X91787500Y-95400000D03*
%TD*%
D13*
%TO.C,CMAG1*%
X98340000Y-91635000D03*
X98340000Y-90085000D03*
%TD*%
%TO.C,CINA1*%
X90150000Y-84770000D03*
X90150000Y-83220000D03*
%TD*%
D12*
%TO.C,RS2*%
X94712500Y-87400000D03*
X91787500Y-87400000D03*
%TD*%
D14*
%TO.C,C2*%
X106170000Y-99690000D03*
X106170000Y-101240000D03*
%TD*%
D15*
%TO.C,C3*%
X109205000Y-103522776D03*
X107655000Y-103522776D03*
%TD*%
D16*
%TO.C,M2*%
X88980000Y-91400000D03*
%TD*%
D17*
%TO.C,J2*%
X99980000Y-106550000D03*
X101980000Y-106550000D03*
X103980000Y-106550000D03*
X105980000Y-106550000D03*
%TD*%
D16*
%TO.C,M1*%
X88980000Y-95400000D03*
%TD*%
D18*
%TO.C,RBOOT1*%
X112345000Y-94140000D03*
X110695000Y-94140000D03*
%TD*%
D19*
%TO.C,CVCP1*%
X109018008Y-90932008D03*
X107921992Y-89835992D03*
%TD*%
D20*
%TO.C,U3*%
X94387500Y-83220000D03*
X94387500Y-84170000D03*
X94387500Y-85120000D03*
X92112500Y-85120000D03*
X92112500Y-83220000D03*
%TD*%
D21*
%TO.C,AS5048A1*%
X105842500Y-89450000D03*
X105842500Y-90100000D03*
X105842500Y-90750000D03*
X105842500Y-91400000D03*
X105842500Y-92050000D03*
X105842500Y-92700000D03*
X105842500Y-93350000D03*
X100117500Y-93350000D03*
X100117500Y-92700000D03*
X100117500Y-92050000D03*
X100117500Y-91400000D03*
X100117500Y-90750000D03*
X100117500Y-90100000D03*
X100117500Y-89450000D03*
%TD*%
D22*
%TO.C,REN1*%
X112036637Y-79676637D03*
X113203363Y-80843363D03*
%TD*%
D23*
%TO.C,CDRV1*%
X100640000Y-82470000D03*
X100640000Y-76245000D03*
%TD*%
D13*
%TO.C,CINA2*%
X90150000Y-99920000D03*
X90150000Y-98370000D03*
%TD*%
D20*
%TO.C,U2*%
X92342500Y-98370000D03*
X92342500Y-100270000D03*
X94617500Y-100270000D03*
X94617500Y-99320000D03*
X94617500Y-98370000D03*
%TD*%
D24*
%TO.C,CCP1*%
X111021992Y-91888008D03*
X112118008Y-90791992D03*
%TD*%
D25*
%TO.C,SW1*%
X114365000Y-94940000D03*
X114365000Y-93440000D03*
X114365000Y-90440000D03*
D26*
X115015000Y-96340000D03*
X117225000Y-96340000D03*
D27*
X116125000Y-94190000D03*
X116125000Y-91190000D03*
D26*
X115015000Y-89040000D03*
X117225000Y-89040000D03*
%TD*%
D28*
%TO.C,IC1*%
X110740046Y-89365006D03*
X110280427Y-88905386D03*
X109820808Y-88445767D03*
X109361188Y-87986148D03*
X108901569Y-87526528D03*
X108441949Y-87066909D03*
X107982330Y-86607289D03*
X107522711Y-86147670D03*
X107063091Y-85688051D03*
X106603472Y-85228431D03*
X106143852Y-84768812D03*
X105684233Y-84309192D03*
X105224614Y-83849573D03*
X104764994Y-83389954D03*
X108919954Y-79234994D03*
X109379573Y-79694614D03*
X109839192Y-80154233D03*
X110298812Y-80613852D03*
X110758431Y-81073472D03*
X111218051Y-81533091D03*
X111677670Y-81992711D03*
X112137289Y-82452330D03*
X112596909Y-82911949D03*
X113056528Y-83371569D03*
X113516148Y-83831188D03*
X113975767Y-84290808D03*
X114435386Y-84750427D03*
X114895006Y-85210046D03*
D29*
X109830000Y-84300000D03*
%TD*%
D16*
%TO.C,M3*%
X88980000Y-87400000D03*
%TD*%
D30*
%TO.C,U1*%
X109140000Y-102187776D03*
X108490000Y-102187776D03*
X107840000Y-102187776D03*
X107840000Y-100412776D03*
X108490000Y-100412776D03*
X109140000Y-100412776D03*
D31*
X108490000Y-101300276D03*
%TD*%
M02*
