%TF.GenerationSoftware,KiCad,Pcbnew,7.0.6*%
%TF.CreationDate,2023-09-26T22:04:44+02:00*%
%TF.ProjectId,torque_controller,746f7271-7565-45f6-936f-6e74726f6c6c,rev?*%
%TF.SameCoordinates,Original*%
%TF.FileFunction,Legend,Bot*%
%TF.FilePolarity,Positive*%
%FSLAX46Y46*%
G04 Gerber Fmt 4.6, Leading zero omitted, Abs format (unit mm)*
G04 Created by KiCad (PCBNEW 7.0.6) date 2023-09-26 22:04:44*
%MOMM*%
%LPD*%
G01*
G04 APERTURE LIST*
%ADD10C,0.160000*%
%ADD11C,0.120000*%
%ADD12C,0.200000*%
%ADD13C,0.300000*%
%ADD14C,0.350000*%
%ADD15C,0.200000*%
G04 APERTURE END LIST*
D10*
X118564510Y-90323308D02*
X118516891Y-90180451D01*
X118516891Y-90180451D02*
X118469272Y-90132832D01*
X118469272Y-90132832D02*
X118374034Y-90085213D01*
X118374034Y-90085213D02*
X118231177Y-90085213D01*
X118231177Y-90085213D02*
X118135939Y-90132832D01*
X118135939Y-90132832D02*
X118088320Y-90180451D01*
X118088320Y-90180451D02*
X118040700Y-90275689D01*
X118040700Y-90275689D02*
X118040700Y-90656641D01*
X118040700Y-90656641D02*
X119040700Y-90656641D01*
X119040700Y-90656641D02*
X119040700Y-90323308D01*
X119040700Y-90323308D02*
X118993081Y-90228070D01*
X118993081Y-90228070D02*
X118945462Y-90180451D01*
X118945462Y-90180451D02*
X118850224Y-90132832D01*
X118850224Y-90132832D02*
X118754986Y-90132832D01*
X118754986Y-90132832D02*
X118659748Y-90180451D01*
X118659748Y-90180451D02*
X118612129Y-90228070D01*
X118612129Y-90228070D02*
X118564510Y-90323308D01*
X118564510Y-90323308D02*
X118564510Y-90656641D01*
X119040700Y-89466165D02*
X119040700Y-89275689D01*
X119040700Y-89275689D02*
X118993081Y-89180451D01*
X118993081Y-89180451D02*
X118897843Y-89085213D01*
X118897843Y-89085213D02*
X118707367Y-89037594D01*
X118707367Y-89037594D02*
X118374034Y-89037594D01*
X118374034Y-89037594D02*
X118183558Y-89085213D01*
X118183558Y-89085213D02*
X118088320Y-89180451D01*
X118088320Y-89180451D02*
X118040700Y-89275689D01*
X118040700Y-89275689D02*
X118040700Y-89466165D01*
X118040700Y-89466165D02*
X118088320Y-89561403D01*
X118088320Y-89561403D02*
X118183558Y-89656641D01*
X118183558Y-89656641D02*
X118374034Y-89704260D01*
X118374034Y-89704260D02*
X118707367Y-89704260D01*
X118707367Y-89704260D02*
X118897843Y-89656641D01*
X118897843Y-89656641D02*
X118993081Y-89561403D01*
X118993081Y-89561403D02*
X119040700Y-89466165D01*
X119040700Y-88418546D02*
X119040700Y-88228070D01*
X119040700Y-88228070D02*
X118993081Y-88132832D01*
X118993081Y-88132832D02*
X118897843Y-88037594D01*
X118897843Y-88037594D02*
X118707367Y-87989975D01*
X118707367Y-87989975D02*
X118374034Y-87989975D01*
X118374034Y-87989975D02*
X118183558Y-88037594D01*
X118183558Y-88037594D02*
X118088320Y-88132832D01*
X118088320Y-88132832D02*
X118040700Y-88228070D01*
X118040700Y-88228070D02*
X118040700Y-88418546D01*
X118040700Y-88418546D02*
X118088320Y-88513784D01*
X118088320Y-88513784D02*
X118183558Y-88609022D01*
X118183558Y-88609022D02*
X118374034Y-88656641D01*
X118374034Y-88656641D02*
X118707367Y-88656641D01*
X118707367Y-88656641D02*
X118897843Y-88609022D01*
X118897843Y-88609022D02*
X118993081Y-88513784D01*
X118993081Y-88513784D02*
X119040700Y-88418546D01*
X119040700Y-87704260D02*
X119040700Y-87132832D01*
X118040700Y-87418546D02*
X119040700Y-87418546D01*
X103608320Y-104864260D02*
X103560700Y-104721403D01*
X103560700Y-104721403D02*
X103560700Y-104483308D01*
X103560700Y-104483308D02*
X103608320Y-104388070D01*
X103608320Y-104388070D02*
X103655939Y-104340451D01*
X103655939Y-104340451D02*
X103751177Y-104292832D01*
X103751177Y-104292832D02*
X103846415Y-104292832D01*
X103846415Y-104292832D02*
X103941653Y-104340451D01*
X103941653Y-104340451D02*
X103989272Y-104388070D01*
X103989272Y-104388070D02*
X104036891Y-104483308D01*
X104036891Y-104483308D02*
X104084510Y-104673784D01*
X104084510Y-104673784D02*
X104132129Y-104769022D01*
X104132129Y-104769022D02*
X104179748Y-104816641D01*
X104179748Y-104816641D02*
X104274986Y-104864260D01*
X104274986Y-104864260D02*
X104370224Y-104864260D01*
X104370224Y-104864260D02*
X104465462Y-104816641D01*
X104465462Y-104816641D02*
X104513081Y-104769022D01*
X104513081Y-104769022D02*
X104560700Y-104673784D01*
X104560700Y-104673784D02*
X104560700Y-104435689D01*
X104560700Y-104435689D02*
X104513081Y-104292832D01*
X103560700Y-103864260D02*
X104560700Y-103864260D01*
X104560700Y-103864260D02*
X104560700Y-103626165D01*
X104560700Y-103626165D02*
X104513081Y-103483308D01*
X104513081Y-103483308D02*
X104417843Y-103388070D01*
X104417843Y-103388070D02*
X104322605Y-103340451D01*
X104322605Y-103340451D02*
X104132129Y-103292832D01*
X104132129Y-103292832D02*
X103989272Y-103292832D01*
X103989272Y-103292832D02*
X103798796Y-103340451D01*
X103798796Y-103340451D02*
X103703558Y-103388070D01*
X103703558Y-103388070D02*
X103608320Y-103483308D01*
X103608320Y-103483308D02*
X103560700Y-103626165D01*
X103560700Y-103626165D02*
X103560700Y-103864260D01*
X103846415Y-102911879D02*
X103846415Y-102435689D01*
X103560700Y-103007117D02*
X104560700Y-102673784D01*
X104560700Y-102673784D02*
X103560700Y-102340451D01*
X101568320Y-104844260D02*
X101520700Y-104701403D01*
X101520700Y-104701403D02*
X101520700Y-104463308D01*
X101520700Y-104463308D02*
X101568320Y-104368070D01*
X101568320Y-104368070D02*
X101615939Y-104320451D01*
X101615939Y-104320451D02*
X101711177Y-104272832D01*
X101711177Y-104272832D02*
X101806415Y-104272832D01*
X101806415Y-104272832D02*
X101901653Y-104320451D01*
X101901653Y-104320451D02*
X101949272Y-104368070D01*
X101949272Y-104368070D02*
X101996891Y-104463308D01*
X101996891Y-104463308D02*
X102044510Y-104653784D01*
X102044510Y-104653784D02*
X102092129Y-104749022D01*
X102092129Y-104749022D02*
X102139748Y-104796641D01*
X102139748Y-104796641D02*
X102234986Y-104844260D01*
X102234986Y-104844260D02*
X102330224Y-104844260D01*
X102330224Y-104844260D02*
X102425462Y-104796641D01*
X102425462Y-104796641D02*
X102473081Y-104749022D01*
X102473081Y-104749022D02*
X102520700Y-104653784D01*
X102520700Y-104653784D02*
X102520700Y-104415689D01*
X102520700Y-104415689D02*
X102473081Y-104272832D01*
X101615939Y-103272832D02*
X101568320Y-103320451D01*
X101568320Y-103320451D02*
X101520700Y-103463308D01*
X101520700Y-103463308D02*
X101520700Y-103558546D01*
X101520700Y-103558546D02*
X101568320Y-103701403D01*
X101568320Y-103701403D02*
X101663558Y-103796641D01*
X101663558Y-103796641D02*
X101758796Y-103844260D01*
X101758796Y-103844260D02*
X101949272Y-103891879D01*
X101949272Y-103891879D02*
X102092129Y-103891879D01*
X102092129Y-103891879D02*
X102282605Y-103844260D01*
X102282605Y-103844260D02*
X102377843Y-103796641D01*
X102377843Y-103796641D02*
X102473081Y-103701403D01*
X102473081Y-103701403D02*
X102520700Y-103558546D01*
X102520700Y-103558546D02*
X102520700Y-103463308D01*
X102520700Y-103463308D02*
X102473081Y-103320451D01*
X102473081Y-103320451D02*
X102425462Y-103272832D01*
X101520700Y-102368070D02*
X101520700Y-102844260D01*
X101520700Y-102844260D02*
X102520700Y-102844260D01*
X98643081Y-106205608D02*
X98690700Y-106300846D01*
X98690700Y-106300846D02*
X98690700Y-106443703D01*
X98690700Y-106443703D02*
X98643081Y-106586560D01*
X98643081Y-106586560D02*
X98547843Y-106681798D01*
X98547843Y-106681798D02*
X98452605Y-106729417D01*
X98452605Y-106729417D02*
X98262129Y-106777036D01*
X98262129Y-106777036D02*
X98119272Y-106777036D01*
X98119272Y-106777036D02*
X97928796Y-106729417D01*
X97928796Y-106729417D02*
X97833558Y-106681798D01*
X97833558Y-106681798D02*
X97738320Y-106586560D01*
X97738320Y-106586560D02*
X97690700Y-106443703D01*
X97690700Y-106443703D02*
X97690700Y-106348465D01*
X97690700Y-106348465D02*
X97738320Y-106205608D01*
X97738320Y-106205608D02*
X97785939Y-106157989D01*
X97785939Y-106157989D02*
X98119272Y-106157989D01*
X98119272Y-106157989D02*
X98119272Y-106348465D01*
X98357367Y-105729417D02*
X97690700Y-105729417D01*
X98262129Y-105729417D02*
X98309748Y-105681798D01*
X98309748Y-105681798D02*
X98357367Y-105586560D01*
X98357367Y-105586560D02*
X98357367Y-105443703D01*
X98357367Y-105443703D02*
X98309748Y-105348465D01*
X98309748Y-105348465D02*
X98214510Y-105300846D01*
X98214510Y-105300846D02*
X97690700Y-105300846D01*
X97690700Y-104396084D02*
X98690700Y-104396084D01*
X97738320Y-104396084D02*
X97690700Y-104491322D01*
X97690700Y-104491322D02*
X97690700Y-104681798D01*
X97690700Y-104681798D02*
X97738320Y-104777036D01*
X97738320Y-104777036D02*
X97785939Y-104824655D01*
X97785939Y-104824655D02*
X97881177Y-104872274D01*
X97881177Y-104872274D02*
X98166891Y-104872274D01*
X98166891Y-104872274D02*
X98262129Y-104824655D01*
X98262129Y-104824655D02*
X98309748Y-104777036D01*
X98309748Y-104777036D02*
X98357367Y-104681798D01*
X98357367Y-104681798D02*
X98357367Y-104491322D01*
X98357367Y-104491322D02*
X98309748Y-104396084D01*
X108390700Y-106932274D02*
X107390700Y-106598941D01*
X107390700Y-106598941D02*
X108390700Y-106265608D01*
X107438320Y-105503703D02*
X107390700Y-105598941D01*
X107390700Y-105598941D02*
X107390700Y-105789417D01*
X107390700Y-105789417D02*
X107438320Y-105884655D01*
X107438320Y-105884655D02*
X107485939Y-105932274D01*
X107485939Y-105932274D02*
X107581177Y-105979893D01*
X107581177Y-105979893D02*
X107866891Y-105979893D01*
X107866891Y-105979893D02*
X107962129Y-105932274D01*
X107962129Y-105932274D02*
X108009748Y-105884655D01*
X108009748Y-105884655D02*
X108057367Y-105789417D01*
X108057367Y-105789417D02*
X108057367Y-105598941D01*
X108057367Y-105598941D02*
X108009748Y-105503703D01*
X107438320Y-104646560D02*
X107390700Y-104741798D01*
X107390700Y-104741798D02*
X107390700Y-104932274D01*
X107390700Y-104932274D02*
X107438320Y-105027512D01*
X107438320Y-105027512D02*
X107485939Y-105075131D01*
X107485939Y-105075131D02*
X107581177Y-105122750D01*
X107581177Y-105122750D02*
X107866891Y-105122750D01*
X107866891Y-105122750D02*
X107962129Y-105075131D01*
X107962129Y-105075131D02*
X108009748Y-105027512D01*
X108009748Y-105027512D02*
X108057367Y-104932274D01*
X108057367Y-104932274D02*
X108057367Y-104741798D01*
X108057367Y-104741798D02*
X108009748Y-104646560D01*
D11*
%TO.C,RS1*%
X93977064Y-96310000D02*
X92522936Y-96310000D01*
X93977064Y-94490000D02*
X92522936Y-94490000D01*
%TO.C,CMAG1*%
X97830000Y-91000580D02*
X97830000Y-90719420D01*
X98850000Y-91000580D02*
X98850000Y-90719420D01*
%TO.C,CINA1*%
X89640000Y-84135580D02*
X89640000Y-83854420D01*
X90660000Y-84135580D02*
X90660000Y-83854420D01*
%TO.C,RS2*%
X93977064Y-88310000D02*
X92522936Y-88310000D01*
X93977064Y-86490000D02*
X92522936Y-86490000D01*
%TO.C,C2*%
X106680000Y-100324420D02*
X106680000Y-100605580D01*
X105660000Y-100324420D02*
X105660000Y-100605580D01*
%TO.C,C3*%
X108570580Y-104032776D02*
X108289420Y-104032776D01*
X108570580Y-103012776D02*
X108289420Y-103012776D01*
%TO.C,M2*%
X87780000Y-90200000D02*
X87780000Y-92600000D01*
X87780000Y-92600000D02*
X90180000Y-92600000D01*
X90180000Y-90200000D02*
X87780000Y-90200000D01*
X90180000Y-92600000D02*
X90180000Y-90200000D01*
%TO.C,M1*%
X87780000Y-96600000D02*
X90180000Y-96600000D01*
X90180000Y-96600000D02*
X90180000Y-94200000D01*
X87780000Y-94200000D02*
X87780000Y-96600000D01*
X90180000Y-94200000D02*
X87780000Y-94200000D01*
%TO.C,RBOOT1*%
X111282742Y-94662500D02*
X111757258Y-94662500D01*
X111282742Y-93617500D02*
X111757258Y-93617500D01*
%TO.C,CVCP1*%
X108208781Y-90844030D02*
X108009970Y-90645219D01*
X108930030Y-90122781D02*
X108731219Y-89923970D01*
%TO.C,U3*%
X93250000Y-85730000D02*
X94050000Y-85730000D01*
X93250000Y-85730000D02*
X92450000Y-85730000D01*
X93250000Y-82610000D02*
X95050000Y-82610000D01*
X93250000Y-82610000D02*
X92450000Y-82610000D01*
%TO.C,AS5048A1*%
X102980000Y-94010000D02*
X105180000Y-94010000D01*
X102980000Y-94010000D02*
X100780000Y-94010000D01*
X102980000Y-88790000D02*
X106580000Y-88790000D01*
X102980000Y-88790000D02*
X100780000Y-88790000D01*
%TO.C,REN1*%
X112821697Y-79722770D02*
X113157230Y-80058303D01*
X112082770Y-80461697D02*
X112418303Y-80797230D01*
%TO.C,CDRV1*%
X98380000Y-83767500D02*
X98380000Y-75707500D01*
X102900000Y-83767500D02*
X98380000Y-83767500D01*
X102900000Y-75707500D02*
X102900000Y-83767500D01*
%TO.C,CINA2*%
X89640000Y-99285580D02*
X89640000Y-99004420D01*
X90660000Y-99285580D02*
X90660000Y-99004420D01*
%TO.C,U2*%
X93480000Y-97760000D02*
X92680000Y-97760000D01*
X93480000Y-97760000D02*
X95280000Y-97760000D01*
X93480000Y-100880000D02*
X92680000Y-100880000D01*
X93480000Y-100880000D02*
X94280000Y-100880000D01*
%TO.C,CCP1*%
X111109970Y-91078781D02*
X111308781Y-90879970D01*
X111831219Y-91800030D02*
X112030030Y-91601219D01*
%TO.C,SW1*%
X116515000Y-96140000D02*
X115725000Y-96140000D01*
X114675000Y-94090000D02*
X114675000Y-94290000D01*
X118815000Y-92590000D02*
X117525000Y-92590000D01*
X118815000Y-92590000D02*
X119025000Y-92390000D01*
X119025000Y-91490000D02*
X119025000Y-92390000D01*
X117525000Y-91290000D02*
X118815000Y-91290000D01*
X118815000Y-91290000D02*
X119025000Y-91490000D01*
X114675000Y-91090000D02*
X114675000Y-92790000D01*
X117525000Y-89840000D02*
X117525000Y-95540000D01*
X115725000Y-89240000D02*
X116515000Y-89240000D01*
D12*
%TO.C,IC1*%
X110625495Y-90292730D02*
X111668478Y-89249747D01*
D11*
%TO.C,M3*%
X87780000Y-88600000D02*
X90180000Y-88600000D01*
X90180000Y-88600000D02*
X90180000Y-86200000D01*
X87780000Y-86200000D02*
X87780000Y-88600000D01*
X90180000Y-86200000D02*
X87780000Y-86200000D01*
%TO.C,U1*%
X107380000Y-102300276D02*
X107380000Y-100300276D01*
X109600000Y-101300276D02*
X109600000Y-100300276D01*
%TD*%
D13*
X110010000Y-77305000D03*
X106920500Y-80650000D03*
X95870000Y-98370000D03*
X89075000Y-98370000D03*
X114840000Y-102540000D03*
X113810000Y-96410000D03*
X114840000Y-100990000D03*
X113190000Y-103810000D03*
X89000000Y-84770000D03*
X95880000Y-99560000D03*
X102370005Y-78739992D03*
X102409996Y-80649998D03*
X108695000Y-84690000D03*
D14*
X109830000Y-84300000D03*
D13*
X115420000Y-94940000D03*
X115520000Y-87660000D03*
X93220000Y-84170000D03*
X90150000Y-101020000D03*
X98340000Y-89124500D03*
D14*
X106360000Y-103230000D03*
X100640000Y-76245000D03*
X99960000Y-107080000D03*
D13*
X95670000Y-103810000D03*
D14*
X99970000Y-106027247D03*
D13*
X98340000Y-92563650D03*
X89000000Y-83220000D03*
D14*
X109205000Y-104840000D03*
D13*
X115410000Y-90440000D03*
X104580000Y-91400000D03*
D14*
X104740000Y-99690000D03*
X100640000Y-82470000D03*
X107540000Y-91630000D03*
X105970000Y-107060000D03*
X105980000Y-106030000D03*
D13*
X112750000Y-78980000D03*
X93000000Y-87300000D03*
X109350000Y-94140000D03*
X110100000Y-97460000D03*
X110100000Y-96190000D03*
X95630000Y-83220000D03*
X115420000Y-83770000D03*
X114525603Y-82814897D03*
X113590000Y-81890000D03*
X103540000Y-89290000D03*
X95540000Y-91110000D03*
X103528736Y-90100000D03*
X95590000Y-93650000D03*
X103530000Y-90940000D03*
X97300000Y-94920000D03*
X103980000Y-106550000D03*
X111001653Y-79097492D03*
X101980000Y-106550000D03*
D15*
X105880000Y-97170000D03*
X105880000Y-95770000D03*
X105180000Y-97870000D03*
X105180000Y-96470000D03*
X105180000Y-95070000D03*
X104480000Y-97170000D03*
X104480000Y-95770000D03*
X103780000Y-97870000D03*
X103780000Y-96470000D03*
X103780000Y-95070000D03*
X103080000Y-97170000D03*
X103080000Y-95770000D03*
D14*
X96230000Y-77525000D03*
X96230000Y-80065000D03*
X116125000Y-94190000D03*
X116125000Y-91190000D03*
D15*
X107940000Y-101300276D03*
X109040000Y-101300276D03*
M02*
